<!-- Generator: Adobe Illustrator 19.1.0, SVG Export Plug-In  -->
<svg version="1.1"
	 xmlns="http://www.w3.org/2000/svg" xmlns:xlink="http://www.w3.org/1999/xlink" xmlns:a="http://ns.adobe.com/AdobeSVGViewerExtensions/3.0/"
	 x="0px" y="0px" width="45.3px" height="74.3px" viewBox="0 0 45.3 74.3" enable-background="new 0 0 45.3 74.3"
	 xml:space="preserve">
<defs>
</defs>
<g>
	<path fill="#AF882E" d="M45.3,22.7C45.3,10.1,35.2,0,22.7,0S0,10.1,0,22.7s22.7,51.7,22.7,51.7S45.3,35.2,45.3,22.7z"/>
	<circle fill="#F8F4E9" cx="22.8" cy="23" r="17.5"/>
	<path d="M19.7,16.8c0-0.6,0.6-1.2,2.5-1.2c2.9,0,4.1,0.9,4.1,2.7c0,2.1-1.7,2.8-5.3,2.8h-1.3V16.8z M15.7,29.1c0,1.4-0.4,2-1.4,2.8
		h7.2c-1.1-0.7-1.8-1.7-1.8-3.1v-5h1.7c3.4,0,4.2,0.8,4.5,4.2c0.3,3.1,0.5,3.9,1.8,3.9h4c-1.2-0.9-1.6-2-1.8-3.7
		c-0.4-4.4-1.5-5.1-3.3-5.8c2.5-0.6,3.7-2.2,3.7-4.6c0-2.2-1.5-4.9-7.2-4.9c-1.6,0-5.2,0.2-6.2,0.2c-1.2,0-1.9,0-2.8-0.2
		c1.2,0.8,1.6,1.8,1.6,3.1V29.1z"/>
</g>
</svg>
