<!-- Generator: Adobe Illustrator 18.1.1, SVG Export Plug-In  -->
<svg version="1.1"
	 xmlns="http://www.w3.org/2000/svg" xmlns:xlink="http://www.w3.org/1999/xlink" xmlns:a="http://ns.adobe.com/AdobeSVGViewerExtensions/3.0/"
	 x="0px" y="0px" width="29.14px" height="44.09px" viewBox="0 0 29.14 44.09" enable-background="new 0 0 29.14 44.09"
	 xml:space="preserve">
<defs>
</defs>
<g>
	<path d="M23.02,28.24c0.37,0,0.69-0.24,0.81-0.59l1.35-4.27l3.55-2.64c0.29-0.22,0.41-0.6,0.3-0.95l-1.36-4.27
		l1.35-4.27c0.11-0.35-0.01-0.73-0.3-0.95l-3.55-2.64l-1.35-4.27c-0.11-0.35-0.44-0.59-0.81-0.59h-4.38l-3.54-2.63
		c-0.3-0.22-0.7-0.22-1,0L10.54,2.8H6.17c-0.37,0-0.69,0.24-0.81,0.59L4.01,7.66L0.46,10.3c-0.29,0.22-0.41,0.6-0.3,0.95l1.36,4.27
		l-1.36,4.27c-0.11,0.35,0.01,0.73,0.3,0.95l3.55,2.64l1.35,4.27C5.48,28,5.8,28.24,6.17,28.24h4.37l3.55,2.63
		c0.15,0.11,0.33,0.17,0.5,0.17c0.18,0,0.35-0.06,0.5-0.17l3.54-2.63L23.02,28.24L23.02,28.24z M17.86,26.7l-3.27,2.43l-3.27-2.43
		c-0.15-0.11-0.32-0.17-0.5-0.17H6.78l-1.25-3.94c-0.05-0.17-0.16-0.32-0.3-0.43l-3.28-2.44l1.26-3.95c0.05-0.17,0.05-0.35,0-0.52
		l-1.26-3.95l3.28-2.44c0.14-0.11,0.25-0.26,0.3-0.43L6.79,4.5h4.03c0.18,0,0.36-0.06,0.5-0.17l3.27-2.43l3.27,2.43
		c0.15,0.11,0.32,0.17,0.5,0.17h4.04l1.25,3.94c0.05,0.17,0.16,0.32,0.3,0.43l3.28,2.44l-1.25,3.95c-0.05,0.17-0.05,0.35,0,0.52
		l1.25,3.95l-3.28,2.44c-0.14,0.11-0.25,0.26-0.3,0.43l-1.25,3.94h-4.04C18.18,26.53,18.01,26.59,17.86,26.7z"/>
	<path d="M11.37,31.98c-0.32-0.12-0.67,0.04-0.8,0.36l-3.52,9.3l-1.19-3.56c-0.06-0.18-0.2-0.32-0.37-0.39
		c-0.18-0.07-0.37-0.04-0.53,0.05L1.78,39.7l3.1-8.79c0.11-0.32-0.05-0.68-0.37-0.79c-0.32-0.11-0.67,0.05-0.79,0.38L0.03,40.95
		c-0.09,0.25-0.01,0.52,0.19,0.69c0.2,0.17,0.49,0.18,0.71,0.05l4-2.48l1.49,4.46c0.08,0.25,0.31,0.42,0.57,0.42c0,0,0.01,0,0.01,0
		c0.26,0,0.48-0.16,0.58-0.4l4.13-10.91C11.85,32.46,11.69,32.1,11.37,31.98z"/>
	<path d="M29.11,40.95L25.42,30.5c-0.11-0.32-0.47-0.49-0.79-0.38c-0.32,0.11-0.49,0.47-0.37,0.79l3.1,8.79
		l-3.17-1.97c-0.16-0.1-0.35-0.12-0.53-0.05c-0.18,0.06-0.31,0.21-0.37,0.39l-1.19,3.56l-3.61-9.52c-0.12-0.32-0.48-0.48-0.8-0.36
		c-0.32,0.12-0.48,0.48-0.36,0.8l4.22,11.13c0.09,0.24,0.32,0.4,0.58,0.4c0,0,0.01,0,0.01,0c0.26-0.01,0.49-0.17,0.57-0.42
		l1.49-4.46l4,2.48c0.22,0.14,0.51,0.12,0.71-0.05C29.12,41.47,29.19,41.19,29.11,40.95z"/>
</g>
</svg>
