<!-- Generator: Adobe Illustrator 19.1.0, SVG Export Plug-In  -->
<svg version="1.1"
	 xmlns="http://www.w3.org/2000/svg" xmlns:xlink="http://www.w3.org/1999/xlink" xmlns:a="http://ns.adobe.com/AdobeSVGViewerExtensions/3.0/"
	 x="0px" y="0px" width="18.3px" height="35.7px" viewBox="0 0 18.3 35.7" enable-background="new 0 0 18.3 35.7"
	 xml:space="preserve">
<defs>
</defs>
<g>
	<g>
		<path d="M0.6,35.5c0,0,0-0.1,0-0.1C0.6,35.4,0.6,35.5,0.6,35.5L0.6,35.5z M16.3,17.5c0,0.3,0,0.5,0,0.7c0,0.2,0,0.5,0,0.8
			c0,0.1-0.1,0.2,0,0.3c0,0,0,0,0,0c0,0-0.2,0.1-0.2,0.3c0,0-0.1,0.1-0.1,0.2c0,0-0.1,0.1-0.1,0.2c0,0,0,0.1,0,0.1
			c0,0.1,0,0.2,0,0.3c-0.1,0.1-0.1,0.2-0.1,0.4c0,0,0,0,0,0.1c0,0,0,0.1,0,0.1c0,0.2,0,0.3,0,0.5c0,0.3,0,0.6,0.1,0.9c0,0,0,0,0,0
			c-0.1,0-0.1,0-0.2,0.1c0,0.1-0.1,0.1-0.1,0.2c0,0,0,0,0,0.1c0,0.1-0.1,0.1-0.1,0.2c0,0,0,0,0,0.1c0,0.3,0,0.6,0,0.8
			c0,0.1,0,0.3,0,0.4c-0.1,0-0.1,0.1-0.1,0.2c-0.1,0.1-0.2,0.2-0.2,0.4c0,0.1,0,0.2,0,0.3l0,0c0,0,0,0,0,0c-0.1,0.1-0.1,0.3-0.1,0.4
			c0,0.1-0.1,0.1-0.1,0.2c-0.1,0.1-0.1,0.2-0.1,0.4c0,0,0,0.1,0,0.1c0,0,0,0-0.1,0.1c-0.1,0-0.1,0.1-0.1,0.1
			c-0.1,0.1-0.1,0.2-0.2,0.2c0,0,0,0.1,0,0.1c-0.1,0-0.2,0.1-0.2,0.2c0,0.1,0,0.1-0.1,0.2c0,0,0,0.1-0.1,0.2c0,0-0.1,0.1-0.1,0.1
			c-0.1,0-0.1,0.1-0.2,0.1c0,0-0.1,0.1-0.1,0.1c0,0.1-0.1,0.2-0.2,0.3c0,0-0.1,0.1-0.1,0.2c0,0,0,0,0,0c0,0,0,0.1,0,0.2
			c0,0-0.1,0.1-0.1,0.2c-0.1,0.1-0.1,0.1-0.2,0.2c-0.1,0-0.2,0.1-0.3,0.2c-0.1,0-0.2,0.1-0.2,0.2c-0.1,0.1-0.1,0.2-0.2,0.4
			c-0.1,0.1-0.2,0.3-0.3,0.5c-0.1,0-0.2,0.1-0.3,0.2c-0.1,0-0.1,0-0.1,0c-0.1,0-0.1,0-0.2,0.1c0,0-0.1,0.1-0.1,0.1
			c0,0-0.1,0.1-0.1,0.1c-0.1,0-0.2,0.1-0.2,0.2c0,0,0,0,0,0c0,0,0,0,0,0C11.1,30.8,11,30.9,11,31c-0.1,0.1-0.2,0.1-0.2,0.2
			c-0.1,0-0.2,0.1-0.3,0.2c0,0,0,0-0.1,0c-0.1,0-0.1,0-0.2,0.1c0,0,0,0.1-0.1,0.1c0,0,0,0,0,0c-0.1,0-0.2,0.1-0.3,0.1
			c-0.1,0-0.1,0-0.2,0.1c0,0,0,0,0,0c-0.1,0-0.1,0.1-0.2,0.1c0,0,0,0,0,0c0,0,0,0,0,0C9.3,32,9.1,32,9,32.1c-0.1,0-0.1,0.1-0.1,0.1
			c-0.1,0-0.1,0-0.1,0.1c-0.2,0-0.3,0.1-0.4,0.1c-0.1,0-0.2,0.1-0.3,0.1c-0.1,0-0.2,0.1-0.2,0.1c-0.1,0-0.1,0-0.1,0.1c0,0,0,0,0,0
			c0,0-0.1,0-0.1,0c-0.1,0-0.3,0.1-0.3,0.1c-0.1,0-0.1,0-0.2,0.1c0,0-0.1,0-0.1,0C7,32.9,6.9,32.9,6.8,33c-0.1,0.1-0.2,0.1-0.3,0.2
			c-0.1,0-0.1,0-0.2,0c-0.1,0-0.3-0.1-0.4,0c0,0,0,0,0,0c-0.1,0-0.1,0.1-0.1,0.1c-0.1,0-0.2,0.1-0.3,0.2c0,0,0,0,0,0
			c-0.1,0-0.3-0.1-0.4,0c0,0-0.1,0-0.1,0.1l-0.2,0c-0.1,0-0.2,0-0.2,0c-0.1,0-0.1,0-0.2,0c-0.1,0-0.2,0.1-0.2,0.1c0,0,0,0,0,0l0,0
			c0,0-0.1,0-0.1,0c-0.1,0-0.1,0-0.2,0c-0.1,0-0.2,0-0.3,0c-0.1,0-0.2,0.1-0.2,0.1c0,0-0.1,0-0.1,0c-0.1,0-0.3,0-0.4,0l-0.7,0.1
			c0,0,0-0.1,0-0.1c0,0,0.1-0.1,0.1-0.1c0,0,0,0,0,0c0.1-0.1,0.2-0.2,0.1-0.4c0-0.1-0.1-0.1-0.2-0.1c0,0,0-0.1,0.1-0.1c0,0,0,0,0,0
			c0.1,0,0.1-0.1,0.1-0.1c0-0.1,0-0.2,0-0.3c0-0.1,0-0.1,0-0.2c0-0.1-0.1-0.1-0.2-0.1c0-0.1,0-0.1,0.1-0.2c0,0,0,0,0-0.1
			c0.1,0,0.1-0.1,0.1-0.2c0,0,0,0,0-0.1c0,0,0-0.1,0.1-0.1c0-0.1,0-0.2,0-0.2c0,0,0,0,0-0.1c0-0.1,0-0.1-0.1-0.2c0,0,0,0,0-0.1
			c0-0.1,0-0.1,0-0.2c0.1-0.1,0.1-0.1,0.1-0.2c0-0.1,0-0.1,0-0.2c0,0,0,0,0-0.1c0-0.1,0-0.1,0-0.2c0,0,0,0,0,0c0-0.1,0-0.1-0.1-0.2
			c0,0,0-0.1,0-0.1c0,0,0-0.1-0.1-0.1c0-0.1,0-0.1,0-0.2c0,0,0-0.1,0-0.2c0,0,0-0.1,0-0.1c0,0,0,0,0-0.1c0,0,0,0,0,0
			c0.1,0,0.1,0,0.2-0.1c0.1-0.1,0.1-0.2,0.1-0.2c0-0.1,0-0.1-0.1-0.1c0,0,0-0.1,0-0.1c0,0,0,0,0,0c0,0,0-0.1,0-0.1c0,0,0,0,0,0
			c0.1-0.2,0.1-0.3,0.1-0.4c0.1-0.1,0.1-0.2,0-0.3l0-0.1c0,0,0,0,0,0c0,0,0,0,0,0c0,0,0,0,0-0.1c0-0.1,0.1-0.2-0.1-0.4
			c0,0,0-0.1,0-0.1c0.1,0,0.1-0.1,0.1-0.2c0-0.1,0-0.1-0.1-0.2c0,0,0,0,0,0c0,0,0,0,0,0c0-0.1,0-0.1,0-0.2c0,0,0-0.1,0-0.1
			c0.1,0,0.1-0.1,0.1-0.2c0,0,0,0,0,0c0.1,0,0.1-0.1,0.1-0.2c0,0,0-0.1,0-0.1c0,0,0-0.1,0-0.1c0,0,0,0,0-0.1c0-0.1,0-0.1,0-0.2
			c0,0,0-0.1-0.1-0.1c0,0,0,0,0,0c0,0,0,0,0,0l0,0c0-0.1,0-0.1,0-0.1c0-0.1-0.1-0.1-0.2-0.1c0,0,0,0,0-0.1c0,0,0,0,0,0c0,0,0,0,0,0
			c0.1,0,0.1,0,0.2-0.1c0-0.1,0.1-0.1,0.1-0.2c0.1-0.2,0.1-0.3,0-0.4c0,0,0,0,0,0c0-0.1-0.1-0.3-0.1-0.3c0,0,0-0.1,0-0.1
			c0,0,0-0.1,0-0.1c0,0,0,0,0,0c0.1-0.1,0.2-0.2,0.1-0.3c0-0.1-0.1-0.1-0.1-0.1c0-0.1,0-0.2,0-0.2c0,0,0-0.1,0-0.1
			c0,0,0-0.2-0.1-0.3l0,0c0-0.1,0-0.1,0-0.2c0,0-0.1-0.1-0.1-0.1c0,0,0,0,0,0c0,0,0-0.1,0-0.1c0.1,0,0.2-0.1,0.2-0.2
			c0.1-0.1,0-0.2,0-0.3c0,0-0.1-0.1-0.1-0.1c0,0,0-0.1,0-0.1c0,0,0-0.1,0-0.1c0-0.1,0-0.1,0-0.2c0,0,0,0,0.1-0.1
			c0.1-0.1,0.1-0.2,0-0.3c0.1-0.1,0.1-0.2,0-0.5c0,0,0,0,0,0c0-0.1,0-0.2-0.1-0.3c0,0,0,0,0,0c0,0,0,0,0,0c0,0,0-0.1,0-0.1
			c0.1,0,0.1-0.1,0.1-0.1c0,0,0-0.1,0-0.1c0,0,0-0.1,0-0.1c0,0,0-0.1,0-0.1c0-0.1-0.1-0.1-0.1-0.2c0-0.1,0.1-0.1,0.1-0.2
			c0,0,0-0.1,0-0.1c0,0,0-0.1,0-0.1c0-0.1,0-0.3-0.2-0.5c0-0.1,0.1-0.2,0.1-0.3c0,0,0,0,0-0.1c0.1,0,0.1-0.1,0.1-0.1
			c0-0.1,0-0.2,0-0.2c0-0.1,0-0.1,0-0.3c0-0.1,0.1-0.3,0.1-0.4c0,0,0-0.1,0-0.1c0,0,0-0.1,0-0.1c0.1,0,0.1-0.1,0.2-0.1
			c0.1-0.1,0.1-0.2,0-0.3c0,0,0-0.1-0.1-0.1c0,0,0-0.1,0-0.1v0c0,0,0-0.1,0-0.1c0,0,0,0,0,0c0-0.1,0-0.2-0.1-0.3c0,0,0,0,0,0
			c0-0.2,0-0.4-0.1-0.5c0,0,0-0.1,0-0.1c0.1,0,0.1-0.1,0.1-0.2c0,0,0,0,0-0.1c0,0,0,0,0,0c0,0,0-0.1,0-0.1c0.1-0.3,0-0.4-0.1-0.6
			c0.1-0.1,0.1-0.1,0.2-0.2c0.1,0,0.1-0.1,0.1-0.2c0-0.3-0.1-0.5-0.2-0.7c0,0,0-0.1-0.1-0.1c0.1-0.2,0.1-0.4,0.1-0.5
			c0-0.1,0-0.2,0-0.3c0-0.1,0-0.2,0-0.3c0-0.1,0.1-0.2,0.1-0.3c0,0,0,0,0,0c0,0,0-0.1,0-0.1c0,0,0-0.1,0-0.1l0-0.1c0,0,0,0,0-0.1
			c0-0.1,0-0.2,0-0.2c0,0,0-0.1,0-0.1c0.1,0,0.1-0.1,0.1-0.2c0-0.1,0-0.1,0-0.1c0,0,0,0,0-0.1c0-0.1,0-0.2,0-0.3
			c0,0,0.1-0.1,0.1-0.2c0-0.2-0.1-0.3-0.2-0.3v0c0,0,0-0.1,0-0.2c0-0.1,0.1-0.2,0-0.4c0,0,0,0,0-0.1c0,0,0,0,0,0
			c0-0.1,0.1-0.3-0.1-0.5c0,0,0,0,0,0c0,0,0,0,0-0.1c0,0,0-0.1,0-0.1C2.4,8.1,2.4,8,2.3,8l0,0c0,0,0,0,0-0.1c0,0,0,0,0-0.1
			c0-0.1,0-0.2-0.1-0.3c0,0,0.1-0.1,0.1-0.2c0,0,0-0.1,0-0.1c0,0,0,0,0.1,0c0.1,0,0.3-0.1,0.3-0.3c0-0.1,0-0.2-0.1-0.2l0,0
			c0,0,0,0-0.1-0.1c0,0,0-0.1,0-0.1c0.1-0.1,0.1-0.2,0.1-0.3c0-0.1,0-0.2-0.1-0.2c0,0,0,0,0,0c0-0.1,0-0.1,0-0.2c0,0,0-0.1,0-0.1
			c0-0.1,0-0.2-0.1-0.3c0,0,0,0,0-0.1c0-0.1,0-0.1,0-0.2c0,0,0,0,0,0c0,0,0,0,0-0.1c0.3-0.3,0-0.6-0.1-0.8c0,0-0.1-0.1-0.1-0.2
			c0,0,0,0,0,0c0,0,0,0,0,0c0.1-0.1,0.1-0.2,0-0.3c0-0.2,0-0.4,0-0.5c0-0.2-0.1-0.4,0.1-0.6c0,0,0,0,0,0c0-0.1,0.1-0.2,0-0.3
			c0,0,0,0,0,0c0-0.1,0-0.1,0-0.2c0.1,0,0.1,0,0.2,0c0.1,0,0.1,0,0.2,0c0,0,0.1,0,0.1,0c0,0,0,0,0,0C2.8,2.4,2.9,2.4,3,2.4
			c0.1,0,0.1,0,0.2,0c0,0,0,0,0,0c0,0,0.1,0.1,0.2,0.1c0,0,0.1,0,0.1,0c0,0,0.1,0,0.1,0C3.7,2.6,3.9,2.7,4,2.6
			c0.1,0.1,0.2,0.2,0.4,0.1c0.2,0,0.5,0,0.7,0c0.1,0,0.1,0.1,0.2,0.1h0C5.4,2.9,5.5,3,5.7,2.9l0.4,0C6.1,3,6.3,3,6.4,3
			c0.1,0,0.1,0.1,0.2,0.1c0.1,0,0.1,0,0.2,0c0,0,0,0,0,0c0,0.1,0,0.1,0.1,0.1c0,0,0.1,0.1,0.1,0.1c0.1,0.1,0.2,0.1,0.3,0.1l0.1,0
			c0.1,0.2,0.3,0.3,0.4,0.3c0,0,0.1,0,0.1,0c0,0,0,0,0,0c0.1,0,0.2,0,0.3,0c0,0,0,0,0,0c0.1,0.1,0.2,0.1,0.4,0.1
			C8.8,4.1,9,4.2,9.2,4.3c0,0,0.1,0,0.1,0c0.1,0.1,0.1,0.1,0.3,0.1c0,0,0,0,0,0c0,0,0.1,0.1,0.2,0.1c0,0,0.1,0,0.1,0.1
			c0,0,0,0.1,0.1,0.1c0,0,0.1,0,0.2,0c0,0,0.1,0.1,0.2,0.1c0,0,0,0,0.1,0.1C10.4,5,10.5,5,10.5,5c0.1,0.1,0.1,0.2,0.2,0.2
			c0.1,0,0.1,0.1,0.2,0.1c0,0.1,0.1,0.2,0.3,0.2c0,0,0.1,0.1,0.1,0.1c0,0,0.1,0.1,0.1,0.1c0,0.1,0.1,0.1,0.1,0.2c0,0,0.1,0,0.1,0.1
			c0,0,0.1,0.1,0.1,0.1c0.1,0.1,0.1,0.1,0.2,0.2c0,0.1,0.1,0.1,0.1,0.1c0,0,0.1,0.1,0.1,0.1c0,0.1,0.1,0.2,0.2,0.2
			c0,0,0.1,0.1,0.1,0.1c0,0,0,0,0,0c0.1,0.1,0.1,0.2,0.2,0.3c0,0.1,0.1,0.2,0.1,0.3c0,0.1,0.1,0.1,0.1,0.2c0,0.1,0,0.2,0.1,0.2
			c0,0,0.1,0.1,0.1,0.1c0,0,0.1,0.1,0.1,0.1c0,0.1,0.1,0.1,0.1,0.2c0.1,0.2,0.2,0.3,0.3,0.4c0,0.2,0.1,0.3,0.2,0.3
			c0,0.1,0.1,0.1,0.1,0.2C14,9.1,14,9.1,14,9.3c0,0.1,0.1,0.2,0.2,0.3c0.1,0,0.1,0.1,0.2,0.2c0,0.1,0.1,0.2,0.2,0.2
			c0,0.1,0.1,0.1,0.1,0.2c0,0.3,0.1,0.5,0.2,0.6c0,0.1,0.1,0.2,0.2,0.3c0,0.2,0.1,0.3,0.2,0.3c0,0.1,0,0.3,0.2,0.4l0,0.5
			c0,0,0,0,0,0c0,0.1,0.1,0.2,0.2,0.3c0,0.1,0.1,0.2,0.2,0.2c0,0.2,0,0.3,0,0.5c0,0.3,0.1,0.6,0,0.8c0,0,0,0,0,0.1
			c0,0.3,0.2,0.4,0.2,0.4c0,0,0,0,0,0c0,0,0,0,0,0c0,0,0,0,0,0.1l0.1,0.9c0,0.1,0.1,0.2,0.1,0.3l0,0.3c0,0,0,0,0,0c0,0,0,0,0,0.1
			c0,0.1,0,0.1,0.1,0.2c0,0.2,0.1,0.3,0.1,0.6c0,0,0,0.1,0,0.1c0,0,0,0,0,0c0,0,0,0,0,0C16.3,17.1,16.2,17.3,16.3,17.5 M18.2,18.3
			c0-0.3,0-0.6,0-0.9c0,0,0,0,0,0c0,0,0,0,0,0c0,0,0,0,0,0c0.1-0.1,0.2-0.2,0.1-0.5c0-0.3-0.1-0.5-0.1-0.7c0,0,0-0.1,0-0.1
			c0,0,0-0.1,0-0.1c0-0.1,0-0.1-0.1-0.1l0-0.1c0-0.1-0.1-0.2-0.1-0.3c0,0,0,0,0,0c0,0,0,0,0,0l-0.1-1c0-0.3-0.2-0.5-0.2-0.5
			c0,0,0,0,0,0c0.1-0.3,0-0.7,0-1c0-0.2,0-0.3,0-0.5c0-0.2-0.1-0.4-0.2-0.4c0-0.1-0.1-0.2-0.2-0.2c0,0,0,0,0,0L17.1,11
			c0-0.1-0.1-0.2-0.2-0.2c0,0,0-0.1,0-0.1c0,0,0-0.1,0-0.1c0-0.1-0.1-0.2-0.2-0.2c0,0,0,0,0-0.1c0-0.1-0.1-0.2-0.2-0.2c0,0,0,0,0,0
			c0,0,0-0.1,0-0.1c-0.1-0.1-0.2-0.3-0.2-0.6c0-0.1-0.1-0.2-0.2-0.3l0,0c0-0.1-0.1-0.2-0.2-0.2c0,0,0,0,0,0c0,0,0,0,0,0
			c-0.1-0.1-0.2-0.2-0.3-0.3c0-0.2-0.1-0.3-0.1-0.4c0-0.1-0.1-0.1-0.1-0.2c0-0.1-0.1-0.2-0.2-0.2c0,0,0,0,0-0.1
			c0-0.1-0.1-0.2-0.2-0.3c-0.1,0-0.2-0.1-0.2-0.2c0,0,0-0.1-0.1-0.1c0-0.1-0.1-0.2-0.2-0.3c0,0,0,0,0,0c0-0.1-0.1-0.1-0.2-0.2
			c0-0.1-0.1-0.2-0.1-0.3c0-0.1-0.1-0.1-0.1-0.2c0-0.1-0.1-0.2-0.2-0.3c0,0-0.1,0-0.1-0.1c0-0.1-0.1-0.2-0.2-0.2c0,0,0,0,0,0
			c0-0.1-0.1-0.1-0.1-0.1c0,0,0,0,0,0c0-0.1-0.1-0.2-0.2-0.2c0,0-0.1-0.1-0.1-0.1c0,0,0,0,0,0c0-0.1-0.1-0.1-0.2-0.2
			c0,0-0.1-0.1-0.1-0.1c-0.1-0.1-0.1-0.2-0.3-0.2c0-0.1-0.1-0.2-0.2-0.2c0,0-0.1-0.1-0.1-0.1c0,0,0,0,0,0c0,0,0-0.1-0.1-0.1
			C12.4,4,12.4,4,12.3,4c0-0.1-0.1-0.2-0.2-0.2c0,0-0.1-0.1-0.2-0.1c0,0-0.1,0-0.1-0.1c0-0.1-0.1-0.2-0.2-0.2c0,0-0.1-0.1-0.1-0.1
			c0,0,0,0,0,0c0-0.1-0.1-0.1-0.1-0.2c0,0-0.1,0-0.1,0c0,0-0.1-0.1-0.2-0.1C11,3,11,3,10.9,3c0,0,0-0.1-0.1-0.1c-0.1,0-0.1,0-0.2,0
			c-0.1-0.1-0.2-0.2-0.3-0.1c-0.1-0.1-0.2-0.2-0.3-0.1C9.9,2.5,9.7,2.4,9.6,2.2C9.6,2.1,9.5,2.1,9.4,2.1c0,0-0.1,0-0.1,0
			C9.2,2,9.1,2,9,2C8.9,2,8.8,2,8.8,2c0,0,0,0,0,0c0,0,0,0,0,0C8.5,1.9,8.5,1.9,8.4,1.8c0-0.1-0.1-0.2-0.3-0.2L8,1.6
			c0-0.1-0.1-0.1-0.2-0.1c0,0,0,0,0,0c0-0.1,0-0.1-0.1-0.1c-0.1,0-0.1-0.1-0.2,0c0,0,0,0,0,0c0,0-0.1,0-0.1-0.1
			c-0.1,0-0.2,0-0.2,0.1c0,0-0.1,0-0.1,0C6.9,1.1,6.8,1.1,6.7,1.1c0,0,0,0-0.1,0L6.1,1.1c0,0,0,0,0,0C6,1,5.9,1,5.8,1c0,0,0,0,0,0
			c0,0,0,0,0,0C5.7,0.9,5.6,0.9,5.5,0.9C5.3,1,5,1,4.7,0.9c0,0,0,0,0,0C4.6,0.9,4.5,0.8,4.4,0.8h0c0,0-0.1,0-0.1,0
			C4.2,0.7,4.1,0.7,4,0.7c0,0-0.1-0.1-0.2-0.1c0,0-0.1-0.1-0.3-0.1c-0.1,0-0.2,0-0.3,0c0,0,0,0,0,0C3.2,0.4,3.1,0.4,2.9,0.4
			c-0.1,0-0.2,0-0.3,0c-0.1,0-0.2,0-0.2,0c0,0-0.1,0-0.2,0L1.6,0.4c0,0,0,0,0,0c0,0,0,0,0,0c0,0-0.1,0-0.1-0.1c0,0,0-0.1,0-0.1
			C1.4,0.1,1.2,0,1.1,0C1,0,0.9,0.1,0.9,0.3v0.1c0,0,0,0,0,0c-0.1,0-0.4,0-0.6,0.2c0,0.1-0.1,0.1-0.1,0.2c0,0,0,0.1,0,0.1
			c0,0,0,0,0,0c0,0,0,0.1,0,0.2c0,0,0,0,0,0c0,0.1,0,0.2,0,0.2c0,0.1,0,0.1,0.1,0.2c0,0,0,0,0,0c0,0,0,0,0,0.1
			c-0.1,0-0.1,0.1-0.1,0.2c0,0.1,0,0.2,0,0.2C0.2,2,0.1,2.1,0.1,2.2c0,0.1,0,0.3,0.2,0.3c0,0,0,0,0,0c0,0,0,0.1,0,0.1
			c0,0,0,0-0.1,0.1c0,0.1-0.1,0.1-0.1,0.2c0,0.1-0.1,0.1,0,0.2c0,0.1,0,0.1,0.1,0.2c0,0,0,0.1,0,0.1l0,0C0.1,3.4,0,3.5,0,3.6
			c0,0.1,0,0.1,0.1,0.2c0,0,0,0.1,0,0.1C0.1,4,0.2,4,0.2,4.1c0,0.1,0,0.1,0.1,0.2c0,0,0,0,0,0c0,0,0,0,0,0c0,0.1-0.1,0.1-0.1,0.2
			c0,0-0.1,0.1-0.1,0.1c0,0.2,0,0.3,0,0.4c0,0,0,0,0,0c0,0.1,0,0.2,0,0.2c0,0-0.1,0.1-0.1,0.2c0,0.1,0,0.2,0.1,0.3c0,0,0,0,0,0
			c0,0.1,0,0.1,0,0.2c0,0,0,0.1,0,0.1c0,0,0,0.1,0,0.1c0,0.1,0.1,0.2,0.1,0.4c0,0,0,0,0,0c0,0,0,0,0,0C0.2,6.6,0.2,6.7,0.2,6.8
			c0.1,0.2,0,0.5-0.1,0.7c0,0.1,0,0.2,0,0.2c0,0.1,0,0.1,0,0.2c0,0,0,0,0,0c0,0,0,0,0,0C0.3,8,0.4,8.2,0.4,8.2c0,0-0.1,0.1-0.1,0.1
			c0,0.1-0.1,0.3,0.1,0.4c0,0.1,0,0.2,0,0.3c0,0.2,0,0.3-0.1,0.4C0.2,9.6,0.2,9.7,0.3,9.8c0,0,0,0.1,0.1,0.1c0,0.1,0,0.1,0,0.2
			c-0.1,0.1-0.1,0.1-0.2,0.3c0,0,0,0,0,0c0,0.1,0,0.1,0,0.2l0,0c0,0.1,0,0.1,0,0.2c0,0.1,0,0.1,0,0.2l0,0c0,0,0,0,0,0
			c0,0.1-0.1,0.2,0,0.2l0,0c0,0,0,0,0,0c0,0,0,0.1,0,0.1c0,0.1,0,0.2,0.1,0.3v0c0,0-0.1,0.1-0.1,0.2c0,0.2,0,0.3,0,0.5
			c0,0.1,0,0.2,0,0.3v0c0,0,0,0,0,0.1c0,0,0,0.1,0,0.1c0,0.1-0.1,0.2,0,0.3c0,0.2,0,0.3,0,0.4c0,0.1,0,0.1,0,0.2
			c0,0.1,0.1,0.2,0.2,0.2c0,0.1-0.1,0.3-0.1,0.4c0,0,0,0.1,0,0.1c0,0,0,0.1,0,0.1c0,0.2,0,0.3,0.1,0.5c0,0.1,0,0.1,0,0.2
			c0,0-0.1,0.2-0.1,0.2c-0.1,0.2-0.2,0.4-0.1,0.7c-0.1,0.1-0.1,0.2,0,0.3c0,0.1,0,0.1,0,0.2c0,0.1,0,0.1,0,0.2
			c-0.2,0.2-0.1,0.4-0.1,0.6c0,0.1,0,0.1,0,0.2c-0.1,0.1-0.1,0.2-0.1,0.3c0,0.1,0,0.1,0,0.2c0,0,0.1,0.1,0.1,0.1
			c0,0.2-0.1,0.5-0.1,0.8C0.1,19,0,19.2,0,19.3c0,0.1,0,0.2,0.1,0.3c0,0.1,0,0.1,0,0.2c0.1,0.1,0.1,0.3,0.1,0.5c0,0.1,0,0.2,0,0.4
			c-0.1,0.1-0.1,0.2-0.1,0.4c0,0,0,0,0,0c0,0.1,0,0.1,0,0.2c0,0.1,0,0.1,0,0.2c0,0.1,0,0.2,0.1,0.2c0,0,0,0,0,0.1c0,0,0,0,0,0
			l-0.1,0.1c-0.1,0.1-0.1,0.2,0,0.3c0,0,0,0,0,0c0,0,0,0,0,0c0,0,0,0.1-0.1,0.1c0,0.1,0,0.1,0,0.2l0,0c0,0,0,0,0,0l0,0l0,0v0l0,0
			l0,0c0,0,0,0,0,0c0,0.1,0,0.2,0.1,0.2c0,0.1,0,0.1,0,0.2c0,0,0,0-0.1,0.1c0,0.1,0,0.1,0,0.2c0,0.1,0.1,0.2,0.1,0.3
			c0,0-0.1,0-0.1,0.1c0,0.1-0.1,0.2,0,0.2c0,0.1,0.1,0.2,0.1,0.3c0,0,0,0,0,0c-0.1,0.1-0.1,0.2-0.1,0.3c0,0.1,0,0.2,0,0.3
			c0,0.1,0,0.1,0,0.2c0,0.1,0,0.1,0,0.2c0,0,0,0.1,0,0.1c0,0.1-0.1,0.1,0,0.2c0,0,0,0.1,0,0.1c0,0,0,0,0,0.1c0,0.1,0,0.2,0.1,0.3
			c0,0,0,0,0,0l0,0l0,0v0v0c0,0,0,0,0,0c0,0.1,0.1,0.3,0.1,0.3c0,0,0,0,0,0c0,0,0,0-0.1,0.1c-0.1,0-0.1,0.1-0.1,0.1
			c0,0.1-0.1,0.2,0,0.2l0.1,0.1c0,0,0,0.1,0.1,0.1c0,0,0,0,0,0l0,0.2c0,0.1,0,0.1,0.1,0.1c-0.1,0-0.1,0.1-0.1,0.2
			c0,0.1,0,0.1,0.1,0.2c0,0,0,0.1,0,0.1v0c0,0,0,0,0,0c0,0.1,0,0.2,0.1,0.3l0,0c-0.1,0-0.1,0.1-0.1,0.2c0,0,0,0.1,0,0.1
			c0,0.1,0.1,0.2,0.1,0.4c0,0.1,0.1,0.2,0.1,0.3c0,0,0,0,0,0.1c-0.1,0-0.1,0.1-0.1,0.2c0,0,0,0,0,0c0,0.2,0,0.3,0.1,0.5
			c0,0.1,0,0.2-0.1,0.3c0,0,0,0.1,0,0.1c0,0.1,0,0.2,0,0.2c-0.1,0.2,0,0.4,0.1,0.5c0,0,0,0,0,0c-0.1,0-0.1,0.1-0.1,0.2
			c0,0,0,0,0,0.1l0.1,0.2c0,0,0,0,0,0.1c0,0,0,0.1,0,0.1c0,0,0,0.1,0.1,0.1c0,0,0,0.1,0,0.1c0,0,0,0,0,0c0,0-0.1,0.1-0.1,0.2l0,0.1
			c0,0,0,0.1,0,0.1c0,0.1,0,0.2,0,0.3c0,0,0,0,0,0.1c0,0-0.1,0-0.1,0.1c0,0.1,0,0.1,0,0.2c0,0,0,0,0,0.1c-0.1,0.1-0.1,0.2,0,0.3
			c0,0.1,0.1,0.1,0.1,0.1c0,0.1-0.1,0.3,0.1,0.4c0,0,0,0,0,0.1c0,0,0,0,0,0c0,0.1-0.2,0.2-0.1,0.4c0,0,0,0,0,0c0,0.1,0,0.1,0,0.2
			c0,0,0,0,0,0c0,0,0,0.1,0,0.1c0,0,0,0.1-0.1,0.1c0,0.1,0,0.1,0,0.2c0,0.1,0,0.1,0.1,0.2c0,0,0,0,0,0c-0.1,0.1-0.1,0.2,0,0.3l0,0.1
			c0,0.1,0.1,0.1,0.1,0.1c0.1,0,0.1,0,0.2,0c0.1,0,0.2,0,0.3-0.1c0,0,0.1,0.1,0.1,0.1c0.1,0,0.1,0,0.2,0c0.1,0,0.1,0,0.2-0.1
			c0,0,0.1,0,0.2,0c0,0,0,0,0,0c0,0,0,0,0.1,0c0.1,0,0.1,0,0.2,0c0.1,0,0.1,0,0.2,0c0,0,0,0,0,0c0,0,0,0,0,0L3,35.7c0,0,0.1,0,0.1,0
			c0,0,0.1,0,0.2,0c0.2,0,0.4,0,0.5-0.1c0,0,0,0,0.1,0c0,0,0,0,0,0c0.1,0,0.2,0,0.4,0c0.2,0,0.3,0,0.4-0.1c0,0,0.1,0,0.1,0
			c0.1,0,0.2-0.1,0.3-0.1c0,0,0,0,0,0c0,0,0,0,0.1,0l0.3,0h0c0.1,0,0.2,0,0.3-0.1c0,0,0,0,0,0c0.1,0,0.1,0,0.2,0c0,0,0,0,0,0
			c0.2,0,0.3-0.1,0.4-0.2C6.4,35,6.5,35,6.5,35c0,0,0,0,0,0c0.1,0,0.1,0,0.2,0C6.8,35,7,35,7.2,35c0.2-0.1,0.4-0.2,0.5-0.3
			c0.1,0,0.1-0.1,0.2-0.1c0.1,0,0.2-0.1,0.3-0.1c0.1,0,0.2-0.1,0.3-0.1c0.1,0,0.1,0,0.2-0.1c0,0,0,0,0,0c0.1,0,0.1-0.1,0.2-0.1
			c0,0,0.1,0,0.1-0.1c0.1,0,0.2-0.1,0.3-0.1C9.4,34,9.5,34,9.6,34c0,0,0,0,0,0c0.1,0,0.2,0,0.2-0.1c0,0,0,0,0,0
			c0.1,0,0.1-0.1,0.1-0.1c0,0,0.1,0,0.1-0.1c0,0,0,0,0.1,0c0.2,0,0.3-0.1,0.4-0.1c0,0,0,0,0,0c0.1,0,0.1-0.1,0.1-0.1
			c0.1,0,0.1-0.1,0.2-0.1c0.1,0,0.1-0.1,0.1-0.1c0.1,0,0.2,0,0.2-0.1l0,0c0,0,0.1,0,0.2-0.1c0.2,0,0.2-0.1,0.3-0.2c0,0,0,0,0.1,0
			c0.1,0,0.2-0.1,0.3-0.2l0,0c0,0,0,0,0-0.1c0.1,0,0.2-0.1,0.2-0.2c0-0.1,0-0.1,0.1-0.1c0.1,0,0.2-0.1,0.2-0.2c0,0,0,0,0,0
			c0.1,0,0.3-0.1,0.3-0.3c0,0,0,0,0-0.1c0,0,0,0,0-0.1c0.1,0,0.2-0.1,0.3-0.2c0.1-0.1,0.1-0.1,0.1-0.1c0.1,0,0.3-0.1,0.3-0.2
			c0-0.2,0.2-0.3,0.3-0.5c0.1-0.1,0.2-0.2,0.3-0.4c0.1,0,0.2-0.1,0.2-0.2c0.1,0,0.2-0.1,0.3-0.2l0-0.1c0,0,0,0,0-0.1
			c0.1,0,0.1-0.1,0.2-0.1c0-0.1,0.1-0.1,0.1-0.2c0.1-0.1,0.1-0.2,0.1-0.3c0,0,0,0,0-0.1c0,0,0,0,0-0.1c0.1-0.1,0.2-0.3,0.3-0.4
			c0,0,0.1-0.1,0.1-0.1c0.1,0,0.1-0.1,0.2-0.1c0.1,0,0.1-0.1,0.1-0.2c0-0.1,0-0.1,0.1-0.2c0-0.1,0.1-0.2,0.1-0.3
			c0.1-0.1,0.1-0.1,0.1-0.2c0,0,0-0.1,0-0.1c0,0,0.1,0,0.1-0.1c0,0,0,0,0,0c0.1,0,0.1-0.1,0.1-0.1c0,0,0.1-0.1,0.1-0.1c0,0,0,0,0,0
			c0.1-0.1,0.2-0.2,0.1-0.3c0,0,0,0,0-0.1c0.1-0.1,0.1-0.2,0.1-0.3l0,0c0.1-0.1,0.1-0.2,0.1-0.3c0-0.1,0-0.1,0-0.2c0,0,0,0,0,0
			c0.1-0.1,0.1-0.3,0-0.4c0,0,0-0.1,0-0.1c0-0.1,0-0.1,0.1-0.1c0.1,0,0.1-0.1,0.1-0.1c0.2-0.1,0.2-0.3,0.2-0.4c0-0.1,0-0.3,0-0.4
			c0-0.3,0-0.6,0-1c0,0,0,0,0-0.1c0,0,0.1-0.1,0.1-0.2c0.1-0.1,0.2-0.2,0.2-0.3l0,0c0,0,0-0.1,0-0.1c-0.1-0.4-0.1-0.7-0.1-1
			c0-0.2,0-0.3,0-0.5c0-0.1,0.1-0.2,0-0.3c0,0,0,0,0,0c0.1-0.2,0.1-0.4,0.1-0.6c0-0.1,0.1-0.1,0.1-0.3c0,0,0,0,0,0
			c0,0,0.1-0.1,0.1-0.2c0,0,0,0,0,0c0.1-0.1,0.2-0.2,0.2-0.5c0-0.1,0.1-0.1,0.1-0.2C18.2,18.9,18.2,18.6,18.2,18.3"/>
	</g>
</g>
</svg>
