<!-- Generator: Adobe Illustrator 19.1.0, SVG Export Plug-In  -->
<svg version="1.1"
	 xmlns="http://www.w3.org/2000/svg" xmlns:xlink="http://www.w3.org/1999/xlink" xmlns:a="http://ns.adobe.com/AdobeSVGViewerExtensions/3.0/"
	 x="0px" y="0px" width="35.6px" height="36px" viewBox="0 0 35.6 36" enable-background="new 0 0 35.6 36" xml:space="preserve">
<defs>
</defs>
<g>
	<g>
		<path d="M33.3,17.7c0,0.3,0,0.5,0,0.7c0,0.2,0,0.5,0,0.8c0,0.1,0,0.2,0,0.3c-0.1,0.1-0.1,0.2-0.2,0.3c0,0-0.1,0.1-0.1,0.2
			c0,0.1-0.1,0.1-0.1,0.3l0,0.1l0,0.1c0,0.1,0,0.2,0,0.2C33,20.7,32.9,20.8,33,21c0,0,0,0,0,0l0,0.1l0,0.1c0,0.2,0,0.3,0,0.5
			c0,0.3,0,0.5,0,0.8l-0.3,0l0,0.4c0,0,0,0,0,0c0,0.1-0.1,0.2-0.1,0.3l0,0l0,0c0,0.3,0,0.5,0,0.8c0,0.1,0,0.2,0,0.3
			c-0.1,0-0.1,0.1-0.1,0.1c-0.1,0.1-0.2,0.2-0.2,0.4c0,0.1,0,0.2,0,0.3l0,0c-0.1,0.1-0.1,0.3-0.1,0.4c0,0.1-0.1,0.1-0.1,0.2
			C32,26,32,26.2,32,26.3c0,0,0,0,0,0c0,0,0,0-0.1,0.1c-0.1,0-0.1,0.1-0.1,0.1c-0.1,0.1-0.1,0.2-0.2,0.2c0,0,0,0,0,0l-0.2,0.1l0,0.3
			c0,0.1,0,0.1-0.1,0.2c0,0,0,0.1,0,0.1c0,0-0.1,0-0.1,0.1c-0.1,0-0.1,0.1-0.2,0.1l-0.1,0.1l0,0.1c0,0.1-0.1,0.2-0.2,0.3l-0.1,0.1
			l0,0.2c0,0,0,0.1,0,0.2c0,0,0,0.1-0.1,0.1c-0.1,0-0.1,0.1-0.2,0.2c-0.1,0-0.2,0.1-0.2,0.2l-0.2,0l-0.1,0.3c0,0.1-0.1,0.2-0.2,0.3
			c-0.1,0.1-0.2,0.3-0.3,0.4c-0.1,0-0.2,0.1-0.3,0.2c0,0,0,0,0,0l-0.4,0l0,0.3c0,0,0,0,0,0.1c-0.1,0.1-0.2,0.1-0.2,0.2
			c-0.1,0.1-0.2,0.2-0.3,0.3c-0.1,0.1-0.2,0.1-0.2,0.2c-0.1,0-0.2,0.1-0.3,0.2l-0.4,0l0,0.2c-0.1,0-0.1,0.1-0.2,0.1l-0.4,0l0,0.3
			c0,0,0,0-0.1,0.1c-0.2,0-0.4,0.1-0.4,0.2c0,0-0.1,0.1-0.1,0.1c0,0-0.1,0-0.1,0.1c-0.2,0-0.3,0.1-0.4,0.1c-0.1,0-0.1,0-0.2,0.1l0,0
			c-0.1,0-0.2,0-0.2,0.1l-0.4,0l0,0.2c-0.1,0-0.2,0.1-0.3,0.1c-0.1,0-0.1,0-0.1,0l-0.1,0l-0.1,0C24.1,32.9,24,33,23.9,33
			c-0.1,0.1-0.2,0.1-0.2,0.1c0,0-0.1,0-0.1,0c-0.1,0-0.3-0.1-0.5,0l0,0c-0.1,0-0.1,0-0.1,0.1l-0.3,0l0,0.2c-0.1,0-0.3,0-0.4,0
			l-0.2,0.1l0,0c-0.1,0-0.2,0-0.3,0c0,0-0.1,0-0.1,0c0,0-0.1,0-0.2,0c-0.1,0-0.2,0.1-0.2,0.1l-0.1,0l-0.1,0c0,0-0.1,0-0.1,0
			c-0.1,0-0.2,0-0.3,0c-0.1,0-0.2,0.1-0.3,0.1c0,0,0,0,0,0c-0.2,0-0.3,0-0.4,0l-0.6,0.1c0,0,0,0-0.1,0c-0.1,0-0.2,0-0.3,0
			c-0.1,0-0.1,0-0.2,0c0,0,0,0-0.1,0c-0.1,0-0.2-0.1-0.4-0.1h0l-0.1,0l-0.1,0c0,0,0,0,0,0c0,0,0,0-0.1,0c0,0,0,0,0,0
			c-0.1-0.1-0.2-0.1-0.3-0.1c-0.1,0-0.1,0-0.1,0l-0.2,0c0,0-0.1,0-0.1,0c-0.1-0.1-0.2-0.1-0.4-0.1l-0.1,0c0,0,0,0,0,0
			c-0.1-0.1-0.2-0.1-0.3-0.1c-0.1,0-0.2,0-0.3,0.1c-0.1,0-0.1,0-0.1,0l-0.1,0l-0.1,0c0,0-0.1-0.1-0.2-0.1c0,0-0.1,0-0.1,0
			c0,0-0.1,0-0.1,0c-0.1,0-0.2,0-0.3,0L15,33.4c-0.1,0-0.3,0-0.4,0l0-0.2l-0.3,0.1c0,0-0.1,0-0.1-0.1l0,0c-0.2,0-0.4,0-0.5,0.1
			c0,0-0.1,0-0.1,0c0,0,0,0,0,0c-0.1,0-0.1-0.1-0.2-0.1c-0.1-0.1-0.2-0.1-0.3-0.2l-0.1,0l-0.1,0c0,0-0.1,0-0.1,0
			c-0.1,0-0.2-0.1-0.3-0.1l0-0.2L12,32.8c-0.1,0-0.1-0.1-0.2-0.1l0,0l0,0c-0.1,0-0.1,0-0.2,0c-0.1,0-0.2-0.1-0.4-0.1
			c0,0-0.1,0-0.1,0c0,0-0.1,0-0.1-0.1c-0.1-0.1-0.3-0.1-0.5-0.1c0,0,0,0-0.1-0.1v-0.3L10,32.1c0,0-0.1-0.1-0.2-0.1l0-0.2l-0.4,0.1
			c-0.1,0-0.1-0.1-0.3-0.1C9,31.7,9,31.6,8.8,31.6c-0.1-0.1-0.2-0.2-0.3-0.2c0,0-0.1-0.1-0.2-0.2c0,0,0,0-0.1-0.1l0-0.3l-0.4,0.1
			c0,0,0,0,0,0c-0.1,0-0.2-0.1-0.3-0.1c-0.1-0.2-0.2-0.3-0.3-0.4C7.1,30.2,7,30.1,7,30l-0.1-0.2l-0.2,0c-0.1-0.1-0.1-0.1-0.2-0.1
			c0-0.1-0.1-0.1-0.2-0.2c0,0,0-0.1-0.1-0.1c0-0.1,0-0.1-0.1-0.2l0-0.2l-0.1-0.1c-0.1-0.1-0.2-0.1-0.2-0.2l-0.1-0.1l-0.1-0.1
			c-0.1,0-0.1-0.1-0.2-0.1c0,0-0.1,0-0.1-0.1c0,0,0-0.1-0.1-0.1c0-0.1-0.1-0.1-0.1-0.2l0-0.3l-0.2-0.1c0,0,0,0,0,0
			c0-0.1-0.1-0.1-0.2-0.2c0,0-0.1-0.1-0.2-0.1c0,0,0,0-0.1,0c0,0,0,0,0,0c0-0.2-0.1-0.3-0.2-0.4c0-0.1-0.1-0.1-0.1-0.2
			c0-0.2-0.1-0.3-0.1-0.4l0,0c0-0.1,0-0.2,0-0.3c-0.1-0.2-0.1-0.3-0.3-0.4c0,0-0.1-0.1-0.1-0.1c0-0.1,0-0.2,0-0.3
			c0-0.3-0.1-0.5-0.1-0.8l0,0l0,0c0-0.1-0.1-0.2-0.1-0.3c0,0,0,0,0,0l0-0.4l-0.3,0c0-0.3,0-0.6,0-0.8c0-0.2,0-0.3,0-0.5l0-0.1l0-0.1
			c0,0,0,0,0,0c0-0.2,0-0.3-0.1-0.4c0,0,0-0.1,0-0.2l0-0.1l0-0.1c0-0.1-0.1-0.2-0.1-0.2c0-0.1,0-0.2-0.1-0.2c0-0.2-0.1-0.3-0.2-0.3
			c0-0.1,0-0.2-0.1-0.3c0-0.3,0-0.5,0-0.8c0-0.2,0-0.5,0-0.7c0-0.3-0.1-0.4-0.1-0.5l0,0l0-0.1c0-0.2,0-0.3,0-0.5h0v-0.3l0-0.4l0,0
			c0-0.1,0.1-0.2,0-0.3v-0.9l0,0c0.1-0.1,0.2-0.2,0.2-0.5l0-0.1c-0.1-0.2-0.1-0.5,0-0.8c0-0.1,0-0.3,0-0.4c0,0,0.1-0.1,0.1-0.2
			c0.1-0.1,0.1-0.2,0.2-0.3l0-0.5c0.1-0.1,0.1-0.3,0.1-0.5C2.9,12.5,3,12.4,3,12.3C3,12.2,3.1,12.1,3.1,12c0.1-0.2,0.1-0.4,0.2-0.6
			c0-0.1,0.1-0.1,0.1-0.2c0.1-0.1,0.1-0.1,0.1-0.2c0,0,0.1-0.1,0.1-0.1l0.2-0.1l0-0.3c0-0.1,0-0.1,0-0.2c0,0,0-0.1,0.1-0.1
			C4,10,4,9.9,4.1,9.7c0.1-0.1,0.2-0.2,0.3-0.4c0,0,0.1-0.1,0.1-0.2c0,0,0,0,0,0h0.3L4.7,8.6c0-0.1,0-0.1,0-0.1
			c0-0.1,0.1-0.2,0.1-0.3C5,8.1,5,8,5.1,7.9c0,0,0,0,0.1-0.1c0.1,0,0.1-0.1,0.1-0.2l0.1,0l0.1-0.2c0,0,0.1-0.1,0.1-0.1
			c0.1-0.1,0.2-0.2,0.2-0.2c0,0,0.1-0.1,0.1-0.1l0.1,0L5.9,7c0,0,0.1-0.1,0.1-0.1l0.1,0l0-0.2c0,0,0,0,0.1-0.1
			c0.1-0.1,0.2-0.1,0.3-0.2c0.1,0,0.1-0.1,0.2-0.1c0.1,0,0.1-0.1,0.2-0.2l0.1,0l0.1-0.2c0,0,0,0,0,0C7,5.8,7,5.7,7.1,5.7l0.4,0.1
			l0-0.4c0.1,0,0.2-0.1,0.2-0.1c0.1,0,0.2-0.1,0.3-0.1l0.1,0C8.2,5,8.4,4.8,8.5,4.6c0.1,0,0.2-0.1,0.4-0.1c0.1,0,0.2,0,0.3,0l0.1,0
			c0,0,0,0,0.1,0C9.4,4.3,9.6,4.2,9.7,4l0.1,0c0,0,0.2,0,0.3-0.2h0.3l0-0.2c0,0,0,0,0.1,0l0.3,0l0-0.1l0.1,0L11,3.4h0.3
			c0.2,0,0.3,0,0.4-0.2c0.1,0,0.1,0,0.2-0.1c0.3,0,0.5,0,0.7-0.1c0.2,0,0.3,0,0.4-0.2c0.2,0,0.3-0.1,0.4-0.1c0,0,0,0,0.1,0l0,0
			l0.1,0c0.1,0,0.2-0.1,0.2-0.1c0.3,0,0.4-0.1,0.5-0.1c0,0,0,0,0,0l0.1,0l0.1,0c0,0,0.1,0,0.1,0c0.1,0,0.2,0,0.3-0.1h0.5
			c0,0,0.1,0,0.1,0c0.2,0,0.6,0,1-0.1c0.5,0,1-0.1,1.4-0.1l0,0.3l0.4,0c0.1,0.1,0.2,0.1,0.4,0.1c0.1,0,0.1,0,0.2,0l0.5,0
			c0.1,0,0.2,0,0.3,0.1c0,0,0.1,0,0.1,0l0.1,0l0.1,0c0.1,0.1,0.2,0.1,0.3,0.1c0.1,0,0.1,0,0.2,0c0.1,0,0.1,0.1,0.2,0.1l0.1,0l0,0
			c0,0,0,0,0.1,0c0.1,0.1,0.2,0.1,0.4,0.1C21.2,3,21.4,3.1,21.6,3c0.2,0,0.4,0,0.7,0c0.1,0,0.1,0,0.2,0c0.1,0.1,0.3,0.2,0.4,0.1
			l0.3,0l0.1,0.1h0.1l0,0.1l0.3,0c0,0,0,0,0.1,0l0,0.2l0.3,0c0.1,0.1,0.3,0.1,0.3,0.1l0.1,0C24.7,3.9,24.8,3.9,25,4c0,0,0,0,0.1,0
			l0.1,0c0.1,0,0.2,0,0.3,0c0.1,0.1,0.2,0.1,0.4,0.1c0.2,0.2,0.4,0.3,0.6,0.4l0.1,0c0.1,0.1,0.2,0.1,0.3,0.1c0.1,0,0.1,0.1,0.2,0.1
			l0,0.4l0.4-0.2c0,0,0.1,0.1,0.2,0.1c0,0,0,0,0,0l0.1,0.2h0.1c0.1,0.1,0.1,0.2,0.2,0.2c0.1,0,0.1,0.1,0.2,0.1
			c0.1,0.1,0.1,0.2,0.3,0.2c0,0,0,0.1,0.1,0.1l0.1,0.2l0.1,0c0,0,0.1,0.1,0.1,0.1l0,0l0.1,0c0,0,0,0,0.1,0.1
			c0.1,0.1,0.1,0.1,0.2,0.2c0,0,0.1,0.1,0.1,0.1l0.1,0.2h0.1C29.3,7,29.4,7,29.4,7c0,0,0,0,0.1,0.1c0.1,0.1,0.1,0.2,0.2,0.3
			c0,0.1,0.1,0.2,0.1,0.3c0,0.1,0,0.1,0,0.1l0,0.5l0.3,0c0,0,0,0,0,0c0,0.1,0.1,0.1,0.1,0.2c0.1,0.2,0.2,0.3,0.3,0.4
			c0,0.1,0.1,0.2,0.2,0.3c0,0.1,0.1,0.1,0.1,0.1C31,9.3,31,9.3,31,9.4l0,0.3l0.3,0.1c0,0,0.1,0,0.1,0.1c0,0.1,0.1,0.2,0.2,0.2
			c0,0.1,0.1,0.1,0.1,0.2c0,0.3,0.1,0.5,0.2,0.6c0,0.1,0.1,0.2,0.2,0.3c0,0.1,0.1,0.2,0.2,0.3c0,0.1,0.1,0.3,0.2,0.5l0,0.4l0,0.1
			c0,0.1,0.1,0.2,0.2,0.3c0,0.1,0.1,0.2,0.1,0.2c0,0.1,0,0.3,0,0.4c0,0.3,0.1,0.6,0,0.8l0,0l0,0.1c0,0.3,0.2,0.4,0.3,0.5l0.1,0.9
			c0,0.1,0,0.2,0.1,0.3l0,0l0.1,0.3l0,0.3l0,0c0,0.2,0.1,0.3,0.1,0.5l0,0.1l0,0C33.3,17.3,33.3,17.4,33.3,17.7 M35.6,19.4
			c-0.1-0.3-0.1-0.6-0.1-0.9c0-0.3,0-0.6-0.1-0.9l0,0c0.1-0.1,0.2-0.3,0.1-0.6c0-0.3-0.1-0.5-0.1-0.7c0,0,0,0,0,0c0-0.1,0-0.1,0-0.2
			c0-0.1,0-0.1-0.1-0.2l0-0.1c0-0.2-0.1-0.3-0.1-0.3l-0.1-1c0-0.3-0.2-0.5-0.3-0.6c0-0.3,0-0.7,0-1c0-0.2,0-0.3,0-0.5
			c0-0.2-0.1-0.4-0.2-0.5c0-0.1-0.1-0.2-0.1-0.2l-0.1-0.6l0-0.4h-0.1v0c0,0,0-0.1,0-0.1l0-0.3l-0.1,0l0-0.2L33.8,10l0,0l-0.1-0.1
			c-0.1-0.1-0.1-0.3-0.1-0.5l0-0.3l-0.2-0.1l0-0.2l-0.2-0.1c-0.1-0.1-0.2-0.2-0.3-0.3c0-0.2-0.1-0.3-0.2-0.4c0-0.1-0.1-0.1-0.1-0.1
			l-0.1-0.3l-0.1,0l0-0.2l-0.3-0.1c0,0-0.1,0-0.1-0.1L32,6.9l0,0c0-0.1-0.1-0.1-0.1-0.2l-0.1-0.3l-0.1,0c0-0.1-0.1-0.1-0.1-0.2
			c0-0.1,0-0.1,0-0.1l0-0.3l-0.3-0.1c0-0.1-0.1-0.2-0.2-0.2L31,5.3l-0.2,0c0,0-0.1-0.1-0.1-0.1c0,0,0,0-0.1-0.1l0-0.2l-0.2-0.1
			c0,0-0.1-0.1-0.1-0.1c-0.1-0.1-0.1-0.1-0.2-0.2c0-0.1-0.1-0.2-0.2-0.2c0,0-0.1-0.1-0.1-0.1l0,0l-0.1-0.1c0,0-0.1-0.1-0.1-0.1
			l0-0.2l-0.3,0c0,0-0.1,0-0.1-0.1l-0.1-0.2l-0.1,0c0,0-0.1-0.1-0.1-0.1c0,0,0-0.1-0.1-0.1l-0.1-0.4l-0.3,0.1c0,0-0.1-0.1-0.2-0.1
			c0,0-0.1-0.1-0.1-0.1l0-0.3l-0.3,0.1c-0.1-0.1-0.2-0.1-0.3-0.1c-0.1-0.1-0.2-0.2-0.4-0.1c-0.1-0.1-0.2-0.1-0.3-0.3l-0.2-0.2
			l-0.3,0.1c0,0,0,0,0,0C26.4,2.1,26.3,2,26.1,2c-0.1,0-0.2,0-0.2,0c0,0,0,0,0,0C25.8,2,25.7,2,25.7,1.9l-0.1-0.4l-0.5,0l-0.1-0.2
			l-0.1,0l0-0.3l-0.2,0l-0.1-0.4l-0.4,0.4c0,0,0,0,0,0c-0.1-0.1-0.2-0.1-0.3-0.1l0,0l-0.5,0c-0.1,0-0.1-0.1-0.2-0.1l0-0.1L22.7,1
			c-0.2,0-0.5,0-0.8,0c-0.1-0.1-0.2-0.1-0.3-0.1l0-0.1l-0.3,0.1c0,0-0.1,0-0.2-0.1c-0.1-0.1-0.2-0.1-0.3-0.1c-0.1,0-0.2,0-0.2,0
			c-0.1-0.1-0.3-0.1-0.5-0.1c-0.1,0-0.2,0-0.3,0c-0.1,0-0.1,0-0.1,0l-0.1-0.1l-0.8,0.1l0,0c0,0,0,0,0,0c0,0,0,0,0,0l0-0.2l-0.2-0.1
			C18.3,0,18.2,0,18,0c-0.4,0-1.1,0.1-1.7,0.1c-0.5,0-0.9,0.1-1.1,0.1l-0.8,0l-0.1,0l-0.1,0.1c0,0-0.1,0-0.2,0c-0.1,0-0.2,0-0.3,0.1
			c-0.2,0-0.3,0.1-0.5,0.2c-0.1,0-0.2,0-0.2,0c-0.1,0-0.2,0.1-0.3,0.2c-0.1,0-0.1,0-0.2,0.1l-0.3,0l0,0.1c-0.1,0-0.2,0.1-0.3,0.2
			l0,0c-0.2,0.1-0.5,0.1-0.8,0.1l-0.4,0l0,0.1c-0.1,0-0.2,0.1-0.2,0.1h-0.4l-0.1,0c-0.1,0-0.2,0.1-0.3,0.2c0,0,0,0,0,0L9.3,1.2
			L9.2,1.6L9,1.6l0,0.3H8.8l0,0.2H8.3l0,0.4c0,0,0,0-0.2,0.1c0,0,0,0,0,0c-0.1,0-0.1,0-0.2,0c-0.2,0-0.3,0.1-0.4,0.2c0,0,0,0,0,0
			c0,0,0,0,0,0l-0.3,0L7.2,2.9C7.1,3,7,3.1,6.9,3.2c-0.1,0-0.3,0.1-0.4,0.2c-0.1,0-0.2,0.1-0.3,0.1L6,3.4l0,0.3c0,0-0.1,0.1-0.1,0.1
			c-0.1,0-0.1,0.1-0.1,0.1L5.4,3.8L5.3,4.2c0,0,0,0-0.1,0.1c0,0-0.1,0.1-0.1,0.1l-0.1,0l0,0.2C5,4.6,4.9,4.6,4.9,4.6L4.6,4.7l0,0.2
			c0,0-0.1,0.1-0.1,0.1L4.5,5.1l0,0c0,0,0,0.1-0.1,0.1C4.3,5.3,4.3,5.4,4.2,5.5C4.1,5.6,4.1,5.6,4,5.7c0,0-0.1,0.1-0.1,0.1L3.7,5.9
			l0,0.2c0,0,0,0-0.1,0.1c0,0-0.1,0.1-0.1,0.1l-0.2,0L3.4,6.5c0,0.1-0.1,0.1-0.2,0.3L2.9,6.9l0,0.3c0,0,0,0,0,0.1
			c0,0-0.1,0.1-0.1,0.2H2.8L2.7,7.8c0,0-0.1,0.1-0.1,0.2l0,0L2.5,8.2c0,0.1-0.1,0.1-0.1,0.1L2.1,8.5l0,0.2L2,8.7l0,0.3
			c0,0,0,0.1,0,0.1c0,0.1-0.1,0.2-0.1,0.5C1.7,9.7,1.6,9.9,1.5,10l-0.2,0.1l0,0.1l-0.2,0.1l0,0.3c0,0.2,0,0.4-0.1,0.5L1,11.2v0
			l-0.2,0.1l0,0.2l-0.1,0l0,0.3c0,0,0,0.1,0,0.1l-0.2,0V13c0,0-0.1,0.1-0.1,0.2c-0.2,0.1-0.2,0.3-0.2,0.5c0,0.1,0,0.3,0,0.5
			c0,0.3,0,0.7,0.1,1c-0.1,0.1-0.3,0.3-0.2,0.6v1c0,0.1-0.1,0.2-0.1,0.3v0.1c0,0,0,0.1,0,0.2c0,0.1,0,0.1,0,0.2c0,0,0,0,0,0
			C0,17.8,0,18,0,18.3c0,0.3,0.1,0.4,0.2,0.5l0,0c0,0.4,0,0.7,0,0.9c0,0.3,0.1,0.6,0,0.9l0,0.3l0.1,0c0,0.2,0.1,0.3,0.2,0.4
			c0,0.1,0,0.1,0.1,0.1l0,0c0,0.1,0.1,0.2,0.1,0.3c0,0.2,0,0.4,0.2,0.6c0,0.1,0,0.2,0.1,0.3c0,0.2,0,0.3,0,0.5c0,0.3,0.1,0.6,0,1
			l0,0.1l0.1,0.1c0,0.1,0.1,0.2,0.3,0.3c0,0.1,0.1,0.1,0.1,0.2c0,0,0,0,0,0c0,0.4,0,0.7,0.1,0.9c0,0.1,0,0.3,0.1,0.4
			c0,0.1,0,0.3,0.2,0.4l0,0.1L2.1,27c0,0,0,0,0,0c0,0.1,0,0.4,0.1,0.5c0,0,0,0,0,0c0,0,0,0,0,0.1l0,0.3L2.4,28l0,0.3l0.1,0l0,0.3
			l0.2,0.1l0,0.2l0.2,0.1l0,0L3.1,29c0,0,0,0,0,0c0,0,0.1,0.1,0.1,0.2c0,0.1,0.1,0.2,0.1,0.3c0,0.1,0.1,0.1,0.1,0.1l0,0.2l0.2,0.1
			c0.1,0,0.1,0.1,0.2,0.1c0,0,0.1,0,0.1,0.1c0.1,0.1,0.2,0.3,0.3,0.4c0,0,0,0,0,0l-0.1,0.3l0.2,0.1l0,0.3l0.3,0L5,31.5l0.2,0
			c0,0,0.1,0.1,0.2,0.1c0.1,0.1,0.2,0.2,0.3,0.3C5.9,32,6,32.2,6,32.3l0.1,0.3l0.3-0.1c0,0,0,0,0,0c0.1,0,0.1,0.1,0.3,0.1l-0.1,0.5
			l0.5-0.1c0,0,0.1,0.1,0.2,0.1c0,0,0,0,0,0l0.1,0.3l0.2,0l0.2,0.3l0.3,0c0,0,0,0,0,0c0.1,0,0.2,0.1,0.4,0.2c0,0,0.1,0.1,0.1,0.1
			l0.1,0.2L9,34.1c0,0,0.1,0,0.1,0.1c0,0,0,0,0.1,0l0,0.1l0.2,0.1c0,0,0,0,0,0c0.1,0,0.2,0.1,0.3,0.1c0,0,0.1,0,0.1,0l0.1,0.1H10
			c0,0,0,0,0,0l0,0.2l0.4-0.1c0.1,0,0.2,0,0.3,0c0.1,0,0.2,0.1,0.3,0.1c0,0,0.1,0,0.1,0c0,0,0.1,0,0.1,0.1l0,0.2l0.4-0.1
			c0.1,0,0.1,0,0.2,0c0.1,0,0.2,0,0.3,0.1c0,0,0.1,0.1,0.1,0.1c0.1,0.1,0.3,0.2,0.5,0.2c0.2,0.1,0.5,0,0.6-0.1c0,0,0.1,0,0.1,0
			c0,0,0.1,0.1,0.2,0.1c0.1,0.1,0.3,0.2,0.5,0.2h0c0.1,0,0.2,0,0.3-0.1c0.1,0.1,0.2,0.1,0.3,0.1h0.3c0.1,0,0.1,0.1,0.3,0.1h0.1
			l0.1,0c0,0,0,0,0,0c0.1,0,0.2,0.1,0.4,0c0.2,0,0.3,0,0.4-0.1c0,0,0,0,0,0c0.1,0.1,0.3,0.1,0.5,0.1l0,0.1l0.1,0l0,0.1l0.5-0.1l0,0
			l0.3,0c0,0,0.1,0,0.1,0c0.1,0,0.3,0.1,0.5,0c0,0,0,0,0.1,0c0.1,0,0.2,0.1,0.4,0.1l0.1,0c0,0,0,0,0.1,0c0,0,0.1,0,0.1,0
			c0.1,0,0.1,0,0.2,0l0,0l0.8-0.1l0.1,0l0.1,0c0,0,0.1,0,0.1,0c0.2,0,0.4,0,0.6-0.1c0,0,0,0,0,0c0.1,0,0.2,0,0.4,0
			c0.2,0,0.3,0,0.4-0.1c0,0,0,0,0,0l0.1,0c0.1,0,0.2-0.1,0.3-0.1l0.3,0h0c0.1,0,0.2,0,0.3-0.1c0.1,0,0.1,0,0.2,0c0,0,0.1,0,0.1,0
			c0.2,0,0.3-0.1,0.4-0.2c0.1,0,0.1-0.1,0.2-0.1c0,0,0,0,0.1,0c0.1,0,0.4,0.1,0.6,0c0.2-0.1,0.4-0.2,0.5-0.3c0,0,0.1-0.1,0.1-0.1
			c0.1,0,0.2-0.1,0.3-0.1c0.1,0,0.1-0.1,0.2,0l0.4,0l0-0.2c0,0,0.1,0,0.1-0.1c0,0,0.1,0,0.1-0.1c0.1,0,0.2-0.1,0.3-0.1
			c0.1,0,0.2-0.1,0.3-0.1l0.5,0l0-0.2c0,0,0,0,0,0l0.1,0l0.1-0.1c0,0,0,0,0,0c0.2,0,0.4-0.1,0.4-0.1l0.2-0.1l0-0.1
			c0,0,0.1,0,0.1-0.1c0,0,0.1,0,0.1-0.1l0.2,0l0.1-0.2c0.1,0,0.1-0.1,0.1-0.1c0.2,0,0.3-0.1,0.3-0.2c0,0,0,0,0,0l0.3,0l0.1-0.3
			l0.2,0l0.1-0.3c0,0,0,0,0,0c0.1,0,0.1-0.1,0.2-0.1l0.6,0.1L30.2,32c0.1,0,0.2-0.1,0.3-0.2c0,0,0,0,0,0l0.4,0l0.1-0.3
			c0-0.2,0.1-0.3,0.3-0.5c0.1-0.1,0.2-0.2,0.3-0.4c0.1,0,0.1-0.1,0.2-0.1l0.2,0l0.1-0.3l0.3,0l0-0.3l0.2-0.1l-0.1-0.3c0,0,0,0,0,0
			c0,0,0,0,0,0c0.1-0.1,0.2-0.2,0.3-0.4c0,0,0.1-0.1,0.1-0.1c0.1,0,0.1-0.1,0.2-0.1l0.1-0.1l0-0.2c0,0,0-0.1,0.1-0.2
			c0-0.1,0.1-0.2,0.1-0.3c0.1-0.1,0.1-0.1,0.1-0.2c0,0,0,0,0,0l0.2-0.1l0,0l0.2-0.1l0-0.2l0.2-0.1L34,27.2l0.1,0l0-0.3l0.2-0.1
			l-0.1-0.3c0,0,0-0.1,0-0.1c0,0,0,0,0,0c0.2-0.2,0.1-0.4,0.1-0.5c0,0,0,0,0,0l0.2-0.1l0-0.1c0.2-0.1,0.2-0.3,0.2-0.5
			c0-0.1,0-0.3,0-0.4c0-0.3,0-0.6,0-0.9c0,0,0,0,0,0c0,0,0-0.1,0.1-0.2c0.2-0.1,0.2-0.3,0.3-0.4l0.1-0.1l0-0.1
			C35,22.7,35,22.4,35,22c0-0.2,0-0.3,0-0.5c0-0.1,0.1-0.2,0-0.3c0.1-0.2,0.1-0.4,0.1-0.6c0-0.1,0.1-0.2,0.1-0.3l0,0
			c0,0,0-0.1,0-0.2c0.1-0.1,0.2-0.2,0.2-0.4l0.1,0L35.6,19.4z"/>
	</g>
</g>
</svg>
