<!-- Generator: Adobe Illustrator 19.1.0, SVG Export Plug-In  -->
<svg version="1.1"
	 xmlns="http://www.w3.org/2000/svg" xmlns:xlink="http://www.w3.org/1999/xlink" xmlns:a="http://ns.adobe.com/AdobeSVGViewerExtensions/3.0/"
	 x="0px" y="0px" width="15.7px" height="15.7px" viewBox="0 0 15.7 15.7" enable-background="new 0 0 15.7 15.7"
	 xml:space="preserve">
<defs>
</defs>
<g>
	<path d="M2,0h11.7c1.1,0,2,0.8,2,2v11.7c0,1.2-0.9,2-2,2H2c-1.1,0-2-0.8-2-2V2C0,0.8,0.9,0,2,0L2,0z M11.4,1.7
		c-0.4,0-0.7,0.3-0.7,0.7v1.7c0,0.4,0.3,0.7,0.7,0.7h1.8c0.4,0,0.7-0.3,0.7-0.7V2.4c0-0.4-0.3-0.7-0.7-0.7H11.4L11.4,1.7z M13.9,6.6
		h-1.4c0.1,0.4,0.2,0.9,0.2,1.3c0,2.6-2.2,4.7-4.9,4.7C5.2,12.7,3,10.6,3,8c0-0.5,0.1-0.9,0.2-1.3H1.7v6.6c0,0.3,0.3,0.6,0.6,0.6
		h10.9c0.3,0,0.6-0.3,0.6-0.6L13.9,6.6L13.9,6.6z M7.9,4.8c-1.7,0-3.1,1.4-3.1,3.1s1.4,3.1,3.1,3.1c1.7,0,3.1-1.4,3.1-3.1
		S9.6,4.8,7.9,4.8z"/>
</g>
</svg>
