<!-- Generator: Adobe Illustrator 19.1.0, SVG Export Plug-In  -->
<svg version="1.1"
	 xmlns="http://www.w3.org/2000/svg" xmlns:xlink="http://www.w3.org/1999/xlink" xmlns:a="http://ns.adobe.com/AdobeSVGViewerExtensions/3.0/"
	 x="0px" y="0px" width="15.8px" height="15.8px" viewBox="0 0 15.8 15.8" enable-background="new 0 0 15.8 15.8"
	 xml:space="preserve">
<defs>
</defs>
<g>
	<g>
		<g>
			<path d="M15.7,15l-4.1-4c1.1-1.2,1.7-2.7,1.7-4.4c0-3.6-3-6.5-6.7-6.5S0,2.9,0,6.5s3,6.5,6.7,6.5
				c1.6,0,3-0.5,4.2-1.5l4.1,4c0.2,0.2,0.5,0.2,0.7,0C15.9,15.5,15.9,15.2,15.7,15z M6.7,12.1C3.5,12.1,1,9.6,1,6.5S3.5,1,6.7,1
				c3.1,0,5.6,2.5,5.6,5.5S9.8,12.1,6.7,12.1z"/>
		</g>
	</g>
</g>
</svg>
