<!-- Generator: Adobe Illustrator 19.1.0, SVG Export Plug-In  -->
<svg version="1.1"
	 xmlns="http://www.w3.org/2000/svg" xmlns:xlink="http://www.w3.org/1999/xlink" xmlns:a="http://ns.adobe.com/AdobeSVGViewerExtensions/3.0/"
	 x="0px" y="0px" width="46.3px" height="45.8px" viewBox="0 0 46.3 45.8" enable-background="new 0 0 46.3 45.8"
	 xml:space="preserve">
<defs>
</defs>
<g>
	<g>
		<g>
			<g>
				<g>
					<g>
						<path d="M45.8,22.9c-0.1-0.1-0.3,0-0.3,0.2l0.3,0.1L45.8,22.9z"/>
						<path d="M45.1,24.3c0.1,0.2,0.4,0.5,0.7,0.4c-0.3-0.3-0.2-0.3-0.5-0.6c0-0.2,0.1-0.3,0.2-0.3
							c-0.1-0.1,0.1-0.3-0.1-0.4c-0.3,0.3-0.3,0.6-0.1,0.9C45.2,24.4,45.1,24.3,45.1,24.3z"/>
						<path d="M35.6,40.3l0.1,0C35.7,40.3,35.7,40.3,35.6,40.3z"/>
						<path d="M24.7,44c0.1,0,0.1,0,0.1-0.1C24.7,44,24.6,44,24.7,44z"/>
						<path d="M22.7,43.7c0,0,0.1,0,0.1,0C22.8,43.7,22.7,43.7,22.7,43.7z"/>
						<path d="M35.6,40.3l-0.3,0.1C35.4,40.5,35.5,40.4,35.6,40.3z"/>
						<path d="M45.6,27.1c0-0.1,0-0.1-0.1-0.2L45.6,27.1L45.6,27.1z"/>
						<path d="M39.3,36.7L39.3,36.7c0.1-0.1,0-0.2,0-0.2L39.3,36.7z"/>
						<path d="M41.5,33.4c-0.1,0.1,0.2,0.2,0.3,0.3c-0.1-0.1-0.1-0.2-0.1-0.3C41.6,33.5,41.6,33.4,41.5,33.4z"/>
						<path d="M44.3,27.7l0-0.1C44.2,27.7,44.3,27.7,44.3,27.7z"/>
						<path d="M37.3,38.6C37.2,38.6,37.2,38.6,37.3,38.6C37.2,38.6,37.2,38.6,37.3,38.6z"/>
						<path d="M45.9,17.9C45.9,17.9,45.8,18,45.9,17.9C45.9,18,45.9,18,45.9,17.9z"/>
						<path d="M45,22.9L45,22.9c-0.1-0.1-0.1-0.1-0.2-0.1L45,22.9z"/>
						<path d="M19.2,43C19.2,43,19.2,43,19.2,43C19.3,43,19.2,43,19.2,43z"/>
						<path d="M3.1,18.5c-0.3,0.3-0.2-0.7-0.6-0.2C2.6,18.3,2.8,19,3.1,18.5z"/>
						<path d="M45.5,27.2c0,0.1,0,0.1,0,0.2C45.5,27.3,45.5,27.2,45.5,27.2z"/>
						<path d="M2.5,18.4L2.5,18.4L2.5,18.4C2.5,18.4,2.5,18.4,2.5,18.4z"/>
						<path d="M11.6,40c0,0.1,0,0.1,0,0.2C11.7,40.1,11.7,40.1,11.6,40z"/>
						<path d="M17,43l-0.1-0.1C16.9,43,17,43,17,43z"/>
						<path d="M8.9,38.3c0-0.1,0-0.1-0.2-0.2c0,0,0,0,0,0C8.8,38.2,8.9,38.2,8.9,38.3z"/>
						<path d="M6.6,35.8C6.6,35.8,6.6,35.8,6.6,35.8L6.7,36L6.6,35.8z"/>
						<path d="M40.8,8c0,0.1,0,0.2-0.1,0.3C40.9,8.2,41.3,8.5,40.8,8z"/>
						<path d="M45.4,27c0.1,0,0.1,0.1,0.1,0.1l0-0.1C45.5,27,45.4,27,45.4,27z"/>
						<path d="M7.3,39.8l-0.4-0.4C7,39.5,7.1,39.6,7.3,39.8z"/>
						<path d="M16.9,0.8L17,0.8C17,0.8,16.9,0.8,16.9,0.8z"/>
						<path d="M5.7,38.1c0-0.1,0-0.3-0.1-0.4c0,0-0.1,0-0.1,0L5.7,38.1z"/>
						<path d="M40.7,8.3L40.7,8.3L40.7,8.3z"/>
						<path d="M43.5,11.1c-0.3-0.5-0.4,0-0.7,0c-0.4-0.5,0.1-0.4,0.1-0.7c-0.3-0.3-0.8-0.4-0.9-0.6
							c0-0.1,0-0.1,0.1-0.1c-0.5-0.2-0.8-1-1.4-1.2c0,0,0-0.1,0-0.1c-0.1,0.2-0.2,0.3-0.3,0.4c-0.2-0.2-0.5-0.2-0.4-0.4
							c0.1,0.1,0.2,0.1,0.3,0.1l-0.3-0.1c0.1-0.4,0.3,0.2,0.5,0c-0.4-0.3-1-0.5-1.2-0.9c0.2-0.3,0.7,0.6,0.6,0l0.3,0.5
							c0.1-0.7,0.2,0.3,0.4-0.4c-0.5-0.7-0.7-0.6-1.2-1.2c-0.3,0-0.2,0.2-0.4,0.3c-1-0.5-0.1-1.2-1-1.4c-0.3,0-0.6,0.3-1-0.2
							l0.4-0.2c-0.6-0.5-0.7,0.2-1.2-0.5c0.2,0,0.6,0.3,0.5,0.1c-0.2-0.6-0.4,0-0.7-0.3l0.1-0.3c-0.7-0.4-1.6-0.7-2.4-1
							c0.1-0.1,0.3-0.1,0.1-0.3c-0.6-0.2-1.1-0.4-1.6-0.8c-0.5-0.3-1.1-0.6-1.6-0.9L30.1,1c-0.1,0-0.1-0.2,0-0.2
							C29.7,0.6,30,1,29.8,1c-0.2,0-0.3-0.2-0.1-0.3c-0.8,0-2.2,0-2.9-0.4l0.2-0.1c-0.6-0.2-0.8,0.5-1.3,0.1l0.1,0
							c-1.3-0.2-2.8,0-3.8-0.4c-0.2,0.4-1.4-0.1-1.4,0.5c-0.8-0.2-0.6-0.3-1.7-0.3c-0.3,0-0.4,0.4-0.7,0.6l-0.1-0.3l-0.4,0.4
							l-0.3-0.3L17,0.8c0.1,0,0.3,0.1,0.3,0.2c-0.2,0.1-0.6,0.2-0.8,0.1C16.2,1.1,16,1,16,0.9l-1.1,0.7c0-0.1,0.2-0.2,0.3-0.4
							C14.7,1.8,15,1,14.5,1.5c0.1,0,0,0.2,0,0.2c-0.4-0.1-1,0.2-1.4,0.5l0-0.2c-0.9,0.3-1.7,1-2.6,1.6C10.9,3.5,11,3.8,10.8,4
							l-0.3-0.2c-0.1,0.3,0.3-0.1,0.1,0.4c-0.3,0.2-0.4-0.2-0.3-0.4L10,4.1C10,4.1,10,4,10,3.8c0,0.3-0.9,0.2-0.9,0.7L9,4.5
							C8.2,5.1,7.9,5.5,7.3,6.1c0.2,0.2-0.1,0.4-0.1,0.7C6.7,7.2,6.1,7.6,5.6,8.1C5.4,8.6,5.7,8.4,5.7,8.7C5.4,8.6,5,9.2,5.1,8.8
							C4.8,9.1,4.7,9.4,4.5,9.6C4.3,9.9,4.2,10.2,4,10.8c0.2,0,0.3-0.1,0.3,0C4.2,10.9,4,11.1,3.9,11l0-0.1
							c-0.2,0.6-0.7,1.1-1.1,1.7c-0.4,0.6-0.9,1.1-0.8,1.7l0-0.1l-0.1,1.1c-0.2,0.4-0.1-0.3-0.4-0.1c0,0.3,0,0.6-0.1,0.8
							c0,0.2-0.1,0.4-0.2,0.6C1,17.1,0.9,17.5,0.9,18c-0.5,0.3-0.5,0.9-0.6,1.6c0,0.3-0.1,0.7-0.1,1c0,0.3-0.1,0.6-0.2,0.9l0.2,0
							c0.2,0.3-0.1,0.3-0.2,0.5c0.1,0,0.2-0.3,0.3-0.1c0,1.1,0,2.2,0,3.3c0,0.6,0,1.1,0,1.7l0,0.8l0.1,0.8c0.2,0.8,1,0.2,0.8,1.3
							l-0.4-0.2c0.4,0.7,0.7,1.5,1,2.3c0.3,0.8,0.7,1.5,1.2,2.1c-0.1,0-0.2,0-0.3-0.1c-0.1,0.4,0.6,1.1,0.8,1
							C3.8,35,3.5,35,3.5,35.1c0.1,0.4,0.7,0.6,0.6,0.8c0,0-0.1,0-0.2-0.1c0.2,0.1,0.6,0.8,0.7,0.5c0.3,0.6,0.8,0.8,0.9,1.3
							c0.4,0,0.6,0.9,1,0.6c-0.4,0.3,0.4,1,0.9,1.1c-0.2,0,0.1,0.3-0.1,0.4c0.3,0.3,0.7,0.5,0.8,0.3c0.2,1,1.5,0.7,1.4,1.5
							c0.3,0.1,0.6,0.3,0.9,0.4c0.3,0.1,0.6,0.2,0.9,0.4c0.6,0.2,1.1,0.5,1.6,0.7c-0.3,0.4-1.1-0.6-1.3-0.1c1,0.4,1.8,0.3,2.7,0.9
							c0.2,0.2-0.2,0.1-0.3,0.1c0.5,0.2,1,0.3,1.5,0.5c0.5,0.2,0.9,0.4,1.4,0.4c0,0-0.1,0.1-0.2,0.1c0.2,0,0.4,0.2,0.4,0l-0.2,0
							c-0.2-0.4,0.9-0.4,1-0.6c-0.5,0.5,0.9,0.4,0.2,1c0.1,0,0.3-0.1,0.3-0.2c0.2,0.1,0.2,0.2,0,0.3c0.7,0.1,0.5-0.2,1.1-0.1
							c0,0.1-0.1,0.1-0.2,0.2c0.3-0.1,0.7-0.3,1.2-0.1c0,0.1,0,0.1-0.1,0.1c0.9,0.1,1.5-0.4,2.5-0.1c-0.3,0.4,0.3,0.2,0.4,0.5
							c0,0,0.1,0,0.3,0c0.1,0,0.3-0.1,0.3-0.1l-0.2-0.2c0.5,0,0.8-0.3,1.2-0.2l-0.3,0.2l0.8-0.1l-0.5-0.1c0.4-0.2-0.1-0.5,0.5-0.4
							c-0.1,0,0.4,0,0.7,0.2l0,0c0.2-0.2,0.4-0.3,0.8-0.3c0.1,0.1,0,0.4,0.1,0.5c0.2-0.3,1-0.2,1.2-0.6c-0.1,0.1,0,0.3,0,0.3
							l0.1-0.3c0.2,0,0.3,0.1,0.3,0.2c0.6-0.1-0.3-0.4,0.5-0.4c-0.1,0,0,0.1-0.1,0.1c0.8-0.1,1.4-0.5,2-0.6c0.3,0.3-0.5,0.3-0.2,0.5
							c0.5-0.2,0.9-0.5,1.4-0.8c0.4-0.3,0.9-0.6,1.3-0.7l-0.2,0c-0.1-0.5,0.8-0.1,1.1-0.5c-0.1,0.1,0,0.3,0,0.3
							c0.6-0.3,1.1-0.8,1.8-1.5l0,0.2c0.4-0.1,0.9-0.6,1.2-0.8c0-0.2,0.2-0.3,0-0.4c0.8-0.1,1.1-0.6,1.5-1.1c0.4-0.5,0.7-1,1.3-1.2
							c-0.1,0.1-0.1,0.3-0.1,0.2l0.6-0.8c-0.2-0.1-0.2,0-0.5,0c0-0.2,0.1-0.4,0.2-0.6c-0.2,0.4,0.3,0.2,0.5,0.2
							c-0.1,0-0.1-0.1-0.2-0.2c0.6-0.1-0.3-0.4,0.3-0.7l0.1,0.1c0.1-0.2,0.1-0.5,0.3-0.7c0.3,0.1-0.1,0.3,0.1,0.4
							c0.2-0.3,0.1-0.9,0.4-1.1c0,0.2-0.1,0.4-0.2,0.6c0.5-0.1,0.4-0.2,0.6-0.4l0,0l0.5-0.5l-0.2,0.1c-0.4-0.8,0.5-0.9,0.3-1.7
							c0.1,0.8,0.2,0.2,0.4,0.4c0.1-0.1,0.3-0.3,0.4-0.2c-0.1-0.4,0.4-0.4,0.3-1c0.1,0,0.2-0.3,0.3-0.1c0.1-0.4-0.2,0-0.3-0.1
							c0-0.7,0.9-1.3,0.8-2.3c0-0.8-0.3-1-0.2-1.8c0.2-0.2,0.3,0.3,0.3,0.3c0.2-0.3,0.3-0.6,0.2-1c0.1,0.1,0.2,0,0.3-0.1
							c0-0.3-0.3-0.3-0.1-0.6c0.1,0.1,0.3,0.2,0.3,0.4c0-0.4-0.2-0.7-0.2-1.1c0.2-0.1,0.2,0.3,0.3,0.4c0-0.4,0-1.1-0.3-1.2l-0.1,0.3
							c0-0.1,0.2-0.1,0.3,0.1c0.2,0.4-0.2,0.5-0.3,0.5l0-0.3c-0.6,0.2-0.1,1-0.2,1.5l-0.4-0.3l0.3,0.6c-0.1,0.1-0.4,0.1-0.4-0.1
							c-0.3,0.3,0.1,0.3-0.2,0.6c0,0-0.1,0-0.1,0l0,0.4c-0.1-0.1-0.3,0-0.2-0.2c-0.4,0.5,0,1.1-0.3,1.2l0-0.1
							c-0.1,0.9,0.3,0.2,0.4,0.9l-0.9,0.2l0.3,0.2c0,0.1-0.1,0.2-0.2,0.2c0.1,0.4,0.1,0,0.3,0.2c-0.4,0.3-0.3,1.2-0.8,1.1
							c0.1,0.2,0.3-0.3,0.3,0.2c-0.5-0.1-0.2,0.5-0.5,0.8c-0.2-0.2,0.1-0.5-0.3-0.3c0.3,0.4-0.4,0.6-0.5,1c0.3,0.2-0.2,0.7-0.4,1.2
							c-0.1-0.1-0.8,0.8-1.2,1.1l0,0c0.2,0.3-0.1,0.7-0.3,1c-0.2-0.2-0.2-0.3-0.1-0.5c0,0-0.2,0.3-0.2,0.3c0,0.1,0,0.3-0.1,0.5
							l-0.1-0.2c-0.3,0.4-0.4,1-1,1.3c0.1,0.2,0.9,0.2,0.5,0.7c-0.1-0.1-0.3-0.2-0.2-0.4c0,0.1-0.1,0.2-0.2,0.3l0-0.3
							c-0.3,0.1,0,0.2-0.2,0.4c-0.1-0.1-0.2,0-0.3-0.1c0-0.1,0.2-0.1,0.2-0.2c-0.2,0.1-0.5,0.3-0.7,0.2c0.1,0.1,0.2,0.2,0.1,0.3
							c-0.4,0.3-0.3-0.1-0.6,0c0,0.2-0.3,0.3-0.2,0.5c-0.1,0.1-0.2,0-0.3,0c-0.1,0.3-0.9,0.7-0.5,0.8l0.1,0l0,0l0,0l0,0
							c-0.5,0.8-1.5,0.8-2.2,1.3l0-0.1c-0.4,0.4-0.9,0.5-1.2,0.9c-0.1,0.1-0.4,0-0.4-0.1c-0.3,0.2-0.3,0.4-0.9,0.4
							c0.3-0.3-0.2-0.1,0.3-0.2c-0.5,0.1-0.6,0-1,0.4c0.1-0.3-0.4-0.2-0.6,0l0.4,0.1c-0.2,0.1-0.4,0.2-0.7,0.2l0-0.4
							c-1-0.1-1.5,1.1-2.4,0.6c-0.2,0.3,0.6,0.1,0.4,0.4c-0.5,0-1-0.4-1.1-0.4c-0.6-0.1-0.5,0.6-1.2,0.5c0.1,0.1,0.2,0.4-0.3,0.6
							c-0.5,0-0.6-0.5-0.3-0.6c0.1,0,0.2,0,0.2,0.1c0.1-0.1,0.3-0.1,0.1-0.2l0,0.1c-0.2-0.1-0.8-0.1-0.7-0.3
							c-0.3,0.1-0.1,0.2,0.1,0.3c-0.6-0.2-0.9,0.1-1.5-0.1c0.1,0.1,0.2,0.2,0.1,0.2c-0.9-0.2-0.4,0.2-1,0.2
							c-0.3-0.2,0.2-0.4-0.5-0.3c-0.4-0.1,0-0.3,0.1-0.4c-0.6,0.2-1-0.3-1.3-0.3l0.3-0.1c-0.2,0-0.3,0-0.4,0l0.1,0.3
							c-0.2-0.1-0.3-0.1-0.3-0.2c-0.2,0.1,0.1,0.4-0.3,0.6c-0.2-0.2-0.7,0-0.7-0.3c0.7,0.2,0-0.3,0.6-0.3c-0.1,0-0.3,0-0.4-0.1
							c0,0,0-0.1,0.1-0.1c-0.6-0.4-0.4,0.3-1,0.1c0.1-0.2-0.1-0.4-0.2-0.4c0.3,0.1,0.1,0.3-0.2,0.4c-0.4-0.2-0.5,0-0.7-0.1l0.2,0.1
							c-0.1,0.2-0.4,0.1-0.7,0c0-0.1,0.3,0,0.2-0.1c-0.4,0.2-0.6-0.6-1.2-0.5c-0.2-0.2,0.1-0.3-0.1-0.5c-0.6,0-0.4-0.4-1-0.5
							c0,0.3,0.1,0.2-0.4,0.3l0.9,0.3l-0.7,0.1c0.3,0.1,0.6,0.1,0.7,0.2c-0.3,0.1-0.3,0-0.2,0.3c-0.2-0.5-0.8-0.1-1.1-0.6l0.3-0.5
							c-0.5-0.5-1.2-0.3-1.9-0.9l0.2,0.2c-0.2,0.1-0.5-0.3-0.8-0.3c0.1-0.2,0-0.3,0-0.5c-0.1,0.1-0.5-0.4-0.8-0.1l-0.2-0.4
							c-0.5-0.5-1,0-1.5-0.6c0.3,0,0.2-0.3,0.6-0.1c-0.2-0.2-0.3-0.3-0.4-0.2c0-0.2-0.6-0.2-0.7-0.5c-0.1,0-0.3,0.1-0.5-0.1
							c0,0,0.1-0.1,0.1-0.1C8.3,38.1,8,37.8,8,38.1c0-1-1.4-1.4-1.3-2.3c-0.3-0.4-0.8-0.8-1-1.2c0.1,0,0.1-0.1,0.1,0
							c-0.2-0.6-0.7,0-0.9-0.7c0.1-0.5,0.3,0.2,0.3,0c0.5-0.4-0.5-0.7-0.4-1.3l0.1,0.1c0-0.4-0.6-0.7-0.8-1.2c0,0,0.1,0,0.1,0
							c-0.5-0.2-0.8-0.9-1.1-1.4c0.3,0.1,0.2,0.2,0.4,0c-0.1-0.2-0.4,0.2-0.6-0.3c0.1-0.2,0.1-0.6,0.3-0.7c0,0,0.2,0.5,0.2,0.5
							c0.2-0.3-0.2-0.6-0.2-0.9l0.2,0C3,28,2.6,28.1,2.4,27.3l-0.1,0.1C1.8,27,2.5,27,2.1,26.6l0.4-0.2c-0.1-0.3-0.5-0.9-0.7-1.5
							c0.3,0.3,0.6,0.8,0.8,1.2c0-0.3-0.2-0.9-0.4-1.1c0.1,0.1,0.2,0.2,0.1,0.4c-0.4-0.3-0.5-0.8-0.6-1.3c0.8,0.1,0.1-1.5,0.8-1.9
							c-0.1-0.5-0.1-1,0-1.5c0.1-0.5,0.3-1,0.4-1.6c-0.6,0.3,0-0.3-0.6-0.4c0-0.3,0.1-0.4,0.1-0.4L3,17.7c0.2-0.1,0.1,0.3,0.2,0.3
							c0.2-0.6,0.3-0.2,0.6-0.5c-0.2,0-0.3-0.3-0.1-0.6l-0.4,0.4C3.2,16.4,4,16.7,4,15.9l0.1,0.3c0-0.4,0.5-1.4,0.3-2
							c0.1,0,0.3-0.1,0.3,0.1c0.3-0.4,0.3-1,0.5-1.5c0.2-0.5,0.4-1,0.7-1.2L6,11.7c0.1-0.2-0.1-0.4,0.2-0.5c0,0,0.1,0.1,0.1,0.1
							c0-0.1,0.1-0.6,0.3-0.7l0,0.3c0.4-0.3,0.5-0.7,0.6-1.1C7.4,9.4,7.5,9,7.7,8.7C8,9,8.6,8.5,9,8.3l0,0.1C9.4,8,9.7,7.6,10,7.2
							c0.3-0.4,0.6-0.8,0.9-1.2c0.4,0,0.9-0.3,1.4-0.6c0.5-0.3,1.1-0.7,1.6-0.7c-0.2,0-0.1-0.3,0-0.4c0.3,0,0.5-0.6,0.6-0.2l-0.1,0
							c0.3,0.3,0.7-0.1,1.1-0.2l-0.1-0.5c0.6,0.2,1.2-0.1,1.8-0.4c0.6-0.2,1.1-0.5,1.5-0.2c0.2-0.2,0.5-0.2,0.7-0.4l0,0.3
							c0.7,0,1-0.1,1.9-0.2l-0.2,0.2c0.5,0,0.5-0.8,1-0.9l0.2,0.4c0.9-0.1,1.7,0.4,2.5,0c0,0.1-0.1,0.2-0.2,0.2
							c0.4,0,1.5,0.5,1.4-0.1c0,0.4,0.9,0.2,1.3,0.1l-0.1,0.3c0.4-0.3,0.5-0.3,1-0.3c0.1,0.1,0.1,0.2-0.1,0.1
							c0.4,0.2,0.4-0.2,0.9,0.1L29,2.7c0.4,0.1,0.4,0,0.7-0.1c0.3,0,0.8,0.4,0.8,0.6c0.1-0.1,0.4-0.2,0.6-0.1c0,0.1-0.1,0.1-0.2,0.1
							c0.6,0.4,1.1,0.2,1.5,0.6c0,0.1,0,0.1,0,0.2c-0.5-0.3-0.9-0.5-0.9-0.5c-0.1,0.2,0.3,0.5-0.2,0.6c0.4,0,1.2-0.1,1.5,0.2
							c0,0,0,0.1,0,0.1l-0.1,0c0.1,0.1,0.2,0.1,0.3,0.1c0.1,0.1,0.2,0.2,0.3,0.3c-0.1,0.2,0.4,0.4,0.6,0.5c0.1-0.2,0.4,0,0.2-0.4
							c0,0-0.1,0-0.2-0.1c0,0-0.1,0-0.1,0l0,0c-0.1-0.1-0.3-0.2-0.5-0.3c0.2,0,0.5,0,0.6,0.2c0.2-0.1,0.4-0.2,0.5-0.2
							c0.1,0.5,0.5,1,0.4,1.3c0.7,0.3,1.4,0.9,2.1,0.8c0.2,0.1,0.1,0.3,0.1,0.4C37.1,7.1,37,7,36.9,7c0.4,0.2,0.9,0.8,1.3,0.6
							c0.3,0.5-0.4,0,0.1,0.5l-0.1,0c0.3,0.7,0.8,1,1.4,1.3c0.5,0.3,1.1,0.7,1.2,1.6c0-0.1,0-0.2,0-0.2c0.2,0.4,0.4,0.8,0.7,1.2
							c0.2,0.4,0.5,0.8,0.7,1.2c0.5,0.8,0.9,1.6,0.9,2.6c0.1,0.5,0.3,0.5,0.6,0.7l-0.3,0.2l0.5,0.4c0.2,0.3,0.1,0.7,0.1,1.1
							c-0.1,0.4-0.1,0.7,0.2,1.2l0.2-0.2c0,0.3,0.3,1.1,0,1c0,0,0.2,0.1,0.1,0.2l-0.2,0c0,0,0.1,0.2,0.2,0.4
							c0.1,0.2,0.2,0.4,0.2,0.4c-0.1,0.7-0.6-0.1-0.6,0.9c0.1,0.3,0.5,1,0.6,0.8c0-0.1,0.1-0.4,0.2-0.4l0.1,0.3
							c0.5,0.1,1,0.3,1.2-0.5l-0.3-0.6l0.2-0.2l0,0.5c0.2-0.3,0-0.5-0.1-0.7c0.1-0.1,0.2-0.1,0.2-0.3l-0.5-0.5
							c0.2-0.1,0.4,0.2,0.4-0.2c-0.2-0.2-0.4,0.3-0.6-0.1c0.2-0.3,0.4-0.2,0.1-0.5c0.1-0.1,0.2,0,0.3,0.1c-0.2-0.3-0.2-0.8-0.4-0.9
							c0.2-0.3-0.2-1,0.2-1c-0.1-0.1-0.5-0.4-0.6-0.7c0.6,0.3-0.2-1,0.4-1C45.1,16,45,15,44.5,14.5c0,0,0.1,0.1,0.1,0.1
							c-0.1-0.4,0-0.5,0-0.8c-0.4,0.1-0.7-0.4-1.1-0.5c0.1-0.6,0.5,0,0.8-0.2c-0.3,0.2-0.6-0.6-0.8-0.3c0.1-0.4,0-0.3,0.2-0.6
							c-0.5,0.2-0.2-0.3-0.6-0.4c0-0.5,0.3-0.3-0.1-0.7C43.1,10.8,43.5,11.1,43.5,11.1z M33.6,2.9L33.6,2.9c0.1,0,0.2,0.1,0.2,0.1
							C33.8,2.9,33.8,2.9,33.6,2.9z M32.7,2.4c0.1,0.1,0.3,0.1,0.4,0.2c0,0.1-0.1,0.2-0.2,0.1C33,2.7,32.8,2.5,32.7,2.4z M33.7,5.1
							c-0.2,0-0.2-0.1-0.2-0.2C33.6,5,33.7,5,33.7,5.1L33.8,5C33.8,5.1,33.7,5.1,33.7,5.1z"/>
						<path d="M34.1,5C34.1,5,34.2,5,34.1,5C34.2,4.9,34.2,4.9,34.1,5L34.1,5L34.1,5z"/>
						<path d="M35.8,40.3L35.8,40.3C35.8,40.3,35.8,40.3,35.8,40.3C35.8,40.3,35.8,40.3,35.8,40.3z"/>
						<polygon points="18.1,0.4 18.1,0.5 18.2,0.4 						"/>
						<path d="M40.6,37.1c0,0,0.1,0,0.1,0C40.7,37,40.7,37,40.6,37.1z"/>
						<path d="M42.1,35l0.3-0.3C42.3,34.9,42.2,35,42.1,35z"/>
						<path d="M43.3,33.4C43.2,33.4,43.2,33.4,43.3,33.4L43.3,33.4L43.3,33.4z"/>
						<path d="M16.6,44.8C16.6,44.8,16.5,44.8,16.6,44.8C16.3,44.8,16.4,44.9,16.6,44.8z"/>
						<path d="M25.8,45c-0.1,0.1-0.2,0.1-0.3,0.2C25.7,45.2,25.8,45.2,25.8,45z"/>
						<polygon points="7.3,39.8 7.3,39.8 7.3,39.8 						"/>
						<path d="M25.1,45.2c0.2,0,0.3,0,0.4,0C25.4,45.2,25.3,45.2,25.1,45.2z"/>
						<path d="M45.8,25.3L45.8,25.3c0-0.1,0-0.1,0-0.1L45.8,25.3z"/>
						<path d="M45.8,25.2l0-0.1C45.8,25.2,45.8,25.2,45.8,25.2z"/>
						<path d="M45.7,24.9l0.1,0.2C45.8,25,45.8,24.9,45.7,24.9z"/>
						<path d="M45.3,27.9L45.3,27.9C45.4,27.9,45.3,27.9,45.3,27.9z"/>
						<path d="M45.1,28.7c0.1-0.2,0.3-0.4,0.3-0.7l-0.1,0C45.5,28.1,45,28.4,45.1,28.7z"/>
						<path d="M42.9,31.3c0,0,0.3-0.6,0.3-0.6c-0.1,0.1-0.3,0.1-0.3-0.1C42.4,31.2,43.2,30.5,42.9,31.3z"/>
						<path d="M41.9,33c0.1-0.3-0.1-0.1-0.2-0.1C41.7,33.1,41.7,33.1,41.9,33z"/>
						<path d="M31.9,42.3L31.8,42C31.6,42.2,31.9,42.1,31.9,42.3z"/>
						<path d="M29.8,44.5c0,0,0.3,0.1,0.3,0.1l0-0.3C30.1,44.3,29.8,44.5,29.8,44.5z"/>
						<polygon points="27.8,43.1 27.9,43 27.5,43.2 						"/>
						<path d="M7.2,36.1L7,36.4C7.2,36.5,7.5,36.3,7.2,36.1z"/>
						<path d="M2.6,27.3c0.1-0.1,0.2-0.4,0-0.6C2.6,27,2.5,27.2,2.6,27.3z"/>
						<polygon points="16.1,3.6 16,3.8 16.3,3.6 						"/>
					</g>
				</g>
			</g>
		</g>
	</g>
	<g>
		<g>
			<path d="M34.5,37.1c0.3,0,0.6,0.3,0.6,0.6c0,0.3-0.3,0.6-0.6,0.6c-0.3,0-0.6-0.3-0.6-0.6
				C33.8,37.4,34.1,37.1,34.5,37.1"/>
			<path d="M22.2,31c0.3,0,0.6,0.3,0.6,0.6c0,0.3-0.3,0.6-0.6,0.6c-0.3,0-0.6-0.3-0.6-0.6C21.6,31.3,21.8,31,22.2,31
				"/>
			<path d="M29.8,37.2c0.3,0,0.6,0.3,0.6,0.6c0,0.3-0.3,0.6-0.6,0.6c-0.3,0-0.6-0.3-0.6-0.6
				C29.2,37.5,29.5,37.2,29.8,37.2"/>
			<path d="M26.3,39.8c0.3,0,0.6,0.3,0.6,0.6c0,0.3-0.3,0.6-0.6,0.6c-0.3,0-0.6-0.3-0.6-0.6
				C25.7,40.1,25.9,39.8,26.3,39.8"/>
			<path d="M35.7,32.9c0.3,0,0.6,0.3,0.6,0.6c0,0.3-0.3,0.6-0.6,0.6c-0.3,0-0.6-0.3-0.6-0.6
				C35.1,33.2,35.3,32.9,35.7,32.9"/>
			<path d="M39.8,28.1c0.3,0,0.6,0.3,0.6,0.6c0,0.3-0.3,0.6-0.6,0.6c-0.3,0-0.6-0.3-0.6-0.6
				C39.2,28.4,39.4,28.1,39.8,28.1"/>
			<path d="M21.2,39.2c0.3,0,0.6,0.3,0.6,0.6c0,0.3-0.3,0.6-0.6,0.6c-0.3,0-0.6-0.3-0.6-0.6
				C20.6,39.5,20.9,39.2,21.2,39.2"/>
			<path d="M15.1,37.8c0.3,0,0.6,0.3,0.6,0.6c0,0.3-0.3,0.6-0.6,0.6c-0.3,0-0.6-0.3-0.6-0.6
				C14.5,38.1,14.8,37.8,15.1,37.8"/>
			<path d="M12.3,35.3c0.3,0,0.6,0.3,0.6,0.6c0,0.3-0.3,0.6-0.6,0.6c-0.3,0-0.6-0.3-0.6-0.6
				C11.7,35.5,12,35.3,12.3,35.3"/>
			<path d="M15.7,31c0.3,0,0.6,0.3,0.6,0.6c0,0.3-0.3,0.6-0.6,0.6c-0.3,0-0.6-0.3-0.6-0.6C15.1,31.3,15.4,31,15.7,31
				"/>
			<path d="M39.8,31.5c0.4,0,0.7,0.3,0.7,0.7c0,0.4-0.3,0.7-0.7,0.7c-0.4,0-0.7-0.3-0.7-0.7
				C39.1,31.8,39.4,31.5,39.8,31.5"/>
			<path d="M25.7,35.2c0.4,0,0.7,0.3,0.7,0.7c0,0.4-0.3,0.7-0.7,0.7c-0.4,0-0.7-0.3-0.7-0.7
				C25,35.5,25.3,35.2,25.7,35.2"/>
			<path d="M18.9,33.9c0.5,0,0.8,0.4,0.8,0.8c0,0.4-0.4,0.8-0.8,0.8c-0.5,0-0.8-0.4-0.8-0.8
				C18.1,34.3,18.5,33.9,18.9,33.9"/>
			<path d="M31.4,31.1c0.5,0,1,0.4,1,1c0,0.5-0.4,1-1,1c-0.5,0-1-0.4-1-1C30.4,31.5,30.8,31.1,31.4,31.1"/>
			<path d="M9.8,31.7c0.5,0,1,0.4,1,1c0,0.5-0.4,1-1,1c-0.5,0-1-0.4-1-1C8.8,32.1,9.3,31.7,9.8,31.7"/>
		</g>
	</g>
	<g>
		<g>
			<g>
				<polygon points="10.5,28.4 10.3,27.8 1.1,25.9 1.9,23.9 10.3,25.7 18.1,25 25.8,24.3 26.1,24.2 31.1,24.2 
					33.1,24.6 35,25.2 43,20.8 44.2,20.5 45.9,21.8 44.4,22.9 34.7,27.4 32.6,26.2 30.8,25.8 26.6,26.7 26.3,26.8 18.4,27.9 				"/>
			</g>
		</g>
	</g>
</g>
</svg>
