<!-- Generator: Adobe Illustrator 19.1.0, SVG Export Plug-In  -->
<svg version="1.1"
	 xmlns="http://www.w3.org/2000/svg" xmlns:xlink="http://www.w3.org/1999/xlink" xmlns:a="http://ns.adobe.com/AdobeSVGViewerExtensions/3.0/"
	 x="0px" y="0px" width="20px" height="19.1px" viewBox="0 0 20 19.1" enable-background="new 0 0 20 19.1" xml:space="preserve">
<defs>
</defs>
<path d="M19.8,7.9C20,7.7,20.1,7.4,20,7.1c-0.1-0.3-0.3-0.5-0.6-0.5l-5.8-0.4c-0.3,0-0.5-0.2-0.6-0.4l-2.3-5.3
	C10.5,0.2,10.2,0,9.9,0C9.6,0,9.4,0.2,9.3,0.4L7.1,5.8C7,6.1,6.7,6.3,6.5,6.3L0.7,6.8C0.4,6.9,0.1,7.1,0,7.3c-0.1,0.3,0,0.6,0.2,0.8
	l4.4,3.8C4.9,12,5,12.3,4.9,12.6l-1.3,5.7c-0.1,0.3,0,0.6,0.3,0.7c0.2,0.2,0.6,0.2,0.8,0l5-3.1c0.2-0.1,0.5-0.1,0.8,0l5,3
	c0.3,0.1,0.6,0.1,0.8,0c0.2-0.2,0.3-0.5,0.3-0.8l-1.4-5.7c-0.1-0.3,0-0.5,0.2-0.7L19.8,7.9z"/>
</svg>
