<!-- Generator: Adobe Illustrator 19.1.0, SVG Export Plug-In  -->
<svg version="1.1"
	 xmlns="http://www.w3.org/2000/svg" xmlns:xlink="http://www.w3.org/1999/xlink" xmlns:a="http://ns.adobe.com/AdobeSVGViewerExtensions/3.0/"
	 x="0px" y="0px" width="31.8px" height="31.8px" viewBox="0 0 31.8 31.8" enable-background="new 0 0 31.8 31.8"
	 xml:space="preserve">
<defs>
</defs>
<g>
	<path d="M7.4,20.8c8,0.6,17,0,17,0c-0.7,2,0,2.9,0,2.9c-8-0.6-17,0-17,0C8.1,21.7,7.4,20.8,7.4,20.8z"/>
	<path d="M7.4,14.9c8,0.6,17,0,17,0c-0.7,2,0,2.9,0,2.9c-8-0.6-17,0-17,0C8.1,15.8,7.4,14.9,7.4,14.9z"/>
	<path d="M7.4,9c8,0.6,17,0,17,0c-0.7,2,0,2.9,0,2.9c-8-0.6-17,0-17,0C8.1,9.9,7.4,9,7.4,9z"/>
</g>
<g>
	<path d="M15.9,31.8C7.1,31.8,0,24.7,0,15.9S7.1,0,15.9,0s15.9,7.1,15.9,15.9S24.7,31.8,15.9,31.8z M15.9,1
		C7.7,1,1,7.7,1,15.9s6.7,14.9,14.9,14.9s14.9-6.7,14.9-14.9S24.1,1,15.9,1z"/>
</g>
</svg>
