<!-- Generator: Adobe Illustrator 19.1.0, SVG Export Plug-In  -->
<svg version="1.1"
	 xmlns="http://www.w3.org/2000/svg" xmlns:xlink="http://www.w3.org/1999/xlink" xmlns:a="http://ns.adobe.com/AdobeSVGViewerExtensions/3.0/"
	 x="0px" y="0px" width="16.6px" height="11.4px" viewBox="0 0 16.6 11.4" enable-background="new 0 0 16.6 11.4"
	 xml:space="preserve">
<defs>
</defs>
<path d="M0.3,0.3l7.1,5.6c0,0,0.4,0.4,0.8,0.4c0.5,0,0.7-0.1,0.9-0.3l7.2-5.6c0,0,0-0.4-0.8-0.4H0.9
	C0.9,0,0.5,0.1,0.3,0.3z"/>
<polygon points="0,1.3 6,6.6 0,11.1 "/>
<polygon points="10.5,6.7 16.6,1.5 16.6,11.1 "/>
<path d="M6.4,6.9c0,0,1,1.1,1.9,1.1c0.9,0,1.8-1.1,1.8-1.1l5.9,4.6H0.4L6.4,6.9z"/>
</svg>
