<!-- Generator: Adobe Illustrator 19.1.0, SVG Export Plug-In  -->
<svg version="1.1"
	 xmlns="http://www.w3.org/2000/svg" xmlns:xlink="http://www.w3.org/1999/xlink" xmlns:a="http://ns.adobe.com/AdobeSVGViewerExtensions/3.0/"
	 x="0px" y="0px" width="16px" height="16px" viewBox="0 0 16 16" enable-background="new 0 0 16 16" xml:space="preserve">
<defs>
</defs>
<path d="M16,2.7C16,1.3,14.7,0,13.3,0H2.7C1.3,0,0,1.3,0,2.7v10.7C0,14.7,1.3,16,2.7,16H8v-6H6V7.3h2v-1
	c0-1.8,1.3-3.4,3-3.4h2.2v2.7H11c-0.2,0-0.5,0.3-0.5,0.7v1.1h2.7V10h-2.7v6h2.8c1.4,0,2.7-1.3,2.7-2.7V2.7z"/>
</svg>
