<!-- Generator: Adobe Illustrator 19.1.0, SVG Export Plug-In  -->
<svg version="1.1"
	 xmlns="http://www.w3.org/2000/svg" xmlns:xlink="http://www.w3.org/1999/xlink" xmlns:a="http://ns.adobe.com/AdobeSVGViewerExtensions/3.0/"
	 x="0px" y="0px" width="53.8px" height="20.1px" viewBox="0 0 53.8 20.1" enable-background="new 0 0 53.8 20.1"
	 xml:space="preserve">
<defs>
</defs>
<g>
	<path fill-rule="evenodd" clip-rule="evenodd" d="M10.5,2.4L10.5,2.4L10.5,2.4C10.5,2.4,10.5,2.4,10.5,2.4 M1,2.5
		c0,0-0.7,0-1,0c0.2,0.1,0.5,0.2,0.8,0.5c0.3,0.3,0.3,0.3,0.3,1.3c0,0.7-0.2,6.3-0.5,7.7c-0.1,0.4-0.2,0.5-0.4,0.6c0.2,0,1,0,1,0
		s0.9,0,1.1,0C2.1,12.5,2,12.3,2,12c-0.2-1.3-0.3-6.2-0.3-7.7l0-0.4l0.1-0.1l0,0C3.4,5.4,6.5,8.2,8.7,10c0,0,0.2,0.2,0.2,0.2
		c0,0,0.3,0,0.3,0s0.1,0,0.2,0C9.4,8.6,9.8,3.6,10,2.9c0.1-0.3,0.2-0.4,0.3-0.5c-0.2,0-0.8,0-0.8,0s-1.1,0-1.3,0
		c0.2,0.1,0.3,0.2,0.4,0.4C8.9,3.4,9,5.2,9,7.1v0c0,0.7,0,1.5,0,1.6l0,0.1l-1.1-1C6,6.3,4,4.6,2.1,2.4C2.1,2.4,1,2.5,1,2.5
		 M0.1,12.6C0.1,12.6,0.1,12.6,0.1,12.6L0.1,12.6L0.1,12.6z M30.9,1l-0.8,0c0,0-0.4,0-0.4,0c0.2,0,0.4,0.1,0.4,0.5
		c0,0.6-2.1,4.1-2.5,4.5l0,0l0,0c-0.6-0.5-3.2-4.1-3.2-4.6c0-0.3,0.1-0.3,0.3-0.4c-0.3,0-1.2,0-1.2,0S22.2,1,22,1
		c0.3,0.1,0.7,0.6,1.3,1.3l0.3,0.3c0,0,3,4,3,4c0,0,0,0.5,0,1.2c0,3.2,0,11.5-0.1,11.8c-0.1,0.3-0.3,0.5-0.5,0.6c0.2,0,1.4,0,1.4,0
		s0.8,0,1.1,0c-0.2-0.1-0.4-0.3-0.4-0.6c-0.1-0.4-0.1-11-0.1-13c0-0.2,0.4-0.7,0.8-1.1l0.2-0.2c0.5-0.5,1-1.3,1.5-2.1
		c0.7-1,1.3-1.9,1.7-2.2C31.8,1,30.9,1,30.9,1 M25.8,20.1C25.8,20.1,25.9,20.1,25.8,20.1L25.8,20.1L25.8,20.1z M53.8,0L53.8,0
		L53.8,0C53.8,0,53.8,0,53.8,0 M52,0.4c0.2,0.5,0.3,4,0.3,6l0,0.6v0c0,0.7,0,1.5,0,1.6l0,0.1l-1.1-1c-1.8-1.5-3.8-3.3-5.7-5.4
		c-0.1,0-1.1,0-1.1,0s-0.7,0-1,0c0.2,0.1,0.5,0.2,0.8,0.5c0.3,0.3,0.3,0.3,0.3,1.3c0,0.8-0.2,4.7-0.5,6.1l0,0.1
		c-0.1,0.4-0.2,0.7-0.5,0.9c0.2,0,1.1,0,1.1,0s1,0,1.1,0c-0.3-0.2-0.3-0.6-0.4-0.9l0-0.1C45.1,9.5,45,7.3,45,4l0-0.2L45,3.8l0,0
		c1.6,1.6,4.8,4.4,6.9,6.2c0,0,0.2,0.2,0.2,0.2c0,0,0.3,0,0.3,0s0.1,0,0.2,0c0-0.1,0.1-1.4,0.1-1.4c0.1-2.7,0.4-7.7,0.6-8.3
		c0.1-0.3,0.2-0.4,0.3-0.5c-0.2,0-0.8,0-0.8,0s-1.1,0-1.3,0C51.7,0.1,51.9,0.2,52,0.4 M43.4,11.4C43.4,11.4,43.4,11.4,43.4,11.4
		L43.4,11.4L43.4,11.4z M20.7,3.5c0,0,0-0.4,0-0.5C20.8,3,21,3,21,3c0,0.1,0,0.9,0,0.9v0.4l0,1.3v0.1h-0.3c0,0-0.1-0.2-0.1-0.2
		C20.6,5.2,20.5,5,20,4.8c-0.5-0.2-0.9-0.3-2.5-0.3c-3.2-0.1-3.4,0-3.7,2.2l0,0.4l1.2,0c0.9,0,1.4,0,2.1-0.2
		c0.4-0.1,0.6-0.3,0.7-0.6H18c0,0.2-0.1,0.9-0.1,0.9c0,0.3,0,0.6,0.1,0.9h-0.2c0-0.3-0.3-0.4-0.7-0.6c-0.4-0.1-1.2-0.1-2-0.1l-1.2,0
		l0,0.1c0.1,1.3,0.5,1.7,2,2.1c0,0,0.4,0.1,0.4,0.1c0.8,0.2,1.6,0.3,2.2,0.3h0.1c0,0,0.3,0,0.3,0c0,0,0.7-0.1,0.7-0.1
		c1.1-0.2,1.1-0.3,1.1-0.8c0,0,0-0.5,0-0.5c0.1,0,0.2,0,0.3,0c0,0.2,0,0.9,0,0.9s0,1.4,0,1.5c0,0-0.5,0.3-0.6,0.4
		c0-0.2,0.2-1.3,0.2-1.3l0-0.1l-0.6,0.2c-1.9,0.7-3.1,0.7-4.8,0.3c-0.6-0.2-1-0.3-1.4-0.5c-0.9-0.5-1.2-1-1.4-1.9
		c0,0,0.1-1.9,0.1-1.9c0.1-0.7,0.2-0.9,0.8-1.2l0.1,0c0.5-0.3,1.5-0.9,2-1C16,3.8,16.5,3.8,17,3.8h0.4c1.1,0,1.9,0,2.6,0.1
		c0,0,0.4,0,0.4,0.1c0,0,0.2,0,0.3,0c0,0,0-0.1,0-0.2C20.7,3.6,20.7,3.6,20.7,3.5L20.7,3.5 M40,3.5c0,0,0-0.4,0-0.5
		c0.1,0,0.3,0,0.4,0c0,0.1,0,0.9,0,0.9v0.4l0,1.3v0.1h-0.3c0,0-0.1-0.2-0.1-0.2c-0.1-0.3-0.2-0.5-0.7-0.7c-0.5-0.2-0.9-0.3-2.5-0.3
		c-3.2-0.1-3.4,0-3.7,2.2l0,0.4l1.2,0c0.9,0,1.4,0,2.1-0.2c0.4-0.1,0.6-0.3,0.7-0.6h0.2c0,0.2-0.1,0.9-0.1,0.9c0,0.3,0,0.6,0.1,0.9
		H37c0-0.3-0.3-0.4-0.7-0.6c-0.4-0.1-1.2-0.1-2-0.1l-1.2,0l0,0.1c0.1,1.3,0.5,1.7,2,2.1c0,0,0.4,0.1,0.4,0.1
		c0.8,0.2,1.6,0.3,2.2,0.3h0.1l0.3,0c0,0,0.7-0.1,0.7-0.1c1.1-0.2,1.1-0.3,1.1-0.8c0,0,0-0.5,0-0.5c0.1,0,0.2,0,0.3,0
		c0,0.2,0,0.9,0,0.9s0,1.4,0,1.5c0,0-0.5,0.3-0.6,0.4c0-0.2,0.2-1.3,0.2-1.3l0-0.1l-0.6,0.2c-1.9,0.7-3.1,0.7-4.8,0.3
		c-0.6-0.2-1-0.3-1.4-0.5c-0.9-0.5-1.2-1-1.4-1.9c0,0,0.1-1.9,0.1-1.9c0.1-0.7,0.2-0.9,0.8-1.2l0.1,0c0.5-0.3,1.5-0.9,2-1
		c0.4-0.1,0.9-0.1,1.4-0.1h0.4c1.1,0,1.9,0,2.6,0.1c0,0,0.4,0,0.4,0.1c0,0,0.2,0,0.3,0c0,0,0-0.1,0-0.2C40,3.6,40,3.6,40,3.5L40,3.5
		"/>
</g>
</svg>
