<!-- Generator: Adobe Illustrator 19.1.0, SVG Export Plug-In  -->
<svg version="1.1"
	 xmlns="http://www.w3.org/2000/svg" xmlns:xlink="http://www.w3.org/1999/xlink" xmlns:a="http://ns.adobe.com/AdobeSVGViewerExtensions/3.0/"
	 x="0px" y="0px" width="63.2px" height="10.5px" viewBox="0 0 63.2 10.5" enable-background="new 0 0 63.2 10.5"
	 xml:space="preserve">
<defs>
</defs>
<g>
	<path d="M19.2,9.9c-0.3-0.1-0.8-0.2-1.4-1.2c0,0-2-3.1-2.3-3.5c1.1-0.5,1.8-1.5,1.8-2.5c0-0.7-0.2-1.4-0.7-1.8
		c-0.4-0.4-1.1-0.8-2.5-0.8c-0.1,0-0.2,0-0.3,0l-2.4,0.1l-0.7,0l-0.2,0c-0.2,0-0.4,0.1-0.4,0.3c0,0.3,0.3,0.3,0.5,0.3
		c0.4,0.1,0.8,0.1,0.8,0.9v7.3c0,0.6-0.4,0.8-0.7,0.9c-0.2,0.1-0.4,0.1-0.4,0.3c0,0.1,0.1,0.3,0.2,0.3l1.6-0.1l1.5,0l0.1,0h0
		c0.1,0,0.3,0,0.3,0l0,0l0.1-0.1c0-0.3-0.3-0.3-0.6-0.4c-0.4-0.1-0.9-0.2-0.9-0.9v-3l0-0.1l0-0.2c0,0,0.1,0,0.2,0l0.2,0h0.1
		c1,0,1,0,1.3,0.5l0.1,0.2l1.6,2.5c0.6,0.9,1.1,1.6,2.2,1.6c1,0,1-0.2,1-0.3C19.5,10,19.3,9.9,19.2,9.9 M15.9,3
		C15.9,4.8,14.5,5,14,5l-0.4,0c-0.1,0-0.2,0-0.3,0c-0.3,0-0.7,0-0.7-0.1l0,0l0-3.6c0-0.2,0-0.3,0.1-0.3c0.1-0.1,0.2-0.1,0.5-0.1
		c0,0,0,0,0.1,0h0.1C14.1,0.8,15.9,1,15.9,3 M39.9,9.8c0.2,0,0.4,0.1,0.4,0.4c0,0.2-0.3,0.2-0.4,0.2l-0.4,0l-0.9,0l-1.3,0.1
		c-0.2,0-0.3-0.2-0.3-0.2c0-0.2,0.2-0.3,0.4-0.4C37.7,9.7,38,9.6,38,9.1v0l-0.1-5.5c0-0.3-0.1-0.4-0.1-0.5c0,0-0.1,0.1-0.3,0.4l-3,6
		l-0.1,0.1c-0.2,0.3-0.3,0.6-0.5,0.6c-0.2,0-0.3-0.3-0.4-0.5l-3-6.4c0-0.1,0-0.1-0.1-0.1c0,0,0,0,0,0c0,0,0,0.1,0,0.1l-0.2,5
		c0,0,0,0.1,0,0.1c0,1.1,0.5,1.2,0.9,1.3c0.2,0.1,0.4,0.1,0.4,0.4c0,0.3-0.3,0.3-0.5,0.3l-0.4,0l-0.9,0l-0.9,0l-0.3,0
		c-0.1,0-0.2-0.1-0.2-0.3c0-0.2,0.2-0.3,0.4-0.4c0.3-0.1,0.6-0.1,0.7-1L29.6,7c0.1-1.4,0.2-2.5,0.2-3.6c0-2.4-0.7-2.6-1-2.7
		c-0.1,0-0.3-0.1-0.3-0.3c0-0.2,0.1-0.3,0.3-0.3l0.8,0.1l0.8-0.1c0.2,0,0.3,0.2,0.3,0.4l0,0.1l3.4,7.3l0,0.1
		c0.1,0.1,0.1,0.2,0.1,0.2c0,0,0,0,0,0.1c0-0.1,0.2-0.4,0.4-0.7l3.5-6.9c0.1-0.2,0.2-0.4,0.4-0.4c0,0,0,0,0,0l0.4,0l0.2,0l0.4,0
		l0.3,0c0.2,0,0.2,0.1,0.2,0.3c0,0.2-0.2,0.3-0.4,0.3c-0.3,0.1-0.7,0.1-0.7,1.1c0,0,0,0.1,0,0.1L39.3,9C39.3,9.7,39.6,9.7,39.9,9.8
		 M52.9,0.1c0.1,0,0.3,0.1,0.3,0.3c0,0.2-0.2,0.3-0.3,0.3c-0.2,0.1-0.5,0.2-0.5,1.1l0,4.5v0.1c0,0.6,0,2.1-1,3.1
		c-0.7,0.7-1.7,1.1-3,1.1c-4.1,0-4.6-2.5-4.6-4.4V1.3c0-0.4-0.3-0.5-0.6-0.6c-0.2-0.1-0.5-0.1-0.5-0.4c0-0.2,0.3-0.2,0.4-0.2
		l1.1,0.1l1.4-0.1c0,0,0,0,0.1,0c0.1,0,0.3,0,0.4,0.1l0,0.1c0,0.2-0.2,0.3-0.4,0.3C45.3,0.8,45,0.8,45,1.4v5.1c0,2,1.2,3.2,3.3,3.2
		c2.1,0,3.2-1.1,3.2-3.4V1.8c0-0.8-0.4-0.9-0.8-1c-0.2,0-0.5-0.1-0.5-0.4c0-0.1,0.1-0.2,0.2-0.2l1.7,0.1L52.9,0.1 M3.4,0.1
		c0.9,0,3.9,0.2,3.9,2.9c0,0-0.1,2.8-3.6,2.8c0,0-1,0-1.1-0.4c0-0.1,0.1-0.2,0.2-0.2l0.2,0l0.7,0.1C5.3,5.3,6,4.6,6,3.4
		c0-1.5-1.1-2.5-2.9-2.5c-0.5,0-0.7,0-0.7,0.3v7.2c0,1.3,0.6,1.4,1,1.5C3.8,9.9,4,9.9,4,10.2c0,0.2-0.2,0.3-0.5,0.3l-0.6,0l-1,0
		l-1,0l-0.6,0c-0.1,0-0.3-0.1-0.3-0.3c0-0.2,0.2-0.3,0.4-0.3c0.3-0.1,0.8-0.2,0.8-1.2V1.8c0-1-0.4-1-0.7-1.1C0.3,0.7,0,0.7,0,0.4
		c0-0.2,0.1-0.3,0.3-0.3l0.2,0l1.3,0l0.8,0L3.4,0.1 M24.6,9.8c0.2,0.1,0.5,0.1,0.5,0.4c0,0.2-0.2,0.2-0.4,0.2l-0.5,0l-1,0l-1.1,0
		l-0.2,0c-0.3,0-0.4-0.1-0.4-0.3c0-0.2,0.2-0.3,0.4-0.3c0.3-0.1,0.7-0.2,0.7-1V1.5c0-0.6-0.4-0.7-0.8-0.8c-0.2-0.1-0.4-0.1-0.4-0.3
		c0-0.2,0.1-0.3,0.2-0.3l1.6,0.1l0.7,0l0.7,0c0.2,0,0.4,0,0.4,0.2c0,0.2-0.2,0.3-0.4,0.3c-0.3,0.1-0.6,0.2-0.6,0.8v7.7
		C23.9,9.6,24.3,9.7,24.6,9.8 M59.4,4.2c1.7,0.5,3.7,1,3.7,3.2c0,1.4-1.2,3.1-4.6,3.1c-1.1,0-2.6-0.5-2.8-0.9l-0.4-1.8
		c0-0.1,0-0.1,0-0.2c0-0.1,0-0.2,0.1-0.3c0.1-0.1,0.1-0.1,0.2-0.1c0.3,0,0.3,0.2,0.4,0.4l0,0.1c0.2,0.6,1.1,2.1,3.2,2.1
		c1.4,0,2.9-0.7,2.9-2.2c0-1.2-1.3-1.5-2.8-1.9c-1.7-0.4-3.6-0.9-3.6-3c0-1.9,1.8-2.8,3.6-2.8c1.4,0,2.1,0.3,2.4,0.4L62,0.5l0.1-0.1
		l0.2-0.1c0.1,0,0.3,0.1,0.3,0.3l0.2,2l-0.1,0.2l0,0l-0.2,0.1c-0.3,0-0.4-0.4-0.4-0.5c-0.4-1.1-1.5-1.8-2.9-1.8
		c-1.2,0-2.5,0.6-2.5,1.8C56.8,3.5,58,3.8,59.4,4.2"/>
</g>
</svg>
