<!-- Generator: Adobe Illustrator 19.1.0, SVG Export Plug-In  -->
<svg version="1.1"
	 xmlns="http://www.w3.org/2000/svg" xmlns:xlink="http://www.w3.org/1999/xlink" xmlns:a="http://ns.adobe.com/AdobeSVGViewerExtensions/3.0/"
	 x="0px" y="0px" width="185px" height="28.9px" viewBox="0 0 185 28.9" enable-background="new 0 0 185 28.9" xml:space="preserve"
	>
<defs>
</defs>
<g>
	<g>
		<g>
			<path d="M8.1,6c0-0.9,0.9-1.7,3.7-1.7c4.3,0,5.9,1.3,5.9,4c0,3-2.5,4-7.8,4H8.1V6z M2.3,24c0,2.1-0.6,2.9-2,4
				h10.4c-1.6-1-2.6-2.5-2.6-4.5v-7.3h2.5c4.9,0,6.1,1.1,6.6,6.1c0.4,4.6,0.8,5.7,2.6,5.7h5.8c-1.8-1.3-2.3-3-2.6-5.4
				c-0.6-6.3-2.2-7.4-4.8-8.5c3.7-0.9,5.3-3.1,5.3-6.7c0-3.3-2.2-7.1-10.4-7.1c-2.3,0-7.6,0.2-9,0.2c-1.7,0-2.8,0-4.1-0.2
				C1.8,1.5,2.3,3,2.3,4.8V24z"/>
			<path d="M38.5,24.2c0,1.5-0.9,2.9-2.3,3.9h10.4c-1.4-1-2.3-2.4-2.3-3.9V4.4c0-1.5,0.9-2.9,2.3-3.9H36.2
				c1.4,1,2.3,2.4,2.3,3.9V24.2z"/>
			<path d="M66.5,24.2c0,1.5-0.9,2.9-2.3,3.9h10.4c-1.4-1-2.3-2.4-2.3-3.9V7.1c0-1.7,0.5-2.5,2.6-2.5
				c3.2,0,5.4,2.7,6.4,6.5h0.1V0c-0.6,0.3-1.4,0.6-2.4,0.6H59.9c-0.9,0-1.8-0.3-2.4-0.6v11h0.1c0.9-3.8,3.1-6.5,6.4-6.5
				c2,0,2.5,0.8,2.5,2.5V24.2z"/>
			<path d="M93.6,20.4c0,5.5,4.4,8.2,10.7,8.2c8.8,0,12-3.9,12-11.5V4.4c0-1.5,0.9-2.9,2.3-3.9h-9.9
				c1.3,1.4,1.8,2.1,1.8,3.8v14.9c0,3.8-2.8,5.1-5.8,5.1c-3.5,0-5.2-1.3-5.2-5.1V4.4c0-1.6,0.5-2.4,1.8-3.8h-10
				c1.4,1,2.3,2.4,2.3,3.9V20.4z"/>
		</g>
		<g>
			<path d="M137.5,18.6l4.2-11.8h0.1l3.9,11.8H137.5z M136.6,28c-0.8-0.6-1.3-1.8-1.3-3c0-1,0.3-1.9,0.7-2.5h11.1
				c0.4,0.6,0.5,1.6,0.5,2.3c0,1.1-0.3,2.2-1.1,3.2h9.6c-1.6-1.6-2.8-4.7-3.6-6.8l-6-17.1c-0.4-1.1-0.8-2.5-0.8-2.9
				c0-0.3,0.1-0.5,0.3-0.7h-8.2c0.3,0.2,0.4,0.5,0.4,0.8c0,0.5-0.2,1.1-0.4,1.7l-7,18c-0.8,2.1-2,5.2-3.6,6.8H136.6z"/>
			<path d="M168,24.2c0,1.5-0.9,2.9-2.3,3.9h15.1c2.3,0,3.4,0.3,4.2,0.9V17.5c-1.7,3.8-4.2,6.7-8.5,6.5
				c-1.8,0-2.7-0.8-2.7-3.1V4.4c0-1.5,0.9-2.9,2.3-3.9h-10.4c1.4,1,2.3,2.4,2.3,3.9V24.2z"/>
		</g>
	</g>
</g>
</svg>
