<!-- Generator: Adobe Illustrator 19.1.0, SVG Export Plug-In  -->
<svg version="1.1"
	 xmlns="http://www.w3.org/2000/svg" xmlns:xlink="http://www.w3.org/1999/xlink" xmlns:a="http://ns.adobe.com/AdobeSVGViewerExtensions/3.0/"
	 x="0px" y="0px" width="48.6px" height="11.2px" viewBox="0 0 48.6 11.2" enable-background="new 0 0 48.6 11.2"
	 xml:space="preserve">
<defs>
</defs>
<g>
	<g>
		<g id="logo_3_">
			<path d="M4,11.2c-1.7,0-2.9-0.4-4-1.5l1.4-1.4C2.1,9.1,3,9.3,4.1,9.3c1.3,0,2-0.5,2-1.4C6,7.5,5.9,7.2,5.7,7
				c-0.2-0.2-0.5-0.3-1-0.4L3.4,6.4C2.4,6.3,1.7,6,1.2,5.5C0.7,5,0.4,4.3,0.4,3.3c0-2,1.5-3.3,3.8-3.3c1.5,0,2.6,0.4,3.6,1.3
				L6.5,2.6C5.8,2,4.9,1.9,4.2,1.9c-1.1,0-1.7,0.6-1.7,1.4c0,0.3,0.1,0.6,0.3,0.8c0.2,0.2,0.6,0.4,1,0.4l1.3,0.2
				c1,0.1,1.6,0.4,2.1,0.9c0.6,0.6,0.9,1.4,0.9,2.3C8.1,10,6.3,11.2,4,11.2 M13.5,2c1,0,1.6,0.6,1.6,1.5c0,0.9-0.6,1.5-1.6,1.5h-2V2
				H13.5 M13.6,7c2.3,0,3.6-1.6,3.6-3.4c0-1.9-1.4-3.4-3.6-3.4H9.4v11h2.2V7H13.6 M18.3,11.1h2.2v-11h-2.2V11.1z M26.4,2
				C27.4,2,28,2.6,28,3.5c0,0.9-0.6,1.5-1.6,1.5h-2V2H26.4 M30.6,11.1l-2.5-4.8c1.1-0.4,2-1.3,2-2.9c0-1.8-1.3-3.4-3.6-3.4h-4.3v11
				h2.2V6.7H26l2.2,4.4H30.6z M37.4,7.4h-2.7l1.4-4L37.4,7.4z M40.9,11.1l-4-11h-1.7l-4,11h2.2l0.7-2H38l0.7,2H40.9z M48.6,11.1V9.2
				h-5V0.1h-2.2v11H48.6z"/>
		</g>
	</g>
</g>
</svg>
