<!-- Generator: Adobe Illustrator 19.1.0, SVG Export Plug-In  -->
<svg version="1.1"
	 xmlns="http://www.w3.org/2000/svg" xmlns:xlink="http://www.w3.org/1999/xlink" xmlns:a="http://ns.adobe.com/AdobeSVGViewerExtensions/3.0/"
	 x="0px" y="0px" width="18.3px" height="35.7px" viewBox="0 0 18.3 35.7" enable-background="new 0 0 18.3 35.7"
	 xml:space="preserve">
<defs>
</defs>
<g>
	<g>
		<path d="M17.7,35.5L17.7,35.5c0,0,0-0.1,0-0.1C17.7,35.4,17.7,35.5,17.7,35.5 M0.5,21C0.5,21,0.5,21,0.5,21l0.3,0L0.5,21z
			 M2.1,20.8L2.1,20.8L2.1,20.8L2.1,20.8z M16.2,33.7C16.2,33.7,16.2,33.8,16.2,33.7C16.2,33.8,16.2,33.8,16.2,33.7
			C16.2,33.8,16.2,33.8,16.2,33.7l-0.7,0c-0.1,0-0.3,0-0.4,0c0,0-0.1,0-0.1,0c-0.1-0.1-0.1-0.1-0.2-0.1c-0.1,0-0.2,0-0.3,0
			c-0.1,0-0.1,0-0.2,0c0,0-0.1,0-0.1,0c0,0,0,0,0,0c0,0-0.1-0.1-0.2-0.1c-0.1,0-0.1,0-0.2,0c-0.1,0-0.2-0.1-0.2,0l-0.2,0
			c0,0-0.1-0.1-0.1-0.1c-0.2-0.1-0.4,0-0.4,0c0,0,0,0,0,0c0-0.1-0.2-0.2-0.3-0.2c0,0,0,0,0,0c0,0-0.1-0.1-0.1-0.1c0,0,0,0,0,0
			c-0.2,0-0.3,0-0.4,0c-0.1,0-0.1,0-0.2,0c-0.1,0-0.2-0.1-0.3-0.2c-0.1-0.1-0.2-0.1-0.3-0.2c0,0-0.1,0-0.1,0c-0.1,0-0.1,0-0.2-0.1
			c-0.1,0-0.2-0.1-0.3-0.1c0,0-0.1,0-0.1,0c0,0,0,0,0-0.1c0,0-0.1-0.1-0.1-0.1c0,0-0.1-0.1-0.2-0.1c-0.1,0-0.2,0-0.2-0.1
			c-0.1,0-0.2-0.1-0.4-0.1c0,0-0.1,0-0.1-0.1c0,0-0.1-0.1-0.1-0.1C9.1,32,9,32,8.9,31.9c0,0,0,0,0,0c0,0,0,0,0,0c0,0,0,0,0,0
			c0,0-0.1-0.1-0.2-0.1c0,0,0,0,0,0c0,0-0.1-0.1-0.2-0.1c0,0-0.1-0.1-0.3-0.1c0,0,0,0,0,0c0,0,0-0.1-0.1-0.1c-0.1,0-0.1-0.1-0.2-0.1
			c0,0,0,0,0,0c-0.1,0-0.1-0.1-0.3-0.2c0-0.1-0.1-0.2-0.2-0.2c-0.1-0.1-0.1-0.2-0.2-0.3c0,0,0,0,0,0c0,0,0,0,0,0
			c0,0-0.1-0.1-0.2-0.2c0-0.1-0.1-0.1-0.1-0.1c0,0,0-0.1-0.1-0.1c-0.1-0.1-0.1-0.1-0.2-0.1c0,0,0,0-0.1,0c-0.1,0-0.2-0.1-0.3-0.2
			c-0.1-0.2-0.2-0.3-0.3-0.5c-0.1-0.1-0.2-0.2-0.2-0.4c0-0.1-0.1-0.1-0.2-0.2c0-0.1-0.1-0.2-0.3-0.2c0-0.1-0.1-0.1-0.2-0.2
			c0-0.1,0-0.1-0.1-0.2c0-0.1,0-0.2,0-0.2c0,0,0,0,0,0c0-0.1,0-0.1-0.1-0.2c-0.1-0.1-0.2-0.2-0.2-0.3c0,0-0.1-0.1-0.1-0.1
			c-0.1,0-0.1-0.1-0.2-0.1c0,0-0.1-0.1-0.1-0.1c0-0.1,0-0.1-0.1-0.1c0-0.1-0.1-0.1-0.1-0.2c0-0.1,0-0.2-0.1-0.2c0,0,0,0,0-0.1
			c0-0.1-0.1-0.1-0.2-0.2c0,0-0.1-0.1-0.1-0.1c0,0,0-0.1-0.1-0.1c0,0,0-0.1,0-0.1c0-0.2-0.1-0.3-0.1-0.4c0-0.1,0-0.1-0.1-0.2
			c0-0.1,0-0.3-0.1-0.4c0,0,0,0,0,0v0c0-0.1,0-0.2,0-0.3c0-0.1-0.1-0.3-0.2-0.3c0-0.1-0.1-0.1-0.1-0.2c0-0.1,0-0.3,0-0.4
			c0-0.3,0-0.5,0-0.8c0,0,0,0,0-0.1c0-0.1,0-0.2-0.1-0.2c0-0.1,0-0.1,0-0.1c0-0.1,0-0.2-0.1-0.2c0-0.1-0.1-0.1-0.2-0.1c0,0,0,0,0,0
			c0.1-0.3,0.1-0.6,0.1-0.9c0-0.2,0-0.3,0-0.5c0,0,0-0.1,0-0.1c0-0.1,0-0.1,0-0.1c0-0.2,0-0.3-0.1-0.4c0,0,0-0.1,0-0.3
			c0,0,0-0.1,0-0.1c0-0.1-0.1-0.2-0.1-0.2c0-0.1,0-0.2-0.1-0.2c0-0.2-0.1-0.3-0.2-0.3l0,0c0-0.1,0-0.2,0-0.3c0-0.3,0-0.6,0-0.8
			c0-0.2,0-0.5,0-0.7c0.1-0.3,0-0.4-0.1-0.5c0,0,0,0,0,0c0,0,0,0,0,0c0,0,0-0.1,0-0.1c0-0.2,0-0.4,0.1-0.6c0-0.1,0-0.1,0.1-0.2
			c0,0,0,0,0-0.1c0,0,0,0,0,0l0-0.2l0,0c0-0.1,0.1-0.1,0.1-0.3l0.1-0.9c0,0,0,0,0-0.1c0,0,0,0,0,0c0,0,0,0,0,0
			c0.1-0.1,0.2-0.2,0.2-0.4c0,0,0,0,0-0.1c0-0.2,0-0.5,0-0.8c0-0.2,0-0.3,0-0.5c0.1,0,0.1-0.1,0.2-0.2c0,0,0,0,0,0
			c0,0,0.1-0.1,0.2-0.3c0,0,0,0,0,0l0-0.4c0.1-0.1,0.2-0.3,0.2-0.5c0.1-0.1,0.1-0.2,0.2-0.3c0.1-0.1,0.1-0.2,0.2-0.3
			c0.1-0.1,0.2-0.3,0.2-0.6C3.7,10,3.8,10,3.8,9.9c0.1,0,0.1-0.1,0.2-0.2c0-0.1,0.1-0.1,0.2-0.2c0.1,0,0.2-0.2,0.2-0.3
			c0-0.1,0-0.2,0.1-0.3c0,0,0.1-0.1,0.1-0.2c0.1-0.1,0.2-0.1,0.2-0.3C4.8,8.4,4.9,8.3,5,8.2c0,0,0.1-0.1,0.1-0.2
			c0,0,0.1-0.1,0.1-0.1c0.1,0,0.2-0.1,0.2-0.3c0,0,0,0,0-0.1c0-0.1,0-0.1,0.1-0.2c0-0.1,0.1-0.2,0.1-0.3C5.7,7.1,5.8,7,5.8,6.8
			c0,0,0,0,0,0c0,0,0,0,0.1-0.1c0.1,0,0.1-0.1,0.2-0.2c0,0,0.1-0.1,0.1-0.1c0,0,0,0,0,0c0,0,0.1-0.1,0.1-0.1
			c0.1-0.1,0.2-0.1,0.2-0.2c0,0,0.1-0.1,0.1-0.1c0,0,0.1,0,0.1-0.1c0.1-0.1,0.1-0.1,0.1-0.2c0,0,0.1-0.1,0.1-0.1c0,0,0,0,0,0
			c0,0,0.1-0.1,0.1-0.1c0.2,0,0.2-0.1,0.3-0.2c0.1,0,0.1,0,0.2-0.1c0.1,0,0.2-0.1,0.2-0.2c0,0,0.1-0.1,0.1-0.1c0,0,0,0,0,0
			c0,0,0,0,0,0c0.1,0,0.2-0.1,0.2-0.1h0c0,0,0,0,0,0c0.1,0,0.2-0.1,0.2-0.1c0,0,0.1,0,0.1-0.1c0.1,0,0.2-0.1,0.2-0.1c0,0,0,0,0,0
			C8.9,4.4,9,4.3,9,4.3c0,0,0.1,0,0.1,0c0.2-0.1,0.4-0.2,0.6-0.4c0.1,0,0.3,0,0.4-0.1c0,0,0,0,0,0c0.1,0,0.2,0,0.3,0c0,0,0,0,0,0
			c0,0,0.1,0,0.1,0c0.1-0.1,0.3-0.1,0.4-0.3l0.1,0c0.1,0,0.2,0,0.3-0.1c0.1,0,0.2-0.1,0.2-0.2c0,0,0,0,0,0c0,0,0.1,0,0.2,0
			c0.1,0,0.1,0,0.2-0.1c0,0,0,0,0.1,0c0.1,0,0.2-0.1,0.2-0.1l0.4,0c0.1,0,0.3,0,0.4-0.1h0c0.1,0,0.1,0,0.2-0.1c0.2,0,0.5,0,0.7,0
			c0.2,0,0.3,0,0.4-0.1c0.2,0,0.3,0,0.4-0.1c0,0,0.1,0,0.1,0c0,0,0.1,0,0.1,0c0.1,0,0.2-0.1,0.2-0.1c0,0,0,0,0,0c0.1,0,0.1,0,0.2,0
			c0.1,0,0.2-0.1,0.3-0.1c0,0,0,0,0,0c0,0,0.1,0,0.1,0c0,0,0.1,0,0.2,0c0.1,0,0.1,0,0.2,0c0,0.1,0,0.1,0,0.2l0,0c0,0.1,0,0.2,0,0.3
			c0,0,0,0,0,0c0.1,0.2,0.1,0.4,0.1,0.6c0,0.2,0,0.3,0,0.5c0,0.1,0,0.2,0,0.3c0,0,0,0,0,0c0,0,0,0,0,0c0,0-0.1,0.1-0.1,0.2
			c-0.1,0.1-0.3,0.5-0.1,0.8c0,0,0,0.1,0,0.1c0,0,0,0,0,0c0,0.1-0.1,0.1,0,0.2c0,0.1-0.1,0.2-0.1,0.3c0,0,0,0.1,0,0.1
			c0,0.1,0,0.1,0,0.2c0,0,0,0,0,0c-0.1,0.1-0.1,0.1-0.1,0.2c0,0.2,0,0.3,0.1,0.3c0,0,0,0.1,0,0.1c0,0-0.1,0.1-0.1,0.1l-0.1,0.1
			c-0.1,0.1-0.1,0.2,0,0.3c0.1,0.1,0.2,0.1,0.3,0.1c0,0,0,0.1,0,0.1c0,0.1,0,0.1,0.1,0.2C16,7.6,16,7.7,16,7.8c0,0,0,0,0,0.1
			c0,0,0,0,0,0.1L16,8c-0.1,0.1-0.2,0.2-0.1,0.3c0,0,0,0,0,0c0,0,0,0.1,0,0.1c0,0,0,0,0,0c-0.1,0.2-0.1,0.4-0.1,0.5c0,0,0,0,0,0
			c0,0,0,0.1,0,0.1c0,0.1,0,0.3,0,0.4c0,0.1,0,0.1,0,0.2v0c-0.1,0.1-0.2,0.2-0.2,0.3c0,0.1,0,0.1,0.1,0.2c0,0.1,0,0.2,0,0.3
			c0,0,0,0,0,0.1c0,0,0,0.1,0,0.1c0,0.1,0.1,0.1,0.1,0.2c0,0,0,0.1,0,0.1c0,0.1,0,0.1,0,0.2c0,0,0,0,0,0.1l0,0.1c0,0,0,0.1,0,0.1
			c0,0,0,0.1,0,0.1c0,0,0,0,0,0c0,0.1,0,0.2,0.1,0.3c-0.1,0.1-0.1,0.2,0,0.3c0,0.1,0,0.2,0,0.3c0,0.2,0,0.4,0.1,0.5
			c0,0,0,0.1-0.1,0.1c-0.1,0.2-0.2,0.4-0.2,0.7c0,0.1,0,0.1,0.1,0.2c0,0.1,0.1,0.2,0.2,0.2c-0.1,0.1-0.2,0.3-0.1,0.6
			c0,0,0,0.1,0,0.1c0,0,0,0,0,0c0,0.1,0,0.2,0.1,0.2c0,0,0,0,0,0c0,0,0,0.1,0,0.1c-0.1,0.1-0.1,0.3-0.1,0.5c0,0,0,0,0,0
			c-0.1,0.1-0.1,0.2-0.1,0.3c0,0,0,0.1,0,0.1c0,0.1,0,0.2,0,0.3c0,0-0.1,0-0.1,0.1c-0.1,0.1,0,0.2,0,0.3c0.1,0.1,0.1,0.1,0.2,0.1
			c0,0,0,0.1,0,0.1c0,0,0,0,0,0.1c0,0.2,0,0.3,0.1,0.4c0,0.2,0,0.2,0,0.3c0,0.1,0,0.1,0,0.2c0,0.1,0.1,0.1,0.1,0.1c0,0,0,0,0,0.1
			c0,0.1,0,0.2,0.1,0.3C16,18.6,16,18.8,16,18.9c0,0,0,0.1,0,0.1c0,0,0,0.1,0,0.1c0,0.1,0,0.1,0.1,0.2c0,0.1-0.1,0.1-0.1,0.2
			c0,0.1,0,0.1,0,0.1c0,0,0,0.1,0,0.1c0,0,0,0.1,0.1,0.1c0,0,0,0.1,0,0.1c0,0,0,0,0,0c0,0,0,0,0,0C16,20.2,16,20.3,16,20.4
			c0,0,0,0,0,0c-0.1,0.2-0.1,0.4,0,0.5c0,0.1,0,0.2,0,0.3c0,0,0,0,0.1,0.1c0,0.1,0,0.1,0,0.2c0,0,0,0.1,0,0.1c0,0,0,0.1,0,0.1
			c0,0-0.1,0.1-0.1,0.1c-0.1,0.1-0.1,0.2,0,0.3c0,0.1,0.1,0.1,0.2,0.2c0,0,0,0.1,0,0.1c0,0,0,0,0,0c0,0-0.1,0.1-0.1,0.1
			c0,0.1-0.1,0.1,0,0.2c0,0,0,0,0,0c-0.1,0.1-0.1,0.2-0.1,0.3c0,0,0,0.1,0,0.1c0,0.1,0,0.1,0,0.2c-0.1,0-0.1,0.1-0.1,0.1
			c0,0.1,0,0.3,0.1,0.3c0,0,0,0,0,0c0,0,0,0.1,0,0.1c0,0,0,0.1,0,0.1c0,0.1-0.1,0.2-0.1,0.3c0,0,0,0,0,0c-0.1,0.1-0.1,0.2,0,0.4
			c0,0.1,0,0.2,0.1,0.2c0.1,0.1,0.1,0.1,0.2,0.1c0,0,0,0,0,0c0,0,0,0,0,0c0,0,0,0,0,0.1c-0.1,0-0.2,0.1-0.2,0.1c0,0,0,0.1,0,0.1h0
			c0,0,0,0,0,0c0,0,0,0,0,0.1c0,0,0,0.1-0.1,0.1c0,0.1,0,0.2,0,0.2c0,0,0,0,0,0c0,0,0,0.1,0,0.1c-0.1,0.1,0,0.3,0.1,0.3c0,0,0,0,0,0
			c0,0.1,0,0.2,0.1,0.2c0,0,0,0,0,0c0,0,0,0.1,0,0.1c0,0,0,0.1,0,0.2c0,0,0,0,0,0.1c0,0,0,0,0,0.1c-0.1,0.1-0.1,0.2,0,0.3
			c0,0,0,0,0,0c0,0,0,0.1,0,0.1c-0.2,0.2-0.1,0.3-0.1,0.4c0,0,0,0,0,0.1c0,0,0,0,0,0l0,0.1c0,0.1,0,0.2,0,0.3c0,0.1-0.1,0.3,0.1,0.4
			c0,0,0,0,0,0c0,0,0,0.1,0,0.1c0,0,0,0,0,0c0,0,0,0.1,0,0.1c0,0-0.1,0.1-0.1,0.1c0,0.1,0,0.2,0.1,0.2c0,0.1,0.1,0.1,0.2,0.1
			c0,0,0,0,0,0c0,0,0,0.1,0,0.1c0,0.1,0,0.2,0,0.3c0,0.1,0,0.1,0,0.2c0,0-0.1,0.1-0.1,0.1c0,0,0,0.1,0,0.1c0,0,0,0.1-0.1,0.2
			c0,0,0,0,0,0c0,0.1,0,0.1,0,0.2c0,0,0,0,0,0.1c0,0.1,0,0.1,0,0.2c0,0.1,0,0.2,0.1,0.3c0,0.1,0,0.1,0,0.2c0,0,0,0,0,0.1
			c0,0.1-0.1,0.1-0.1,0.2c0,0.1-0.1,0.2,0,0.3c0,0,0,0.1,0.1,0.1c0,0,0,0.1,0,0.1c0,0.1,0,0.1,0.1,0.2c0,0,0,0.1,0,0.1
			c0,0.1,0,0.1,0.1,0.2c-0.1,0-0.1,0.1-0.2,0.1c0,0,0,0.1,0,0.2c-0.1,0.1-0.1,0.2,0,0.3c0,0.1,0.1,0.1,0.1,0.1c0,0,0,0,0,0
			c0,0,0,0.1,0.1,0.1c-0.1,0-0.1,0.1-0.2,0.1c-0.1,0.2,0,0.3,0.1,0.4c0,0,0,0,0,0C16.2,33.7,16.2,33.7,16.2,33.7 M18.2,19.6
			c0.1-0.1,0.1-0.2,0.1-0.3c0-0.2-0.1-0.4-0.1-0.5c-0.1-0.3-0.1-0.5-0.1-0.8c0.1,0,0.2-0.1,0.2-0.2v0c0,0,0-0.1,0-0.1
			c0-0.1,0-0.1-0.1-0.2c0,0,0-0.1,0-0.2c0-0.1,0.1-0.4-0.1-0.6c0-0.1,0-0.2,0-0.2c0-0.1,0-0.1,0-0.2c0.1-0.1,0.1-0.2,0-0.3
			c0.2-0.2,0-0.5-0.1-0.7c0-0.1-0.1-0.2-0.1-0.2c0,0,0-0.1,0-0.2c0.1-0.2,0.1-0.3,0.1-0.6c0,0,0-0.1,0-0.1c0,0,0,0,0-0.1
			c0-0.2,0-0.3-0.1-0.4c0.1,0,0.2-0.1,0.2-0.2c0-0.1,0-0.1,0-0.2c0-0.1,0-0.2,0-0.4c0-0.1,0-0.2,0-0.3c0,0,0-0.1,0-0.1
			c0,0,0,0,0-0.1v0c0,0,0,0,0-0.1c0-0.1,0-0.2,0-0.2c0-0.1,0-0.3,0-0.5c0-0.1,0-0.1-0.1-0.2v0c0.1-0.1,0.1-0.2,0.1-0.3
			c0,0,0-0.1,0-0.1c0,0,0,0,0,0l0,0c0-0.1,0-0.2,0-0.2c0,0,0,0,0,0l0,0c0-0.1,0-0.1,0-0.2c0,0,0-0.1,0-0.1c0,0,0,0,0-0.1
			c0-0.1,0-0.1,0-0.2c0,0,0,0,0,0c-0.1-0.1-0.1-0.2-0.2-0.3c0-0.1,0-0.1,0-0.2c0,0,0-0.1,0.1-0.1c0-0.1,0-0.2-0.1-0.3
			c-0.1-0.1-0.1-0.2-0.1-0.4c0-0.1,0-0.2,0-0.3C18.1,8.6,18,8.5,18,8.4c0,0-0.1-0.1-0.1-0.1C17.9,8.2,18,8,18,7.9c0,0,0,0,0,0
			c0,0,0,0,0,0c0,0,0-0.1,0-0.2c0-0.1,0.1-0.2,0-0.2C18.1,7.2,18,7,18,6.8c0-0.1,0-0.2-0.1-0.3c0,0,0,0,0,0c0,0,0,0,0,0
			c0-0.1,0.1-0.2,0.1-0.4c0,0,0-0.1,0-0.1c0,0,0-0.1,0-0.1c0-0.1,0-0.1,0-0.2c0,0,0,0,0,0c0.1-0.1,0.1-0.2,0.1-0.3
			c0-0.1,0-0.1-0.1-0.2c0-0.1,0.1-0.2,0-0.2c0,0,0,0,0,0c0-0.1,0.1-0.2,0-0.4c0-0.1-0.1-0.1-0.1-0.1c0-0.1,0-0.1-0.1-0.2
			c0,0,0,0,0,0c0,0,0,0,0,0c0.1,0,0.1-0.1,0.1-0.2c0,0,0.1-0.1,0.1-0.1c0,0,0-0.1,0-0.1c0-0.1,0.1-0.1,0.1-0.2c0-0.1,0-0.2-0.1-0.2
			c0,0,0,0,0-0.1c0.1,0,0.1-0.1,0.1-0.2c0-0.1,0-0.1-0.1-0.2c0-0.1,0-0.1-0.1-0.2c0,0,0,0-0.1-0.1c0,0,0-0.1,0-0.1c0,0,0,0,0,0
			c0.1-0.1,0.2-0.2,0.2-0.3c0-0.1-0.1-0.1-0.1-0.2c0,0,0,0,0,0c0-0.1,0.1-0.1,0.1-0.2c0-0.1-0.1-0.2-0.1-0.2c0,0,0,0,0-0.1
			c0,0,0.1-0.1,0.1-0.2c0-0.1,0.1-0.2,0-0.2c0,0,0,0,0,0c0-0.1,0-0.1,0-0.2c0,0,0,0,0,0c0,0,0-0.1,0-0.1c0-0.1,0-0.1-0.1-0.2
			c-0.2-0.2-0.5-0.2-0.6-0.2c0,0,0,0,0,0V0.3c0-0.1-0.1-0.3-0.2-0.3c-0.1,0-0.3,0.1-0.3,0.2c0,0,0,0.1,0,0.1c0,0-0.1,0.1-0.1,0.1
			c0,0,0,0,0,0c0,0,0,0,0,0L16,0.3c-0.1,0-0.1,0-0.2,0c0,0-0.1,0-0.2,0c-0.1,0-0.2,0-0.3,0c-0.2,0-0.3,0-0.4,0.1c0,0,0,0,0,0
			c-0.1,0-0.2,0-0.3,0c-0.1,0-0.2,0.1-0.3,0.1c-0.1,0-0.2,0-0.2,0.1c-0.1,0-0.1,0-0.2,0.1c0,0-0.1,0-0.1,0c0,0,0,0,0,0
			c-0.1,0-0.2,0.1-0.3,0.1c0,0,0,0,0,0c-0.3,0-0.5,0-0.8,0c-0.1,0-0.2,0-0.2,0.1c0,0,0,0,0,0c-0.1,0-0.2,0-0.3,0.1c0,0,0,0,0,0
			l-0.5-0.1c0,0,0,0-0.1,0c-0.1,0-0.2,0.1-0.3,0.1c-0.1,0-0.1,0-0.1,0C11.1,1.2,11,1.2,11,1.2c0,0-0.1,0-0.1,0.1c0,0,0,0,0,0
			c-0.1,0-0.1,0-0.2,0c0,0-0.1,0.1-0.1,0.1c0,0,0,0,0,0c-0.1,0-0.2,0.1-0.2,0.1l-0.2,0c-0.1,0-0.3,0.1-0.3,0.2
			c0,0.1-0.1,0.1-0.2,0.2c0,0,0,0,0,0c0,0,0,0,0,0C9.4,2,9.4,2,9.3,2C9.2,2,9.1,2.1,9,2.1c0,0-0.1,0-0.1,0c-0.1,0-0.2,0-0.3,0.1
			C8.5,2.4,8.4,2.5,8.3,2.6C8.1,2.5,8,2.6,7.9,2.7c-0.2,0-0.3,0.1-0.3,0.1c-0.1,0-0.1,0-0.1,0c0,0-0.1,0-0.1,0.1
			C7.3,3,7.2,3,7.2,3.1C7.1,3.1,7,3.1,7,3.2c0,0-0.1,0-0.1,0c-0.1,0-0.1,0.1-0.1,0.2c0,0,0,0,0,0c0,0-0.1,0.1-0.1,0.1
			c-0.1,0-0.1,0.1-0.2,0.2c0,0-0.1,0-0.1,0.1c-0.1,0-0.2,0.1-0.2,0.1C6.1,3.8,6,3.9,6,4C5.9,4,5.9,4,5.8,4.1c0,0,0,0.1-0.1,0.1
			c0,0,0,0,0,0c0,0-0.1,0.1-0.1,0.1C5.5,4.4,5.5,4.5,5.5,4.5C5.4,4.6,5.3,4.7,5.2,4.8c0,0.1-0.1,0.1-0.1,0.1C5,4.9,4.9,5,4.9,5
			c0,0,0,0,0,0c0,0-0.1,0.1-0.1,0.1c-0.1,0-0.1,0.1-0.2,0.2c0,0,0,0,0,0c-0.1,0-0.1,0.1-0.1,0.1c0,0,0,0,0,0c0,0-0.1,0.1-0.1,0.2
			c0,0.1-0.1,0.1-0.1,0.1C4.1,5.8,4.1,5.9,4.1,6c0,0.1,0,0.1-0.1,0.2c0,0.1-0.1,0.2-0.1,0.3c-0.1,0-0.1,0.1-0.2,0.2c0,0,0,0,0,0
			c-0.1,0-0.1,0.1-0.2,0.3c0,0-0.1,0.1-0.1,0.1C3.4,7.2,3.3,7.3,3.2,7.3C3.1,7.3,3,7.4,3,7.5c0,0,0,0.1,0,0.1
			c-0.1,0-0.2,0.1-0.2,0.2c0,0.1,0,0.1-0.1,0.2C2.7,8.1,2.6,8.2,2.6,8.4C2.5,8.5,2.4,8.6,2.3,8.7c0,0,0,0,0,0c0,0,0,0,0,0
			C2.2,8.8,2.1,8.9,2.1,9C2,9.1,2,9.2,2,9.3c0,0.3-0.1,0.4-0.2,0.6c0,0,0,0.1-0.1,0.1c-0.1,0-0.2,0.1-0.2,0.2c0,0,0,0.1,0,0.1
			c-0.1,0-0.2,0.1-0.2,0.2c0,0,0,0.1,0,0.1c0,0,0,0.1,0,0.1c-0.1,0-0.2,0.1-0.2,0.2l-0.1,0.6c0,0,0,0,0,0c0,0-0.1,0.1-0.2,0.2
			c-0.1,0-0.2,0.2-0.2,0.4c0,0.2,0,0.3,0,0.5c0,0.4-0.1,0.7,0,1c0,0,0,0,0,0c-0.1,0.1-0.3,0.2-0.2,0.5l-0.1,1c0,0,0,0,0,0
			c0,0,0,0,0,0c0,0.1-0.1,0.1-0.1,0.3l0,0.1c0,0-0.1,0.1-0.1,0.1c0,0.1,0,0.1,0,0.1c0,0,0,0.1,0,0.1C0.1,16.3,0,16.5,0,16.8
			c-0.1,0.3,0,0.4,0.1,0.5c0,0,0,0,0,0c0,0,0,0,0,0c0,0,0,0,0,0c-0.1,0.3-0.1,0.6,0,0.9c0,0.3,0,0.6-0.1,0.9c0,0.1,0,0.2,0.1,0.2
			c0,0.3,0.1,0.4,0.2,0.5c0,0,0,0,0,0c0,0.1,0,0.1,0.1,0.2c0,0,0,0,0,0c0,0.1,0.1,0.2,0.1,0.3c0,0.2,0,0.5,0.1,0.6c0,0,0,0,0,0
			c0,0.1,0,0.2,0,0.3c0,0.2,0,0.3,0,0.5c0,0.3,0,0.6-0.1,1c0,0,0,0.1,0,0.1l0,0c0,0.1,0.1,0.2,0.2,0.3c0,0.1,0,0.1,0.1,0.2
			c0,0,0,0,0,0.1c0,0.4,0,0.7,0,1c0,0.1,0,0.3,0,0.4c0,0.1,0,0.3,0.2,0.4c0,0.1,0.1,0.1,0.1,0.1c0,0,0,0,0.1,0.1c0,0,0,0.1,0,0.1
			c0,0.1-0.1,0.3,0,0.4c0,0,0,0,0,0c0,0,0,0.1,0,0.2c0,0.1,0,0.2,0.1,0.3c0,0,0,0,0,0c0,0.1,0,0.2,0.1,0.3c0,0,0,0,0,0.1
			c0,0.1,0,0.2,0.1,0.3c0,0,0,0,0,0c0,0,0,0.1,0.1,0.1c0,0.1,0.1,0.1,0.1,0.2c0,0,0,0,0,0c0,0,0.1,0.1,0.1,0.1c0,0,0,0.1,0.1,0.1
			c0,0.1,0.1,0.1,0.1,0.2c0,0.1,0.1,0.2,0.1,0.3c0,0.1,0,0.1,0.1,0.2c0,0.1,0.1,0.1,0.1,0.2c0.1,0,0.1,0.1,0.2,0.1
			c0,0,0.1,0.1,0.1,0.1C2.9,29,3,29.1,3.2,29.3c0,0,0,0,0,0.1c0,0,0,0,0,0.1c0,0.1,0,0.2,0.1,0.3c0,0,0,0,0,0c0,0.1,0,0.2,0.1,0.2
			c0,0.1,0.1,0.1,0.2,0.1c0,0,0,0,0,0.1l0,0.1c0,0.1,0.2,0.2,0.3,0.2c0,0.1,0.1,0.1,0.2,0.2c0.1,0.1,0.2,0.3,0.3,0.4
			c0.1,0.2,0.2,0.3,0.3,0.5c0,0.1,0.2,0.2,0.3,0.2c0.1,0,0.1,0,0.1,0.1c0.1,0.1,0.1,0.1,0.3,0.2c0,0,0,0,0,0.1c0,0.1,0,0.2,0.1,0.2
			c0.1,0.1,0.1,0.1,0.2,0.1c0,0.1,0.1,0.1,0.2,0.2c0,0,0,0,0.1,0.1c0,0.1,0.1,0.2,0.2,0.2c0,0,0,0,0,0.1l0,0c0,0.1,0.2,0.2,0.3,0.2
			c0,0,0,0,0.1,0C6.6,33,6.7,33,6.9,33.1C6.9,33.1,7,33.2,7,33.2l0,0c0.1,0.1,0.1,0.1,0.2,0.1c0,0,0.1,0.1,0.2,0.1
			c0,0,0.1,0.1,0.2,0.1c0,0,0.1,0.1,0.1,0.1c0,0,0,0,0,0c0.1,0,0.2,0.1,0.4,0.1c0.1,0,0.1,0,0.1,0c0,0,0.1,0.1,0.1,0.1
			c0,0,0.1,0.1,0.1,0.1c0,0,0,0,0,0c0,0,0,0,0,0C8.5,34,8.6,34,8.7,34c0.1,0,0.2,0,0.4,0.1c0.1,0,0.2,0.1,0.3,0.1
			c0,0,0.1,0.1,0.1,0.1c0,0,0.1,0.1,0.2,0.1c0,0,0,0,0,0c0.1,0,0.1,0.1,0.2,0.1c0.1,0,0.2,0,0.3,0.1c0.1,0,0.2,0.1,0.3,0.1
			c0.1,0,0.1,0.1,0.2,0.1c0.1,0.1,0.3,0.2,0.5,0.3c0.2,0.1,0.4,0,0.5,0c0.1,0,0.1,0,0.2,0c0,0,0,0,0,0c0,0,0.1,0.1,0.2,0.1
			c0.1,0.1,0.2,0.2,0.4,0.2c0.1,0,0.2,0,0.3,0c0,0,0,0,0,0c0.1,0.1,0.2,0.1,0.3,0.1h0l0.3,0c0,0,0,0,0.1,0c0,0,0,0,0,0
			c0.1,0,0.2,0.1,0.3,0.1c0,0,0.1,0,0.1,0c0.1,0,0.2,0.1,0.4,0.1c0.1,0,0.3,0,0.4,0c0,0,0,0,0,0c0,0,0,0,0.1,0
			c0.2,0.1,0.3,0.1,0.5,0.1c0.1,0,0.1,0,0.2,0c0,0,0.1,0,0.1,0l0.8,0.1c0,0,0,0,0,0c0,0,0,0,0,0c0.1,0,0.2,0,0.2,0
			c0.1,0,0.1,0,0.2,0c0,0,0,0,0.1,0c0,0,0,0,0,0c0.1,0,0.1,0,0.2,0c0.1,0,0.1,0.1,0.2,0.1c0,0,0.1,0,0.2,0c0,0,0.1,0,0.1-0.1
			c0.1,0.1,0.2,0.1,0.3,0.1c0,0,0.1,0,0.2,0c0.1,0,0.1-0.1,0.1-0.1l0-0.1c0.1-0.1,0-0.2,0-0.3c0,0,0,0,0,0c0,0,0.1-0.1,0.1-0.2
			c0,0,0.1-0.1,0.1-0.2c0,0,0-0.1,0-0.1c0,0,0,0,0-0.1c0,0,0-0.1,0-0.1c0,0,0,0,0,0c0-0.1,0-0.1,0-0.2c0,0,0,0,0,0
			c0.1-0.2,0-0.3-0.1-0.4c0,0,0,0,0-0.1c0.1-0.2,0.1-0.3,0.1-0.4c0,0,0.1-0.1,0.1-0.1c0-0.1,0-0.2,0-0.3l0,0c0,0,0,0,0,0
			c0-0.1,0-0.1,0-0.2c0,0,0-0.1-0.1-0.1c0,0,0,0,0-0.1c0,0,0.1-0.1,0.1-0.2c0,0,0-0.1,0-0.1c0-0.1,0-0.1-0.1-0.1l0,0c0,0,0,0,0,0
			c0-0.1,0-0.1-0.1-0.2c0,0,0,0,0,0c0,0,0-0.1,0-0.1c0.1,0,0.1-0.1,0.1-0.2v0c0,0,0,0,0,0l0.1-0.2c0,0,0,0,0-0.1
			c0-0.1-0.1-0.2-0.1-0.2c0,0,0,0,0,0c0-0.1,0.1-0.3,0.1-0.5c0-0.1,0.1-0.1,0-0.2c0,0,0-0.1,0-0.1c0-0.1,0-0.2-0.1-0.3
			c0.1-0.1,0.1-0.3,0.1-0.5c0,0,0,0,0,0c0-0.1,0-0.1-0.1-0.2v0c0,0,0-0.1,0-0.1c0-0.1,0-0.2,0.1-0.3c0-0.1,0.1-0.2,0.1-0.4
			c0,0,0-0.1,0-0.1c0-0.1,0-0.1-0.1-0.2l0,0c0,0,0.1-0.1,0.1-0.3c0,0,0,0,0,0c0,0,0,0,0,0c0,0,0-0.1,0-0.1c0.1,0,0.1-0.1,0.1-0.2
			c0-0.1,0-0.2-0.1-0.2c0,0,0.1-0.1,0.1-0.1l0-0.2c0,0,0,0,0,0c0,0,0-0.1,0.1-0.1l0.1-0.1c0-0.1,0-0.2,0-0.2c0-0.1-0.1-0.1-0.1-0.1
			c0,0,0,0-0.1-0.1c0,0,0,0,0,0c0.1-0.1,0.1-0.2,0.1-0.3v0c0,0,0,0,0,0l0,0c0,0,0,0,0-0.1c0.1-0.1,0.1-0.2,0.1-0.3c0,0,0,0,0-0.1
			c0,0,0-0.1,0-0.1c0-0.1,0-0.1,0-0.2c0-0.1,0-0.1,0-0.1c0-0.1,0-0.1,0-0.2c0-0.1,0-0.1,0-0.2c0-0.1,0-0.2,0-0.3
			c0-0.1,0-0.2-0.1-0.3c0,0,0,0,0,0c0-0.1,0.1-0.2,0.1-0.3c0-0.1,0-0.2,0-0.2c0,0,0-0.1-0.1-0.1c0-0.1,0.1-0.2,0.1-0.3
			c0-0.1,0-0.1,0-0.2c0,0,0,0,0-0.1c0-0.1,0-0.2,0-0.2c0-0.1,0.1-0.1,0.1-0.2l0,0l0,0l0,0c0,0,0,0,0,0c0,0,0,0,0-0.1
			c0,0,0-0.1,0-0.2c0,0,0-0.1-0.1-0.1c0,0,0,0,0,0c0.1,0,0.1-0.1,0.1-0.2c0-0.1,0-0.1-0.1-0.2l0-0.1c0,0,0,0,0,0c0,0,0,0,0-0.1
			c0-0.1,0.1-0.1,0.1-0.2c0-0.1,0-0.1,0-0.2c0-0.1,0-0.2,0-0.2c0,0,0,0,0,0c0-0.1,0-0.3-0.1-0.4c0-0.1,0-0.3,0-0.4
			c0-0.2,0-0.3,0.1-0.5C18.2,19.7,18.2,19.7,18.2,19.6"/>
	</g>
</g>
</svg>
