<!-- Generator: Adobe Illustrator 19.1.0, SVG Export Plug-In  -->
<svg version="1.1"
	 xmlns="http://www.w3.org/2000/svg" xmlns:xlink="http://www.w3.org/1999/xlink" xmlns:a="http://ns.adobe.com/AdobeSVGViewerExtensions/3.0/"
	 x="0px" y="0px" width="74.9px" height="8.1px" viewBox="0 0 74.9 8.1" enable-background="new 0 0 74.9 8.1" xml:space="preserve"
	>
<defs>
</defs>
<g>
	<path d="M31.2,4.2c-0.1,0-0.1,0-0.1,0c-0.2,0.1-0.4,0.1-0.5,0.2c-0.3,0.1-0.6,0.3-0.8,0.4c-0.3,0.1-0.6,0.2-0.9,0.5
		C28.3,5.6,28.3,6.7,29,7C29.1,7,29.3,7.1,29.5,7c0.1,0,0.2,0,0.2-0.1c0.3,0,0.5-0.1,0.7-0.3c0.2-0.1,0.4-0.2,0.5-0.4
		c0.3-0.4,0.2-1.2,0.2-1.7C31.3,4.5,31.3,4.2,31.2,4.2 M34.7,6.4c-0.2,0.5-1.2,0.8-1.6,1c-0.6,0.2-1.3,0.9-1.7,0
		c-0.1-0.1-0.2-0.5-0.2-0.7c-0.5,0.1-0.9,0.5-1.3,0.7c-0.4,0.2-1.4,0.6-2,0.5c-0.4-0.1-0.7-0.5-0.8-0.8c-0.1-0.2,0-0.6,0-0.8
		c0.1-0.2,0.1-0.5,0.3-0.6c0.2-0.2,0.6-0.5,0.9-0.7c0.7-0.4,1.4-0.6,2-0.9C30.5,4,30.7,3.9,31,3.7c0.1-0.1,0.2-0.3,0.2-0.4
		c0.1-0.7-0.6-1.1-1.3-1.2c-0.3,0-0.7,0.1-0.9,0.2c-0.4,0.2-0.8,0.6-0.9,1.1c0,0.1-0.1,0.3-0.2,0.3c-0.1,0-0.3,0-0.4,0
		c-0.9-0.4,0.6-1.2,0.9-1.4C28.6,2.2,28.8,2.1,29,2c0.1,0,0.2-0.1,0.3-0.1c0.4-0.1,0.7-0.3,1.1-0.3c0.1,0,0.2,0,0.3,0
		c0.1,0,0.2,0,0.4-0.1c0.4,0,1,0,1.3,0.3c0.2,0.2,0.2,0.4,0.3,0.6c0.2,0.9,0,2,0,2.9c0,0.5,0,1.1,0.2,1.5c0.4,0.6,1.2-0.5,1.6-0.5
		C34.6,6.3,34.7,6.3,34.7,6.4L34.7,6.4 M50.9,3.2c-0.5-0.4-1.1-0.6-1.9-0.6c-0.2,0.1-0.4,0.1-0.6,0.3c-0.2,0.3-0.3,0.6-0.4,1
		C47.8,5.4,48.8,7,50.4,7c0.2,0,0.4-0.1,0.4-0.1c0.2-0.1,0.4-0.3,0.5-0.4C52,5.5,51.7,3.9,50.9,3.2 M52.9,5.1
		c-0.1,0.3-0.4,0.6-0.6,0.9c-0.2,0.3-0.4,0.5-0.7,0.7c-0.5,0.5-1.2,0.8-1.9,1.1C49.6,7.9,49.4,8,49.2,8c-0.2,0-0.5,0-0.7,0
		c-0.4-0.1-0.8-0.5-1.1-0.8C47,6.7,46.7,6,46.8,5.3c0-0.3,0.2-0.6,0.3-0.8c0-0.1,0.1-0.2,0.1-0.3c0.4-0.9,1.3-1.7,2.2-2.2
		c0.3-0.1,0.5-0.3,0.9-0.3c0.1,0,0.2,0,0.3-0.1c1.5,0,2.4,0.8,2.6,2.2C53.1,4.2,53.1,4.7,52.9,5.1 M71.7,2c-0.4,0-0.7,0.1-1.1,0.2
		c-0.1,0.1-0.3,0.2-0.4,0.3c-0.5,0.3-1.1,0.8-1.5,1.3c-0.2,0.3-0.3,0.7-0.4,1c-0.1,0.4-0.2,0.8-0.1,1.2c0.1,0.3,0.2,0.6,0.4,0.8
		c0.2,0.2,0.4,0.5,0.7,0.7c0.5,0.3,1,0.4,1.6,0.3c0.6,0,1.1-0.2,1.6-0.4c0.4-0.1,2.5-1.1,2.4-1.6c0-0.1-0.3-0.1-0.3-0.1
		c-0.7-0.1-1,0.6-1.5,1c-0.3,0.2-0.6,0.3-0.9,0.5c-0.1,0-0.2,0-0.3,0c-0.4,0-0.8-0.1-1.1-0.2c-0.6-0.3-1.3-1-1.3-1.6
		c0-0.1,0-0.2,0-0.3c0.2-0.2,1.4-0.2,1.8-0.2c0.6-0.1,1.3-0.1,1.8-0.1c0.4,0,0.8,0,1.1-0.1c0,0,0.1,0,0.1,0c0,0,0,0,0-0.1
		c0,0-0.1-0.1-0.2-0.1c-0.3-0.1-0.6-0.3-1-0.2c-0.1,0-0.2,0-0.3,0c-0.2,0-0.4,0-0.6,0.1c-0.1,0-0.2,0-0.3,0c-0.1,0-0.3,0-0.4,0
		c-0.1,0-0.3,0-0.4,0c-0.3,0-1.5,0.1-1.7-0.1c-0.2-0.1,0.2-1.2,0.3-1.3c0.2-0.2,0.4-0.4,0.6-0.6c0.4-0.2,0.8-0.2,1.2-0.1
		c0.8,0.2,0.9,1,2,0.4c0.1-0.1,0.3-0.2,0.4-0.3c0.1-0.7-1.5-0.6-2-0.6C71.9,1.9,71.8,1.9,71.7,2 M15.2,1.8h-0.4
		c-0.4,0-0.8,0.2-1.2,0.3c-0.9,0.4-1.8,1-2.2,1.9c-0.1,0.2-0.1,0.3-0.2,0.5c-0.3,0.7-0.2,1.7,0.3,2.3c0.5,0.6,1,1,1.8,1
		c0.3,0,0.6,0,0.9-0.1C15,7.6,18,6.5,18.1,5.8l0,0c0-0.1-0.3,0-0.4,0c-0.2,0-0.5,0-0.6,0.1c-0.2,0.1-0.4,0.4-0.5,0.5
		c-0.2,0.2-0.4,0.3-0.5,0.4C15.7,6.9,15.5,7,15.3,7c-0.1,0-0.2,0-0.3,0.1c-0.4,0-0.7,0-1-0.2c-0.2-0.1-0.4-0.2-0.6-0.3
		c-0.3-0.2-1.3-1.3-0.9-1.6c0.2-0.2,0.8-0.1,1.1-0.2c0.7,0,1.5-0.1,2.2-0.2c0.5,0,1.5,0,2-0.2l0-0.1c0-0.1-1-0.3-1.2-0.2
		c-0.2,0-0.3,0-0.5,0c-0.3,0-0.7-0.1-1,0c-0.1,0-0.3,0-0.4,0c-0.2,0-0.4,0-0.5,0c-0.2,0-0.5,0-0.6,0c-0.3,0-1,0-1.2-0.1
		c-0.1-0.1-0.1-0.3,0-0.4c0.2-0.5,0.4-1.2,1-1.5c0.5-0.2,1-0.2,1.5,0c0.3,0.1,0.6,0.3,0.8,0.5c0.4,0.2,1,0,1.3-0.3
		c0.1-0.1,0.1-0.2,0.1-0.3c-0.1-0.5-1.2-0.5-1.7-0.6C15.5,1.8,15.3,1.8,15.2,1.8 M36.5,2c-0.1,0-0.2,0-0.3,0c-0.2,0-0.5,0-0.7,0.1
		c-0.1,0-0.2,0-0.3,0c-0.3,0-0.5,0.1-0.7,0.1c-0.1,0-0.2,0-0.3,0c-0.2,0-0.3,0-0.4,0.1c0,0.6,1.8-0.1,2.1,0.3
		c0.7,0.7,0.5,2.7,0.4,3.7c0,0.3,0,0.7-0.1,1c0,0,0,0,0,0c-0.4,0.1-1.1-0.1-1.5,0.1c-0.1,0,0,0.2,0.2,0.3c0.2,0,0.5,0,0.7,0
		c0.2,0,0.4,0,0.7,0c0.5,0,1.1-0.1,1.6-0.1c0.2,0,0.5,0.1,0.7,0l0,0l0,0c0.2-0.3-0.6-0.2-0.7-0.3c-0.1-0.1-0.1-0.2-0.1-0.2
		c-0.1-0.6-0.1-1.3,0-1.8C37.8,5,37.9,4.8,38,4.6c0.2-0.4,1.2-1.9,1.7-1.8c0.5,0.1,0.6,2.1,0.5,2.6c0,0.3,0,0.6-0.1,0.9
		c0,0.3-0.1,0.7-0.1,1h0c0,0.1-0.6,0.1-0.7,0.1c0,0.1,0.1,0.2,0.2,0.2c0.3,0.1,0.7,0,1,0c0.5,0,1,0,1.6,0c0.1,0,0.1-0.1,0.1-0.2
		c-0.2,0-0.4-0.1-0.6-0.1c0-0.1,0-0.2-0.1-0.3c0-0.2,0-0.3,0-0.5c0-0.4,0-0.9,0.1-1.3c0-0.2,0-0.4,0.1-0.5c0.2-0.5,0.6-1.1,1.1-1.5
		c0.1-0.1,0.4-0.4,0.6-0.4c0.2,0,0.3,0.2,0.3,0.3c0.1,0.4,0.1,0.9,0.1,1.4c0,0.5,0,1.1,0,1.6c0,0.3,0,0.7-0.1,1
		c0,0.1-0.1,0.1-0.2,0.2c-0.2,0-0.5,0-0.7,0.1c0,0.1,0.1,0.2,0.2,0.2c0.4,0.1,0.9,0,1.3,0c0.2,0,0.5,0,0.7,0c0.4,0,0.8,0.1,1.2,0
		c0.1,0,0.2,0,0.2-0.1c0.1-0.2-0.8-0.1-0.9-0.2c-0.1-0.1-0.2-0.2-0.2-0.3c-0.1-0.2,0-0.5,0-0.8c0-0.1,0-0.3,0-0.4c0-0.1,0-0.3,0-0.4
		c0-0.7,0-1.4,0-2.2c0-0.4,0-0.9-0.2-1.2c-0.1-0.2-0.2-0.3-0.4-0.3c-0.6-0.1-1.8,1-2.3,1.5c-0.2,0.2-0.4,0.5-0.6,0.5v0
		c-0.1,0,0-0.1,0-0.2c0-0.5-0.1-1.9-0.8-1.7c-0.2,0-0.3,0-0.4,0.1c-0.6,0.2-1.1,0.7-1.5,1.1c-0.3,0.3-0.7,0.5-0.9,0.9
		c-0.1,0-0.1-0.1-0.1-0.2c0-0.3,0-0.6,0-0.9c0-0.3,0.1-0.7,0.1-1c0-0.1-0.1-0.1-0.1-0.2C37.3,1.8,36.9,1.8,36.5,2 M55.8,1.9
		C55.4,2,55,2.1,54.7,2.2c-0.1,0-0.1,0-0.2,0c-0.2,0-0.4,0-0.5,0.1c-0.2,0-0.4,0-0.6,0.1c0,0-0.1,0.1,0,0.2c0.2,0,0.3,0,0.5,0.1
		c0.3,0,0.9-0.1,1.1,0c0.5,0.4,0.2,3.3,0.2,4c0,0.2,0,0.4,0,0.7C55,7.3,55,7.4,55,7.4c-0.4,0-0.8,0-1.1,0.1c-0.1,0-0.1,0.1,0,0.2
		c0.1,0,0.2,0.1,0.4,0c0.2,0,0.4,0,0.6,0c0.7,0,1.4,0,2.1,0c0.1,0,0.4-0.1,0.2-0.2c-0.1-0.1-0.4,0-0.6,0c0-0.1-0.1-0.1-0.1-0.2
		c-0.1-0.2-0.1-0.6,0-0.9c0.1-1.2,0.6-2.3,1.5-3C58.1,3.2,58.3,3,58.6,3c0.2,0,0.2,0.1,0.3,0.3C59,3.7,59,4.1,59,4.5
		c0,0.4,0,0.9,0,1.3c0,0.4,0,1-0.1,1.4c0,0.1-0.1,0.1-0.2,0.2c-0.2,0-0.6,0-0.6,0c-0.1,0.1-0.1,0.1,0,0.1c0,0,0.1,0,0.1,0.1
		c0.1,0,0.1,0,0.2,0c0.5,0,1,0,1.4,0c0.5,0,1.1,0,1.6,0c0.1,0,0.2,0,0.2-0.2c0-0.4-1.2,0.1-1.3-0.5C60.3,6.2,60.7,2.4,60,2
		c-0.3-0.2-0.7,0.1-1,0.2c-0.6,0.3-1.1,0.7-1.6,1.1c-0.3,0.3-0.5,0.5-0.8,0.8l-0.1,0c0,0,0,0,0,0c0-0.1,0-0.3,0-0.4
		c0-0.4,0-0.7,0-1.1c0-0.4,0.2-1.1,0.2-1.1c0-0.1-0.1,0-0.2,0C56.5,1.6,56,1.8,55.8,1.9 M21.6,1.6c-0.1,0-0.3,0-0.4,0
		c-0.2,0-0.4,0-0.6,0c-0.2,0-0.5,0-0.7,0c-0.5,0-1,0-1.3,0.2c-0.1,0.1-0.1,0.2,0,0.2c0.3,0,0.7,0,0.8,0.2c0.1,0.2,0.1,0.5,0.1,0.7
		c0.1,0.8,0.1,1.6,0.1,2.4c0,0.5,0.1,1.4-0.1,1.8c-0.1,0.1-0.3,0.1-0.4,0.2c-0.3,0-1-0.2-1,0.1l0,0.1c0.1,0.1,0.1,0.1,0.2,0.1
		c0.9,0,1.7-0.1,2.6-0.1c0.3,0,1,0.1,1.3,0c0.3-0.2-0.3-0.4-0.5-0.3c-0.2,0-0.7,0.1-0.8-0.1C20.8,6.9,21,4.7,21,4.1
		c0-0.4,0-0.9,0-1.3c0-0.2,0.1-0.5,0.2-0.6c0.2-0.1,0.4-0.1,0.6-0.1C23,2,24.1,3,23.5,4c-0.2,0.3-0.4,0.4-0.7,0.6
		c-0.1,0-0.3,0-0.4,0.1c-0.1,0-0.7,0.1-0.7,0.2l0.1,0.1C21.9,5,22,5,22.2,5.1c0.2,0.1,0.4,0.3,0.6,0.4c0.3,0.3,0.5,0.5,0.8,0.8
		c0.3,0.3,1,1.3,1.4,1.4c0.1,0,0.3,0,0.4,0c0.3,0,0.5-0.1,0.7-0.2c0.1-0.1,0.3-0.2,0.4-0.3c0-0.1,0-0.1-0.1-0.1
		c-0.2-0.1-0.4-0.2-0.6-0.3c-0.1-0.1-0.2-0.2-0.3-0.3c-0.3-0.3-0.6-0.6-0.9-0.9C24.4,5.3,24,5,23.8,4.7c-0.2-0.4,0.2-0.6,0.4-0.8
		c0.2-0.2,0.3-0.3,0.5-0.4c0.1-0.2,0.2-0.4,0.3-0.6c0.3-1.2-0.8-1.2-1.7-1.3c-0.3,0-0.6,0-1,0C22.1,1.6,21.8,1.6,21.6,1.6 M2.9,1
		c-1,0-2.5,1.4-2.8,2.3C0,3.4,0,3.7,0,3.7c0.1,0,0.2,0,0.2-0.1C0.4,3.3,0.4,3,0.6,2.7c0.7-0.9,2-0.9,2.9-0.3C3.7,2.6,3.9,2.8,4.1,3
		c1.1,0.9,1.7,2.1,2.2,3.3c0.2,0.4,0.3,0.8,0.4,1.2c0,0.1,0.1,0.2,0.1,0.2c0,0,0.1,0.1,0.1,0.1C7,7.8,7.1,7.7,7.2,7.6
		C7.4,7.5,7.8,7.3,8,7.1c0.2-0.3,0.3-0.8,0.4-1.2c0.3-0.8,0.7-1.7,1.1-2.5C9.8,3,10,2.4,10.4,2c0.3-0.3,1.7-0.1,1.7-0.2
		c0-0.1,0-0.2-0.1-0.2c-0.1-0.1-1.7,0-1.7,0H9.1c-0.2,0-0.4,0-0.6,0c-0.1,0-0.2,0.1-0.2,0.2c0,0.1,0.1,0.1,0.1,0.1
		c0.3,0,0.9-0.1,1.1,0.1c0.1,0.1,0,0.3,0,0.4C9.3,2.8,9.1,3.1,8.9,3.5C8.7,4,8.5,4.6,8.2,5.2C8.1,5.5,7.9,5.8,7.8,6.1H7.7
		c0-0.1-0.1-0.2-0.1-0.3c0-0.1-0.1-0.2-0.1-0.3C7.3,5.2,7.1,4.9,7,4.6C6.3,3.3,5.3,1.3,3.6,1C3.4,0.9,2.9,0.9,2.9,1 M64.7,0.1
		c0,0,0.1-0.1,0.1-0.1c0.1,0.1,0,0.3,0,0.5c0,0.3-0.2,1.5,0.1,1.7c0.2,0.1,0.6,0.1,0.9,0.1c0.5,0,1,0,1.5,0c0.2,0,0.5,0,0.7,0
		c0,0,0.2-0.1,0.2,0l0,0c-0.1,0.1-0.2,0.1-0.3,0.2c-0.1,0.1-0.2,0.2-0.3,0.2c-0.5,0.1-1.2,0-1.7,0c-0.2,0-0.5,0-0.7,0
		c-0.1,0-0.3,0.1-0.4,0.1c0,0.6,0,1.3,0,2c0,0.6-0.2,1.8,0.4,2.1c0.5,0.3,1.1,0,1.4-0.3c0.2-0.2,0.4-0.4,0.7-0.4c0.1,0,0.3,0,0.3,0
		c0,0,0,0.1,0,0.1c-0.1,0-0.5,0.4-0.7,0.5c-0.6,0.4-1.2,0.7-1.8,0.9C64.8,7.9,64.6,8,64.4,8C64.2,8,64,8,63.9,7.9
		c-0.5-0.4-0.3-1.5-0.3-2.1c0-0.4,0.1-2.7-0.1-2.9c-0.2-0.1-1.4,0-1.8,0c-0.1,0-0.2,0-0.2,0c-0.1,0,0-0.1,0.1-0.2
		c0.3-0.2,0.4-0.3,0.8-0.3c0.2-0.1,0.5,0,0.7,0c0.1-0.1,0.2-0.1,0.3-0.1c0.2-0.2,0.1-0.7,0.3-0.9c0.2-0.2,0.4-0.3,0.6-0.5
		C64.3,0.5,64.5,0.3,64.7,0.1"/>
</g>
</svg>
