<!-- Generator: Adobe Illustrator 19.1.0, SVG Export Plug-In  -->
<svg version="1.1"
	 xmlns="http://www.w3.org/2000/svg" xmlns:xlink="http://www.w3.org/1999/xlink" xmlns:a="http://ns.adobe.com/AdobeSVGViewerExtensions/3.0/"
	 x="0px" y="0px" width="23.9px" height="35.4px" viewBox="0 0 23.9 35.4" enable-background="new 0 0 23.9 35.4"
	 xml:space="preserve">
<defs>
</defs>
<g>
	<g>
		<path d="M15.6,2C15.5,2,15.6,2.1,15.6,2c-0.1,0.1-0.3,0.1-0.3,0.2c-0.4-0.1-0.7,0.1-1,0.1c-0.2,0.1-0.6,0.1-0.8,0.3
			c0-0.1-0.2-0.1-0.3-0.1c0,0.2-0.3,0-0.4,0.1c0,0.1-0.1,0.1-0.2,0.1c-0.1,0-0.1,0.1-0.2,0.1c0,0.1-0.1,0.1-0.2,0.1
			c-0.1,0-0.1,0.1-0.3,0.1C11.9,3,11.7,3,11.6,3c-0.1,0-0.1,0.1-0.2,0.1c-0.1,0-0.2,0-0.3,0.1c-0.1,0.1-0.3,0.1-0.5,0.1
			c-0.2,0-0.2,0.2-0.4,0.2c-0.1,0.1-0.3,0.1-0.4,0.2c0,0.1-0.1,0.1-0.2,0.1c0,0.1-0.1,0.1-0.2,0.2C9.3,3.9,9.3,4,9,4
			c0,0.1-0.2,0.1-0.3,0.2c0,0.1-0.1,0.2-0.2,0.3c-0.4,0-0.4,0.2-0.8,0.3C7.7,4.8,7.6,4.9,7.5,5c0,0.2-0.2,0.3-0.3,0.4
			C7,5.5,6.9,5.6,6.8,5.7H6.5c0,0.2-0.2,0.2-0.3,0.3C6,6.1,6.1,6.4,5.8,6.3C5.7,6.4,5.7,6.6,5.5,6.6C5.3,6.6,5.2,6.8,5,6.8
			C5,7,4.9,7.2,4.7,7.2C4.6,7.4,4.6,7.7,4.4,7.7c0,0.4-0.3,0.4-0.2,0.8C4,8.6,4.1,8.8,4,8.8C4,9,3.7,8.9,3.8,9.2
			C3.7,9.4,3.4,9.4,3.4,9.8c0,0.1,0,0.1-0.1,0.1c0,0.3-0.1,0.4-0.1,0.8c-0.1,0-0.2,0.1-0.2,0.3c0,0.2-0.2,0.1-0.2,0.3V12
			c0.1,0.3-0.2,0.2-0.2,0.4v0.5c0,0.2-0.2,0.2-0.2,0.4v0.5c0,0.2-0.2,0.1-0.2,0.3v0.6c-0.1,0.2-0.2,0.4-0.3,0.8
			c-0.1,0.4,0.1,0.5,0.1,0.9c0,0.4,0,0.6,0.2,0.8c-0.1,0-0.1,0.1-0.1,0.3c-0.1,0-0.1,0.1-0.1,0.3c0.1,0.2,0.1,0.5,0.1,0.8
			c0.1,0,0.1,0.2,0.1,0.3c-0.1,0-0.1,0-0.1,0.1c0.1,0,0.1,0.1,0.1,0.2c0.1,0,0.1,0.2,0.1,0.3c0,0.1,0,0.3,0.1,0.3
			c-0.1,0.4,0.1,0.5,0.2,0.8c0,0.1,0,0.1,0,0.2c0,0,0.1,0.1,0.1,0.1c0,0.2-0.1,0.2-0.1,0.3c0.1,0,0,0.2,0.2,0.3v0.4
			C3,21.9,3,22,3,22.1c0,0.2,0.2,0.2,0.1,0.4c0.1,0,0,0.2,0.2,0.3C3.2,23,3.4,23,3.4,23.2c0.1,0.2,0.3,0.3,0.3,0.7
			c0.1,0.3,0.3,0.4,0.3,0.8C4,24.6,4,24.8,4,24.9c0.1,0,0.1,0.2,0.2,0.3c0,0.1,0.1,0.2,0.2,0.2c0,0.1,0.1,0.2,0.2,0.3
			c0,0.3,0.2,0.4,0.3,0.7c0.1,0,0.2,0.1,0.2,0.3C5,26.7,5.1,26.9,5,27c0.2,0.1,0.3,0.2,0.4,0.4c0.1,0,0.1,0.2,0.2,0.3
			c0,0.1,0.1,0.1,0.2,0.3c0.1,0,0.1,0.2,0.2,0.3c0,0.1,0.1,0.1,0.2,0.3c0.2,0.1,0.3,0.3,0.4,0.5c0.1,0,0.1,0.1,0.2,0.2
			c0.1,0,0.3,0,0.3,0.1c0.1,0.1,0.1,0.3,0.2,0.4c0.1,0,0.2,0.1,0.3,0.2c0,0,0.1,0,0.1,0.1c0.1,0,0.2,0,0.2,0.1
			c0.1,0,0.2,0.1,0.3,0.1c0,0.1,0.1,0.2,0.3,0.2c-0.1,0.2,0.2,0.2,0.3,0.3c0,0.2,0.2,0.2,0.3,0.3C9,30.9,9.3,30.9,9.4,31
			c0,0.1,0.1,0.1,0.2,0.1c0,0.1,0.1,0.1,0.2,0.2c0,0.2,0.2,0.2,0.3,0.3c0.3-0.1,0.3,0.1,0.5,0.1c0,0.2,0.3,0.1,0.3,0.3
			c0.1,0,0.2,0,0.2,0.1c0.1,0,0.2,0,0.2,0.1c0.3-0.1,0.3,0.1,0.4,0.2c0.1,0.1,0.3,0.1,0.4,0.2c0.1,0.1,0.3,0.1,0.5,0.1
			c0,0.1,0.1,0.1,0.2,0.1c0,0.1,0.1,0.1,0.2,0.2h0.3c0,0.1,0.1,0.1,0.2,0.2c0.3-0.1,0.5,0.1,0.8,0.1c0.1,0,0.2,0.1,0.3,0.1
			c-0.1,0.2,0.4-0.1,0.3,0.2c0.3,0,0.5,0,0.7,0.1c0-0.1,0.1-0.1,0.2,0c0.2,0,0.2,0.1,0.3,0.1h0.7c0.2,0.1,0.2,0.3,0.5,0.3
			c0.5-0.1,0.9,0.2,1.3,0c0-0.1,0-0.2-0.1-0.3c-0.1,0-0.1,0-0.1-0.1c-0.1,0-0.2,0-0.2-0.1c-0.3,0.1-0.4-0.1-0.7-0.1
			c0-0.1-0.2-0.1-0.3-0.2c0-0.1-0.2-0.1-0.3-0.2c-0.2-0.1-0.3-0.2-0.6-0.3c-0.1-0.2-0.3-0.3-0.5-0.3c-0.1-0.2-0.2-0.4-0.5-0.3
			c-0.1-0.2-0.2-0.3-0.4-0.4c-0.3,0-0.3-0.3-0.5-0.3c-0.2-0.1-0.3-0.2-0.4-0.4c-0.1,0-0.2-0.1-0.3-0.2c-0.2,0.1-0.2-0.2-0.3-0.2
			c-0.2-0.3-0.3-0.5-0.5-0.8c-0.2-0.1-0.3-0.3-0.5-0.3c-0.1-0.2-0.2-0.3-0.4-0.4c0-0.1-0.1-0.2-0.2-0.3c-0.2,0-0.1-0.2-0.3-0.3
			c-0.1-0.2-0.4-0.3-0.5-0.6c0.1-0.5-0.4-0.4-0.3-0.8c0-0.1,0-0.2-0.1-0.2c-0.1,0-0.1-0.1-0.1-0.3c0-0.1-0.1-0.1-0.2-0.1
			c0-0.1,0-0.2-0.1-0.3c0-0.1-0.1-0.1-0.1-0.2c0-0.1,0-0.2-0.1-0.3c0-0.2-0.2-0.2-0.2-0.4c-0.2,0,0.1-0.5-0.2-0.4
			c-0.1-0.1-0.1-0.3-0.1-0.5c-0.1,0-0.1-0.1-0.2-0.2V24c-0.1,0-0.2,0-0.2-0.1v-0.6c0-0.2-0.2-0.2-0.2-0.4c0.1-0.3-0.2-0.2-0.2-0.4
			C9.2,22.1,9,22,8.9,21.7v-0.5c0-0.2-0.2-0.2-0.2-0.4v-0.7c0-0.1,0-0.1-0.1-0.1c-0.1,0-0.1-0.1-0.1-0.2v-0.4c0-0.1,0-0.1-0.1-0.1
			c-0.1,0-0.1-0.1-0.1-0.2v-0.6c0-0.2-0.2-0.2-0.2-0.4v-0.8c0-0.1,0-0.1-0.1-0.1c-0.1,0-0.1-0.1-0.1-0.2V15c0.2-0.4,0.2-0.9,0.2-1.5
			c0-0.3,0.3-0.2,0.2-0.5V12c-0.1-0.3,0.2-0.2,0.2-0.4V11c0.2,0.1-0.1-0.4,0.2-0.3c0-0.1,0.1-0.1,0.1-0.2c0-0.1,0-0.2,0.1-0.3V9.4
			C9,9.4,9,9.3,9,9.2c0-0.1,0.1-0.1,0.1-0.2c0.2,0,0.2-0.2,0.3-0.3c0.1-0.3,0.3-0.5,0.3-0.8c0.1-0.3,0.2-0.5,0.4-0.8
			c-0.1-0.3,0.1-0.3,0.2-0.4c0-0.2,0.2-0.2,0.2-0.4c0.2-0.1,0.3-0.3,0.5-0.4c0-0.2,0.2-0.1,0.3-0.3c0.2,0.1,0.2-0.2,0.3-0.2
			c0-0.1,0.1-0.1,0.2-0.3c0.2,0,0.1-0.2,0.3-0.3c0.1-0.2,0.3-0.3,0.4-0.5c0.1,0,0.1-0.1,0.2-0.1c0.1,0,0.2,0,0.2-0.1
			c0.1,0,0.2-0.1,0.3-0.3c0.1,0,0.2-0.1,0.3-0.3c0.3,0.1,0.2-0.2,0.4-0.2c0-0.1,0.1-0.2,0.3-0.3c0.3,0.1,0.3-0.1,0.4-0.2
			c0-0.2,0.2-0.1,0.3-0.3c0.2,0,0.2-0.1,0.5-0.1c0-0.1,0-0.3,0.1-0.3c0.1,0,0.1-0.1,0.3-0.2h0.4c0.1,0,0.1-0.2,0.2-0.3
			C15.9,2.1,15.8,2,15.6,2 M20.3,0.2c0.1,0.4-0.1,0.6-0.1,1c-0.2,0-0.1,0.2-0.3,0.2c0,0.1-0.1,0.2-0.3,0.2c-0.1,0.2-0.2,0.4-0.6,0.3
			C19,2,18.8,2,18.7,2.1c0,0.2-0.2,0.2-0.3,0.3c-0.4,0-0.4,0.2-0.8,0.3c-0.1,0.1-0.3,0.2-0.3,0.3c-0.1,0-0.1,0.1-0.3,0.1
			c0,0.1-0.2,0.1-0.2,0.2c-0.3,0-0.2,0.2-0.4,0.3c-0.1,0.1-0.3,0.2-0.3,0.3C16.1,3.9,16.1,4,16,4c0,0.1-0.2,0.1-0.2,0.2
			c-0.1,0-0.1,0.2-0.2,0.2c0,0.1-0.2,0.1-0.2,0.2c-0.2,0.1-0.2,0.2-0.4,0.2c-0.2,0-0.2,0.2-0.3,0.3c-0.2,0-0.1,0.3-0.3,0.3
			c0.1,0.3-0.2,0.2-0.2,0.4c-0.3,0-0.3,0.1-0.5,0.2c0.1,0.3-0.3,0.1-0.3,0.3c-0.1,0-0.1,0.2-0.2,0.2c0,0.1-0.1,0.1-0.1,0.2
			c-0.1,0.1-0.3,0.1-0.3,0.3c-0.2,0-0.3,0.2-0.4,0.3c-0.1,0.1-0.2,0.1-0.3,0.2c-0.1,0-0.1,0.1-0.3,0.1c0,0.1,0,0.1-0.1,0.2
			c-0.1,0-0.1,0.2-0.1,0.3c-0.1,0-0.2,0.1-0.2,0.2c0,0.2-0.2,0.2-0.3,0.3v0.5c-0.1,0.1,0,0.2-0.2,0.3c-0.1,0.2-0.1,0.5-0.2,0.7
			c0.1,0.2-0.2,0.2-0.2,0.3c0,0.2-0.1,0.2-0.1,0.3c-0.1,0.1-0.1,0.2-0.1,0.3c-0.1,0,0,0.2-0.2,0.3c0,0.3,0,0.5-0.1,0.7
			c0,0.3-0.1,0.3-0.2,0.5c0,0.6,0,1.2-0.2,1.7c0,0.7,0.1,1.5-0.1,2.1c-0.1,0.3,0.1,0.3,0.1,0.6c0,0.1,0.1,0.5-0.1,0.5
			c0.1,0.2,0.1,0.3,0.2,0.5v0.8c0.1,0.1,0,0.3,0.1,0.5c0,0,0.1,0,0.1,0.1c0,0.1-0.1,0.3,0,0.5c0,0,0.1,0,0.1,0.1
			c0,0.2-0.1,0.4-0.1,0.6c0,0.2,0.1,0.3,0.2,0.4V21c0,0.3,0.3,0.2,0.2,0.5v0.3c0.1,0,0.2,0.1,0.2,0.2v0.8c0,0.1,0.1,0.2,0.2,0.3v0.4
			c0,0.2,0.2,0.1,0.2,0.3c0,0.1,0.1,0.1,0.2,0.3c0,0.1,0.1,0.2,0.2,0.3c0,0.2,0,0.3,0.2,0.3v0.6c0.1,0,0.2,0.1,0.2,0.3
			c0,0.1,0.2,0.1,0.2,0.2v0.3c0,0.2,0.2,0.1,0.2,0.3c0.2,0,0.1,0.3,0.3,0.3c0,0.1,0.1,0.2,0.3,0.3c-0.1,0.3,0.2,0.2,0.2,0.4
			c0.3-0.1,0.1,0.3,0.3,0.2c-0.1,0.3,0.1,0.3,0.2,0.4c0,0.2,0.2,0.1,0.2,0.3c0,0.1,0.1,0.1,0.2,0.1c0,0.1,0,0.1,0.1,0.1
			c0,0.1,0.1,0.1,0.2,0.3c0.1,0,0.1,0.1,0.3,0.2c0.1,0,0.1,0.1,0.3,0.1c0,0.1,0.1,0.1,0.1,0.3c0.1,0,0.2,0.1,0.2,0.2
			c0.3,0,0.2,0.2,0.3,0.3c0.3,0,0.2,0.3,0.5,0.3c0,0.1,0.2,0.1,0.2,0.2c0,0.1,0.2,0.1,0.2,0.2c0.2,0,0.3,0.2,0.4,0.3
			c0,0.1,0.1,0.1,0.2,0.2c0,0.1,0.2,0.1,0.2,0.2c0.1,0,0.2,0.1,0.3,0.2c0.1,0,0.1,0.1,0.3,0.1c0,0.1,0.2,0.1,0.3,0.1
			c0,0.1,0.1,0.2,0.2,0.2c0.1,0.1,0.3,0.2,0.3,0.3c0.3,0,0.4,0.1,0.3,0.3c0.2,0,0.4,0,0.4,0.2c0.1,0,0.1,0.1,0.1,0.2
			c0.1,0,0.1,0,0.2,0.1c0.2,0.1,0.5,0,0.6,0.3c0.3,0,0.6-0.1,0.8,0.1c0.1,0.1,0.5,0.1,0.8,0.1c0,0.1,0.1,0.1,0.2,0.1
			c0.1,0,0.1,0.1,0.2,0.1c0.1,0,0.1,0.1,0.2,0.1c0.1,0,0.2,0,0.2,0.1c0.3,0,0.5,0.1,0.8,0.2c0.3,0,0.7-0.1,0.8,0.1
			c0.4-0.1,0.5,0.2,0.6,0.3c0.1,0.4-0.2,0.4-0.3,0.6c0,0.1-0.1,0.1-0.2,0.1c0,0.1,0,0.1-0.1,0.1c0,0.1-0.1,0.1-0.2,0.3
			c-0.3-0.1-0.3,0.1-0.5,0.1c-0.1,0-0.2,0-0.2,0.1c-0.1,0-0.1,0-0.2,0.1h-0.4c-0.1,0-0.2,0-0.3,0.1c-0.2,0-0.3,0.1-0.6,0.1
			c-0.2,0-0.4,0.2-0.6,0.2c-0.3,0-0.4,0.1-0.6,0.1H19c-0.3-0.1-0.5,0.1-0.8,0c0,0,0-0.1-0.1-0.1c-0.2,0-0.3,0.1-0.6,0.1
			c-0.3,0.1-0.3-0.1-0.5-0.1C17,35.2,17,35.4,17,35.4c-0.1,0-0.2-0.1-0.3-0.1h-0.3c-0.1,0-0.1,0-0.2-0.1c-0.3-0.1-0.3,0.1-0.5,0.1
			c-0.1,0-0.2-0.1-0.3-0.2c-0.2,0-0.2-0.1-0.3-0.1c-0.3,0-0.4,0.2-0.8,0.1c-0.3-0.1-0.5-0.2-0.8-0.3c-0.3,0-0.4-0.1-0.8-0.1
			c0-0.1-0.3,0-0.3-0.2c-0.1,0-0.1-0.1-0.3-0.1c-0.3,0-0.5-0.1-0.9-0.1c0-0.1-0.1-0.1-0.2-0.1c-0.1,0-0.1-0.1-0.2-0.1
			c-0.1-0.1-0.2-0.1-0.3-0.1c-0.2,0-0.2-0.1-0.3-0.1c0-0.1-0.3,0-0.3-0.2c-0.2,0-0.2-0.2-0.4-0.1c-0.1-0.1-0.2,0-0.3-0.2
			c-0.3,0.1-0.3-0.2-0.7-0.2c-0.1-0.1-0.1-0.3-0.3-0.3c0-0.1-0.1-0.2-0.2-0.3c-0.2,0-0.2-0.2-0.4-0.2c0.1-0.2-0.2-0.2-0.2-0.3
			c-0.4,0-0.4-0.2-0.8-0.2c-0.2-0.4-0.6-0.6-0.8-1c-0.3,0-0.2-0.3-0.5-0.2c-0.1-0.1-0.1-0.3-0.3-0.3c0-0.1-0.1-0.2-0.2-0.3
			c0-0.2-0.1-0.2-0.1-0.3c-0.2-0.1-0.3-0.2-0.4-0.4c-0.2-0.1-0.3-0.2-0.5-0.3c-0.1-0.2-0.2-0.3-0.3-0.6c-0.2-0.1-0.2-0.3-0.4-0.3
			c0-0.1-0.1-0.1-0.2-0.1c0-0.1,0-0.1-0.1-0.1c0-0.1-0.1-0.2-0.2-0.2c0-0.2,0-0.3-0.2-0.3c0-0.1-0.1-0.2-0.2-0.3
			c0-0.2,0-0.3-0.1-0.4c-0.2,0,0-0.3-0.1-0.4c0-0.1-0.1-0.2-0.3-0.3c0-0.2-0.3-0.1-0.3-0.3c-0.1-0.5-0.2-0.9-0.2-1.4
			c0-0.2-0.2-0.2-0.2-0.4c-0.2,0-0.3-0.1-0.3-0.3c0.1-0.6-0.1-1.1-0.1-1.6c0-0.1-0.1-0.1-0.1-0.3c0-0.1,0-0.2-0.1-0.2
			c-0.1-0.1-0.1-0.3-0.1-0.5c0-0.1-0.2-0.1-0.2-0.3c0-0.1-0.1-0.1-0.1-0.3c0-0.2-0.3-0.2-0.3-0.4c0-0.1,0-0.2-0.1-0.2
			c0.1-0.7-0.1-1.2-0.1-1.8c0.1-0.3-0.2-0.3-0.2-0.6c0-0.4,0-0.6,0.1-0.9c-0.1,0,0-0.1,0-0.1V17c0-0.1,0.1-0.2,0.1-0.3v-1
			c-0.1-0.4,0.3-0.3,0.3-0.6c-0.2-0.4-0.1-1-0.1-1.5c-0.1-0.2,0.2-0.2,0.2-0.3c0-0.1,0.1-0.1,0.2-0.3v-0.7c0.2,0,0.2-0.3,0.2-0.5
			C1,11.7,1,11.6,1,11.4c0.1,0,0.2-0.1,0.2-0.3c0.1-0.2,0.2-0.4,0.2-0.8c0.1,0,0.2-0.1,0.2-0.3c0.1,0,0.1-0.1,0.2-0.2
			C1.8,9.9,1.9,9.7,2,9.7C2,9.3,2.2,9.2,2.2,8.9c0.1,0,0.2-0.1,0.2-0.3c0.2-0.1,0.4-0.2,0.4-0.4c0.1,0,0-0.2,0.2-0.3
			C3,7.9,3,7.8,3,7.7h0.2C3.1,7.4,3.4,7.3,3.4,7c0.1,0,0.2-0.1,0.3-0.3c0-0.1,0.1-0.1,0.2-0.3C4,6.5,3.9,6.2,4,6.2
			c0-0.1,0.1-0.1,0.2-0.3c0.2-0.1,0.3-0.3,0.5-0.4c0.1-0.1,0-0.2,0.2-0.3C4.9,5.2,5,5.2,5,5.1C5.1,5,5.4,5,5.3,4.8
			c0.1,0,0.1-0.1,0.2-0.1c0.1,0,0.1,0,0.2-0.1c0.2,0,0.1-0.2,0.3-0.3c0-0.1,0.1-0.1,0.2-0.3C6.3,4.2,6.2,3.9,6.5,4
			c0-0.2,0.2-0.1,0.3-0.3C7,3.8,6.9,3.5,7.1,3.5c0.2,0,0.1-0.2,0.3-0.2c0.3-0.1,0.5-0.3,0.6-0.5c0.2,0,0.3,0,0.4-0.1
			c0-0.2,0.3,0,0.4-0.1c0.2-0.1,0.5-0.2,0.5-0.5h0.4c0.1,0,0.1-0.1,0.1-0.2h0.2c0-0.1,0.1-0.1,0.1-0.3c0.1,0,0.2,0,0.3-0.1
			c0.1,0,0.1,0.1,0.3,0.1c0-0.1,0.2-0.1,0.3-0.1c0-0.1,0.1-0.2,0.2-0.2h0.7c0.1,0,0.1,0,0.2-0.1c0-0.1,0-0.1,0.1-0.1
			c0.1,0,0.2,0,0.3-0.1c0.4,0,0.7,0,1-0.1C13.5,1.3,13.4,1,13.6,1c0.1,0,0.3,0,0.3-0.1c0.2,0,0.2-0.1,0.3-0.1c0.1,0,0.1-0.1,0.3-0.2
			c0.1,0,0.4,0.1,0.4-0.1c0.1-0.1,0.2-0.1,0.3-0.1c0.2-0.1,0.5-0.1,0.7-0.2h0.8C17,0.4,17,0.2,17.1,0.2c0.4,0,0.8,0,1.1-0.2
			c0.3-0.1,0.3,0.1,0.5,0.1C19.2-0.1,19.9,0,20.3,0.2"/>
	</g>
</g>
</svg>
