<!-- Generator: Adobe Illustrator 19.1.0, SVG Export Plug-In  -->
<svg version="1.1"
	 xmlns="http://www.w3.org/2000/svg" xmlns:xlink="http://www.w3.org/1999/xlink" xmlns:a="http://ns.adobe.com/AdobeSVGViewerExtensions/3.0/"
	 x="0px" y="0px" width="25.6px" height="35.4px" viewBox="0 0 25.6 35.4" enable-background="new 0 0 25.6 35.4"
	 xml:space="preserve">
<defs>
</defs>
<g>
	<g>
		<path d="M24.2,15.5c0-0.1,0-0.2,0-0.3C24.2,15.3,24.2,15.5,24.2,15.5 M1.8,16.9c0-0.3,0.1-0.5,0.1-0.8c-0.1,0,0-0.1,0-0.1l0-0.2
			c0-0.1,0.1-0.1,0.1-0.3l0.1-0.9c0-0.3,0.2-0.2,0.2-0.5c-0.1-0.3,0-0.9,0.1-1.3c0-0.2,0.1-0.1,0.2-0.3c0-0.1,0.1-0.1,0.1-0.2
			l0.1-0.6c0.2,0,0.2-0.2,0.2-0.4c0.1,0,0.2-0.1,0.2-0.3c0.1,0,0.1-0.1,0.1-0.2c0.1-0.2,0.2-0.3,0.2-0.6c0.1,0,0.1-0.1,0.2-0.2
			c0.1,0,0.1-0.1,0.1-0.1C3.8,9.9,3.9,9.8,4,9.7c0-0.3,0.1-0.4,0.2-0.6c0.1,0,0.2-0.1,0.2-0.3c0.2,0,0.3-0.1,0.4-0.3
			c0.1,0,0-0.2,0.2-0.2C5,8.3,4.9,8.2,5,8.2l0.1,0c0-0.3,0.2-0.3,0.2-0.6c0.1,0,0.2-0.1,0.2-0.2c0-0.1,0.1-0.1,0.2-0.2
			c0.1,0,0.1-0.2,0.2-0.2C5.9,6.8,6,6.8,6,6.7c0.2-0.1,0.2-0.3,0.4-0.3c0.1-0.1,0.1-0.2,0.1-0.2c0-0.1,0.1-0.1,0.1-0.2
			C6.8,5.9,7,6,6.9,5.8C7,5.8,7,5.7,7.1,5.8c0.1,0,0.1,0,0.1-0.1c0.1,0,0.1-0.2,0.2-0.2c0-0.1,0.1-0.1,0.1-0.2
			c0.2,0.1,0.1-0.2,0.3-0.1C7.9,5,8.1,5.1,8.1,5c0.2,0.1,0.1-0.2,0.3-0.1c0.1,0,0.1-0.2,0.3-0.1c0.2-0.1,0.4-0.2,0.5-0.4
			c0.1,0,0.2,0,0.3,0c0-0.2,0.2,0,0.3,0c0.2-0.1,0.4-0.1,0.4-0.4l0.3,0c0.1,0,0.1-0.1,0.1-0.1l0.1,0c0-0.1,0.1-0.1,0.1-0.2
			c0.1,0,0.2,0,0.2-0.1c0,0,0.1,0.1,0.2,0.1c0-0.1,0.1-0.1,0.2-0.1c0-0.1,0.1-0.1,0.1-0.1l0.5,0.1c0.1,0,0.1,0,0.1-0.1
			c0-0.1,0-0.1,0.1-0.1c0.1,0,0.2,0,0.2-0.1c0.3,0.1,0.5,0,0.8,0c0.2,0.1,0.1-0.1,0.3-0.1c0.1,0,0.2,0.1,0.3,0c0.1,0,0.1-0.1,0.3,0
			c0.1,0,0.1-0.1,0.2-0.1c0.1,0,0.3,0.1,0.3,0c0.1-0.1,0.2-0.1,0.3,0c0.2-0.1,0.4,0,0.5-0.1c0,0,0.8,0,0.9-0.1c0,0,0,0,0.1,0v0
			c0,0,0,0,0,0c0.1,0,0.2-0.1,0.3-0.1c0.1,0,0.2,0,0.1,0c0.1,0,2.2,0.3,2.3,0.3c0,0,0,0,0.1,0l-0.1,0c0.1,0,0.2,0.1,0.2,0.1
			c0.1,0.1-0.1,0,0,0.2c0.1,0,0.3,0.3,0.4,0.2c-0.3-0.2,0.1,0-0.2-0.3c0,0,0.1,0.1,0.2,0.2c0,0,0,0,0,0c0,0,0,0,0,0c0,0,0,0,0,0
			c0.3,0.2,0.1,0.2,0.4,0.4c0-0.1,0.1,0,0.2,0.1c-0.1-0.1-0.1,0,0,0.1c0.2,0.2,0.2,0.2,0.2,0.3l-0.1-0.1c0,0.1,0.1,0.2,0.2,0.3
			c0,0-0.1-0.1,0-0.1c0.1,0.2,0.3,0.3,0.4,0.5c0.1,0.1,0.1,0,0.1,0c0.1,0.3,0.2,0.2,0.3,0.5c-0.1,0-0.1-0.1,0,0.1L21,5.2l0.1,0.3
			C21,5.4,21,5.2,20.9,5.1c0,0.2,0,0.1,0,0.1c0.2,0.1,0.2,0.4,0.3,0.6l0.1-0.1c0.2,0.3,0.2,0.6,0.4,1l-0.1-0.1
			c0,0.1,0.1,0.3,0.1,0.4c0,0,0.1,0,0.1,0.1c0,0,0,0,0,0c0,0,0,0,0,0c0,0,0.1,0.3,0.1,0.4l0.1,0.2c0.1,0.3,0,0.4,0.1,0.8
			c0-0.1,0.1,0,0.1-0.2c0,0.1,0.1,0.2,0,0.2c0,0.1,0,0.3,0.1,0.4c0,0,0-0.1,0-0.1c0,0,0,0.1,0,0.1c0,0,0,0,0,0c0,0.1,0,0.1,0,0.2
			c0,0,0,0,0,0c0,0,0,0.2-0.1,0.1c0.2,0.3,0.3,1,0.4,1.3c0,0,0,0,0-0.1l0,0.1c0,0,0,0,0,0c0,0.3,0.1,0.6,0.1,0.8c0,0,0,0,0,0
			c0.1,0.3-0.1,0.2,0,0.6c0.1,0.2,0-0.2,0.1-0.1c0.2,0,0.1,0.4,0.2,0.7l0-0.1c0.1,0.2,0,0.5,0.1,0.8c0,0,0,0,0,0c0,0.2,0,0.6,0,0.9
			c0.1-0.1,0-0.1,0.1-0.1c0,0.1-0.1,0-0.1,0.2c0,0.1,0.1,0.3,0.2,0.3l0-0.3c0.1,0.1,0,0.3,0.1,0.5l0,0c0,0.4-0.1,0.4,0,0.8l0,0
			c-0.1,0.2,0.1,0.2,0,0.4l0.1,0.1c0,0.2-0.1,0.5-0.1,0.8c0.1-0.2,0.1-0.5,0.1-0.7c0,0.2,0,0.5,0,0.6c0-0.1,0-0.1,0-0.2
			c-0.1,0.2-0.1,0.4-0.1,0.7c0.2-0.1,0.1,0.8,0.2,1c-0.1,0.5,0,1.1,0,1.7c-0.1-0.2,0,0.2-0.2,0.1c0,0.1,0,0.2,0,0.2l0,0c0,0,0,0,0,0
			c0,0,0.1-0.3,0.1,0c0-0.2-0.1,0.3-0.1,0h0l0.1,0.4c0,0.1,0-0.1,0.1-0.1c0,0.3,0.1,0.1,0.1,0.3c0,0-0.1,0.1-0.1,0.3l0-0.3
			c-0.1,0.4,0.1,0.4,0,0.8l0.1-0.1c-0.1,0.2-0.1,0.8-0.2,1c0,0,0,0.1,0.1,0c-0.1,0.5-0.3,1.2-0.3,1.6l0,0c0,0.1-0.1,0.2-0.1,0.3
			c0,0,0,0,0,0c0,0.1-0.1,0.3-0.1,0.4l0.1-0.1c-0.1,0.5-0.3,0.8-0.4,1.2c0.1,0,0,0.4,0,0.6l0,0c-0.2,0.6-0.4,1-0.6,1.5
			c0,0.4-0.4,1.1-0.6,1.7c0-0.1-0.1,0-0.1,0.1c0,0.1-0.2,0.3-0.2,0.3l0,0c0,0.1-0.1,0.4-0.2,0.6l-0.1,0c-0.1,0.3-0.3,0.6-0.5,0.8
			c-0.1,0.1-0.2,0.2-0.3,0.3c-0.1,0.1-0.2,0.2-0.2,0.3c-0.1,0.1-0.3,0.2-0.4,0.2l0,0c-0.2,0.1-0.6,0.4-0.6,0.4
			c-0.1,0-1.9,0.3-2.4,0.1c0,0,0,0,0.1,0.1c0,0-0.1,0-0.1,0l0,0.1c0,0-0.1,0-0.1,0l0.1,0c0,0-0.1,0-0.1,0c-0.1,0-0.2,0.1-0.3,0.1
			c-0.2-0.1-0.3,0-0.5,0l-0.7-0.1c-0.2-0.1-0.4,0.1-0.6-0.1c0,0,0-0.1-0.1-0.1c-0.2,0-0.3,0.1-0.5,0c-0.2,0-0.2-0.1-0.4-0.1
			c-0.1-0.1-0.1,0.1-0.1,0.1c0,0-0.1-0.1-0.2-0.1l-0.3,0c-0.1,0-0.1,0-0.1-0.1c-0.2-0.1-0.2,0-0.4,0c-0.1,0-0.2-0.1-0.2-0.2
			c-0.1,0-0.2-0.1-0.2-0.1c-0.2-0.1-0.3,0.1-0.6,0c-0.2-0.1-0.4-0.2-0.5-0.3c-0.2,0-0.3-0.2-0.6-0.1c0-0.1-0.2,0-0.2-0.2
			c-0.1,0-0.1-0.1-0.2-0.1c-0.3,0-0.4-0.2-0.7-0.1c0-0.1-0.1-0.1-0.1-0.1c-0.1,0-0.1-0.1-0.1-0.1c-0.1-0.1-0.1-0.1-0.3-0.1
			c-0.1,0-0.2-0.1-0.2-0.1c0-0.1-0.2,0-0.2-0.2C8,31.1,8,31,7.8,31c0-0.1-0.2-0.1-0.2-0.2c-0.3,0-0.2-0.2-0.5-0.2
			c0-0.1-0.1-0.2-0.2-0.2c0-0.1-0.1-0.2-0.2-0.2c-0.1,0-0.1-0.2-0.3-0.2c0.1-0.2-0.1-0.2-0.1-0.3c-0.3,0-0.3-0.2-0.6-0.2
			c-0.1-0.4-0.4-0.6-0.6-0.9c-0.2,0-0.1-0.2-0.4-0.2c0-0.1-0.1-0.2-0.2-0.2c0-0.1,0-0.2-0.1-0.2c0-0.1,0-0.2,0-0.3
			c-0.1-0.1-0.2-0.2-0.3-0.4c-0.1-0.1-0.2-0.2-0.4-0.3c0-0.2-0.1-0.3-0.1-0.5c-0.1-0.1-0.1-0.3-0.3-0.3c0-0.1-0.1-0.1-0.1-0.1
			c0-0.1,0-0.1-0.1-0.1c0-0.1,0-0.1-0.1-0.2c0-0.2,0-0.3-0.1-0.3c0-0.1,0-0.2-0.1-0.2c0-0.2,0-0.3,0-0.4c-0.1,0,0-0.3,0-0.4
			c0-0.1-0.1-0.2-0.2-0.2c0-0.1-0.2-0.1-0.2-0.2c0-0.4-0.1-0.8,0-1.2c0-0.1-0.1-0.2-0.1-0.4c-0.2,0-0.2-0.1-0.2-0.2
			c0.1-0.5,0-0.9,0.1-1.4c0-0.1-0.1-0.1,0-0.2c0-0.1,0-0.1,0-0.2c-0.1-0.1,0-0.3,0-0.4c0-0.1-0.1-0.1-0.1-0.2c0-0.1,0-0.1,0-0.2
			c0-0.2-0.2-0.2-0.2-0.4c0-0.1,0-0.1-0.1-0.2c0.1-0.6,0-1,0.1-1.6C1.9,17.2,1.7,17.2,1.8,16.9 M15.2,33.9
			C15.2,33.9,15.2,33.9,15.2,33.9C15.2,33.9,15.2,33.9,15.2,33.9C15.1,33.9,15.2,33.9,15.2,33.9 M21.1,31.6L21.1,31.6l0.1-0.2
			L21.1,31.6z M23.4,9.7L23.4,9.7C23.3,9.6,23.4,9.6,23.4,9.7 M17.1,0.3C17.1,0.3,17.1,0.3,17.1,0.3L17.1,0.3L17.1,0.3L17.1,0.3
			L17.1,0.3L17.1,0.3L17,0.2c0,0,0.1,0,0.1,0c0,0,0,0,0.1,0C17.4,0.1,17.4,0.2,17.1,0.3 M0,19.1c0.1,0,0.1,0.1,0.1,0.2
			c-0.1,0.3,0.2,0.2,0.2,0.4c0,0.1,0.1,0.1,0,0.3c0,0.1,0.1,0.2,0.1,0.3c0,0.2-0.1,0.4,0,0.5c0.1,0,0.1,0.1,0.1,0.2
			c0,0.1,0,0.2,0,0.3c0,0.5,0,1-0.1,1.6C0.5,22.9,0.6,23,0.7,23c0,0.2,0.1,0.3,0.1,0.4c-0.1,0.5,0,1,0,1.4c0,0.2,0.2,0.1,0.2,0.3
			c0.1,0.1,0.2,0.1,0.2,0.3c0,0.1-0.1,0.4,0,0.4c0.1,0.1,0.1,0.2,0,0.4c0.1,0,0.1,0.1,0.1,0.3c0.1,0,0.2,0.2,0.1,0.3
			c0.1,0,0.1,0.1,0.1,0.2c0,0,0.1,0,0.1,0.1c0.1,0,0.1,0,0.1,0.1c0.2,0.1,0.2,0.3,0.3,0.4c0,0.3,0.1,0.4,0.2,0.6
			c0.1,0.1,0.3,0.2,0.4,0.3C2.9,28.7,3,28.9,3.2,29c0,0.1,0.1,0.2,0,0.3c0.1,0,0.1,0.1,0.1,0.3c0.2,0,0.2,0.2,0.3,0.3
			c0.3-0.1,0.2,0.2,0.4,0.2c0.2,0.4,0.5,0.6,0.6,1.1c0.3,0,0.3,0.2,0.7,0.2c0,0.2,0.2,0.1,0.1,0.3c0.2-0.1,0.2,0.2,0.4,0.2
			C5.9,32,6,32.1,6,32.2c0.2,0,0.2,0.2,0.3,0.3c0.3,0,0.3,0.3,0.6,0.2c0,0.1,0.2,0.1,0.2,0.2c0.2,0,0.2,0.1,0.4,0.1
			c0,0.1,0.2,0.1,0.2,0.2c0.1,0,0.1,0.1,0.3,0.1c0.1,0,0.2,0,0.3,0.1c0.1,0,0.1,0.1,0.1,0.1c0.1,0,0.1,0,0.1,0.1
			c0.4,0,0.5,0.1,0.8,0.2c0.1,0,0.1,0.1,0.2,0.1c0,0.1,0.2,0.1,0.2,0.2c0.3,0,0.4,0.1,0.7,0.2c0.2,0.1,0.4,0.3,0.6,0.4
			c0.3,0.1,0.4-0.1,0.7,0c0.1,0,0.1,0.1,0.3,0.1c0,0.1,0.1,0.2,0.2,0.2c0.2,0,0.2-0.1,0.5,0c0,0.1,0.1,0.1,0.1,0.1l0.3,0
			c0.1-0.1,0.2,0.1,0.3,0.1c0,0,0-0.1,0.1-0.1c0.2,0,0.2,0.2,0.4,0.1c0.2,0,0.4,0,0.5,0c0.1,0,0,0.1,0.1,0.1c0.2,0.1,0.4,0,0.7,0.1
			l0.8,0.1c0.2,0,0.3-0.1,0.5,0c0.1,0,0.2,0,0.3-0.1c0,0,0.1,0,0.1,0l-0.1,0c0,0.1,0.1,0.1,0.1,0l0-0.1c0,0,0.1,0,0.1,0
			c-0.1,0-0.1-0.1-0.1-0.1c0.5,0.3,2.7-0.1,2.8-0.1c0.1-0.1,0.6-0.4,0.8-0.5l-0.1-0.1c0.1-0.1,0.3-0.2,0.5-0.3
			c0-0.1,0.1-0.2,0.2-0.3c0.1-0.1,0.2-0.3,0.4-0.4c0.3-0.3,0.5-0.6,0.6-1l0.1,0c0.1-0.2,0.3-0.5,0.3-0.6l0,0.1
			c-0.1,0,0.1-0.2,0.2-0.4c0.1-0.1,0.2-0.2,0.2-0.1c0.2-0.6,0.7-1.5,0.7-2c0.3-0.6,0.6-1,0.7-1.7l0,0c0.1-0.2,0.1-0.7,0-0.7
			c0.2-0.5,0.4-0.8,0.5-1.4l-0.1,0.1c0-0.2,0.1-0.4,0.1-0.4c0-0.1,0,0,0,0c0-0.2,0.1-0.2,0.1-0.3l0,0c0-0.5,0.3-1.2,0.4-1.9
			c0,0.1-0.1,0-0.1,0c0.2-0.2,0.2-0.9,0.3-1.2l-0.1,0.2c0.1-0.5-0.1-0.5,0-1l0.1,0.3c0-0.2,0-0.4,0.1-0.3c0-0.2-0.1,0-0.1-0.4
			c0,0,0,0.3-0.1,0.1l-0.1-0.5h0c0,0,0,0,0,0l0,0c0,0,0-0.1,0-0.2c0.2,0.1,0-0.4,0.2-0.2c0.1-0.7,0-1.3,0-1.9
			c-0.2-0.3,0-1.2-0.2-1.2c0-0.3,0-0.6,0.1-0.8c0,0.1,0,0.2,0,0.2c0.1-0.1,0.1-0.5,0-0.7c0,0.2-0.1,0.6-0.1,0.8
			c0-0.3,0.1-0.8,0.1-0.9l-0.1-0.1c0.1-0.3-0.1-0.2,0-0.5l0,0c0-0.5,0.1-0.5,0-1l0,0c0-0.2,0-0.4-0.1-0.5l0,0.3
			c-0.1,0-0.1-0.2-0.2-0.3c0-0.3,0.1-0.1,0.1-0.3c-0.1-0.1,0,0-0.1,0.1c0-0.3,0-0.8,0-1.1c0,0,0,0,0,0c-0.1-0.4,0-0.7-0.1-0.9v0.1
			c-0.1-0.3,0-0.8-0.2-0.8c-0.1-0.1,0.1,0.3-0.1,0.1c-0.1-0.4,0.1-0.3,0-0.7c0,0.1,0,0,0,0.1c-0.1-0.3-0.1-0.6-0.2-0.9
			c-0.2-0.3-0.2-1.1-0.5-1.5c0.1,0.1,0-0.1,0.1-0.1c0,0,0,0,0,0c0-0.1,0-0.2,0-0.2C24,7.2,24,6.9,24,6.8c0,0,0-0.1-0.1-0.3
			c0,0.3-0.1,0.1-0.1,0.3c-0.1-0.4,0-0.5-0.2-0.9l-0.2-0.2c0.1-0.1-0.1-0.4-0.1-0.5c-0.1-0.1-0.1-0.2-0.2-0.1c0-0.2-0.2-0.4-0.2-0.5
			l0.1,0.1C23,4.3,23,4,22.7,3.6l-0.1,0.1c-0.2-0.2-0.2-0.5-0.4-0.6c0.1,0,0.1,0.1,0-0.1c0.1,0.1,0.1,0.3,0.2,0.4L22.3,3l0.3,0.5
			c-0.1-0.2-0.1-0.2,0-0.2c-0.1-0.3-0.3-0.3-0.4-0.6c-0.1-0.1-0.1,0-0.2-0.1c-0.1-0.3-0.4-0.4-0.5-0.6c-0.1,0,0.1,0.1,0,0.1
			c-0.1-0.2-0.2-0.3-0.2-0.3L21.5,2c-0.1-0.1-0.1-0.2-0.3-0.4c-0.1-0.1-0.1-0.3,0-0.1c0-0.1-0.2-0.2-0.2-0.1c-0.3-0.3,0-0.3-0.4-0.5
			c0,0,0,0.1,0,0c-0.1-0.1-0.2-0.1-0.2-0.2c0.3,0.3-0.2,0,0.2,0.3c-0.1,0-0.3-0.2-0.4-0.3c-0.1-0.2,0.1-0.1,0-0.2c0,0-0.1,0-0.2-0.1
			l0.1,0c-0.1-0.1-0.1-0.1-0.1-0.1C20,0.4,17.5,0,17.4,0c0.2,0,0,0-0.1,0c-0.1,0-0.2,0.1-0.3,0.1c0,0-0.1,0-0.1,0v0c0,0,0,0-0.1,0
			c-0.1,0-1.1,0.1-1.1,0.1c-0.2,0.1-0.4,0-0.6,0.1c-0.1,0-0.2,0-0.3,0.1c0,0.2-0.3,0-0.4,0c-0.1,0-0.1,0.1-0.2,0.1
			c-0.1,0-0.2,0.1-0.3,0.1c0,0.1-0.2,0.1-0.3,0.1c-0.1,0-0.1,0.2-0.3,0.1c-0.3,0-0.6,0.1-0.9,0c0,0.1-0.1,0.1-0.2,0.1
			c0,0-0.1,0-0.1,0.1c0,0.1-0.1,0.1-0.2,0.1L11.5,1c-0.1,0-0.1,0.1-0.2,0.2c-0.1,0-0.2,0-0.2,0.1c-0.1,0-0.2-0.1-0.2-0.1
			c0,0.1-0.1,0.1-0.2,0.1c0,0.1-0.1,0.1-0.1,0.2l-0.1,0c0,0.1,0,0.2-0.1,0.2l-0.4,0C9.9,1.8,9.6,1.9,9.4,2C9.3,2,9,1.8,9,2
			c-0.1,0.1-0.2,0.1-0.4,0C8.5,2.3,8.3,2.4,8.1,2.5C7.9,2.4,7.9,2.7,7.8,2.6C7.6,2.6,7.6,2.9,7.4,2.8c0,0.2-0.3,0-0.2,0.2
			C6.9,2.9,7,3.2,6.8,3.1c0,0.1-0.1,0.1-0.2,0.2c-0.1,0-0.1,0.3-0.3,0.2c0,0.1-0.1,0.1-0.2,0.1C6.1,3.7,6.1,3.7,6,3.7
			C6.1,4,5.9,3.9,5.8,4c0,0.1-0.1,0.1-0.2,0.2c-0.1,0-0.1,0.2-0.2,0.2C5.2,4.5,5.1,4.7,4.9,4.8c0,0.1-0.1,0.1-0.2,0.2
			C4.6,5,4.7,5.3,4.5,5.3c0,0.1-0.1,0.1-0.2,0.2C4.3,5.6,4.2,5.7,4.1,5.7c0,0.4-0.3,0.3-0.2,0.7l-0.1,0c0,0.1,0,0.2-0.1,0.2
			c-0.1,0-0.1,0.2-0.2,0.2C3.4,7.1,3.2,7.2,3.1,7.2c0,0.2,0,0.3-0.2,0.3C2.8,7.8,2.6,7.9,2.6,8.3C2.5,8.4,2.4,8.5,2.3,8.6
			c0,0.1-0.1,0.1-0.2,0.2C2.1,8.9,2.1,9,2,9c0,0.4-0.1,0.6-0.2,0.7c0,0.1-0.1,0.2-0.2,0.2c0,0.2,0,0.3-0.2,0.3c0,0.2,0,0.5-0.2,0.5
			l-0.1,0.7c0,0.1-0.1,0.1-0.2,0.2c0,0.2-0.2,0.1-0.2,0.3c0,0.5-0.2,1.1-0.1,1.5c0,0.3-0.3,0.2-0.3,0.6l-0.1,1
			c0,0.2-0.1,0.2-0.1,0.3l0,0.3c0,0-0.1,0.1,0,0.1C0.1,16,0,16.3,0,16.6c-0.1,0.3,0.2,0.3,0.1,0.6C0,17.9,0.1,18.4,0,19.1"/>
	</g>
</g>
</svg>
