<!-- Generator: Adobe Illustrator 19.1.0, SVG Export Plug-In  -->
<svg version="1.1"
	 xmlns="http://www.w3.org/2000/svg" xmlns:xlink="http://www.w3.org/1999/xlink" xmlns:a="http://ns.adobe.com/AdobeSVGViewerExtensions/3.0/"
	 x="0px" y="0px" width="25.6px" height="35.4px" viewBox="0 0 25.6 35.4" enable-background="new 0 0 25.6 35.4"
	 xml:space="preserve">
<defs>
</defs>
<g>
	<path d="M23.7,17.5c0.1,0.6,0,1,0.1,1.6c0,0-0.1,0.1-0.1,0.2c0.1,0.2-0.2,0.2-0.2,0.4c0,0.1-0.1,0.1,0,0.2c0,0.1-0.1,0.1-0.1,0.2
		c0,0.2,0,0.3,0,0.4c0,0-0.1,0.1-0.1,0.2c0,0.1,0,0.2,0,0.2c0,0.5,0,0.9,0.1,1.4c0,0.1-0.1,0.2-0.2,0.2c0,0.2-0.1,0.2-0.1,0.4
		c0.1,0.5,0,0.8,0,1.2c0,0.2-0.2,0.1-0.2,0.2c-0.1,0-0.1,0.1-0.2,0.2c0,0.1,0.1,0.4,0,0.4c0,0.1-0.1,0.2,0,0.4
		c-0.1,0-0.1,0.1-0.1,0.2c-0.1,0-0.1,0.1-0.1,0.3c-0.1,0-0.1,0.1-0.1,0.2c0,0-0.1,0-0.1,0.1c0,0-0.1,0-0.1,0.1
		c-0.1,0.1-0.1,0.3-0.3,0.3c0,0.2-0.1,0.3-0.1,0.5c-0.1,0.1-0.2,0.2-0.4,0.3c-0.1,0.2-0.2,0.3-0.3,0.4c0,0.1-0.1,0.1,0,0.3
		c-0.1,0-0.1,0.1-0.1,0.2c-0.2,0-0.2,0.1-0.2,0.2c-0.2-0.1-0.2,0.2-0.4,0.2c-0.1,0.3-0.5,0.5-0.6,0.9c-0.3,0-0.3,0.2-0.6,0.2
		c0,0.1-0.2,0.1-0.1,0.3c-0.2,0-0.2,0.1-0.3,0.2c-0.1,0-0.1,0.1-0.2,0.2c-0.2,0-0.2,0.1-0.2,0.2c-0.3,0-0.2,0.2-0.5,0.2
		c0,0.1-0.1,0.1-0.2,0.2c-0.2,0-0.2,0.1-0.3,0.1c0,0.1-0.2,0.1-0.2,0.2c-0.1,0-0.1,0.1-0.3,0.1c-0.1,0-0.2,0-0.3,0.1
		c-0.1,0-0.1,0.1-0.1,0.1c0,0-0.1,0-0.1,0.1c-0.3,0-0.4,0.1-0.7,0.1c-0.1,0-0.1,0.1-0.2,0.1c0,0.1-0.2,0.1-0.2,0.2
		c-0.3,0-0.4,0.1-0.6,0.1c-0.2,0.1-0.3,0.3-0.5,0.3c-0.3,0.1-0.3-0.1-0.6,0c-0.1,0-0.1,0.1-0.2,0.1c0,0.1-0.1,0.2-0.2,0.2
		c-0.1,0-0.2-0.1-0.4,0c0,0.1,0,0.1-0.1,0.1l-0.3,0c-0.1,0-0.2,0.1-0.2,0.1c0,0,0-0.1-0.1-0.1c-0.2,0-0.2,0.1-0.4,0.1
		c-0.2,0-0.3,0-0.5,0c-0.1,0,0,0.1-0.1,0.1c-0.2,0.1-0.4,0-0.6,0.1L10,33.1c-0.2,0-0.3-0.1-0.5,0c-0.1,0-0.2,0-0.3-0.1
		c0,0-0.1,0-0.1,0l0.1,0c0,0-0.1,0.1-0.1,0l0-0.1c0,0-0.1,0-0.1,0c0.1,0,0.1-0.1,0.1-0.1c-0.4,0.3-2.3-0.1-2.4-0.1
		c-0.1,0-0.5-0.3-0.7-0.4l0,0c-0.1-0.1-0.3-0.2-0.4-0.2c0-0.1-0.1-0.2-0.2-0.3c-0.1-0.1-0.2-0.2-0.3-0.3C5,31.3,4.8,31,4.7,30.7
		l-0.1,0c-0.1-0.2-0.3-0.4-0.2-0.6l0,0c0.1,0-0.1-0.2-0.1-0.3c-0.1-0.1-0.2-0.1-0.1-0.1c-0.2-0.5-0.6-1.3-0.6-1.7
		c-0.2-0.5-0.5-0.9-0.6-1.5l0,0c0-0.2-0.1-0.6,0-0.6c-0.1-0.4-0.3-0.7-0.4-1.2L2.5,25c0-0.1-0.1-0.3-0.1-0.4c0,0,0,0,0,0
		c0-0.1-0.1-0.2-0.1-0.3l0,0c0-0.4-0.3-1.1-0.3-1.6c0,0.1,0.1,0,0.1,0c-0.2-0.2-0.2-0.8-0.2-1l0.1,0.1c-0.1-0.4,0.1-0.4,0-0.8l0,0.3
		c0-0.2,0-0.3-0.1-0.3c0-0.2,0.1,0,0.1-0.3c0,0,0,0.2,0.1,0.1L2,20.3h0c0,0.3-0.1-0.2-0.1,0c0-0.3,0.1,0,0.1,0c0,0,0,0,0,0l0,0
		c0,0,0-0.1,0-0.2c-0.1,0,0-0.4-0.2-0.1c0-0.6,0-1.1,0-1.7c0.1-0.2,0-1.1,0.2-1c0-0.3,0-0.5-0.1-0.7c0,0.1,0,0.1,0,0.2
		c0-0.1,0-0.4,0-0.6c0,0.2,0.1,0.5,0.1,0.7c0-0.3-0.1-0.7-0.1-0.8L2,15.9c-0.1-0.2,0.1-0.2,0-0.4l0,0c0-0.4-0.1-0.4,0-0.8l0,0
		c0-0.1,0-0.3,0.1-0.5l0,0.3c0.1,0,0.1-0.2,0.2-0.3C2.2,14,2,14.1,2.1,14c0.1-0.1,0,0,0.1,0.1c0-0.3,0-0.7,0-0.9c0,0,0,0,0,0
		c0.1-0.3,0-0.6,0.1-0.8v0.1c0.1-0.2,0-0.7,0.2-0.7c0.1-0.1-0.1,0.3,0.1,0.1c0.1-0.4-0.1-0.3,0-0.6c0,0,0,0,0,0
		c0-0.2,0.1-0.5,0.1-0.8c0,0,0,0,0,0l0-0.1c0,0,0,0,0,0.1c0.2-0.3,0.2-1,0.4-1.3C3,9.3,3,9.1,3,9.1c0,0,0,0,0,0C3.1,9,3,9,3,8.9
		c0,0,0,0,0,0c0-0.1,0-0.1,0-0.1c0,0,0,0.1,0,0.1c0.1-0.1,0.1-0.4,0.1-0.4c0,0,0-0.1,0-0.2c0,0.2,0,0.1,0.1,0.2
		c0.1-0.3,0-0.4,0.1-0.8l0.1-0.2C3.4,7.4,3.6,7.1,3.6,7.1c0,0,0,0,0,0c0,0,0,0,0,0C3.6,7.1,3.7,7,3.7,7c0-0.1,0.2-0.3,0.1-0.4
		L3.8,6.7C4,6.3,4,6,4.2,5.7l0.1,0.1c0.2-0.2,0.1-0.4,0.3-0.6c-0.1,0-0.1,0.1,0-0.1C4.6,5.2,4.5,5.4,4.4,5.5l0.1-0.3L4.3,5.6
		c0.1-0.2,0.1-0.2,0-0.1C4.4,5.2,4.5,5.2,4.6,5c0.1-0.1,0.1,0,0.1,0c0.1-0.2,0.4-0.4,0.4-0.5c0,0-0.1,0.1,0,0.1
		c0.1-0.1,0.2-0.2,0.2-0.3L5.2,4.3c0.1-0.1,0-0.2,0.2-0.3c0.1-0.1,0.1-0.2,0-0.1c0-0.1,0.2-0.1,0.2-0.1c0.3-0.3,0-0.2,0.4-0.4
		c0,0,0,0,0,0c0,0,0,0,0,0c0,0,0,0,0,0C6,3.3,6.1,3.3,6.1,3.2c-0.2,0.2,0.2,0-0.2,0.3c0.1,0,0.2-0.2,0.4-0.2c0.1-0.2,0-0.1,0-0.2
		c0,0,0.1,0,0.2-0.1L6.4,3c0.1,0,0.1,0,0.1,0c0.1,0,2.2-0.4,2.3-0.3c-0.1,0,0,0,0.1,0c0.1,0,0.2,0.1,0.3,0.1c0,0,0.1,0,0,0v0
		c0,0,0,0,0.1,0c0.1,0,0.9,0.1,0.9,0.1c0.1,0.1,0.4,0,0.5,0.1c0.1,0,0.2,0,0.3,0c0,0.2,0.2,0,0.3,0c0.1,0,0.1,0.1,0.2,0.1
		c0.1,0,0.1,0.1,0.3,0c0,0.1,0.2,0.1,0.3,0c0.1,0,0.1,0.2,0.3,0.1c0.2,0,0.5,0.1,0.8,0c0,0.1,0.1,0.1,0.2,0.1c0,0,0.1,0,0.1,0.1
		c0,0.1,0.1,0.1,0.1,0.1l0.5-0.1C14,3.4,14,3.5,14,3.6c0.1,0,0.2,0,0.2,0.1c0.1,0,0.1,0,0.2-0.1c0,0.1,0.1,0.1,0.2,0.1
		c0,0.1,0.1,0.1,0.1,0.2l0.1,0c0,0.1,0,0.1,0.1,0.1l0.3,0c0,0.3,0.3,0.3,0.4,0.4c0.1,0,0.3-0.1,0.3,0c0.1,0.1,0.2,0.1,0.3,0
		c0.1,0.2,0.3,0.3,0.5,0.4C17,4.7,17,4.9,17.1,4.9c0.2-0.1,0.1,0.2,0.3,0.1c0,0.1,0.2,0,0.2,0.2c0.2-0.1,0.1,0.2,0.3,0.1
		c0,0.1,0.1,0.1,0.1,0.2c0.1,0,0.1,0.2,0.2,0.2c0,0.1,0.1,0.1,0.1,0.1c0.1,0,0.1,0.1,0.1,0.1c0,0.2,0.1,0.1,0.2,0.2
		c0,0.1,0.1,0.1,0.1,0.2c0.1,0,0.1,0.2,0.1,0.2c0.2,0.1,0.2,0.3,0.4,0.3c0,0.1,0.1,0.1,0.1,0.2c0.1,0,0.1,0.2,0.2,0.2
		c0,0.1,0.1,0.1,0.2,0.2c0,0.1,0.1,0.2,0.2,0.2c0,0.3,0.2,0.3,0.2,0.6l0.1,0c0,0.1,0,0.1,0.1,0.1c0.1,0,0.1,0.2,0.2,0.2
		c0.1,0.2,0.2,0.3,0.4,0.3c0,0.2,0,0.3,0.2,0.3c0,0.2,0.2,0.3,0.2,0.6c0.1,0.1,0.2,0.1,0.3,0.3c0,0.1,0.1,0.1,0.1,0.1
		c0,0.1,0.1,0.2,0.2,0.2c0,0.3,0.1,0.5,0.2,0.6c0,0.1,0.1,0.2,0.1,0.2c0,0.2,0,0.3,0.2,0.3c0,0.2,0,0.4,0.2,0.4l0.1,0.6
		c0,0.1,0.1,0.1,0.1,0.2c0,0.1,0.2,0.1,0.2,0.3c0,0.4,0.1,1,0.1,1.3c0,0.3,0.3,0.2,0.2,0.5l0.1,0.9c0,0.1,0.1,0.2,0.1,0.3l0,0.2
		c0,0,0.1,0.1,0,0.1c0.1,0.3,0.1,0.5,0.1,0.8C23.9,17.2,23.6,17.2,23.7,17.5 M10.4,33.9C10.4,33.9,10.4,33.9,10.4,33.9
		C10.3,33.9,10.3,33.9,10.4,33.9C10.4,33.9,10.4,33.9,10.4,33.9 M4.3,31.4L4.3,31.4l0.1,0.2L4.3,31.4z M2.2,9.7L2.2,9.7
		C2.1,9.6,2.2,9.6,2.2,9.7 M8.3,0.1C8.4,0.1,8.4,0.1,8.3,0.1c0.1,0.1,0.2,0.1,0.2,0.1v0.1l0,0l0,0c0,0,0,0,0,0v0l0,0
		c0,0-0.1,0-0.1,0C8.2,0.2,8.1,0.1,8.3,0.1 M1.4,15.5c0-0.1,0-0.3,0-0.3C1.4,15.3,1.4,15.4,1.4,15.5 M25.4,17.2
		c-0.1-0.3,0.2-0.3,0.1-0.6c0-0.4-0.1-0.6-0.2-0.9c0.1,0,0-0.1,0-0.1l0-0.3c0-0.1-0.1-0.2-0.1-0.3l-0.1-1c0-0.4-0.3-0.2-0.3-0.6
		c0.1-0.4,0-1-0.1-1.5c0-0.2-0.2-0.2-0.2-0.3c0-0.1-0.1-0.1-0.2-0.2l-0.1-0.7c-0.2,0-0.2-0.3-0.2-0.5C24,10.3,24,10.2,24,10
		c-0.1,0-0.2-0.1-0.2-0.2c-0.1-0.2-0.2-0.4-0.2-0.7c-0.1,0-0.2-0.1-0.2-0.2c-0.1,0-0.1-0.1-0.2-0.2c-0.1-0.1-0.2-0.2-0.3-0.3
		c0-0.4-0.2-0.5-0.2-0.7c-0.1,0-0.2-0.1-0.2-0.3c-0.2,0-0.3-0.2-0.4-0.4c-0.1,0-0.1-0.2-0.2-0.2c-0.1,0-0.1-0.1-0.1-0.2l-0.1,0
		c0-0.4-0.2-0.4-0.2-0.7c-0.1,0-0.2-0.1-0.2-0.2c0-0.1-0.1-0.1-0.2-0.2c-0.2,0-0.1-0.2-0.2-0.2c0-0.1-0.1-0.1-0.2-0.2
		c-0.2-0.1-0.3-0.3-0.5-0.4c-0.1-0.1-0.1-0.2-0.2-0.2c0-0.1-0.1-0.1-0.2-0.2c-0.1-0.1-0.3,0-0.2-0.2c-0.1,0-0.1-0.1-0.2-0.1
		c-0.1,0-0.1,0-0.2-0.1c-0.2,0-0.1-0.2-0.3-0.2c0-0.1-0.1-0.1-0.2-0.2c-0.2,0.1-0.2-0.2-0.4-0.1c0-0.2-0.2-0.1-0.2-0.2
		c-0.2,0.1-0.2-0.2-0.4-0.1c-0.1,0-0.1-0.2-0.3-0.1c-0.2-0.1-0.4-0.2-0.6-0.4c-0.2,0-0.3,0-0.4,0c0-0.2-0.3,0-0.4,0
		c-0.2-0.1-0.4-0.2-0.5-0.5l-0.4,0c-0.1,0-0.1-0.1-0.1-0.2l-0.1,0c0-0.1-0.1-0.1-0.1-0.2c-0.1,0-0.2,0-0.2-0.1
		c-0.1,0-0.1,0.1-0.2,0.1c0-0.1-0.1-0.1-0.2-0.1c0-0.1-0.1-0.1-0.2-0.2L13.5,1c-0.1,0-0.1,0-0.2-0.1c0-0.1,0-0.1-0.1-0.1
		c-0.1,0-0.2,0-0.2-0.1c-0.3,0.1-0.6,0-0.9,0c-0.2,0.1-0.2-0.2-0.3-0.1c-0.1,0-0.3,0.1-0.3-0.1c-0.1,0-0.2-0.1-0.3-0.1
		c-0.1,0-0.1-0.1-0.2-0.1c-0.1,0-0.4,0.1-0.4,0c-0.1-0.1-0.2-0.1-0.3-0.1c-0.2-0.1-0.5,0-0.6-0.1c0,0-1-0.1-1.1-0.1c0,0,0,0-0.1,0v0
		c0,0-0.1,0-0.1,0C8.4,0.1,8.3,0.1,8.2,0C8.1,0,8,0,8.1,0C8,0,5.5,0.4,5.4,0.4c0,0,0,0-0.1,0.1l0.1,0C5.4,0.5,5.3,0.6,5.3,0.6
		c-0.1,0.1,0.1,0,0,0.2C5.1,0.8,5,1.1,4.9,1C5.2,0.8,4.8,1,5,0.7C5,0.8,4.9,0.9,4.8,0.9c0,0,0,0,0,0C4.5,1.1,4.8,1.1,4.4,1.4
		c0-0.1-0.1,0-0.2,0.1c0.1-0.1,0.1,0,0,0.1C4.1,1.8,4.1,1.9,4,2l0.1-0.1c0,0.1-0.1,0.2-0.2,0.3c0,0,0.1-0.2,0-0.1
		C3.9,2.3,3.6,2.4,3.5,2.7c-0.1,0.1-0.1,0-0.2,0.1C3.2,3.1,3.1,3,2.9,3.4C3,3.3,3,3.3,3,3.5L3.2,3L3.1,3.4C3.2,3.2,3.3,3,3.3,3
		c0,0.2-0.1,0.2,0,0.1C3.2,3.2,3.2,3.5,3,3.7L2.9,3.6C2.6,4,2.6,4.3,2.3,4.8l0.1-0.1c0,0.1-0.1,0.3-0.2,0.5c0,0-0.1,0.1-0.2,0.1
		c0,0-0.1,0.4-0.1,0.5L1.9,5.9c-0.2,0.4,0,0.5-0.2,0.9c0-0.1-0.1,0-0.1-0.3c0,0.1-0.1,0.3-0.1,0.3c-0.1,0.1,0,0.4-0.1,0.5
		c0,0.1,0.1,0.1,0,0.2c0,0,0,0,0,0c0,0,0,0.2,0.1,0.1C1.2,8.1,1.2,8.9,1,9.2c0,0.3-0.1,0.7-0.2,0.9c0,0,0,0,0-0.1
		c-0.1,0.4,0.1,0.3,0,0.7c-0.1,0.2,0-0.2-0.1-0.1c-0.2,0-0.1,0.5-0.2,0.8l0-0.1c-0.1,0.2,0,0.5-0.1,0.9c0,0,0,0,0,0
		c0.1,0.3,0,0.7,0,1.1c-0.1-0.1,0-0.2-0.1-0.1c0,0.2,0.1,0,0.1,0.3c0,0.1-0.1,0.3-0.2,0.3l0-0.3c-0.1,0.1,0,0.4-0.1,0.5l0,0
		c0,0.5,0.1,0.5,0,1l0,0c0.1,0.3-0.1,0.2,0,0.5l-0.1,0.1c0,0.2,0.1,0.6,0.1,0.9c-0.1-0.2-0.1-0.5-0.1-0.8c0,0.2,0,0.6,0,0.7
		c0-0.1,0-0.2,0-0.2c0.1,0.2,0.1,0.5,0.1,0.8C0,16.9,0.2,17.9,0,18.2c0.1,0.6,0,1.2,0,1.9c0.2-0.3,0,0.2,0.2,0.2c0,0.2,0,0.2,0,0.2
		l0,0c0,0,0,0,0,0L0.2,21c0,0.1,0-0.2-0.1-0.1C0.1,21.2,0,21,0,21.3c0.1-0.1,0.1,0.1,0.1,0.3l0.1-0.3c0.1,0.5-0.1,0.5,0,1l-0.1-0.2
		c0.1,0.3,0.1,1,0.3,1.2c0,0-0.1,0.1-0.1,0c0.1,0.6,0.4,1.4,0.4,1.9l-0.1,0c0,0.1,0.1,0.2,0.1,0.3c0,0-0.1,0,0,0
		c0,0.1,0.1,0.3,0.1,0.4l-0.1-0.1c0.1,0.6,0.3,0.9,0.5,1.4c-0.1,0,0,0.5,0,0.7l0,0c0.2,0.7,0.5,1.1,0.7,1.7c0,0.4,0.5,1.3,0.7,2
		c0-0.1,0.1,0,0.2,0.1c0,0.2,0.3,0.3,0.2,0.4l0,0c0,0.2,0.1,0.4,0.3,0.6l0.1,0c0.1,0.3,0.4,0.7,0.6,1c0.1,0.1,0.3,0.3,0.4,0.4
		c0.1,0.1,0.2,0.2,0.2,0.3c0.1,0.1,0.3,0.2,0.5,0.3l-0.1,0.1c0.2,0.1,0.7,0.4,0.8,0.5c0.1,0,2.3,0.4,2.8,0.1c0,0,0,0.1-0.1,0.1
		c0,0,0.1,0,0.1,0l0,0.1c0,0,0.1,0,0.1,0l-0.1,0c0,0,0.1,0,0.1,0c0.1,0,0.2,0.1,0.3,0.1c0.2-0.1,0.4,0,0.5,0l0.8-0.1
		c0.2-0.1,0.4,0.1,0.7-0.1c0,0,0-0.1,0.1-0.1c0.2,0,0.3,0.1,0.5,0c0.2,0,0.3-0.1,0.4-0.1c0.1-0.1,0.1,0.1,0.1,0.1
		c0.1,0,0.2-0.2,0.3-0.1l0.3,0c0.1,0,0.1,0,0.1-0.1c0.2-0.1,0.3,0.1,0.5,0c0.1,0,0.2-0.1,0.2-0.2c0.2,0,0.2-0.1,0.3-0.1
		c0.3-0.1,0.4,0.1,0.7,0c0.3-0.1,0.4-0.3,0.6-0.4c0.2,0,0.4-0.2,0.7-0.2c0-0.1,0.2-0.1,0.2-0.2c0.1,0,0.1-0.1,0.2-0.1
		c0.3,0,0.5-0.2,0.8-0.2c0-0.1,0.1-0.1,0.1-0.1c0.1,0,0.1-0.1,0.1-0.1c0.1-0.1,0.2-0.1,0.3-0.1c0.2,0,0.2-0.1,0.3-0.1
		c0-0.1,0.2-0.1,0.2-0.2c0.2,0,0.1-0.2,0.4-0.1c0.1-0.1,0.2-0.1,0.2-0.2c0.3,0,0.3-0.3,0.6-0.2c0.1-0.1,0.1-0.3,0.3-0.3
		c0-0.1,0.1-0.2,0.2-0.3c0.1,0,0.1-0.3,0.4-0.2c-0.1-0.2,0.1-0.2,0.1-0.3c0.3,0,0.3-0.3,0.7-0.2c0.1-0.5,0.5-0.7,0.6-1.1
		c0.2,0,0.1-0.3,0.4-0.2c0.1-0.1,0.1-0.3,0.3-0.3c0-0.1,0-0.2,0.1-0.3c0-0.2,0-0.2,0-0.3c0.1-0.1,0.3-0.3,0.3-0.5
		c0.1-0.1,0.3-0.2,0.4-0.3c0-0.2,0.2-0.3,0.2-0.6c0.2-0.1,0.2-0.3,0.3-0.4c0-0.1,0.1-0.1,0.1-0.1c0-0.1,0-0.1,0.1-0.1
		c0-0.1,0.1-0.2,0.1-0.2c0-0.2,0-0.3,0.1-0.3c0-0.1,0-0.2,0.1-0.3c0-0.2,0-0.3,0-0.4c0.2,0,0-0.3,0-0.4c0-0.1,0.1-0.2,0.2-0.3
		c0-0.2,0.2-0.1,0.2-0.3c0-0.5,0.1-0.9,0-1.4c0-0.2,0.1-0.2,0.1-0.4c0.2,0,0.2-0.2,0.3-0.3c-0.1-0.6,0-1.1-0.1-1.6
		c0-0.1,0.1-0.1,0-0.3c0-0.1,0-0.2,0.1-0.2c0.1-0.1,0.1-0.3,0-0.5c0-0.1,0.1-0.1,0.1-0.3c0-0.1,0.1-0.2,0-0.3c0-0.2,0.2-0.2,0.2-0.4
		c0-0.1,0-0.2,0.1-0.2C25.4,18.4,25.5,17.9,25.4,17.2"/>
</g>
</svg>
