<!-- Generator: Adobe Illustrator 19.1.0, SVG Export Plug-In  -->
<svg version="1.1"
	 xmlns="http://www.w3.org/2000/svg" xmlns:xlink="http://www.w3.org/1999/xlink" xmlns:a="http://ns.adobe.com/AdobeSVGViewerExtensions/3.0/"
	 x="0px" y="0px" width="23.9px" height="35.4px" viewBox="0 0 23.9 35.4" enable-background="new 0 0 23.9 35.4"
	 xml:space="preserve">
<defs>
</defs>
<g>
	<g>
		<path d="M8.2,2C8.1,2,8,2.1,7.9,2.1C8,2.2,8,2.3,8.1,2.4h0.4c0.1,0,0.1,0.1,0.3,0.2c0.1,0.1,0.1,0.2,0.1,0.3C9.1,2.8,9.1,3,9.3,3
			c0,0.2,0.3,0.1,0.3,0.3c0.2,0,0.2,0.2,0.4,0.2c0.1,0,0.2,0.1,0.3,0.3c0.3-0.1,0.2,0.2,0.4,0.2c0,0.1,0.1,0.2,0.3,0.3
			c0,0.1,0.1,0.2,0.3,0.3c0,0.1,0.1,0.1,0.2,0.1c0.1,0,0.1,0.1,0.2,0.1c0.1,0.2,0.3,0.3,0.4,0.5c0.2,0,0.1,0.3,0.3,0.3
			c0,0.1,0.1,0.1,0.2,0.3c0.2,0,0.1,0.2,0.3,0.2c0,0.2,0.3,0.1,0.3,0.3c0.2,0.1,0.3,0.3,0.5,0.4c0,0.2,0.1,0.3,0.2,0.4
			c0,0.2,0.2,0.2,0.2,0.4c0.2,0.2,0.3,0.5,0.4,0.8c0,0.4,0.2,0.5,0.3,0.8c0.1,0.1,0.1,0.3,0.3,0.3c0,0.1,0.1,0.1,0.1,0.2
			c0,0.1,0,0.2,0.1,0.2v0.8c0.1,0,0.1,0.2,0.1,0.3c0,0.1,0.1,0.1,0.1,0.2c0.2-0.1-0.1,0.4,0.2,0.3v0.6c-0.1,0.3,0.2,0.2,0.2,0.4v0.9
			c-0.1,0.3,0.2,0.2,0.2,0.5c0,0.6,0,1.2,0.2,1.5v2.2c0,0.1,0,0.2-0.1,0.2c-0.1,0-0.1,0-0.1,0.1v0.8c0,0.2-0.1,0.3-0.2,0.4v0.6
			c0,0.1,0,0.1-0.1,0.2c-0.1,0-0.1,0-0.1,0.1v0.4c0,0.1,0,0.1-0.1,0.2c-0.1,0-0.1,0-0.1,0.1v0.7c0,0.2-0.1,0.3-0.2,0.4v0.5
			c-0.1,0.3-0.2,0.4-0.2,0.8c0.1,0.3-0.2,0.2-0.2,0.4c0.1,0.3-0.1,0.3-0.2,0.4v0.6c0,0.1-0.1,0.1-0.2,0.1v0.2c0,0.1-0.1,0.2-0.2,0.2
			c0,0.2,0,0.4-0.1,0.5c-0.2,0,0.1,0.5-0.2,0.4c0.1,0.3-0.1,0.3-0.2,0.4c-0.1,0-0.1,0.2-0.1,0.3c0,0.1-0.1,0.1-0.1,0.2
			c-0.1,0-0.1,0.2-0.1,0.3c-0.1,0-0.1,0-0.2,0.1c0,0.1,0,0.2-0.1,0.3c-0.1,0-0.1,0.1-0.1,0.2c0.1,0.5-0.5,0.3-0.3,0.8
			c-0.1,0.2-0.4,0.3-0.5,0.6c-0.2,0-0.1,0.3-0.3,0.3c0,0.1-0.1,0.2-0.2,0.3c-0.2,0.1-0.3,0.2-0.4,0.4c-0.2,0.1-0.3,0.2-0.5,0.3
			c-0.2,0.3-0.3,0.5-0.5,0.8c-0.2,0-0.1,0.2-0.3,0.2c0,0.1-0.1,0.2-0.3,0.2c-0.1,0.2-0.2,0.3-0.4,0.4c-0.2,0.1-0.2,0.4-0.5,0.3
			c-0.2,0.1-0.3,0.2-0.4,0.4c-0.3,0-0.4,0.2-0.5,0.3c-0.3,0-0.4,0.1-0.5,0.3c-0.3,0-0.4,0.2-0.6,0.3c-0.1,0.1-0.2,0-0.3,0.2
			c-0.1,0.1-0.2,0-0.3,0.2c-0.3,0-0.4,0.1-0.7,0.1c0,0.1-0.1,0.1-0.2,0.1c0,0.1,0,0.1-0.1,0.1c0,0.1-0.1,0.1-0.1,0.3
			c0.4,0.2,0.8-0.1,1.3,0c0.3,0,0.3-0.2,0.5-0.3h0.7c0.1,0,0.2-0.1,0.3-0.1c0-0.1,0.2-0.1,0.2,0c0.2,0,0.4-0.1,0.7-0.1
			c-0.1-0.2,0.4,0.1,0.3-0.2c0.2,0,0.2-0.1,0.3-0.1c0.3,0,0.4-0.1,0.8-0.1c0-0.1,0.2-0.1,0.2-0.2h0.3c0.1,0,0.1-0.1,0.2-0.2
			c0.1,0,0.1,0,0.2-0.1c0.2,0,0.4,0,0.5-0.1c0.1-0.1,0.3-0.1,0.4-0.2c0.2,0,0.2-0.2,0.4-0.2c0-0.1,0.2-0.1,0.2-0.1
			c0-0.1,0.1-0.1,0.2-0.1c0-0.2,0.3-0.1,0.3-0.3c0.2,0,0.2-0.1,0.5-0.1c0-0.2,0.2-0.2,0.3-0.3c0.1,0,0.1-0.1,0.2-0.2
			c0.1,0,0.2,0,0.2-0.1c0.2-0.1,0.4-0.1,0.6-0.2c0-0.2,0.2-0.2,0.3-0.3c0.1-0.1,0.3,0,0.3-0.3c0.1,0,0.2-0.1,0.3-0.2
			c0.2,0,0.2-0.1,0.3-0.1c0-0.1,0.1-0.1,0.2-0.1c0-0.1,0-0.1,0.1-0.1c0-0.1,0.1-0.2,0.3-0.2c0.1-0.1,0.1-0.3,0.2-0.4
			c0.1-0.1,0.2-0.1,0.3-0.1c0-0.1,0.1-0.2,0.2-0.2c0.1-0.2,0.2-0.4,0.4-0.5c0-0.1,0.1-0.1,0.2-0.3c0.1-0.1,0-0.2,0.2-0.3
			c0-0.1,0.1-0.1,0.2-0.3c0.1-0.1,0.1-0.2,0.2-0.3c0.1-0.2,0.2-0.3,0.4-0.4c0-0.2,0-0.3,0.1-0.4c0-0.1,0.1-0.2,0.2-0.3
			c0-0.3,0.2-0.4,0.3-0.7c0-0.1,0.1-0.2,0.2-0.3c0.1,0,0.2-0.1,0.2-0.2c0.1-0.1,0-0.2,0.2-0.3c0.1-0.1,0.1-0.2,0.2-0.3
			c0-0.4,0.2-0.5,0.3-0.8c0-0.3,0.2-0.4,0.3-0.7c0-0.2,0.2-0.2,0.1-0.4c0.1,0,0-0.3,0.2-0.3c-0.1-0.2,0.1-0.2,0.1-0.4
			c0.1-0.1,0-0.2,0.2-0.3v-0.4c0.1,0,0-0.3,0.2-0.3c0-0.1-0.1-0.2-0.1-0.3c0,0,0.1-0.1,0.1-0.1c0-0.1,0-0.1,0-0.2
			c0-0.3,0.2-0.4,0.2-0.8c0.1,0,0.1-0.2,0.1-0.3c0-0.1,0-0.3,0.1-0.3c0-0.1,0-0.1,0.1-0.2c0-0.1,0-0.1-0.1-0.1c0-0.1,0-0.3,0.1-0.3
			c0-0.3,0-0.5,0.1-0.8c0-0.1,0-0.2-0.1-0.3c0-0.1,0-0.2-0.1-0.3c0.1-0.2,0.2-0.5,0.2-0.8c0-0.4,0.2-0.5,0.1-0.9
			c0-0.3-0.1-0.5-0.3-0.8v-0.6c0.1-0.2-0.2-0.2-0.2-0.3v-0.5c0-0.2-0.1-0.3-0.2-0.4v-0.5c0.1-0.3-0.2-0.2-0.2-0.4v-0.8
			c0.1-0.2-0.2-0.2-0.2-0.3c0-0.2,0-0.3-0.2-0.3c0.1-0.3-0.1-0.5-0.1-0.8c-0.1,0-0.1,0-0.1-0.1c0-0.3-0.3-0.3-0.4-0.6
			c0.1-0.2-0.2-0.2-0.2-0.3c-0.2,0-0.1-0.3-0.3-0.3c0.1-0.4-0.2-0.5-0.2-0.8c-0.2,0-0.2-0.3-0.3-0.5C19,7.2,18.9,7,18.8,6.8
			c-0.2,0-0.3-0.2-0.4-0.3c-0.2,0-0.3-0.1-0.3-0.3c-0.3,0-0.2-0.2-0.4-0.3c0-0.2-0.2-0.2-0.3-0.3h-0.3c-0.1-0.1-0.2-0.3-0.3-0.3
			c-0.1-0.1-0.3-0.2-0.3-0.4c-0.1-0.1-0.3-0.2-0.3-0.3c-0.3,0-0.4-0.3-0.8-0.3c-0.1,0-0.2-0.1-0.2-0.3c-0.1-0.1-0.2,0-0.3-0.2
			c-0.3,0.1-0.3-0.1-0.5-0.1c-0.1,0-0.2-0.1-0.2-0.2c-0.1,0-0.2,0-0.2-0.1c-0.1-0.1-0.3-0.1-0.4-0.2c-0.2,0-0.3-0.1-0.4-0.2
			c-0.2,0-0.4,0-0.5-0.1c0-0.1-0.2-0.1-0.3-0.1c-0.1,0-0.1-0.1-0.2-0.1C12.2,3,12,3,11.9,2.9c-0.1,0-0.1-0.1-0.3-0.1
			c-0.1,0-0.1,0-0.2-0.1c-0.1,0-0.1-0.1-0.2-0.1c-0.1,0-0.2,0-0.2-0.1c-0.1,0-0.4,0.1-0.4-0.1c-0.1,0-0.3,0-0.3,0.1
			c-0.2-0.2-0.6-0.1-0.8-0.3c-0.4,0-0.6-0.1-1-0.1C8.5,2.1,8.4,2.2,8.2,2C8.3,2.1,8.3,2,8.2,2 M3.5,0.2C4,0,4.7-0.1,5.1,0.1
			C5.3,0.1,5.4,0,5.6,0c0.3,0.2,0.6,0.2,1.1,0.2c0.2,0,0.2,0.2,0.4,0.2h0.8c0.2,0.1,0.5,0.1,0.7,0.2c0.1,0,0.3,0,0.3,0.1
			c0,0.2,0.3,0,0.4,0.1c0.1,0,0.1,0.1,0.3,0.2c0.2,0,0.2,0.1,0.3,0.1c0,0.1,0.2,0.1,0.3,0.1c0.2,0,0.1,0.2,0.3,0.2
			c0.3,0.1,0.6,0.1,1,0.1c0,0.1,0.1,0.1,0.3,0.1c0.1,0,0.1,0,0.1,0.1c0,0.1,0.1,0.1,0.2,0.1h0.7c0.1,0,0.1,0.1,0.2,0.2
			c0.1,0,0.2,0,0.3,0.1c0.1,0,0.2,0,0.3-0.1c0,0.1,0.1,0.1,0.3,0.1c0,0.1,0.1,0.1,0.1,0.3H14c0,0.1,0,0.2,0.1,0.2h0.4
			c0,0.3,0.3,0.4,0.5,0.5c0.1,0,0.4-0.1,0.4,0.1c0.1,0.1,0.2,0.1,0.4,0.1c0.1,0.2,0.3,0.4,0.6,0.5c0.2-0.1,0.2,0.2,0.3,0.2
			c0.3-0.1,0.2,0.2,0.4,0.2c0,0.2,0.3,0.1,0.3,0.3c0.3-0.1,0.2,0.2,0.4,0.2c0,0.1,0.1,0.1,0.2,0.3c0.2,0,0.1,0.3,0.3,0.3
			c0,0.1,0.1,0.1,0.2,0.1c0.1,0,0.1,0.1,0.2,0.1C18.5,5,18.7,5,18.8,5.1c0,0.1,0.1,0.1,0.2,0.3c0.1,0,0.1,0.2,0.2,0.3
			c0.2,0.1,0.3,0.3,0.5,0.4c0,0.1,0.1,0.1,0.2,0.3c0.2,0,0.1,0.3,0.3,0.3c0,0.1,0.1,0.1,0.2,0.3c0,0.1,0.1,0.2,0.3,0.3
			c0,0.3,0.2,0.4,0.2,0.8h0.2c0,0.1,0,0.2,0.1,0.2c0.1,0,0,0.2,0.2,0.3c0.1,0.2,0.2,0.4,0.4,0.4c0,0.2,0,0.3,0.2,0.3
			c0,0.3,0.2,0.4,0.2,0.8c0.1,0.1,0.3,0.2,0.3,0.3c0,0.1,0.1,0.1,0.2,0.2c0,0.1,0.1,0.2,0.2,0.3c0,0.4,0,0.6,0.2,0.8
			c0,0.1,0.1,0.2,0.2,0.3c0,0.2,0,0.3,0.2,0.3c0,0.2,0,0.5,0.2,0.5v0.7c0,0.1,0.1,0.1,0.2,0.3c0,0.2,0.2,0.1,0.2,0.3
			c0,0.5,0.1,1.1-0.1,1.5c0,0.3,0.3,0.2,0.3,0.6v1c0,0.2,0.1,0.2,0.1,0.3v0.3c0,0,0.1,0.1,0,0.1c0,0.3,0.1,0.5,0.1,0.9
			c0.1,0.3-0.2,0.3-0.2,0.6c0,0.7-0.1,1.1-0.1,1.8c-0.1,0-0.1,0.1-0.1,0.2c0,0.3-0.2,0.2-0.3,0.4c0,0.1-0.1,0.1-0.1,0.3
			c0,0.1-0.1,0.1-0.2,0.3c0,0.2,0,0.4-0.1,0.5c-0.1,0-0.1,0.1-0.1,0.2c0,0.1,0,0.2-0.1,0.3c0,0.5-0.1,1-0.1,1.6
			c-0.1,0.1-0.1,0.3-0.3,0.3c0,0.2-0.1,0.3-0.2,0.4c0,0.6-0.1,0.9-0.2,1.4c0,0.2-0.2,0.1-0.3,0.3c-0.1,0-0.2,0.1-0.3,0.3
			c0,0.1,0.1,0.4-0.1,0.4c-0.1,0.1-0.1,0.2-0.1,0.4c-0.1,0-0.2,0.1-0.2,0.3C21,28,21,28.1,21,28.3c-0.1,0-0.1,0.1-0.2,0.2
			c-0.1,0-0.1,0-0.1,0.1c-0.1,0-0.2,0-0.2,0.1c-0.2,0.1-0.2,0.3-0.4,0.3c0,0.3-0.2,0.4-0.2,0.6c-0.2,0.1-0.3,0.2-0.5,0.3
			c-0.1,0.2-0.2,0.3-0.4,0.4c0,0.1-0.1,0.2-0.1,0.3c-0.1,0-0.2,0.1-0.2,0.3c-0.2,0-0.3,0.1-0.3,0.3c-0.3-0.1-0.2,0.2-0.5,0.2
			c-0.2,0.4-0.7,0.6-0.8,1c-0.4-0.1-0.4,0.2-0.8,0.2c0,0.2-0.2,0.1-0.2,0.3c-0.3-0.1-0.3,0.1-0.4,0.2c-0.1,0-0.2,0.1-0.2,0.3
			c-0.2,0-0.3,0.1-0.3,0.3c-0.3-0.1-0.3,0.2-0.7,0.2c0,0.1-0.2,0.1-0.3,0.2c-0.2-0.1-0.2,0.1-0.4,0.1c0,0.1-0.2,0-0.3,0.2
			c-0.1,0-0.2,0.1-0.3,0.1c-0.1,0-0.3,0-0.3,0.1c-0.1,0-0.1,0.1-0.2,0.1c-0.1,0-0.2,0-0.2,0.1c-0.4-0.1-0.6,0.1-0.9,0.1
			c-0.1,0-0.1,0.1-0.3,0.1c0,0.1-0.2,0-0.3,0.2c-0.3-0.1-0.5,0.1-0.8,0.1c-0.3,0.1-0.4,0.3-0.8,0.3C9.2,35.2,9.2,35,8.8,35
			c-0.1,0-0.2,0.1-0.3,0.1c0,0.1-0.1,0.2-0.3,0.2c-0.2,0-0.2-0.1-0.5-0.1c0,0.1-0.1,0.1-0.2,0.1H7.2c-0.1-0.1-0.3,0.1-0.3,0.1
			c0,0,0-0.1-0.1-0.1c-0.2,0-0.2,0.1-0.5,0.1c-0.2,0-0.4-0.1-0.6-0.1c-0.1,0,0,0.1-0.1,0.1c-0.3,0.1-0.5-0.1-0.8,0H4
			c-0.2,0-0.3-0.1-0.6-0.1c-0.2,0-0.3-0.2-0.6-0.2c-0.3,0-0.4-0.1-0.6-0.1c0-0.1-0.1-0.1-0.3-0.1H1.5c0-0.1-0.1-0.1-0.2-0.1
			c0-0.1-0.1-0.1-0.2-0.1c-0.2,0-0.2-0.1-0.5-0.1c0-0.1-0.1-0.1-0.2-0.3c-0.1,0-0.1,0-0.1-0.1c-0.1,0-0.2,0-0.2-0.1
			C0.2,34.1-0.1,34,0,33.7c0.1-0.2,0.2-0.4,0.6-0.3c0.2-0.1,0.6-0.1,0.8-0.1c0.2-0.1,0.4-0.2,0.8-0.2C2.2,33,2.3,33,2.4,33
			c0.1,0,0.1-0.1,0.2-0.1c0.1,0,0.1-0.1,0.2-0.1c0.1,0,0.2,0,0.2-0.1c0.3,0,0.6,0.1,0.8-0.1c0.1-0.1,0.5-0.1,0.8-0.1
			c0-0.2,0.4-0.2,0.6-0.3c0-0.1,0.1-0.1,0.2-0.1c0-0.1,0-0.2,0.1-0.2c0-0.2,0.2-0.2,0.4-0.2c0-0.3,0.1-0.4,0.3-0.3
			c0.1-0.1,0.2-0.3,0.3-0.3c0.1,0,0.1-0.1,0.2-0.2c0.1,0,0.2,0,0.3-0.1c0.1,0,0.1-0.1,0.3-0.1c0-0.1,0.1-0.2,0.3-0.2
			c0-0.1,0.1-0.1,0.2-0.2c0.1,0,0.1-0.1,0.2-0.2c0.1-0.1,0.2-0.2,0.4-0.3C8,30,8.1,30.1,8.2,30c0-0.1,0.1-0.1,0.2-0.2
			c0.3,0,0.2-0.3,0.5-0.3c0.1-0.1,0.1-0.4,0.3-0.3c0-0.1,0-0.2,0.2-0.2c0-0.1,0-0.2,0.1-0.3c0.1,0,0.1-0.1,0.3-0.1
			c0.1,0,0.1-0.1,0.3-0.2c0-0.1,0.1-0.1,0.2-0.3c0.1,0,0.1,0,0.1-0.1c0.1,0,0.2,0,0.2-0.1c-0.1-0.2,0.2-0.2,0.2-0.3
			c0-0.2,0.2-0.2,0.2-0.4c0.3,0.1,0.1-0.3,0.3-0.2c-0.1-0.3,0.2-0.2,0.2-0.4c0.1,0,0.2-0.1,0.3-0.3c0.2,0,0.1-0.3,0.3-0.3
			c-0.1-0.2,0.2-0.2,0.2-0.3v-0.3c0-0.1,0.1-0.1,0.2-0.2c0-0.2,0-0.3,0.2-0.3v-0.6c0.2,0,0.2-0.1,0.2-0.3c0.1,0,0.2-0.1,0.2-0.3
			c0-0.1,0.1-0.1,0.2-0.3c-0.1-0.2,0.2-0.2,0.2-0.3V23c0.1,0,0.2-0.1,0.2-0.3V22c0-0.1,0.1-0.1,0.2-0.2v-0.3
			c-0.1-0.3,0.2-0.2,0.2-0.5v-0.5c0-0.2,0.2-0.2,0.2-0.4c0-0.2-0.1-0.4-0.1-0.6c0-0.1,0.1,0,0.1-0.1c0.1-0.2,0-0.4,0-0.5
			c0-0.1,0.1-0.1,0.1-0.1c0.1-0.2,0-0.4,0.1-0.5v-0.8c0-0.2,0.1-0.3,0.2-0.5c-0.2,0,0-0.4-0.1-0.5c0-0.3,0.2-0.3,0.1-0.6
			c-0.2-0.6,0-1.4-0.1-2.1c-0.1-0.5-0.2-1-0.2-1.7c-0.1-0.2-0.2-0.2-0.2-0.5c-0.1-0.2-0.1-0.4-0.1-0.7c-0.1,0,0-0.2-0.2-0.3
			c0-0.1,0-0.3-0.1-0.3c0-0.2-0.1-0.2-0.1-0.3c0-0.2-0.2-0.1-0.2-0.3c-0.1-0.2-0.1-0.5-0.2-0.7c-0.1,0-0.1-0.2-0.2-0.3V8.2
			c-0.1-0.1-0.3-0.1-0.3-0.3c0-0.1-0.1-0.1-0.2-0.2c0-0.1,0-0.2-0.1-0.3c-0.1,0-0.1-0.1-0.1-0.2c-0.1,0-0.2,0-0.3-0.1
			c0-0.1-0.2-0.1-0.3-0.2c-0.1-0.1-0.2-0.3-0.4-0.3c0-0.2-0.1-0.3-0.3-0.3c0-0.1-0.1-0.1-0.1-0.2c-0.1,0-0.1-0.1-0.2-0.2
			c0-0.2-0.3-0.1-0.3-0.3c-0.2,0-0.2-0.2-0.5-0.2c0.1-0.3-0.2-0.2-0.2-0.4C9.2,5.3,9.3,5,9.2,5C9,4.9,9,4.7,8.8,4.7
			c-0.2,0-0.3-0.2-0.4-0.2c0-0.1-0.1-0.1-0.2-0.2c-0.1,0-0.1-0.1-0.2-0.2C8.1,4,7.9,4.1,7.9,4c-0.1,0-0.2,0-0.3-0.1
			C7.6,3.7,7.5,3.6,7.3,3.5c-0.2,0-0.2-0.3-0.4-0.3c0-0.1-0.1-0.1-0.2-0.2C6.6,3.1,6.6,3,6.5,3C6.4,2.9,6.3,2.8,6.1,2.7
			c-0.3,0-0.4-0.3-0.8-0.3c0-0.2-0.2-0.2-0.3-0.3C5,2,4.8,2,4.8,1.9C4.4,1.9,4.3,1.7,4.2,1.5C4.1,1.5,4,1.5,4,1.4
			C3.7,1.4,3.8,1.2,3.6,1.2C3.7,0.8,3.5,0.6,3.5,0.2"/>
	</g>
</g>
</svg>
