<?xml version="1.0" encoding="utf-8"?>
<!-- Generator: Adobe Illustrator 19.1.0, SVG Export Plug-In . SVG Version: 6.00 Build 0)  -->
<svg version="1.1" id="Layer_1" xmlns="http://www.w3.org/2000/svg" xmlns:xlink="http://www.w3.org/1999/xlink" x="0px" y="0px"
	 width="49.7px" height="49.9px" viewBox="0 0 49.7 49.9" enable-background="new 0 0 49.7 49.9" xml:space="preserve">
<g>
	<path fill="#AF882E" d="M31.7,20.2c3.4-2.1,3.6-4.2,3.6-4.2c0.1-0.6-0.7,0.3-0.7,0.3c-2.4,3.3-5,4.4-5,4.4c2-1.3,2.7-3.6,2.7-3.6
		c0.1-0.5,0-0.6,0-0.6c-0.2-0.2-1.1,1.2-1.1,1.2c-1.7,2.6-3.3,3.6-3.3,3.6c-0.1-0.3-1.3,0.3-1.3,0.3c-0.5,0.3-1.9,0.8-1.9,0.8
		c-0.9,0.1-1.4,1.2-1.4,1.2l-0.2,0c0.3-0.6-0.5-1.1-0.5-1.1c0.2-0.7-0.8-1.5-0.8-1.5c0.3-0.7-0.2-1.3-0.2-1.3
		c-0.3-0.5-1.3-0.2-1.3-0.2l0.5-0.7c0.5-0.8,0-1.2,0-1.2c-0.2-0.4-1-0.1-1-0.1c-0.5,0.4-1.7,1-1.7,1c0.2-0.2,0.8-1.3,0.8-1.3
		c0.4-1,0-1.8,0-1.8c-0.4-0.7-0.9-0.1-0.9-0.1c-0.3,0.7-1.6,2.3-1.6,2.3c1.1-2.4,0.8-3.6,0.8-3.6c-0.2-0.9-0.7-0.9-0.7-0.9
		c-0.3,0-1.1,2.4-1.1,2.4c0.2-0.9,0.3-2.5,0.3-2.5c0-1.1-0.3-1.9-0.3-1.9c-0.3-0.8-0.6-0.2-0.6-0.2c-0.3,0.6-0.9,3.2-0.9,3.2
		c0.2-2.2-0.3-3.2-0.3-3.2c-0.3-0.6-0.4-0.2-0.4-0.2c-0.4,0.7-0.9,3.9-0.9,3.9c0-0.5-0.4-1.8-0.4-1.8c-0.2-0.5-0.3-0.1-0.3-0.1
		c-0.2,0.4-0.6,2-0.6,2c-0.6,3,0.3,5,0.3,5c0.1,0.2,0.3,0.5,0.3,0.5c0.1,0.2,0.4,0.5,0.4,0.5c0.3,0.2,0.2,0.5,0.2,0.5
		c0,0.6,0.4,1.1,0.4,1.1c0.1,0.2,0.2,0.3,0.2,0.3c0,0.1,0.3,0.4,0.3,0.4c0.2,0.1,0.3,0.4,0.3,0.4c0.1,0.5,0.6,0.7,0.6,0.7
		c0.8,0.7,2.2,3.1,2.2,3.1c-0.6,0.2-2.5-0.4-2.5-0.4c-1.1-0.4-1.9,0.1-1.9,0.1c-0.8-0.2-1.2,0-1.2,0c-0.5,0.3-0.6,0.6-0.6,0.9v0
		c0,0.2,0.2,0.4,0.2,0.4c0-0.2,0.1-0.3,0.1-0.3c0.2,0.1,1.3,0.5,1.3,0.5c1.1,1.4,4.2,2.7,4.2,2.7c1.2,0.7,2.8,2.3,2.8,2.3
		c2.3,2,5.5,2.9,5.5,2.9c0.6,0.1,1.9,0.5,1.9,0.5c0.7,0.1,1,0.3,1,0.3l0-0.2c0.5,0.1,0.8,0.3,0.8,0.3l-0.1-0.3
		c0.2,0.1,0.5,0.5,0.5,0.5c0.2,0.4,0.8,0.7,0.8,0.7c0.7,0.4,1.3,0.3,1.3,0.3c0.3-0.1,1.1-0.3,1.1-0.3c0.5,0.1,1.1,0.5,1.1,0.5
		c0.6,0.5,1.2,0.6,1.2,0.6c0.6,0.5,1.2,0.7,1.2,0.7c1,0.7,1.8,0.8,1.8,0.8c0.2,0.1,0.4-0.1,0.5-0.1h0c0.4,0,0.4-0.1,0.4-0.1
		c0.5,0,0.1-0.4,0.1-0.4c0.9,0.1-0.4-1-0.4-1l0.1-0.1c0.7-0.1-0.3-0.8-0.3-0.8c0.7-0.2-0.6-1-0.6-1c0.8-0.5-1.2-0.8-1.2-0.8
		c-0.8,0-3.9-1.3-3.9-1.3c-0.4-0.2-1.5-1.1-1.5-1.1l0-0.1c1,0.1,0.7-0.9,0.7-0.9c0.2,0,0.3-0.3,0.3-0.3c0.2,0.1,0.5-0.3,0.5-0.3
		c0.5,0.1,0.7-0.5,0.7-0.5c0.3,0.1,0.4-0.3,0.4-0.3c0.3,0.1,0.7-0.5,0.7-0.5c0.5,0.2,0.6-0.4,0.6-0.4c0.2,0.1,0.4-0.2,0.4-0.2
		c0.4,0.2,0.5-0.4,0.5-0.4c0.3,0.1,0.4-0.5,0.4-0.5c0.3,0,0.4-0.6,0.4-0.6c0.7-0.1,0.4-0.7,0.4-0.7c0.8-0.1,0.5-0.6,0.5-0.6
		c0.9,0,0.4-0.7,0.4-0.7c0.5-0.1,0.1-0.5,0.1-0.5c0.3,0,0.1-0.4,0.1-0.4c0.3,0.1,0.6,0,0.6,0c0.5,0,0-0.7,0-0.7
		c0.7,0,0.5-0.7,0.5-0.7c0.9-0.2,0.5-1.1,0.5-1.1c0.6-0.1,1-0.6,1-0.6c0.2-0.5-0.8-0.4-0.8-0.4c-0.6,0.1-1.5-0.2-1.5-0.2
		C37.1,22,37.8,22,37.8,22c0.7,0.1,2.4-0.5,2.4-0.5c0.4-0.3,0-0.3,0-0.3c-0.5,0-4,0.3-4,0.3C36.3,21.2,37,21,37,21
		c1-0.1,3-1.2,3-1.2c0.7-0.5-0.3-0.3-0.3-0.3c-1.4,0.5-5.3,1.3-5.3,1.3c0.1-0.3,0.4-0.4,0.4-0.4c2-0.5,3.7-1.9,3.7-1.9
		c0.5-0.8-0.5-0.3-0.5-0.3c-2,1.2-4.9,2-4.9,2c4.1-1.8,4.4-3.5,4.4-3.5c0-0.4-1.2,0.5-1.2,0.5C34.3,19.2,31.7,20.2,31.7,20.2z"/>
	<path fill="#AF882E" d="M45.7,11c-0.3-0.3-0.4,0.1-0.3,0C45.5,11.2,45.6,11,45.7,11z"/>
	<polygon fill="#AF882E" points="42.5,8.5 42.6,8.5 42.1,8.3 	"/>
	<path fill="#AF882E" d="M41.3,7.4l0,0.1l0.5-0.1c-0.6-0.5-1.5-0.9-1.8-1.4C39.9,6.7,40.9,6.9,41.3,7.4z"/>
	<path fill="#AF882E" d="M39.3,4.5C39.3,4.5,39.3,4.5,39.3,4.5c-0.1-0.1-0.2-0.2-0.3-0.3C39,4.4,38.5,4.1,39.3,4.5z"/>
	<path fill="#AF882E" d="M39.3,4.5C39.6,4.7,39.1,4.2,39.3,4.5L39.3,4.5z"/>
	<path fill="#AF882E" d="M38,3.3c-0.5-0.2-0.5,0-0.3,0.2l0.5,0.1C38.2,3.6,37.8,3.3,38,3.3z"/>
	<path fill="#AF882E" d="M37.4,3.7c0-0.1-0.1-0.1-0.3-0.1L37.4,3.7z"/>
	<path fill="#AF882E" d="M38,3.9l-0.5-0.2c0,0.1,0,0.2,0.2,0.1C37.6,3.9,37.7,3.8,38,3.9z"/>
	<path fill="#AF882E" d="M38.1,4.4c0.8,0.5,0.9,0.1,0-0.3C38.4,4.3,38.6,4.6,38.1,4.4z"/>
	<path fill="#AF882E" d="M39.5,6.4l0.2,0.3L40,6.8C39.9,6.7,39.6,6.2,39.5,6.4z"/>
	<path fill="#AF882E" d="M35.1,1.9c-0.1,0.1,0.1,0.3,0,0.4l0.4,0.1C35.3,2.3,35,2.1,35.1,1.9z"/>
	<path fill="#AF882E" d="M35.1,2.4l-0.6-0.1C35,2.5,35.1,2.5,35.1,2.4z"/>
	<polygon fill="#AF882E" points="36.8,4 37.8,4.2 36.7,3.9 	"/>
	<polygon fill="#AF882E" points="33.1,1.2 33.4,1.1 32.8,1.2 	"/>
	<path fill="#AF882E" d="M31.8,0.3c-0.4-0.1-0.8,0-1.1,0.1c0.3,0,0.7,0.1,1,0.3C32,0.6,31.5,0.4,31.8,0.3z"/>
	<path fill="#AF882E" d="M33.4,1.5l0.1,0.3c0.1,0,0.1,0.1,0.2,0.1C33.7,1.8,33.6,1.7,33.4,1.5z"/>
	<path fill="#AF882E" d="M33.5,1.8L33.5,1.8c-0.2-0.1-0.4-0.1-0.4-0.2C33.1,1.7,33.2,1.7,33.5,1.8z"/>
	<path fill="#AF882E" d="M35.2,3.5c0.3-0.1,0-0.3,0.5-0.3C35.4,3.1,34.7,3,35.2,3.5z"/>
	<path fill="#AF882E" d="M34.4,2.6c0-0.1,0-0.2,0.1-0.2c0,0-0.6-0.1-0.6-0.1l-0.2-0.1l-0.1,0.1l0.3,0h0C33.9,2.3,34.4,2.6,34.4,2.6z
		"/>
	<path fill="#AF882E" d="M30.2,0.9c0.3,0.1,0.6,0.2,1,0.3l0,0c0,0,0,0.1,0,0.1c0.2,0.1,0.4,0.1,0.6,0c-0.2,0-0.4,0-0.6-0.1
		c0.1-0.1,0.2-0.2-0.1-0.3C30.8,1,30.5,1,30.2,0.9z"/>
	<path fill="#AF882E" d="M29.3,0.4c0.1,0.1,0.3,0.2,0.4,0.2C29.6,0.6,29.3,0.4,29.3,0.4z"/>
	<path fill="#AF882E" d="M32.1,1.3c-0.1,0-0.2,0-0.4,0C31.9,1.4,32.1,1.4,32.1,1.3C32.2,1.4,32.1,1.3,32.1,1.3z"/>
	<path fill="#AF882E" d="M26.2,1.8c0,0.1-0.2,0.2-0.1,0.2c0-0.2,0.7-0.5,1.2-0.1c0.5-0.1,0.3-1-0.1-1.5l0,0l-0.1,0l0,0.1
		c0,0.1,0,0.2-0.6,0.3c0.2,0.1,1.2,0.5,0.7,0.6c-0.7,0-0.6-0.1-0.9-0.3c0.3,0.3-1,0.4-0.8,0.9L26.2,1.8z"/>
	<path fill="#AF882E" d="M27.3,0.4l1.1,0.2l-0.1,0l0.2,0c-0.3-0.1-0.4-0.2-0.8-0.4C27.4,0.3,27.3,0.4,27.3,0.4z"/>
	<path fill="#AF882E" d="M29.6,0.8c-0.2,0.2-0.8,0.3-0.5,0.6c0.7,0.1,0.5-0.1,0.9-0.2C28.9,1.1,30.4,1.2,29.6,0.8
		c0.2,0,0.4,0.1,0.6,0.1c-0.2-0.1-0.4-0.2-0.5-0.3l0,0c0,0-1.1,0-1.1,0C28.8,0.7,29.1,0.7,29.6,0.8z"/>
	<path fill="#AF882E" d="M34.4,3.8C34.4,3.7,34.4,3.7,34.4,3.8C34.3,3.7,34.3,3.7,34.4,3.8z"/>
	<path fill="#AF882E" d="M34.6,3.4L34.6,3.4c-0.4-0.3-0.8-0.8-0.7-0.8c0,0.3,0.1,0.5,0.2,0.8c0.1,0,0.2-0.1,0.4,0.1
		c0.2,0.2-0.1,0.1-0.1,0.2C34.6,3.7,35,3.7,34.6,3.4z"/>
	<path fill="#AF882E" d="M31.4,2.2c0.5,0.2,0.4,0,0.5-0.1C31.9,2.1,31,2,31,2l0.4,0.3L31.4,2.2z"/>
	<polygon fill="#AF882E" points="26.7,0.4 27.1,0.3 27.3,0 	"/>
	<polygon fill="#AF882E" points="26,0 25.6,0.1 25.9,0.3 	"/>
	<path fill="#AF882E" d="M3.3,34.4l0-0.1c-0.1-0.1-0.2-0.1-0.3-0.1C3,34.2,3.1,34.3,3.3,34.4z"/>
	<path fill="#AF882E" d="M13,3.1c0.4,0,0.9,0,0.9-0.2C13.5,2.9,13.2,3,13,3.1z"/>
	<path fill="#AF882E" d="M13.8,47.4l-0.3,0C13.7,47.4,13.8,47.4,13.8,47.4z"/>
	<path fill="#AF882E" d="M12.1,3.6c0.1,0,0.1,0,0.2,0c0.2-0.2,0.4-0.3,0.7-0.5C12.7,3.1,12.3,3.3,12.1,3.6z"/>
	<path fill="#AF882E" d="M47.1,14.6c-0.1-0.2-0.2-0.3-0.2-0.4L47.1,14.6z"/>
	<path fill="#AF882E" d="M21.1,0.4l-0.1,0C21.1,0.4,21.1,0.4,21.1,0.4z"/>
	<path fill="#AF882E" d="M21.1,0.4C21,0.4,21,0.4,21.1,0.4c-0.1,0-0.2,0-0.4,0C20.8,0.4,20.9,0.4,21.1,0.4z"/>
	<path fill="#AF882E" d="M39.9,42.1C40,41.9,40,41.9,39.9,42.1C39.9,42.1,39.9,42.1,39.9,42.1z"/>
	<polygon fill="#AF882E" points="2.9,21.9 2.9,21.9 2.9,21.9 	"/>
	<path fill="#AF882E" d="M3,22.8c-0.3-0.4-0.2-0.6-0.1-0.8L2,22.1L3,22.8z"/>
	<path fill="#AF882E" d="M49.4,24.8c-0.1,0.1-0.2,0.2-0.3,0c0.5-3.4-1.3-6.6-1.8-10.1c0,0.5-0.1,0.2-0.3-0.1
		c0.1,0.2-0.2,0.1-0.4,0.2c0,0-0.2-1.5-0.3-1.5c-0.5,0-0.8-1.3-1.2-1.2l0.3,0.3c-0.7-0.2-0.5,1.2-1,1.5c0.8,0.3,0,1.8,1.2,2.4
		c0,0.2-0.3-0.1-0.3,0.1c0.4,0.1,0.5,0.4,0.6,1l-0.1,0c0.6,1.5,0.5,2.2,0.7,4l0.3-0.2c0,0.4-0.1,0.5-0.1,0.7
		c0.5,0.4-0.1-1.1,0.4-0.8c-0.5,0.6,0.4,2.7-0.4,3.1c0,0.6,0.3-0.2,0.4,0.4L47,24.8l0.2,0.1c0,0.4-0.3,0.6-0.4,0.6
		c0-0.1,0-0.3,0-0.4c-0.2,0.5,0,1.4-0.1,1.6l0.1-0.6c0.2,1.6-0.5,3.5-0.5,5.1l0.2-0.1c-0.1,1.2-0.4,0.9-0.7,2.2l0-0.1
		c0.1,0.3,0,0.7-0.2,1c0-0.4-0.6,0.4-0.5,0c-0.3,1.3,0,0.7,0,1.7L44.7,36c0,0.4,0.1,0.4-0.2,1c0.1-0.6-0.5,0.2-0.4-0.5
		c-1.1,0.9-0.7,2-1.7,2.1c0.1,0.9,1-0.8,0.9-0.4c0.4-0.1,0.1,0.7-0.2,1c-0.3,0.4-1.1,0.1-1.8,0.9c0.1-0.1,0-0.1,0.1-0.2
		c-0.4,0.2-0.3,0.8-0.9,0.9c0.1,0.5-0.5,0.4-0.2,0.8l0.7-0.8c-0.3,0.5-0.3,1.3-1.2,1.7c0-0.1,0.1-0.4,0.2-0.6
		c-0.3,0.1-0.3,0.5-0.7,0.5c-0.2-0.4,0.8-0.9,1-1.6c-0.4,0-0.6,1.1-0.7,0.4c0.1,0.8-0.8,0.7-1.1,1.5l-0.1-0.3
		c-0.1,0.1-0.2,0.4-0.4,0.5l0.1-0.5c-0.3,0.6-1.1,0.5-1.5,0.9c1-0.6,0.4,0.2,1,0.1c-1.1,1.1-1.1-0.2-2.5,0.8c0.2-0.1,0.8-0.3,0.6,0
		c-0.3,0.1-0.7,0.2-1,0.1c-0.9,0.5,0.3,0.2,0,0.6c-0.5-0.2-0.4,0.4-0.8,0.7l-0.1-0.3c-1.2,0.3-0.1,0.7-1.2,0.9l0.3-0.6l-0.5,0.3
		l0-0.4c-0.5,0.4-0.7,0.5-1.3,0.5c0.2,0.2,0.1,0.5-0.5,0.7C30,47,30.5,46.7,29.8,47c0.1-0.2,0.3-0.5,0.7-0.3c0-0.1,0.1-0.2,0.1-0.3
		c-0.4-0.1-1,0.2-1.3,0.3c0.1,0,0.2,0,0.3,0c0,0-1,0.7-1,0.6c-0.2-0.1-0.1-0.2,0.1-0.3c-0.2,0.1-0.4,0.2-0.7,0.3
		c0-0.3,0-0.5,0.4-0.7l-1,0.4c-0.1-0.1-0.6-0.2-0.4-0.3c-0.6-0.1-1.4,0.6-2.2,0.4c0,0-0.1,0.1-0.3,0.1c-0.7-0.1-1.4-0.4-2.3-0.2
		l-0.4-0.5c-0.7,0,0.6,0.6-0.6,0.6c-0.8,0-0.2-0.4-0.5-0.6c-0.4,0.1-1.2,0.4-1.9-0.1c0.3,0,0.4,0.1,0.7,0.1L19,46.1
		c0.8-0.2,1.2,0,0.8-0.4c-0.3,0.9-2.1-0.5-2.4,0.2L17,45.6c0.1,0,0.1,0,0.2,0c-0.5-0.6-0.7,0.4-1.6-0.1c-0.3-0.2-0.4-0.4-0.2-0.4
		L14.7,45c-0.2-0.1-0.1-0.2,0-0.1c-0.2-0.1-0.9-0.5-0.9-0.5l0,0c-0.2,0-0.6,0-0.8,0c-0.2-0.3,0.2,0,0.2-0.1c0,0-0.7-0.1-0.7-0.2
		c-0.1-0.3,0.5-0.2,0.8,0c-0.1-1-0.6-0.1-1.3-1.2l0.5,0.2c0-0.6-0.5-0.7-0.8-1.3c0,0.2,0.6,1.4-0.1,1.1c-0.1-0.2-0.3-0.3-0.7-0.4
		c0.2-0.2-0.1-0.4-0.5-0.7l0.3-0.3c-0.4-0.2-0.5,0-0.9-0.1c-0.4-0.4-0.2-0.7-0.1-1c-0.5-0.7,0,0.8-0.7,0.1c-0.4-0.6-0.9-0.8-1.6-1.4
		c-0.2-0.5,0.2-0.1,0.2-0.3l-0.5-0.2c-0.1-0.1,0-0.1,0.1-0.1C7,38.4,7,38.9,6.5,38.5c-0.5,0.1-0.2-1.4-1-1.7c0-0.2,0.3,0,0.4-0.2
		c-0.8-0.7-0.7-0.6-1.4-1.2l-0.1-0.8c0,0.6-0.7,0.2-1.2-0.3c-0.1,0.2-0.1,0.4-0.1,0.6c0,0-0.6-0.8-0.6-0.8c0-0.1,0.2-0.1,0.4,0
		L2.8,34c0-0.4,0.3-0.3,0.6-0.1c0,0.1-0.1,0.3-0.1,0.4c0.3,0.1,0.7,0.2,0.9,0.1c-0.1,0-0.2-0.1-0.2-0.2c0.1,0,0.2,0,0.2,0
		c0,0-0.1-0.1-0.2-0.2l0.3-0.4l-0.2,0l-0.1-1.2c-0.7-0.7-1.5-1.3-2-2.6c0.4,0.3,0.5,0,0.9-0.1c-0.3,0.5,0.4,1,0.5,1.7
		c0-0.4,0.1-0.3,0.2-0.3l-0.7-1.1c0.3,0,0.2-0.3,0.3-0.7c-0.6,0.4-0.6-0.9-0.8-1.4c0.2-0.1,0.4,0,0.5,0.7c0.4-0.7-0.9-0.8-0.5-1.5
		c0,0.2,0,0.2,0.1,0.3c-0.2-0.4-0.1-1.3,0.1-1.1l0,0.2c-0.1-1,0.1-3.1-0.5-3.3c0.1,0,0.6,0.2,0.7,0.3c0,0-0.4-0.5-0.8-1l-0.8-1.1
		c0.4,0.2,1.6-0.2,1.7,0.7c0.1-0.2,0.2-0.5,0.1-1c-0.1,0.1-0.7,0.3-0.7,0c0.6-0.5,0.4-0.4,1-1c-0.2,0.2-0.8-0.2-0.7-0.6
		c0.1,0.1,0.7,0.2,0.7,0.3c0,0-0.4-1.1-0.4-1.1c0,0.3,0.6,0.2,0.8,0.1C3.6,18.6,4,17.7,4,17.4l-0.3,0.3c0.4-1-0.5-1.4,0-2.4
		c0.1,0.2,0.7,0.7,1,0.2c-0.3-0.4-1-1.8-0.7-2.9l0.3-0.1c0,0,0.2-0.8,0.2-0.8C4.6,12.5,5,14.3,5,15.1c0.3-0.3,0.3,0,0.6-0.5
		c0.3-0.1,0.1,0.4,0,0.6L6.4,14c-0.4-0.2,0.2-1.1-0.1-1.3c0,0-0.4,1.6-0.4,1.6c-0.4-0.1-0.6-1.4,0.1-2.2c0.3-0.1,0.5,0.6,0.6,0.7
		c0-0.2,0.3-1,0.5-1L7,12.2c0.4-0.4,0.1-1.1,0.9-1.4c0.2-0.2,0.9-0.2,0.7-0.4c-0.6,0-1.8-0.9-1.9-1.4C6.8,9,7.9,8.4,8.3,8.4
		c0.6,0,0.2,1.1,0.7,1C8.9,9.3,9,9.1,9,9c0.3-0.1,0.2,0.3,0.5-0.1c-0.2-0.4,0.8-0.7-0.1-0.4C9.8,8,9.9,8.1,10.4,7.7
		c-0.3-0.1-0.1-1.1,0.2-1.5c0,0.1,0.2,0.1,0.3,0.2c0.9-0.7,1.6-0.8,2.5-1.3c0.1,0,0.6-0.1,0.5,0.2c0.1-0.1,0.2-0.3,0.4-0.5
		c0.7,0.1-0.6,0.4,0,0.5c-0.1-0.2,0.6-0.7,0.9-1C15.1,4,14.4,4.7,14,5c-0.3-0.5,0.2-1.3,1.2-2c0.8-0.5,0.5,0.2,0.6,0
		c1.6-0.5,1-1.4,2.6-1.4c0.6,0.2,0.2,0.6,0.4,0.8c-0.7,0.3-1.1,0.1-1.6,0.3l0.6-0.1c-0.2,0.2-0.6,0.4-0.9,0.4c0.5,0.1,2.7-0.8,4-0.7
		c0.2-0.1,0.6-0.3,0.4-0.4l-0.4,0.1c-0.4-0.2,0.7-0.5,0.2-0.5c0.5-0.2,1.1-0.7,1.9-0.6l0.2,0.4c0-0.1-0.5-0.2-0.7-0.1
		c0.3-0.2,1.2,0.5,1.6-0.1L23.4,1c0.5-0.2,1.3-0.7,2-0.5c-0.3-0.4-0.2,0-0.7-0.4c0.5,0.5-1.8,0.1-1.1,0.6c-0.5-0.5-0.9-0.2-1.6-0.5
		c0,0.1,0.3,0.2-0.3,0.2c0,0,0-0.1-0.2,0c0.1,0,0.2,0,0.2,0c0,0-0.1,0.1-0.1,0.1l0,0l0,0c0,0,0,0,0,0c0.2,0,0.3,0.1,0.3,0.1
		c-0.3,0.3-1.2,0.5-1.5,0.7c-0.4,0,0.1-0.2-0.1-0.3l-0.4,0.3c-0.1-0.3-1-0.2-0.2-0.6l-0.7,0.2c-0.5,0-1.1,0-1.4,0.3
		c-0.4,0.1-0.8,0.6-0.5,0.3L15.8,2l0-0.1c-1.1,0.4-2,1.4-3.4,1.6c-0.3,0.3-0.6,0.6-1.2,0.8l-0.2-0.1c-0.4,0.3-1.4,0.7-1.4,1
		c-0.9-0.2-2,1.5-2.7,2l0.2,0.2C6.5,8,6.2,8.5,5.7,9.2L6,9.3c-0.3,0.6-1.2,1.2-1.8,2.1c0-0.1,0.1-0.3,0.3-0.4
		c-1.3,0.6-1,2.4-1.9,3.2c0,0.3-0.1,0.5-0.3,0.6l0-0.1l-0.1,0.1C2.2,14.9,2.1,15,2,15.1c0.1-0.1,0.2-0.2,0.3-0.2
		c-0.1,0.2-0.2,0.5-0.3,0.8l-0.3,0c0.1-0.3,0.2-0.5,0.3-0.6c-0.4,0.3-0.9,0.6-0.6,0.6l0.3,0c0,0,0,0,0,0.1C1.4,16,1.7,16,1.9,16
		c0,0.2,0,0.3,0,0.5c-0.5,0.1-0.1,0.8-0.7,1c0.1,0.3-0.3,1.6,0.2,1.9c-0.1,0-0.1,0.1-0.1-0.1c-0.1,0.3-0.3,0.7-0.2,1l-0.4,0.1
		c0,0,0.3,0.8,0.4,0.8c-0.3,0.4-0.5,0.6-0.7,0.1c0.3,1.2,0,0.9,0.4,1.9l-0.2-0.1c0,0.3,0.1,0.9-0.1,1.1C0.2,24.4,0,25,0,25.8v0
		c0,1.2,0.4,2.9,0.3,4.1c0.6-0.5-0.1,1,0.5,0.9c-0.1,0.2-0.1,0.4-0.3,0.2c0.4,0.9,0.1,1.6,0.8,2.1C1.2,33.2,1,32.9,1,33
		c0.1,0.1,0.3,0.3,0.2,0.4c-0.1,0.1-0.2-0.1-0.3-0.2c0.4,1,0.9,0.9,1.4,0.8c-0.1,0.6,0.1,0.8,0.5,1c-0.1,0.2-0.1,0.6-0.4,0
		c0.1,0.3,0.7,2.1,1.1,1.9c0,0.1,0.2,0.4,0.3,0.5c0.4,0.7,0.4,0.8,0.8,1.4l-0.1-0.2c0.5,0,0.4,0.5,0.9,0.9l0,0
		C6,40.9,5.9,40,6.5,41.3L6.7,41c0.6-0.3,0.6,1.2,1.3,1.6l-0.1-0.3c0.4,0.2,0.3,1.5,0.6,1.9c0,0.1-0.2,0-0.3-0.1
		c0.7,1.1,0.4-0.2,1.1,0.3c0,0.3-0.5,0.3-0.1,0.7c0.2,0.3,1.8,0.5,2.3,1.3c-0.1-0.2-0.1-0.5,0.3-0.4c0.6,0.3,1.2,1.4,1.9,1.2
		c0.1,0.1,0.1,0.1,0,0.2c0.5,0.1,1.5,0.5,1.9,0.3c0.1,1.1,3,0.5,2.7,1.4l1.5,0.3l-0.1,0.1c0.9,0.3,1.3,0,1.7-0.1
		c0.2,0.1,0,0.2,0,0.2c1.4,0.4,1.5,0.3,2.7-0.1l0.1,0.3c0.3-0.1,2,0.5,3.4,0c0,0,0,0.1-0.1,0.2c1.5-0.5,3.9,0.2,4.1-1.1
		c0,0,0.9-0.6,0.9-0.6c-1.2,0.4,0-0.5-0.5-0.5c0.4-0.2,1.3-0.1,0.8,0.2l-0.1,0c0,0.6,1.6-0.3,1.7,0c2.3-1,4.6-2.2,6.6-3.7l-0.5-0.2
		c0,0,0.6-0.5,0.6-0.5c0.2-0.1,0.5,0.1,0,0.5c0.4,0,0.6-0.8,0.5-0.9c1-0.7,0,0.7,0.3,0.5l0.3-0.4l-0.1,0c0.2-0.4,0.1-0.5,0.6-1.1
		c0.4-0.3,0.4,0,0.5-0.1c0,0,0.1,0,0.2-0.2l0.7-0.8L43.6,41c0.2-0.5,0.7-0.7,0-0.6c0.5-0.1,1.1-0.9,1.6-1.6c0.5-0.8,0.9-1.6,1.1-1.8
		c0.1-0.7,0.3-1.3,0.7-2c-0.1,0.2-0.6,0.1-0.2-0.5c0.7,0.6,0.8-1,1.5-1.4c-0.5,0.4,0.5-1.9-0.3-1.3c0.2-0.5,0.3,0,0.6-0.3
		c0-1.4,0.9-3,0.8-4.7c-0.1,0-0.3,0.2-0.4-0.1l0.6-0.9C49.6,25.4,49.1,25.4,49.4,24.8z"/>
	<path fill="none" stroke="#AF882E" stroke-width="0" stroke-linecap="round" stroke-linejoin="round" d="M14.8,44.9
		C14.8,44.9,14.8,44.9,14.8,44.9"/>
	<path fill="#AF882E" d="M4.3,34.2c0,0.1-0.1,0.1-0.1,0.1C4.2,34.4,4.3,34.3,4.3,34.2z"/>
	<path fill="#AF882E" d="M24.7,47L24.7,47C24.7,47,24.7,47,24.7,47l0.3-0.3C24.6,46.7,24.8,46.8,24.7,47L24.7,47z"/>
	<path fill="#AF882E" d="M9.3,9.3C9.2,9.4,9.1,9.4,9,9.4C9,9.5,9.1,9.5,9.3,9.3z"/>
	<path fill="#AF882E" d="M23.6,0.2c0-0.1-0.1-0.2,0-0.2l-0.6,0.1C23.4,0.1,23.5,0.1,23.6,0.2z"/>
	<path fill="#AF882E" d="M28.3,2.1c0.1,0,0.2,0,0.2,0V2C28.2,1.9,28,2,28.3,2.1z"/>
	<path fill="#AF882E" d="M25,1.1C24.9,1.1,24.9,1.1,25,1.1c0-0.4-0.4-0.3-0.8-0.1C24.3,1.2,24.6,1.1,25,1.1z"/>
	<path fill="#AF882E" d="M25.1,1.1c0.1,0,0.2,0,0.4,0C25.5,0.9,25.3,1,25.1,1.1z"/>
	<path fill="#AF882E" d="M20.4,0.5c0.1-0.4-1.2,0.6-0.2,0.3C20.4,0.8,20.2,0.4,20.4,0.5z"/>
	<polygon fill="#AF882E" points="24.5,1.8 24.4,1.5 24.2,1.8 	"/>
	<path fill="#AF882E" d="M22.3,1.7c-0.4,0-0.8,0-0.7,0.1l0.6,0C22.2,1.7,22.3,1.7,22.3,1.7z"/>
	<path fill="#AF882E" d="M22.3,1.7c0.2,0,0.4,0,0.5-0.1C22.7,1.6,22.5,1.6,22.3,1.7z"/>
	<polygon fill="#AF882E" points="23.6,1.9 23.1,1.9 23.7,1.9 	"/>
	<path fill="#AF882E" d="M14.9,3.8c0,0.1,0.2,0.1,0.4,0c0.1-0.1,0.3-0.3,0.2-0.3L14.9,3.8z"/>
	<path fill="#AF882E" d="M17.6,3.6c-0.2,0-0.2-0.1-0.3-0.1l0.1,0.4L17.6,3.6z"/>
	<path fill="#AF882E" d="M15.9,4.3c0,0.1-0.7,0.7,0,0.3C15.9,4.4,16.4,4.1,15.9,4.3z"/>
	<polygon fill="#AF882E" points="8,9.1 7.5,8.7 7.9,9.3 	"/>
	<path fill="#AF882E" d="M4.5,16.3L4.5,16.3c0,0.5-0.2,0.6,0.3,0.6c0.4-0.6-0.3-0.3,0.1-0.8C4.8,15.9,4.5,16.5,4.5,16.3z"/>
	<polygon fill="#AF882E" points="46.2,12.4 46.1,11.9 46.1,12.3 	"/>
	<path fill="#AF882E" d="M45.3,11.8l0.3-0.3l-0.5-0.1C45.2,11.5,45.3,11.7,45.3,11.8z"/>
	<path fill="#AF882E" d="M11.3,42l-0.1-0.4l-0.1,0.1C11.1,41.8,11.2,41.9,11.3,42z"/>
	<polygon fill="#AF882E" points="16.2,45 16.1,45 16.1,45.4 	"/>
	<path fill="#AF882E" d="M21.1,46c-0.2,0-0.5,0-0.6-0.1C20.9,46,21.1,46.5,21.1,46z"/>
</g>
</svg>
