<?xml version="1.0" encoding="utf-8"?>
<!-- Generator: Adobe Illustrator 19.1.0, SVG Export Plug-In . SVG Version: 6.00 Build 0)  -->
<svg version="1.1" id="Layer_1" xmlns="http://www.w3.org/2000/svg" xmlns:xlink="http://www.w3.org/1999/xlink" x="0px" y="0px"
	 width="50.1px" height="49.7px" viewBox="0 0 50.1 49.7" enable-background="new 0 0 50.1 49.7" xml:space="preserve">
<g>
	<path fill="none" d="M36.4,17.2l0,0.2c0.1,0,0.2,0.1,0.3,0.1C36.5,17.3,36.4,17.2,36.4,17.2z"/>
	<path fill="none" d="M29.4,10.8C29.5,10.8,29.5,10.9,29.4,10.8C29.5,10.9,29.5,10.8,29.4,10.8C29.4,10.8,29.4,10.8,29.4,10.8z"/>
	<path fill="none" d="M19.7,10.8c0.1-0.2,0.2-0.3,0.2-0.3c0,0-0.1,0-0.1,0C19.7,10.7,19.7,10.7,19.7,10.8z"/>
	<path fill="none" d="M27.1,9.5L27.1,9.5L27.1,9.5C27.1,9.5,27.1,9.5,27.1,9.5z"/>
	<path fill="none" d="M27.1,9.6L27.1,9.6c0,0,0.1,0,0.1,0.1C27.2,9.6,27.2,9.6,27.1,9.6L27.1,9.6z"/>
	<path fill="none" d="M17.6,19.7c0,0,0.1-0.2,0.3-0.4C17.7,19.5,17.6,19.6,17.6,19.7C17.6,19.7,17.6,19.7,17.6,19.7z"/>
	<path fill="none" d="M18.9,11.4L18.9,11.4C18.7,11.5,18.5,11.6,18.9,11.4z"/>
	<path fill="none" d="M17.4,20c0,0.1-0.1,0.2-0.1,0.3C17.3,20.2,17.4,20.1,17.4,20z"/>
	<path fill="none" d="M33.5,15.6c0.4,0.1,0.8,0.2,0.7-0.1c-0.2,0-0.3-0.1-0.5-0.1C33.9,15.6,33.7,15.6,33.5,15.6z"/>
	<path fill="none" d="M35.4,16.7c0.1,0.1,0.2,0.1,0.2,0.1C35.6,16.8,35.6,16.7,35.4,16.7C35.5,16.7,35.5,16.7,35.4,16.7z"/>
	<path fill="none" d="M32.1,14L32.1,14C32.1,14,32.1,13.9,32.1,14z"/>
	<path fill="none" d="M30.4,12.9C30.4,12.9,30.4,12.9,30.4,12.9L30.4,12.9c0.3,0.8,1,1.1,1.2,1.3l-0.3-0.4
		C31,13.7,30.7,13.4,30.4,12.9z"/>
	<path fill="none" d="M30.4,12.5c0,0.1,0.1,0.2,0.1,0.2C30.5,12.7,30.4,12.6,30.4,12.5z"/>
	<path fill="none" d="M39.1,21.4c-0.1,0-0.1-0.1-0.2-0.1C39,21.3,39,21.4,39.1,21.4L39.1,21.4z"/>
	<path fill="none" d="M37.7,18.5C37.7,18.5,37.7,18.5,37.7,18.5c0,0.1,0.1,0.2,0.2,0.3C37.8,18.7,37.8,18.6,37.7,18.5z"/>
	<path fill="none" d="M38.1,19L38.1,19C38,19,38.1,19.1,38.1,19C38.1,19.1,38.1,19,38.1,19z"/>
	<path fill="none" d="M29.7,10.9C29.7,10.9,29.7,10.9,29.7,10.9L29.7,10.9C29.7,10.9,29.7,10.9,29.7,10.9z"/>
	<polygon fill="none" points="29.7,10.9 29.6,10.9 29.7,10.9 	"/>
	<path fill="none" d="M23.7,31.3c0.1-0.1,0.2-0.2-0.1-0.2C23.5,31.2,23.6,31.3,23.7,31.3z"/>
	<path fill="none" d="M23.3,31.9l0.3,0c0-0.2-0.1-0.3,0.2-0.3c-0.2-0.1-0.1-0.2-0.1-0.3c-0.1-0.1-0.2-0.1-0.4,0
		C23.3,31.6,23.3,31.8,23.3,31.9z"/>
	<path fill="none" d="M11.8,26.5c-0.1,0.2,0.1,0.5,0.3,0.6c0,0,0-0.1,0-0.1C12,26.8,11.9,26.7,11.8,26.5
		C11.8,26.5,11.8,26.5,11.8,26.5z"/>
	<path fill="none" d="M23.7,32.2c-0.1-0.1-0.3-0.1-0.4-0.2c0,0.2-0.1,0.3-0.1,0.3l0.1,0.1C23.4,32.4,23.6,32.4,23.7,32.2z"/>
	<path fill="none" d="M26.2,36.3L26.2,36.3l0.1,0.1C26.3,36.3,26.2,36.3,26.2,36.3z"/>
	<path fill="none" d="M24.4,36.2c0.1-0.1,0.1-0.1,0.1-0.2C24.3,36.1,24.3,36.2,24.4,36.2z"/>
	<path fill="none" d="M0.8,30.7c0.1,0.1,0.2,0.2,0-0.2L0.8,30.7z"/>
	<path fill="none" d="M30.1,2.3c-0.2-0.1-0.4-0.2-0.5-0.2C29.8,2.3,30,2.3,30.1,2.3z"/>
	<path fill="none" d="M16.5,4c0.2,0.1,0.4-0.2,0.5-0.3C16.8,3.7,16.6,3.6,16.5,4z"/>
	<path fill="none" d="M42.5,8.2c0,0,0.1,0,0.1,0C42.5,8,42.5,8.1,42.5,8.2z"/>
	<path fill="none" d="M48.4,32.2C48.5,31.9,48.6,31.8,48.4,32.2L48.4,32.2z"/>
	<path fill="none" d="M42.4,41.9c0,0,0,0.1,0,0.1C42.5,41.9,42.7,41.7,42.4,41.9z"/>
	<polygon fill="none" points="42.5,42 42.5,42 42.5,42 	"/>
	<path fill="none" d="M42.5,42L42.5,42L42.5,42C42.4,42,42.4,42,42.5,42z"/>
	<path fill="#AF882E" d="M25.2,49.4c-0.2,0-0.1,0.2-0.2,0.3C25.5,49.6,25.2,49.3,25.2,49.4z"/>
	<polygon fill="#AF882E" points="28.9,48.5 29.4,48.2 28.9,48.4 	"/>
	<path fill="#AF882E" d="M30.5,48L30.4,48l-0.2,0.4c0.7-0.3,1.6-0.7,2.2-0.8C31.9,47.3,31.1,48,30.5,48z"/>
	<path fill="#AF882E" d="M34,47.9C34,47.9,34.1,48,34,47.9c0.2,0,0.3,0,0.4-0.1C34.3,47.7,34.8,47.5,34,47.9z"/>
	<path fill="#AF882E" d="M34.1,48C33.7,48.1,34.4,48,34.1,48L34.1,48z"/>
	<path fill="#AF882E" d="M35.3,47.5c0.1,0,0.6-0.1,0.4,0c0.4-0.3,0.3-0.4,0-0.4L35.3,47.5z"/>
	<path fill="#AF882E" d="M35.9,46.7l-0.2,0.2C35.8,46.8,35.9,46.8,35.9,46.7z"/>
	<path fill="#AF882E" d="M35.3,47.2l0.4-0.4c-0.1,0-0.2-0.2-0.2,0.2C35.5,46.8,35.5,47,35.3,47.2z"/>
	<path fill="#AF882E" d="M34.8,47c-0.9,0.4-0.6,0.7,0.3,0.2C34.7,47.3,34.4,47.4,34.8,47z"/>
	<path fill="#AF882E" d="M31.7,47.3c0.1-0.1,0.7-0.1,0.6-0.2l-0.4,0L31.7,47.3z"/>
	<path fill="#AF882E" d="M38.1,45.6l0.4-0.4C38.1,45.4,38.1,45.5,38.1,45.6C38.1,45.6,38.1,45.6,38.1,45.6l-0.3,0.3
		c0.2,0,0.5-0.2,0.6-0.1C38.5,45.7,38.2,45.7,38.1,45.6z"/>
	<polygon fill="#AF882E" points="35.8,46.2 35.2,46.9 35.9,46.1 	"/>
	<polygon fill="#AF882E" points="40.1,45 40.4,44.3 40.3,44.6 	"/>
	<path fill="#AF882E" d="M41.3,43.7c-0.1,0.3,0.4,0,0.3,0.3c0.3-0.3,0.4-0.6,0.5-0.9C42,43.3,41.8,43.5,41.3,43.7z"/>
	<path fill="#AF882E" d="M39.5,44.6L39.5,44.6l-0.2,0.1c0.1,0,0.2,0.1,0.5,0L39.5,44.6c0.2-0.1,0.3-0.2,0.4-0.3
		C39.8,44.3,39.7,44.4,39.5,44.6z"/>
	<path fill="#AF882E" d="M39.3,44.7L39.3,44.7C39.3,44.7,39.3,44.7,39.3,44.7z"/>
	<path fill="#AF882E" d="M37.2,45.1c-0.1,0.3,0.3,0.2,0,0.6C37.4,45.4,37.8,44.9,37.2,45.1z"/>
	<path fill="#AF882E" d="M38.4,45.1c0,0,0.4-0.5,0.4-0.5c0,0-0.5,0.3-0.5,0.3C38.4,44.9,38.5,45,38.4,45.1z"/>
	<polygon fill="#AF882E" points="38.9,44.6 39,44.5 39,44.4 	"/>
	<path fill="#AF882E" d="M41.5,43c0.1-0.3,0.3-0.5,0.5-0.7c-0.3,0.2-0.5,0.4-0.8,0.6c0,0,0-0.1-0.1,0c-0.2,0.1-0.3,0.3-0.3,0.4
		c0.1-0.1,0.3-0.3,0.4-0.4C41.3,43.1,41.3,43.3,41.5,43z"/>
	<path fill="#AF882E" d="M40.5,43.8L40.5,43.8C40.5,43.7,40.5,43.8,40.5,43.8z"/>
	<polygon fill="#AF882E" points="44.1,40.1 44.1,40.1 44,40.1 	"/>
	<path fill="#AF882E" d="M42.9,41.8c-0.1,0.1-0.3,0.1-0.4,0.2C42.7,42,43,41.9,42.9,41.8z"/>
	<path fill="#AF882E" d="M40.7,43.7L40.7,43.7C40.8,43.8,40.7,43.8,40.7,43.7z"/>
	<path fill="#AF882E" d="M40.6,43.7c0,0,0.1,0,0.1,0c0.1-0.1,0.1-0.2,0.2-0.3C40.7,43.5,40.6,43.6,40.6,43.7z"/>
	<path fill="#AF882E" d="M43.2,39.7c0.4-0.6,0.4-0.4,0.8-0.6c-0.4,0.1,0.2-1-0.3-1.2l-0.2,0.6c-0.1,0,0-0.3-0.2-0.2
		c0.2,0.2,0,0.9-0.6,1.1c-0.2,0.5,0.6,0.8,1.3,0.7c-0.1-0.1-0.1-0.1,0.1-0.7C43.9,39.5,43.1,40.2,43.2,39.7z"/>
	<path fill="#AF882E" d="M43.3,41L43.3,41l-0.1,0.1c0,0,0,0,0,0c-0.2,0.2-0.4,0.4-0.7,0.8c0.3-0.2,0.1,0,0,0.1l0,0h0
		c0,0,0.7-0.9,0.7-0.9c0.2-0.2,0.4-0.2,0.8-0.4c0.2-0.4,0.2-0.5,0.1-0.6L43.3,41z"/>
	<path fill="#AF882E" d="M42.5,42C42.4,42,42.4,42,42.5,42L42.5,42c0-0.1-0.1-0.1-0.1-0.1c0-0.3,0.2-0.8-0.2-0.8
		c-0.5,0.5-0.2,0.5-0.4,0.9c0.8-0.8-0.1,0.3,0.6-0.1c-0.1,0.2-0.3,0.3-0.4,0.5C42.2,42.2,42.4,42.1,42.5,42L42.5,42L42.5,42L42.5,42
		z"/>
	<path fill="#AF882E" d="M37.3,44.3C37.4,44.3,37.4,44.3,37.3,44.3C37.4,44.2,37.5,44.2,37.3,44.3z"/>
	<path fill="#AF882E" d="M38.6,44.4c-0.2-0.1-0.4-0.2-0.8-0.2c0,0.1,0,0.2-0.3,0.3c-0.2,0-0.1-0.1-0.1-0.2c-0.1,0.1-0.3,0.4,0.1,0.3
		l0-0.1C37.9,44.4,38.4,44.4,38.6,44.4z"/>
	<path fill="none" stroke="#AF882E" stroke-width="0" stroke-linecap="round" stroke-linejoin="round" d="M38.6,44.4
		C38.6,44.4,38.6,44.4,38.6,44.4"/>
	<path fill="#AF882E" d="M40.7,42.4l-0.5,0.1l0.1,0.1c-0.4,0.3-0.2,0.3-0.2,0.5C40.2,43.1,40.7,42.4,40.7,42.4z"/>
	<polygon fill="#AF882E" points="44.4,40.4 44.4,39.7 44.3,40.1 	"/>
	<polygon fill="#AF882E" points="45.1,39.3 45.2,38.9 45,39.1 	"/>
	<path fill="#AF882E" d="M14.7,4.9l0-0.1C14.7,4.8,14.7,4.9,14.7,4.9z"/>
	<path fill="#AF882E" d="M45.6,10.1l-0.2,0.3c0.2,0.2,0.3,0.4,0.3,0.6C45.7,10.5,45.8,9.9,45.6,10.1z"/>
	<path fill="#AF882E" d="M28.5,2.5L28,2.2C28.1,2.3,28.3,2.4,28.5,2.5z"/>
	<path fill="#AF882E" d="M6.7,12.8c0.2-0.4,0-0.3-0.1-0.4L6.7,12.8z"/>
	<path fill="#AF882E" d="M49.4,27.6c0.2-0.3,0.2-0.6,0.3-0.8C49.5,27.2,49.2,27.5,49.4,27.6z"/>
	<path fill="#AF882E" d="M12.7,42.9C12.8,42.8,12.7,42.8,12.7,42.9C12.7,42.8,12.7,42.8,12.7,42.9z"/>
	<path fill="#AF882E" d="M21.8,48.9c-0.1,0-0.3,0-0.5,0C21.4,48.9,21.5,48.9,21.8,48.9z"/>
	<path fill="#AF882E" d="M47.5,35c0,0-0.1,0.1-0.2,0.3C47.3,35.2,47.4,35.1,47.5,35z"/>
	<path fill="#AF882E" d="M47.4,35.2c0,0.1-0.1,0.1-0.1,0.2C47.3,35.5,47.3,35.5,47.4,35.2z"/>
	<path fill="#AF882E" d="M47.5,34.9C47.4,35.2,47.5,35,47.5,34.9L47.5,34.9c0-0.1,0.1-0.2,0.1-0.3C47.6,34.7,47.6,34.8,47.5,34.9
		C47.5,34.9,47.5,34.9,47.5,34.9z"/>
	<path fill="#AF882E" d="M2.3,27.8C2.4,28,2.4,27.9,2.3,27.8C2.3,27.8,2.3,27.8,2.3,27.8z"/>
	<path fill="#AF882E" d="M38.8,7.5c0.5,0,0.6,0.1,0.8,0.4l0,0l0,0l0,0l0.3-0.8L38.8,7.5z"/>
	<path fill="#AF882E" d="M49.6,19.2l-0.3,0c-0.1-0.6-0.4-1.2-0.7-1.9l-0.3,0.1c-0.4-0.6-0.3-1.6-0.7-2.6c0.1,0,0.2,0.3,0.2,0.5
		c0.2-1.4-1.5-2.2-1.6-3.4c-0.2-0.2-0.3-0.4-0.4-0.6l0.1,0.1l-0.1-0.1c0-0.1-0.1-0.3-0.1-0.4c0,0.1,0,0.3,0,0.4
		c-0.1-0.2-0.3-0.4-0.6-0.7l0.2-0.3c0,0,0,0,0-0.1c-0.1-0.3-0.3-0.1-0.4,0.1c-0.1-0.1-0.3-0.2-0.4-0.2c0.2-0.5-0.6-0.6-0.4-1.1
		c-0.3,0-1-1-1.6-0.9c-0.2-0.3-0.4-0.6-0.7-0.7l0.2-0.4c0,0-0.9-0.2-0.9-0.2c-0.2-0.5-0.2-0.7,0.3-0.6c-1.1-0.4-0.8-0.5-1.8-0.8
		l0.2-0.2c-0.3-0.2-0.9-0.2-1-0.5c-0.3-0.9-3.1-2.1-4.7-3.2c0.1,0.8-0.7-0.6-1-0.1c0-0.2-0.3-0.4,0.1-0.4c-1-0.2-1.4-0.8-2.2-0.5
		c-0.1-0.2,0.3-0.2,0.2-0.3c-0.1,0-0.4,0.1-0.4-0.1c-0.1-0.1,0.2-0.1,0.4-0.1c-1-0.2-1.2,0.3-1.4,0.7c-0.4-0.4-0.7-0.4-1.1-0.1
		c-0.1-0.2-0.4-0.4,0.2-0.4c-0.3-0.1-2.1-0.5-2.2-0.1c-0.1-0.1-0.5-0.1-0.6,0c-0.8-0.1-0.9-0.1-1.6-0.1l0.2,0.1
		c-0.3,0.5-0.6,0.1-1.3,0.2l0,0c-1.5-0.2-0.6,0.2-2-0.1l0.1,0.3c0,0.7-1.3-0.2-2.1,0.2l0.3,0.1c-0.4,0.3-1.4-0.5-1.9-0.5
		c-0.1,0,0.1-0.1,0.3-0.2c-1.3,0,0,0.4-0.9,0.7c-0.2-0.2,0-0.6-0.6-0.4c-0.4,0-1.4,1.3-2.3,1.2c0.2,0.1,0.5,0.1,0.1,0.4
		c-0.5,0.3-1.8,0.2-2.1,1c-0.1,0-0.1,0-0.2,0c0.1-0.1,0.2-0.2,0.1-0.3C12.2,3,12.2,3,12.2,3.1c-0.3,0.4-1.2,1-1.3,1.4
		C10,3.9,8.9,6.7,8.3,6L7.3,7.1l0-0.1C6.5,7.6,6.5,8,6.4,8.4C6.2,8.6,6.3,8.4,6.2,8.3c-1.1,0.9-1.1,1.1-1.4,2.3l-0.3-0.1
		C4.5,10.9,3,12,2.7,13.4c0,0-0.1-0.1-0.1-0.2c-0.4,1.5-2.3,3.1-1.3,4c0,0,0,1,0,1c0.4-1.2,0.4,0.3,0.7-0.2c0,0.5-0.6,1.2-0.5,0.6
		l0.1-0.1C1,18.3,1,20.1,0.6,20c-0.4,2.5-0.8,5.1-0.5,7.5l0.4-0.3c0,0,0.1,0.8,0.1,0.8c-0.1,0.2-0.3,0.4-0.4-0.3
		c-0.2,0.4,0.4,1,0.5,1c0,1.2-0.6-0.4-0.6,0l0.1,0.5l0-0.1c0.3,0.4,0.4,0.4,0.6,1.1c0,0.5-0.2,0.3-0.2,0.5c0,0,0,0.1,0.1,0.3L1,32
		l0.2-0.5c0.3,0.4,0.3,1,0.5,0.4c-0.2,0.4,0.1,1.4,0.5,2.3c0.4,0.9,0.9,1.7,0.9,1.9c0.5,0.5,0.9,1,1.3,1.7c0-0.2,0.2-0.5,0.6,0.1
		C4,38,5.3,39,5.2,39.8c0-0.6,1.3,1.5,1.3,0.5c0.3,0.5-0.2,0.2-0.1,0.7c1.2,0.8,2,2.3,3.5,3.3c0.1-0.1,0-0.4,0.4-0.3l0.4,1
		c0.3,0.1,0.6-0.3,0.9,0.3c0-0.1-0.1-0.3,0.2-0.2c2.6,2.3,6.2,2.6,9.4,4c-0.4-0.3-0.1-0.3,0.2-0.2c-0.2-0.1,0-0.3,0-0.4
		c0,0,1.4,0.6,1.4,0.6c0.3-0.4,1.5,0,1.7-0.4l-0.4,0.1c0.6-0.4-0.8-1.1-0.6-1.7c-0.7,0.6-1.5-1-2.6-0.3c-0.2-0.2,0.2-0.2,0.1-0.3
		c-0.3,0.2-0.6,0.2-1.1,0l0.1,0c-1.6-0.3-2.2-0.8-3.7-1.6l0,0.3c-0.3-0.2-0.4-0.3-0.5-0.5c-0.6,0.2,1,0.5,0.4,0.8
		c-0.2-0.7-2.5-1.2-2.4-2c-0.5-0.3,0,0.4-0.5,0.1l0-0.2l-0.3,0.1c-0.3-0.2-0.3-0.6-0.3-0.7c0.1,0.1,0.2,0.1,0.3,0.2
		c-0.3-0.5-1.2-0.8-1.3-0.9l0.4,0.4c-1.4-0.8-2.7-2.3-4-3.2l0,0.2c-1-0.7-0.5-0.8-1.4-1.8l0.1,0c-0.3-0.1-0.5-0.4-0.7-0.7
		c0.3,0.2-0.1-0.7,0.3-0.4c-0.9-1-0.5-0.4-1.4-0.9l0.1-0.3C4.5,35,4.3,35,4,34.4c0.4,0.4,0.1-0.5,0.6-0.1c-0.2-1.4-1.3-1.7-0.8-2.5
		c-0.8-0.4,0.1,1.2-0.2,1C3.5,33.1,3,32.4,2.9,32c-0.2-0.4,0.6-1,0.2-2c0,0.1,0.1,0.1,0.1,0.2c0.1-0.4-0.5-0.7-0.3-1.3
		c-0.4-0.2-0.1-0.7-0.6-0.6l0.3,1c-0.2-0.5-0.9-1-0.8-2c0.1,0.1,0.3,0.3,0.4,0.5c0.1-0.3-0.2-0.5-0.1-0.8c0.5,0,0.3,1.2,0.8,1.8
		c0.2-0.3-0.5-1.1,0-0.9c-0.8-0.3-0.1-1.1-0.6-1.8l0.3,0c-0.1-0.1-0.2-0.3-0.2-0.6l0.4,0.4c-0.4-0.6,0.2-1.2,0.1-1.7
		c0,1.2-0.4,0.3-0.6,0.8C2,23.5,3.1,24,3.1,22.6c0,0.3-0.2,0.7-0.3,0.4C2.8,22.6,3,22.2,3.1,22c0.1-1.1-0.3,0.1-0.4-0.4
		c0.4-0.3-0.1-0.6-0.1-1.1l0.3,0c0.4-1.2-0.6-0.5-0.1-1.5l0.3,0.6l0-0.6l0.3,0.2c-0.1-0.7,0-0.9,0.3-1.4c-0.3,0.1-0.5-0.2-0.3-0.8
		c0.3-0.3,0.2,0.3,0.4-0.5c0.1,0.2,0.3,0.5-0.1,0.7c0.1,0.1,0.1,0.2,0.2,0.3c0.3-0.3,0.4-0.9,0.5-1.2c0,0.1-0.1,0.2-0.2,0.3
		c0,0,0-1.2,0-1.2c0.2-0.1,0.2,0,0.2,0.2c0.1-0.2,0-0.4,0.1-0.7C4.8,15.2,5,15.2,5,15.7l0.2-1.1c0.1,0,0.5-0.4,0.5-0.2
		C6.1,14,6,13,6.6,12.4l0,0l0-0.1l0,0c0-0.1,0-0.1,0.1-0.3c0.5-0.6,1.1-0.9,1.4-1.8l0.7-0.1c0.4-0.6-0.9,0.1-0.2-0.8
		c0.4-0.7,0.5,0,0.8-0.1C9.4,8.8,9.6,8,10.4,7.8C10.2,8,10.1,8.1,9.9,8.3l0.6-0.2c-0.2,0.8-0.7,1-0.1,0.9C9.9,8.2,12,7.5,11.6,6.8
		L12,6.7c-0.1,0.1-0.1,0.1-0.2,0.2c0.8-0.1,0.1-0.8,1-1.2c0.3-0.1,0.6-0.1,0.4,0.1l0.5-0.6c0.2-0.1,0.2,0,0.1,0.1
		c0.2-0.1,0.9-0.5,0.9-0.5l0,0C14.8,4.5,15,4.2,15.2,4c0.3,0-0.1,0.1,0,0.2c0,0,0.5-0.5,0.5-0.5c0.3,0.1-0.1,0.5-0.5,0.7
		C16.1,5,15.6,4,16.9,4l-0.5,0.3c0.5,0.3,0.9,0,1.6,0c-0.2-0.1-1.5-0.2-0.9-0.7c0.2,0,0.4-0.1,0.7-0.4c0.1,0.3,0.4,0.1,0.8,0
		l0.1,0.4c0.4-0.2,0.3-0.4,0.6-0.7c0.5-0.1,0.7,0.2,0.9,0.4c0.8-0.1-0.7-0.4,0.3-0.6c0.7,0.1,1.2-0.3,2-0.5c0.5,0.1-0.1,0.3,0.1,0.4
		L23,2.3c0.1,0,0.1,0.1,0.1,0.2c0.4-0.2,0-0.4,0.6-0.6c0.2-0.5,1.2,0.6,2,0.2c0.2,0.1-0.1,0.2-0.1,0.4c1-0.3,0.9-0.2,1.7-0.5L28,2.2
		c-0.5-0.4,0.2-0.6,0.9-0.8c-0.2-0.2-0.3-0.3-0.4-0.4c0,0,1-0.1,1,0c0.1,0.1,0,0.2-0.2,0.3l0.2,0c0.3,0.2,0.1,0.4-0.2,0.6L29,1.5
		c0.1-0.1,0.2-0.1,0.3-0.2c-0.1,0-0.3,0-0.4,0.1L29,1.5c-0.3,0.2-0.5,0.4-0.5,0.7c0.1,0,0.2-0.1,0.3-0.1c-0.1,0.1-0.1,0.1-0.1,0.2
		c0,0,0.1,0,0.3-0.1l0.1,0.5l0.1-0.2l1.1,0.6c1-0.3,1.9-0.6,3.3-0.3c-0.4,0.2-0.3,0.5-0.4,0.8c-0.2-0.5-1.1-0.2-1.7-0.5
		c0.3,0.2,0.2,0.3,0.1,0.3l1.3,0.1c-0.1,0.3,0.2,0.3,0.4,0.6c0-0.7,1,0,1.6,0.1c-0.1,0.2-0.3,0.3-0.8,0c0.4,0.7,1.2-0.3,1.6,0.4
		c-0.1-0.1-0.2-0.1-0.3-0.1c0.4,0,1.1,0.6,0.8,0.7l-0.1-0.1c0.9,0.5,2.6,1.8,3,1.4c0,0.1-0.5,0.4-0.6,0.5c0,0,0.6-0.1,1.3-0.1l1.3,0
		c-0.4,0.2-0.7,1.4-1.5,1.1c0.1,0.2,0.3,0.4,0.8,0.7c-0.1-0.2,0.2-0.8,0.4-0.6c0.1,0.8,0.1,0.5,0.3,1.4c-0.1-0.3,0.6-0.5,0.9-0.2
		c-0.1,0-0.5,0.5-0.7,0.4c0,0,1.2,0.3,1.2,0.3c-0.3-0.1-0.5,0.3-0.5,0.6c0-0.2,0.5,0.7,0.7,0.8L42.5,11c0.6,0.9,1.5,0.3,2.1,1.3
		c-0.2,0-0.9,0.2-0.7,0.7c0.5,0,2.1,0.1,2.8,1l-0.1,0.3c0,0,0.6,0.6,0.6,0.6c-0.7-0.3-2.4-1-3-1.4c0,0.4-0.2,0.2,0.1,0.8
		c-0.1,0.3-0.4-0.2-0.5-0.3l0.5,1.3c0.4-0.2,0.8,0.8,1.1,0.6c0,0-1-1.2-1-1.2c0.3-0.2,1.5,0.3,1.8,1.3c-0.1,0.3-0.8,0.1-0.9,0.2
		c0.2,0.1,0.6,0.8,0.5,0.9l-0.4-0.3c0.1,0.6,0.9,0.7,0.7,1.5c0,0.2-0.3,0.8-0.1,0.8c0.4-0.5,1.8-1,2.2-0.8c0,0.1-0.1,1.4-0.3,1.7
		c-0.3,0.5-1-0.4-1.2,0c0.1,0,0.3,0.2,0.4,0.3c-0.1,0.3-0.4,0-0.2,0.5c0.4,0,0.2,1.1,0.4,0.2c0.2,0.5,0,0.6,0.1,1.2
		c0.3-0.2,1,0.5,1.2,1c-0.1,0-0.2,0.1-0.2,0.2v0c0,0.1-0.1,0.1-0.1,0c0.1,1.1-0.3,1.7-0.3,2.8c-0.1,0.1-0.3,0.6-0.4,0.4
		c0.1,0.2,0.2,0.3,0.1,0.6c-0.5,0.6,0-0.7-0.5-0.3c0.2,0.1,0.2,0.8,0.3,1.3c0.4-0.1,0.2-1,0.1-1.5c0.5,0,1,0.9,1,2.1
		c0,0.9-0.4,0.3-0.4,0.5c-0.5,1.6,0.6,1.7-0.2,2.9c-0.5,0.4-0.6-0.2-0.9-0.1c0.1-0.7,0.6-1,0.6-1.5L47.4,31c-0.1-0.3,0-0.7,0.1-1
		c-0.4,0.4-0.8,2.7-1.6,3.7c0,0.2,0,0.7,0.2,0.5l0.1-0.4c0.4-0.2,0,0.9,0.4,0.4c-0.1,0.6,0,1.3-0.6,1.9l-0.4-0.1
		c0.1,0,0.5-0.3,0.5-0.6c0,0.4-1.1,0.8-0.8,1.3l0.5-0.3c-0.1,0.6-0.1,1.4-0.6,1.9c0.5-0.1,0.1-0.2,0.7-0.3c-0.7,0.1,1-1.6,0.1-1.3
		c0.7-0.2,0.7-0.7,1.4-1.1c-0.1,0-0.3,0.1,0-0.4c0,0,0-0.1,0-0.2l0,0l0,0c0,0,0,0,0,0c-0.1,0.1-0.2,0.2-0.3,0.2
		c-0.1-0.4,0.3-1.3,0.3-1.6c0.2-0.3,0.1,0.2,0.3,0.1l0-0.5c0.3,0.1,0.7-0.7,0.6,0.1l0.3-0.7c0.3-0.4,0.6-0.9,0.6-1.3
		c0.1-0.3-0.1-1,0.1-0.6l0.1-1.2l0.1,0c0.3-1.2,0-2.4,0.5-3.7c0,0.3,0.1,0.5,0,0.8c0.2-0.3,0.2-0.7,0-1c0,0.1,0,0.1-0.1,0.2
		c-0.1-0.4-0.1-0.8,0-1.5l0.2-0.1c-0.1-0.5,0.2-1.5-0.1-1.8C50.5,22,49.7,20.1,49.6,19.2z M0.8,30.7l0-0.2C1,30.9,0.9,30.8,0.8,30.7
		z M16.5,4c0-0.4,0.3-0.3,0.5-0.3C16.9,3.8,16.7,4.1,16.5,4z M29.6,2.1c0.2,0,0.3,0.1,0.5,0.2C30,2.3,29.8,2.3,29.6,2.1z M42.5,8.2
		c0-0.1,0-0.1,0.1,0C42.6,8.2,42.5,8.2,42.5,8.2z M48.4,32.2L48.4,32.2C48.6,31.8,48.5,31.9,48.4,32.2z"/>
	<path fill="none" stroke="#AF882E" stroke-width="0" stroke-linecap="round" stroke-linejoin="round" d="M3.1,22.6c0,0,0-0.1,0-0.1
		"/>
	<path fill="none" stroke="#AF882E" stroke-width="0" stroke-linecap="round" stroke-linejoin="round" d="M13.8,5.2
		C13.8,5.3,13.8,5.3,13.8,5.2"/>
	<path fill="#AF882E" d="M28.5,2.2c-0.1,0-0.1,0.1,0,0.2C28.5,2.3,28.5,2.2,28.5,2.2z"/>
	<path fill="#AF882E" d="M46.5,20.3c0-0.2,0.1-0.3,0.1-0.3C46.5,19.9,46.5,20,46.5,20.3z"/>
	<path fill="#AF882E" d="M46.3,37.2c0.1,0,0.2,0,0.1,0.1l0.2-0.5C46.5,37.1,46.4,37.1,46.3,37.2z"/>
	<path fill="#AF882E" d="M42.1,40.1c0,0.1-0.1,0.1-0.1,0.2l0.1,0.1C42.3,40.1,42.4,39.9,42.1,40.1z"/>
	<path fill="#AF882E" d="M45.3,37.3c-0.2-0.1-0.3,0.3-0.5,0.6l0-0.1C45.1,38.1,45.2,37.7,45.3,37.3z"/>
	<path fill="#AF882E" d="M44.7,37.9c-0.1,0.1-0.1,0.2-0.2,0.3C44.6,38.4,44.6,38.1,44.7,37.9z"/>
	<path fill="#AF882E" d="M47.7,34.1c-0.1,0.1,0.3,0.2,0.1,0.3C48,34.7,48,33.1,47.7,34.1z"/>
	<polygon fill="#AF882E" points="44.4,37.1 44.8,37.2 44.7,36.8 	"/>
	<path fill="#AF882E" d="M46,34.7l-0.3,0.5c0.1,0,0,0.1,0,0.2C45.9,35,46.1,34.7,46,34.7z"/>
	<path fill="#AF882E" d="M45.7,35.4c-0.1,0.2-0.2,0.3-0.2,0.4C45.6,35.7,45.7,35.5,45.7,35.4z"/>
	<polygon fill="#AF882E" points="45.1,35.9 44.8,36.4 44.9,36.3 	"/>
	<path fill="#AF882E" d="M48.1,28.6V28c-0.1-0.1-0.2,0.1-0.2,0.3C47.9,28.5,47.9,28.7,48.1,28.6z"/>
	<path fill="#AF882E" d="M46.8,30.3c0.1-0.1,0.2-0.1,0.3-0.2L46.7,30L46.8,30.3z"/>
	<path fill="#AF882E" d="M47.1,28.5c-0.1-0.1-0.2-0.9-0.3-0.2C47,28.4,46.9,29.1,47.1,28.5z"/>
	<polygon fill="#AF882E" points="47.4,19.1 47.4,19.2 48,19.1 	"/>
	<path fill="#AF882E" d="M42.7,12.2c0.2,0.7,0.4-0.1,0.6,0.6c0.2,0.1-0.2-0.5,0-0.5C43,12.1,43,11.8,42.7,12.2z"/>
	<path fill="#AF882E" d="M43.4,12.4c0.1,0,0.1,0.1,0.2,0.1C43.5,12.4,43.4,12.4,43.4,12.4z"/>
	<polygon fill="#AF882E" points="23.6,49.4 24.1,49.5 23.8,49.3 	"/>
	<path fill="#AF882E" d="M24.6,48.9l0.1,0.4l0.3-0.4C24.9,49,24.7,49,24.6,48.9z"/>
	<path fill="#AF882E" d="M18.5,4c-0.1-0.1-0.2-0.1-0.4,0l0.4,0.1L18.5,4z"/>
	<polygon fill="#AF882E" points="12.7,6.1 12.9,6.3 13,6.3 	"/>
	<path fill="#AF882E" d="M9.3,9.9c0.1-0.2,0.3-0.4,0.4-0.5C9.5,9.8,9,9.7,9.3,9.9z"/>
	<path fill="#AF882E" d="M23.3,26.1L23.1,26C23.1,26.2,23.2,26.1,23.3,26.1z"/>
	<path fill="#AF882E" d="M25.4,19.7C25.5,19.7,25.5,19.7,25.4,19.7C25.6,19.6,25.6,19.6,25.4,19.7z"/>
	<polygon fill="#AF882E" points="24.3,41 24.3,41 24.3,41 	"/>
	<path fill="#AF882E" d="M24.7,40.4c0,0.1-1,0.1-1,0c0.4,0.2,0.5,0.3,0.6,0.6C24.3,41,24.7,40.3,24.7,40.4z"/>
	<path fill="none" stroke="#AF882E" stroke-width="0" stroke-linecap="round" stroke-linejoin="round" d="M23.8,39.8
		C23.8,39.8,23.8,39.8,23.8,39.8"/>
	<path fill="#AF882E" d="M24,35.7c0,0,0.1,0,0.1,0C24.1,35.6,24,35.6,24,35.7z"/>
	<polygon fill="#AF882E" points="23.4,26.1 23.3,26.1 23.4,26.2 	"/>
	<path fill="#AF882E" d="M27.5,36.1c0,0.1-0.1,0.1-0.1,0.1C27.4,36.2,27.5,36.1,27.5,36.1z"/>
	<polygon fill="#AF882E" points="26.4,30.3 26.4,30.1 26.4,30.1 	"/>
	<path fill="#AF882E" d="M26.7,32.5l0.4,0l-0.1-0.1C26.8,32.4,26.7,32.4,26.7,32.5z"/>
	<path fill="#AF882E" d="M27.2,33.1c-0.1,0-0.2-0.2-0.3,0C27,33,27.2,33.3,27.2,33.1z"/>
	<path fill="#AF882E" d="M27.7,39.1c-0.1-0.1-0.1,0.2-0.3,0.1c0.1,0.2,0.1,0.2,0.4,0.2C28,39.1,27.5,39.3,27.7,39.1z"/>
	<polygon fill="#AF882E" points="23.2,29.5 23.2,29.5 23.6,29.5 	"/>
	<path fill="#AF882E" d="M22.8,27.5c0,0.1,0.1,0.2,0,0.3C22.8,27.6,23.2,27.5,22.8,27.5z"/>
	<path fill="none" stroke="#AF882E" stroke-width="0" stroke-linecap="round" stroke-linejoin="round" d="M21.7,33.5
		c0.1,0,0.1,0,0.2,0"/>
	<path fill="#AF882E" d="M16.2,14.4c-0.2,0.5,0,0.3,0.1,0.4L16.2,14.4z"/>
	<path fill="#AF882E" d="M39.3,27.8C39.2,27.8,39.2,27.8,39.3,27.8C39.2,27.9,39.3,27.8,39.3,27.8z"/>
	<polygon fill="#AF882E" points="15.4,25.5 15.4,25.5 15.4,25.5 	"/>
	<path fill="#AF882E" d="M37.2,30.8c0-0.5-0.5,0.2-0.7,0.3c0.1-0.1,0.2-0.2,0.4-0.3c0.3-0.2,0.6-0.5,0.8-0.9c0.3-0.4,0.5-0.8,0.8-1
		c0,0.2-0.1,0.4-0.1,0.4c0,0,0-0.2,0.1-0.4c0.1-0.1,0.2-0.2,0.3-0.2c0.2-0.4,0-0.3-0.1-0.3c0.2-0.3,0.4-0.6,0.6-0.9
		c-0.3,0.3-0.3,0.2-0.2-0.1c0.1-0.1,0.2-0.1,0.3-0.1c0,0.1,0,0.3-0.1,0.4c0.4-0.5,0.3-1.5,0.4-1.7l-0.2,0.6c0-0.3,0.1-0.6,0.1-0.9
		c0,0,0,0,0.1,0.1l0-0.2c0.1-0.5,0.1-1,0.1-1.5l0.1,0L39.7,24c0-0.9-0.1-1.7-0.4-2.5c0,0,0,0,0,0c-0.3-1,0.2,0.3,0.1-0.5
		c0.1,0.2,0.2,0.4,0.2,0.6c0-0.2,0-0.4,0-0.6l0,0l0,0h0c0,0,0,0.1,0,0l0,0c0,0-0.1,0-0.1,0c-0.3-0.1-0.5-0.5-0.7-0.2
		c0-0.2-0.1-0.3-0.1-0.4c0,0,0,0,0,0c0,0,0-0.1-0.1-0.1c0,0,0-0.1,0-0.1l0.1,0l-0.1-0.1c0-0.2-0.1-0.4-0.3-0.7
		c0.1-0.2,0.2-0.3,0.2-0.5c-0.1,0-0.2,0.1-0.6-0.3c0,0,0,0.1,0,0.2c-0.1-0.1-0.2-0.2-0.3-0.3c0-0.2-0.1-0.5,0.1-0.3
		c-0.7-0.7-0.7-0.6-1-0.6c0,0,0-0.1-0.1-0.1c0,0,0,0,0,0.1c0,0-0.1,0-0.1,0c0.2-0.1-0.1-0.3-0.4-0.5c0,0,0,0.1,0,0.1
		c-0.2,0-0.4-0.1-0.7-0.2c0.1,0.1,0.2,0.1,0.3,0.1l-0.2-0.5c0.5,0.2,1.3,0.4,1.7,1c0.1-0.5-0.1-0.1-0.2-0.7c0,0.6-1.3-1.2-1.2-0.4
		c-0.1-0.7-0.5-0.7-0.9-1.4l0.2,0.1c0-0.1-0.4-0.4-0.2-0.4c-0.5-0.2-0.4-0.1-0.3,0.2l0.3,0.1c0,0.1,0.1,0.3-0.4-0.1c0,0-0.1,0-0.2,0
		l0,0l0,0c0,0,0,0,0,0c0,0,0,0.1,0.1,0.1l-0.1,0c0,0.1,0,0.2,0.2,0.1c0,0,0,0.1,0.1,0.1c-0.2,0-0.7-0.1-1-0.2
		c-0.1-0.1-0.1-0.2-0.1-0.3c-0.2,0.1-0.2,0.1-0.2,0.2c0,0-0.1,0-0.1,0c-0.3-0.2,0.2-0.1,0.1-0.2l-0.5,0c0,0,0-0.1,0-0.1
		c0,0,0.1,0,0.1,0c0,0-0.1,0-0.1,0c-0.1-0.2-0.6-0.5,0.1-0.4l-0.5-0.2c0,0,0.1-0.1,0.1,0c-0.1-0.1-0.1-0.1-0.1-0.3
		c0,0.1-0.1,0.2-0.1,0.3c0-0.1-0.1-0.2-0.1-0.2c0,0,0-0.1-0.1-0.1c0,0,0-0.1-0.1-0.1c0,0,0,0,0-0.1l0,0.1c-0.1-0.1-0.3-0.1-0.1-0.1
		c0.1,0.1-0.3-0.4-0.6-0.7c0,0,0,0,0,0l0,0c0,0,0,0,0,0c0,0,0,0-0.1-0.1c0,0,0,0,0.1,0c0,0,0-0.1,0-0.1c0,0-0.1-0.1-0.1-0.1l0,0
		c-0.1-0.2-0.3-0.4-0.5-0.6c0.1,0,0.1-0.1-0.1-0.2c-0.3-0.1-0.4-0.3-0.7-0.5c0.1,0.1,0.2,0.2,0.2,0.3c-0.1-0.1-0.3-0.2-0.4-0.4
		l0.1,0c0,0,0.1,0.1,0.1,0.1c0,0,0-0.1-0.1-0.1l0.1,0c0,0-0.1,0-0.1-0.1c-0.1-0.1-0.2-0.2-0.3-0.3l0,0l0,0l0,0c0,0,0,0,0,0
		c0,0,0,0,0,0l0,0l0,0c0,0,0,0,0,0c-0.1-0.2-0.3-0.3-0.4-0.4c0.1,0.1,0.1,0.2,0.2,0.3c0,0-0.1,0-0.1,0c-0.1-0.1-0.2-0.3-0.4-0.4
		c0.1,0,0.2,0.1,0.3,0.2c-0.2-0.3-0.5-0.5-0.9-0.5c0.1,0.1,0.1,0.1,0.1,0.1c0.1,0,0.2,0.1,0.3,0.1c0.3,0.2,0.3,0.3,0.3,0.3
		c0,0-0.1,0-0.1-0.1c-0.1-0.1-0.3-0.2-0.4-0.4c-0.1,0-0.1,0-0.2-0.1c-0.1-0.1-0.2-0.2-0.3-0.3c-0.2,0-0.4,0-0.5,0
		c-0.1,0-0.1-0.1-0.2-0.1l0.2-0.2l-0.3,0.1c-0.1,0-0.1,0-0.2-0.1l0-0.1c-0.2,0-0.5-0.1-0.8-0.2l0,0l0,0c-0.4-0.1-0.8-0.2-0.9-0.1
		c-0.5-0.7-2.6-0.1-3.5,0.2l0.1,0.3c0,0,0,0,0,0c0,0,0,0-0.2,0.1c0,0,0.1,0,0.1,0c-0.1,0-0.3,0.1-0.4,0.2c0,0,0,0.2,0,0.2
		c0.2-0.1,0,0.2,0,0.2c0,0,0,0,0,0c-0.1,0-0.2-0.1-0.3,0c0.1,0,0.2-0.2,0.2-0.2C21,9.9,20.9,9.9,20.7,10c-0.1,0-0.1,0-0.2,0
		c0-0.1,0-0.1,0-0.1c0-0.2-0.2,0-0.3,0.2c-0.2,0.1-0.5,0.3-0.6,0.4c-0.2,0.1-0.4,0.3-0.4,0.3c-0.2,0.1-0.5,0.2-0.7,0.4
		c0,0,0-0.1,0.1-0.1c0,0-0.1,0.1-0.2,0.2c-0.2,0.1-0.3,0.3-0.4,0.5c-0.1,0.1-0.2,0.3-0.3,0.5c-0.2,0.1-0.5,0.3-0.5,0.1
		c-0.6,0.5-0.6,1.7-1,2.5c0,0.1,0-0.1,0,0.1c-0.1,0.3-0.1,0.1-0.2,0.1c0,0,0,0,0,0c0,0,0,0.2-0.1,0.2c-0.2-0.1-0.3-0.1-0.2,0.1
		l0.1,0.2c0,0,0,0.1,0,0.1c0,0,0,0,0,0c0,0,0,0.1,0,0.1c-0.1,0.1-0.2,0.2-0.3,0.3L15,16c-0.4,0.4,0.2,0.2,0.3,0.4c0,0,0,0-0.1,0
		L15,16.3c-0.4,0.4-1.3,0.9-1.3,1.2c-0.2,0-0.4,0.1-0.6,0.3c0.1-0.3,0.2-0.4-0.2-0.2C13,17.7,13,17.8,13,18c-0.5,0.6-1,1.7-1.3,2.3
		l0.3,0.1c0,0,0,0,0,0c-0.2,0.2-0.2,0.3-0.2,0.5c-0.1,0.2-0.1,0.5-0.2,0.8l-0.2,0l0,0.1l0.3-0.1c0,0.1,0,0.3,0,0.5c0,0,0,0.1,0,0.1
		l0,0l0.2,0c-0.1,0.2-0.2,0.2-0.2,0.1l0.1,0.8c0,0.2-0.2,0.2-0.1-0.1c0,0,0,0.7,0,1c0,0,0-0.1,0-0.1h0c0,0,0,0.2,0,0.2
		c0,0,0,0.1,0,0.1c-0.1-0.1-0.1-0.1-0.1,0l0.1,0c0,0.2,0,0.4,0,0.5c-0.1-0.1-0.1-0.3,0-0.5c-0.1,0.3-0.1,0.6-0.1,0.8
		c-0.1,0.2,0,0.4,0.1,0.6c0,0.1,0.1,0.2,0.1,0.4c0.1,0.2,0.1,0.4,0.1,0.8l-0.3-0.6c-0.3,0.5,0,1,0,1.8c0-0.3,0.1-1.7,0.6-1
		c0,0.2,0.1,0.4,0.3,0.6c0,0.1,0,0.1,0,0.2c0,0,0,0,0,0.1c-0.1,0.1,0,0.4,0.2,0.7c0,0,0,0,0,0c0,0,0,0,0,0c0,0,0.1,0.1,0.1,0.1
		L12.3,29c0.2,0.2,0.3,0.3,0.4,0.3c0,0.4,0,0.7,0.2,0.6l0.1-0.2c-0.1-0.1-0.1-0.2-0.2-0.3c0.1,0,0.1,0,0.2,0.1c0,0,0,0.1,0.1,0.1
		L13,29.6c0,0,0,0,0.1,0.1c0.1,0.2,0.1,0.2,0.2,0.1c0,0,0,0.1,0.1,0.1c0,0.2,0,0.4-0.1,0.6c0.6,0.8,0-0.6,0.6,0c-0.1,0-0.2,0-0.2,0
		c0.1,0,0.3,0.1,0.3,0.3c0,0.1-0.2,0-0.4-0.1c0.4,0.4,0.6,0.5,0.9,0.5c0.3,0.3,0.7,0.5,1.3,0.7c0.4,0.4-0.2,0.1-0.1,0.3l0.6,0
		c0.1,0.1,0,0.1,0,0.2c0.2,0.1,0.3,0,0.4-0.1c0,0,0.1,0,0.1,0.1l0,0l0.1,0c0.4,0.2,0.7,0.3,0.8,0.2c0.1,0.1,0.1,0.1,0.2,0.2
		c0,0.1-0.1,0.1-0.3,0.2c0.2,0,0.4,0,0.6,0c0.3,0.2,0.6,0.3,0.9,0.2c0.2,0.1-0.1,0.2-0.1,0.3c1,0,1,0,1.6-0.3
		c0.2,0.1,0.4,0.1,0.7,0.2c0.1,0,0.1,0,0.2,0c0.1,0,0.2,0.1,0.4,0.1c-0.2,0-0.3-0.1-0.4-0.1c0.1,0,0.2,0,0.4,0c0,0,0.1,0,0.1,0
		c0,0,0.1,0,0.1,0c0,0,0,0-0.1,0c0.4-0.1,0.9-0.3,1.1-0.7c0,0,0.1,0,0.1,0c0.1,0.1,0.5-0.3,0.5,0.1c-0.1,0.3,0,0.5,0.2,0.8
		c-0.1,0.2-0.2,0-0.3,0l0.3,0.2c0,0-0.1,0-0.1,0c0.1,0.1,0.4,0,0.5,0.2c0.4,0.1-0.6,0.4-0.1,0.7c-0.1,0.1-0.2,0-0.4,0
		c0.3,0.4,0.2,0.3,0.6,0.6L24,35.5c0.1-0.1,0.3-0.1,0.4,0c0,0.1,0,0.1,0,0.2c-0.1,0-0.2-0.1-0.4,0c0,0,0.1,0.1,0.1,0.1
		c-0.1,0-0.1,0-0.2,0c0,0,0,0,0.1,0.1l-0.4,0.1l0.2,0l-0.3,0.4c0.4,0.3,1,0.6,1.2,1.1c-0.3-0.1-0.5,0-0.8,0c0.4-0.1-0.2-0.4-0.1-0.7
		c0,0.1-0.2,0.1-0.3,0.1l0.3,0.5c-0.3,0-0.2,0.1-0.3,0.2c0.6-0.1,0.4,0.3,0.6,0.5c-0.2,0-0.4,0-0.3-0.3c-0.4,0.3,0.7,0.3,0.3,0.6
		c0-0.1,0-0.1-0.1-0.1c0.2,0.1,0,0.5-0.1,0.4l0-0.1c-0.1,0.4,0,1.1,0.5,1.3c-0.1,0-0.5-0.1-0.7-0.1c0.1,0.1,0.5,0.5,0.9,0.4
		c0.1,0,0.2,0,0.3-0.1c0,0.1,0.1,0.1,0.2,0.1c-0.2,0.4-0.4,0.9-0.9,0.7c0.1,0.2,0.4,0.5,0.9,0.5c-0.2-0.1-0.1-0.7,0-0.7
		c0.1,0.3,0.2,0.4,0.3,0.4c0,0,0.2,0.1,0.2,0.1c0,0,0.3,0.1,0.4,0.1c-0.2,0-0.1-0.7,0-0.8c0,0.1,0.3,0.5,0.3,0.7
		c0.1,0,0.2-0.7,0.2-0.9c0.1,0.2,0.4,0.3,0.7,0.2c-0.1,0.1,0.3-0.8,0.2-1c0-0.1-0.2,0.3-0.2,0.3c0.1-0.7-0.9-0.5-0.8-1
		c0.1,0.1,0.7,0.1,0.8-0.1c-0.2-0.1-0.1-0.2-1.1-0.3v-0.5c1,0.2,0.9,0.4,1.2,0.6c0.2-0.2,0.3,0,0.2-0.3c0.2-0.1,0.3,0.1,0.3,0.2
		l0.1-0.5c-0.4,0-0.4-0.4-0.7-0.4l0.4,0.6c-0.4,0-1.1-0.3-1-0.7c0.2-0.1,0.7,0.1,0.8,0.1c-0.1,0-0.2-0.4-0.2-0.4l0.2,0.2
		c0.1-0.2-0.5-0.3-0.1-0.6c0-0.1,0.4-0.3,0.2-0.3c-0.3,0.1-0.4,0.1-1.4,0.1v-0.3c0,0,0,0,0,0c0,0,0,0,0,0v0l0.2,0l0-0.1
		c0-0.1-0.2-0.2-0.2-0.2v-0.1c0,0,0.8,0.2,1,0.1c-0.1,0-0.2-0.1-0.2-0.1c0.1-0.1,0.3,0,0.3-0.2c-0.4,0,0-0.4-0.3-0.1
		c-0.1-0.2,0-0.2,0-0.4c-0.2,0-0.8-0.1-0.8-0.2v-0.2c0,0,0.1,0,0.1,0c0-0.4,0.3-0.6,0.3-1c0.1,0,0.2-0.2,0.4-0.1
		c-0.1-0.1-0.2-0.1-0.2-0.2c0.3-0.2,0.1,0.3,0.5,0.1c-0.2,0-0.3-0.3-0.4-0.5c-0.3,0.1-0.1,0.4,0,0.5c-0.2,0-0.6,0-0.6-0.1v-1.2
		c0-0.1,0.1-0.2,0.2-0.4c0.1-0.1,0.1-0.2,0-0.2c0-0.1,0-0.1,0-0.2c0,0,0.1,0,0.1-0.1c0,0,0-0.1,0-0.1c0-0.1,0-0.2,0-0.3
		c-0.1-0.1-0.3-0.1-0.3-0.2v-1.5c0,0,0.1,0,0.1,0l-0.1-0.2v0c0,0,0.2,0.1,0.2,0c-0.1,0-0.2,0-0.2-0.1v-0.3c0,0,0,0,0,0c0,0,0,0,0,0
		v-0.3c0,0,0,0,0,0c0,0,0,0,0-0.1v-0.3l4.4-3.1c0.3-0.2,0.4-0.7,0.2-1c-0.1-0.1-0.2-0.2-0.4-0.3c0-0.2-0.1-0.5-0.1-0.8
		c-0.2,0.2-0.5,0.1-0.9,0.1c-0.3,0-0.3-0.1-0.3,0.3c-0.1-0.1,0-0.2-0.1-0.3c0.1,0.2,0,0.3-0.1,0.3l0-0.1c-0.3,0.3-0.4,0.1-0.6,0
		l-0.1,0.4c-0.1,0,0-0.1,0-0.2c-0.2,0.7,0.2-0.1,0,0.6c0.1-0.7-0.5,0.4-0.2-0.6c-0.1,0-0.2,0.5-0.3,0.6l0.1-0.3l-0.2,0.4
		c0,0,0.1-0.4,0.2-0.6c0,0,0.1-0.1,0.1-0.1c0,0,0,0,0,0c0-0.1,0-0.1,0,0c0.1-0.2-0.1,0-0.1,0.1c0,0,0,0,0,0l0,0.1l0,0.1l-0.1,0.1
		c-0.1-0.1,0.1-0.7-0.3-0.6l-0.1,0.2c-0.2,0,0.1-0.4,0-0.6l0,0c-0.1,0.1-0.2,0-0.2-0.1c0.1-0.1,0.3-0.4,0.5-0.4
		c-0.2-0.1-0.2,0-0.7,0.1l0.2-0.2c-0.2,0-0.3,0.1-0.3-0.1c0.2,0.1,0.3-0.3,0.6-0.2c0.5-0.5-0.5-0.4,0.2-0.7
		c-0.6-0.1-0.3,0.3-0.4,0.3c-0.2,0.1-0.4-0.1-0.4-0.2c-0.1-0.2,0.9,0,0.5-1.2c0,0.1,0.1,0.1,0.1,0.2c-0.1-0.5-0.5-0.5-0.8-1
		c-0.4,0.2-0.6-0.2-0.7,0.2c0-0.1,0.8,0.1,0.8,0.2c-0.2-0.1-0.5,0-0.7,0.1C25.6,20,25.5,20,25.1,20c0-0.1,0.1-0.3,0.3-0.4
		c-0.3-0.1-0.4,0.2-0.6,0.2c-0.2-0.5,0.9-0.6,1.5-0.6c-0.1-0.2-0.4-0.1-0.6-0.1c-0.3,0-0.2,0.1-0.2-0.2c-0.2,0.3-0.5,0.4-0.7,0.5
		c-0.3,0.1-0.6,0.3-0.6,0.7L24,20c0,0.1,0,0.4-0.1,0.6c0,0-0.2-0.5-0.2-0.5c0,0.4-0.1,0.6-0.2,1c-0.1,0.2-0.2,0.2-0.1,0.3
		c0-0.4,0.3-0.1,0.5-0.3c0.4,0.6-0.7,0.3-0.6,0.9c0-0.1,0.2-0.3,0.3-0.2c-0.1,0.1-0.2,0.3-0.3,0.3c0.1,0.4,0.2,0.2,0.4,0.2
		c0.1,0,0.2,0.1,0.3,0.6h-0.3c0.1,0,0.5,0.1,0.3,0.4l-0.4-0.3l0.1,0.2l-0.3-0.1c0.2,0.2,0.2,0.3,0.1,0.5c0.2-0.1,0.5,0,0.5,0.2
		c-0.2,0.1-0.3-0.1-0.2,0.2c-0.2-0.1-0.4-0.1-0.1-0.3c-0.1,0-0.2-0.1-0.3-0.1c-0.2,0.2,0,0.4,0,0.5c0,0,0-0.1,0.1-0.1l0.4,0.4
		c-0.1,0.1-0.2,0-0.3,0c0,0.1,0.2,0.1,0.2,0.3c-0.2,0-0.5,0-0.6-0.2l0.2,0.4c-0.1,0-0.3,0.2-0.3,0.2c-0.1,0.2,0.4,0.6,0.3,0.8
		c0,0,0.1,0,0.1,0.1c-0.1,0.3-0.3,0.5,0,0.9l-0.4,0.2c0.1,0.3,0.5-0.3,0.7,0.2c0.1,0.3-0.3,0.1-0.5,0.2c0.2,0.2,0.6,0.4,0.3,0.7
		c-0.1-0.1,0-0.2,0-0.3l-0.2,0.2c-0.4-0.3-0.2-0.4-0.5-0.2c0.8,0,0.1,0.8,0.8,0.9l-0.2,0.1c0,0,0,0,0-0.1c-0.4,0.3,0.6,0.2,0.4,0.6
		c-0.1,0.1-0.2,0.2-0.3,0.1l0,0l0.2,0.3c0,0.1-0.2,0.1-0.1,0l0.1,0.4l0,0c0.1,0.1,0.3,0.2,0.4,0.3c-0.1,0.1-0.1-0.1-0.2,0l0.2,0.2
		c-0.2,0.1-0.4-0.1-0.4-0.3c-0.8,0.2,0.2,0.2-0.3,0.7L23.4,31c-0.1,0-0.1,0-0.1,0.1c0-0.1-0.1-0.2-0.1-0.2c-0.3-0.7-1.3-1-1.2-0.9
		c-0.2,0.1-0.4,0.1-0.5,0.2c-0.2,0-0.5-0.1-0.7-0.1c0,0-0.1-0.1-0.1-0.1c0,0,0,0,0,0c0,0,0,0,0,0c-0.1-0.1-0.2-0.2-0.3-0.2
		c-0.1-0.1,0.1-0.1,0.2-0.1c-0.7-0.5-0.2,0.3-0.7,0.3c0,0,0,0-0.1,0c-0.1-0.2,0.2-0.4-0.1-0.6c-0.1-0.1-0.5,0-0.9-0.1
		c-0.1-0.1-0.2-0.1-0.4-0.1c-0.1,0-0.1,0-0.1-0.1c0.1-0.1,0.2-0.1,0.2-0.1c-0.1,0-0.3,0-0.3-0.1c0-0.1,0.2-0.1,0.3-0.1
		c-0.4-0.2-0.7-0.1-1,0.1c-0.3-0.4-0.4-0.9-0.9-0.9c0-0.1,0-0.1,0-0.1c-0.3-0.2-0.6-0.6-0.9-0.8c0-0.1-0.1-0.1-0.1-0.2
		c0,0,0.1-0.1,0.1-0.1c0.1,0,0.2,0,0.2,0c0,0-0.1,0-0.2-0.1c0-0.1,0-0.3-0.1-0.5c0.2,0,0.3,0,0.3,0c-0.4-0.1-0.4-0.3-0.4-0.6
		l-0.1,0.1c0,0,0-0.1,0-0.1c0-0.1-0.1-0.2-0.1-0.3c0.1,0,0.2,0.1,0.3,0.2c0-0.2,0-0.4-0.2-0.8c0,0.1-0.1,0.1-0.3,0.2
		c0-0.2,0-0.4,0.3-0.4c0,0,0-0.3,0-0.6c0,0,0,0,0,0c0,0,0,0,0,0c0-0.1,0-0.2,0-0.3c0,0,0,0,0,0c0,0,0,0,0,0c0-0.1,0-0.2,0-0.2l0.1,0
		c0.1-0.3,0.1-0.5,0.1-0.7c0,0,0.1,0,0.1,0c-0.2,0,0.2-0.6,0.2-0.8l-0.2,0.2c0.2-0.4,0.4-0.7,0.4-0.9c0,0,0.1,0,0.1,0
		c-0.1,0.2-0.1,0.3,0.2,0.4c0.3-0.3,0-0.3,0-0.5c0,0,0.1,0,0.1-0.1c0.1,0,0,0.1,0,0.2c0.7-0.5-0.3-0.3,0.1-0.9
		c0.2,0,0.3,0.4,0.6,0.1c0,0,0.1-0.1,0.1-0.2c0.1-0.1,0.8-0.6,0.8-0.6c-0.1-0.1,0-0.3,0.1-0.5c0,0,0,0,0,0c0,0,0.1,0,0.1,0
		c0,0,0,0-0.1,0c0.1-0.1,0.2-0.1,0.2-0.2c0,0,0,0,0,0c0.4-0.2,0.8-0.4,1.3-0.6c0.4,0,0.2-0.4,0.3-0.6c0-0.2,0.1-0.5,0.1-0.7
		c0-0.3,0.1-0.5,0.1-0.7c0-0.2,0.1-0.2,0.1-0.4c0,0,0,0,0,0c0.1,0,0.1-0.1,0-0.1c0,0,0,0,0,0c0-0.1-0.1-0.3-0.2-0.4c0,0,0,0,0-0.1
		c0.1-0.1,0.2-0.2,0.3-0.3c0.1,0,0.1,0,0.2-0.1c-0.1,0.1-0.1,0.1-0.2,0.1c0.1-0.1,0.1-0.2,0.2-0.3c0,0,0.1-0.1,0.1-0.2
		c0,0,0,0,0-0.1c0,0,0,0,0,0c0.1-0.3,0.3-0.6,0.5-0.6c0,0,0,0,0,0c0,0,0.1,0,0.1,0c0,0,0.1,0,0.1,0c0,0,0,0,0,0c0,0,0.1,0,0.1,0.1
		c0,0,0.8-0.6,0.8-0.6l0,0.1c0.3-0.1,0.5-0.2,0.7-0.4c1.2-0.3,2.4,0,3.3,0.5l0-0.2c0.1,0.1,0.3,0.2,0.4,0.3c-0.1,0-0.1,0-0.2-0.1
		c0,0.2,0.2,0.2,0.4,0.2c0.2,0.1,0.3,0.2,0.5,0.3c-0.1,0.1-0.6-0.1-0.5,0l0.3,0.2l0-0.1c0.1,0,0.2,0,0.2,0c0.2,0.1,0.4,0.4,0.6,0.6
		c0,0,0,0,0,0.1c0,0,0,0.1,0.1,0.2c0,0,0,0.1,0.1,0.1c0,0.1,0.1,0.2,0.1,0.3c0.1,0.1,0.2,0.8,0.4,1.1c0.2,0.3,0.3,0.5,0.6,0.5
		c0,0,0,0,0,0.1c0,0,0,0,0,0c0,0.1,0.1,0.2,0.1,0.2l0.8,0.1c1.3,0.1,1.7,0.3,1.9,0.4c0,0,0.1,0,0.1,0c1,0.4,1.7,1,2.3,1.8
		c0,0.1,0,0.2,0,0.2c0-0.1,0.1-0.1,0.1-0.1c0.4,0.6,0.8,1.3,1,1.9l0.1-0.2c0.1,0.2,0.1,0.4,0.1,0.6c-0.1,0-0.1-0.1-0.1-0.3
		c-0.1,0.1,0,0.3,0.2,0.5c0,0.1,0,0.3,0,0.5c-0.1-0.1-0.3-0.4-0.2-0.2l0.1,0.3l0-0.1c0,0.1,0.1,0.1,0.1,0.1c0,0.3,0,0.7,0,1
		c0,0,0,0.1,0,0.1c0,0,0,0.1,0,0.1l-0.1,0.7c0,0-0.1,0.1-0.1,0.1c0,0.2,0.5,0.3,0.1,0.7c0.1,0,0.2-0.1,0.2,0c0,0.1-0.1,0.2-0.1,0.3
		c-0.5,1.1-0.9,2.1-1.8,2.9c-0.3,0.3-0.8,0.6-1.2,0.7c-0.2,0-0.4,0.1-0.6-0.1c0.2,0.1,0,0.2-0.3,0.3c-0.5,0.1-1,0-1.5-0.1
		c0.4,0.2,0.1,0.2-0.1,0.2c-0.1,0-0.2,0-0.4,0c0.1,0,0.2,0,0.4,0c0.1,0,0.1,0,0.1,0.1c0,0-0.1,0-0.1,0c-0.1,0-0.3,0-0.5,0
		c-0.1,0-0.2,0-0.4,0c-0.1,0-0.1,0-0.2,0c-0.3,0-0.5,0.1-0.5,0.1c0,0,0,0.1-0.1,0.1c-0.7,0.4-1.1,1.3-0.8,2.1c0.2,0.5,0.5,0.9,1,1.1
		c0.1,0.1,0.3,0.1,0.4,0.1c0,0.1,0.1,0.2,0.1,0.2c0,0,0.1,0,0.1,0c0,0,0-0.1,0.1-0.1c0,0,0,0,0,0c0.1,0,0.2,0,0.3,0
		c0-0.1-0.2-0.2,0.1-0.4l0.9,0.5c0.3-0.1,0.2-0.6,0.8-0.3c-0.1-0.1-0.2-0.2,0-0.2c0.1,0,0.1,0,0.2,0c0,0.1-0.2,0.1-0.1,0.2
		c0.1-0.1,0.2-0.2,0.3-0.2c0.4,0,0.9-0.1,1.3-0.2l0,0l0,0c0.4-0.1,0.7-0.2,1.1-0.4c0,0,0.1,0,0.1,0l0,0.1c0.1-0.1,0.2-0.1,0.3-0.2
		c0.6-0.2,1.2-0.5,2-1.1l-0.3-0.1C36.9,30.9,37,30.9,37.2,30.8z M39.1,21.4L39.1,21.4c-0.1,0-0.1-0.1-0.2-0.1
		C39,21.3,39.1,21.3,39.1,21.4z M38.1,19C38.1,19,38.1,19.1,38.1,19C38.1,19.1,38,19,38.1,19L38.1,19z M37.7,18.5
		c0.1,0.1,0.1,0.2,0.2,0.3C37.8,18.7,37.7,18.6,37.7,18.5C37.7,18.5,37.7,18.5,37.7,18.5z M12.1,27.1c-0.1-0.1-0.4-0.5-0.3-0.6
		c0,0,0,0,0,0c0.1,0.2,0.2,0.3,0.2,0.5C12.1,27,12.1,27.1,12.1,27.1z M24.4,36.2c-0.1,0,0-0.1,0.1-0.2
		C24.4,36.1,24.4,36.1,24.4,36.2z M26.2,36.3c0,0,0.1,0,0.1,0.1L26.2,36.3L26.2,36.3z M23.6,31.1c0.3,0.1,0.2,0.1,0.1,0.2
		C23.6,31.3,23.5,31.2,23.6,31.1z M23.7,31.3c-0.1,0.1-0.1,0.2,0.1,0.3c-0.3,0-0.2,0.1-0.2,0.3l-0.3,0c0-0.2,0-0.4,0-0.6
		C23.4,31.3,23.6,31.2,23.7,31.3z M23.3,32c0.1,0.1,0.3,0.1,0.4,0.2c0,0.2-0.2,0.2-0.4,0.3l-0.1-0.1C23.2,32.3,23.2,32.2,23.3,32z
		 M17.2,20.3c0-0.1,0.1-0.2,0.1-0.3C17.4,20.1,17.3,20.2,17.2,20.3z M17.6,19.7C17.6,19.7,17.6,19.7,17.6,19.7
		c0.1-0.2,0.2-0.3,0.3-0.4C17.7,19.6,17.6,19.7,17.6,19.7z M18.9,11.4C18.5,11.6,18.7,11.5,18.9,11.4L18.9,11.4z M19.7,10.8
		c0,0,0-0.1,0.1-0.2c0,0,0.1,0,0.1,0C19.9,10.5,19.8,10.6,19.7,10.8z M27.1,9.5C27.1,9.5,27.1,9.5,27.1,9.5L27.1,9.5L27.1,9.5z
		 M27.1,9.6L27.1,9.6L27.1,9.6c0.1,0,0.1,0,0.1,0C27.2,9.6,27.1,9.6,27.1,9.6z M29.4,10.8C29.4,10.8,29.4,10.8,29.4,10.8
		C29.5,10.8,29.5,10.9,29.4,10.8C29.5,10.9,29.5,10.8,29.4,10.8z M30.5,12.7c-0.1-0.1-0.1-0.1-0.1-0.2
		C30.4,12.6,30.5,12.7,30.5,12.7z M30.3,12.9L30.3,12.9C30.4,12.9,30.4,12.9,30.3,12.9c0.4,0.5,0.7,0.7,1,0.9l0.3,0.4
		C31.4,14,30.7,13.7,30.3,12.9z M32.1,14C32.1,13.9,32.1,14,32.1,14L32.1,14z M33.5,15.6c0.2,0,0.4,0,0.2-0.1c0.2,0,0.3,0,0.5,0.1
		C34.3,15.7,33.9,15.7,33.5,15.6z M35.4,16.7C35.5,16.7,35.5,16.7,35.4,16.7c0.1,0.1,0.2,0.1,0.2,0.1C35.6,16.8,35.5,16.7,35.4,16.7
		z M36.4,17.2c0.1,0.1,0.2,0.2,0.3,0.2c-0.1,0-0.2,0-0.3-0.1L36.4,17.2z"/>
	<path fill="#AF882E" d="M23.7,23.1L23.7,23.1C23.7,23.1,23.7,23.1,23.7,23.1z"/>
	<path fill="#AF882E" d="M23.8,22.5C23.7,22.5,23.7,22.5,23.8,22.5C23.6,22.5,23.6,22.6,23.8,22.5z"/>
	<path fill="#AF882E" d="M11.6,22.1C11.6,22.1,11.6,22.1,11.6,22.1C11.6,22.1,11.6,22.1,11.6,22.1l0,0.1
		C11.6,22.2,11.6,22.1,11.6,22.1C11.6,22.1,11.6,22.1,11.6,22.1L11.6,22.1z"/>
	<path fill="#AF882E" d="M16.3,14.8L16.3,14.8C16.4,14.9,16.4,14.9,16.3,14.8C16.4,14.9,16.4,14.8,16.3,14.8z"/>
	<path fill="#AF882E" d="M12,28.8c0.1-0.1,0-0.2-0.1-0.5L12,28.8L12,28.8z"/>
	<path fill="#AF882E" d="M14.2,16.3c-0.2,0.2-0.4,0.4-0.6,0.6C14,16.4,14.6,16.6,14.2,16.3z"/>
	<path fill="#AF882E" d="M30,33.9c-0.2,0-0.1,0.2-0.2,0.3C30.2,34.1,30,33.8,30,33.9z"/>
	<path fill="#AF882E" d="M38,30.8C38,30.8,38,30.8,38,30.8c0.1-0.1,0.2-0.2,0.3-0.3C38.1,30.5,38.5,30,38,30.8z"/>
	<path fill="#AF882E" d="M38.1,30.8C37.8,31.1,38.3,30.6,38.1,30.8L38.1,30.8z"/>
	<path fill="#AF882E" d="M39,29.2l-0.1,0.5c0.1,0,0.4-0.4,0.4-0.3C39.4,28.9,39.2,29,39,29.2z"/>
	<path fill="#AF882E" d="M38.9,28.6l0,0.3C38.9,28.9,38.9,28.8,38.9,28.6z"/>
	<path fill="#AF882E" d="M38.7,29.4l0.2-0.5c-0.1,0-0.2,0-0.1,0.2C38.7,29,38.7,29.2,38.7,29.4z"/>
	<path fill="#AF882E" d="M38.2,29.6c-0.5,0.8-0.2,0.9,0.3,0C38.3,29.9,38,30.1,38.2,29.6z"/>
	<path fill="#AF882E" d="M39.8,26.4l0,0.4c0.1-0.2,0.2-0.5,0.3-0.5C40.1,26.3,39.9,26.4,39.8,26.4z"/>
	<path fill="#AF882E" d="M39.8,26.4l0-0.5C39.6,26.3,39.7,26.4,39.8,26.4z"/>
	<polygon fill="#AF882E" points="40.4,24.3 40.5,24.6 40.3,24 	"/>
	<path fill="#AF882E" d="M40.7,22.8c-0.1-0.4-0.3-0.7-0.4-1c0.1,0.3,0.2,0.6,0.1,1.1C40.5,23.1,40.6,22.5,40.7,22.8z"/>
	<path fill="#AF882E" d="M39.9,21.4c0.1,0.1,0.2,0.3,0.3,0.4C40.2,21.6,40.1,21.5,39.9,21.4z"/>
	<path fill="#AF882E" d="M40.1,24.6l-0.2,0.2l0-0.1l-0.1,0.1c0-0.2,0-0.3,0-0.4c0,0,0,0.2,0,0.4l-0.1,0.2l0.1,0.2l0-0.1c0,0,0,0,0,0
		C39.9,25,40.1,24.9,40.1,24.6z"/>
	<path fill="#AF882E" d="M39.6,21.6c0,0.4,0.1,0.7,0.1,1c0.1,0,0.2,0.2,0.2-0.2C39.8,22.1,39.7,21.9,39.6,21.6z"/>
	<polygon fill="#AF882E" points="38.6,18.9 38.6,18.9 38.6,18.8 	"/>
	<path fill="#AF882E" d="M39.7,22.6C39.7,22.6,39.7,22.5,39.7,22.6c-0.1,0.3,0,0.4,0.1,0.6c0,0,0,0,0,0c0,0.1,0.1,0.2,0.1,0.4
		c0,0,0-0.1,0.1-0.1c0-0.1-0.1-0.2-0.2-0.3C39.8,22.9,39.8,22.8,39.7,22.6z"/>
	<path fill="#AF882E" d="M39.6,20.6c0,0.2,0,0.3,0,0.5C39.6,20.9,39.7,20.6,39.6,20.6z"/>
	<path fill="#AF882E" d="M40,23.5L40,23.5C40.1,23.4,40,23.4,40,23.5z"/>
	<path fill="#AF882E" d="M39.1,20c-0.1-0.3-0.1-0.5-0.1-0.9c-0.3-0.3-0.4-0.3-0.5-0.3c0,0,0.5,1,0.5,1L39,19.8L39.1,20z"/>
	<path fill="#AF882E" d="M39.6,21L39.6,21L39.6,21c0,0-0.1-0.3-0.2-0.5c-0.1-0.2-0.3-0.5-0.3-0.5c0.1,0.2,0.2,0.5,0.3,1
		C39.4,20.7,39.5,21,39.6,21z"/>
	<polygon fill="#AF882E" points="38.6,18.7 38.9,18.6 38.3,18.4 	"/>
	<polygon fill="#AF882E" points="38.1,17.6 37.8,17.4 37.9,17.7 	"/>
	<path fill="#AF882E" d="M16.5,27.7c0.1,0.1,0.2,0.1,0.2,0C16.6,27.7,16.6,27.7,16.5,27.7z"/>
	<path fill="#AF882E" d="M34.3,14.6C34.5,14.7,34.3,14.5,34.3,14.6L34.3,14.6z"/>
	<path fill="#AF882E" d="M34.3,14.6c0,0,0.1,0.1,0.3,0.2C34.5,14.8,34.4,14.7,34.3,14.6z"/>
	<path fill="#AF882E" d="M34.6,14.7c0.1,0.1,0.1,0.1,0.2,0.1C34.8,14.8,34.8,14.8,34.6,14.7z"/>
	<path fill="#AF882E" d="M34,14.4c0.1,0.1,0.3,0.1,0.4,0.2c0,0-0.1-0.1,0-0.1C34.2,14.5,34.1,14.5,34,14.4z"/>
	<path fill="#AF882E" d="M33.7,14.3c0.3-0.2-1.3-0.1-0.3,0.1C33.6,14.5,33.7,14.2,33.7,14.3z"/>
	<path fill="none" stroke="#AF882E" stroke-width="0" stroke-linecap="round" stroke-linejoin="round" d="M27.9,33.2
		C28,33.2,28,33.2,27.9,33.2"/>
	<path fill="#AF882E" d="M27.6,31.9c0,0,0,0.3,0.1,0.7c0.1,0.2,0.2,0.5,0.3,0.6c-0.1-0.2-0.2-0.8-0.2-0.8
		C27.7,32.4,27.6,31.9,27.6,31.9z"/>
	<path fill="#AF882E" d="M39.9,23.6L39.9,23.6C39.9,23.6,39.9,23.6,39.9,23.6C39.9,23.6,39.9,23.6,39.9,23.6
		c-0.1,0.3,0.2,0.2,0.2,0.2C40.1,23.6,40,23.5,39.9,23.6z"/>
	<path fill="#AF882E" d="M36.1,15.6c0.2,0.1,0.2,0.2,0.3,0.4c0-0.1,0-0.2,0.1-0.1l-0.2-0.1c0,0,0-0.1,0-0.1c-0.1,0-0.1-0.1-0.3-0.2
		C36.1,15.7,35.8,15.5,36.1,15.6z"/>
	<path fill="#AF882E" d="M36.4,15.7C36.7,16,36.3,15.5,36.4,15.7L36.4,15.7z"/>
	<path fill="#AF882E" d="M34.3,14.9l0.3,0.1C34.6,14.9,34.5,14.8,34.3,14.9z"/>
	<path fill="none" stroke="#AF882E" stroke-width="0" stroke-linecap="round" stroke-linejoin="round" d="M32.5,13.3
		C32.5,13.3,32.5,13.3,32.5,13.3"/>
	<path fill="#AF882E" d="M32.4,13.3c-0.1,0-0.4-0.2-0.4-0.2l0.2,0.2C32.2,13.3,32.3,13.3,32.4,13.3z"/>
	<path fill="#AF882E" d="M31.6,11.7c-0.3-0.3-0.6-0.5-0.9-0.6c0.3,0.2,0.5,0.4,0.7,0.9C31.6,12.1,31.3,11.6,31.6,11.7z"/>
	<path fill="#AF882E" d="M29.4,10.5c0.1,0.1,0.2,0.3,0.3,0.4C29.6,10.7,29.4,10.4,29.4,10.5z"/>
	<path fill="#AF882E" d="M31.4,12.7L31.4,12.7C31.4,12.6,31.4,12.6,31.4,12.7z"/>
</g>
</svg>
