<?xml version="1.0" encoding="utf-8"?>
<!-- Generator: Adobe Illustrator 19.1.0, SVG Export Plug-In . SVG Version: 6.00 Build 0)  -->
<svg version="1.1" id="Layer_1" xmlns="http://www.w3.org/2000/svg" xmlns:xlink="http://www.w3.org/1999/xlink" x="0px" y="0px"
	 width="50.1px" height="49.7px" viewBox="0 0 50.1 49.7" enable-background="new 0 0 50.1 49.7" xml:space="preserve">
<g>
	<polygon fill="none" points="34.4,24.5 34.4,24.5 34.4,24.5 	"/>
	<path fill="none" d="M38.3,22L38.3,22C38.3,22,38.3,22,38.3,22L38.3,22z"/>
	<polygon fill="none" points="38.3,21.9 38.3,21.9 38.4,21.8 38.4,21.8 38.5,21.7 38.5,21.7 38.5,21.7 38.5,21.7 38.5,21.7 
		38.5,21.7 38.5,21.7 38.5,21.7 38.5,21.7 38.5,21.7 38.6,21.7 38.6,21.7 38.6,21.7 38.5,21.7 38.5,21.7 38.6,21.7 38.5,21.7 
		38.6,21.6 38.6,21.6 38.6,21.5 38.6,21.6 38.6,21.6 38.6,21.5 38.3,21.9 38.3,21.9 38.3,21.9 	"/>
	<polygon fill="none" points="34.4,24.5 34.4,24.4 34.4,24.4 34.4,24.5 	"/>
	<polygon fill="none" points="38.4,21 38.4,21 38.3,21 38.3,21 	"/>
	<path fill="none" d="M38.3,22C38.3,22,38.3,22,38.3,22L38.3,22L38.3,22z"/>
	<polygon fill="none" points="38.3,21 38.3,21 38.3,21 38.3,21 38.3,21 38.3,21 38.3,21 38.3,21 38.3,21 38.3,21 	"/>
	<polygon fill="none" points="37.9,21.5 37.9,21.5 37.9,21.5 	"/>
	<polygon fill="none" points="38.1,21.1 38.1,21.1 38.1,21.1 38.1,21.1 38.1,21.1 	"/>
	<polygon fill="none" points="30,15.9 30,15.9 30,15.9 	"/>
	<path fill="none" d="M38.2,22.1C38.2,22.1,38.2,22.1,38.2,22.1L38.2,22.1L38.2,22.1z"/>
	<polygon fill="none" points="38.1,21.2 38.1,21.2 38.1,21.2 38.1,21.2 	"/>
	<polygon fill="none" points="34.3,24.5 34.3,24.5 34.3,24.5 	"/>
	<polygon fill="none" points="34.3,24.5 34.3,24.5 34.3,24.4 	"/>
	<polygon fill="none" points="36.6,21.2 36.6,21.2 36.6,21.2 36.7,21.2 	"/>
	<polygon fill="none" points="34.3,24.5 34.3,24.5 34.4,24.4 34.3,24.5 	"/>
	<polygon fill="none" points="34.2,24.4 34.2,24.4 34.2,24.5 	"/>
	<polygon fill="none" points="34.2,24.4 34.2,24.4 34.2,24.4 	"/>
	<polygon fill="none" points="34.3,21.6 34.3,21.6 34.3,21.6 	"/>
	<polygon fill="none" points="34.3,24.4 34.3,24.4 34.3,24.4 34.3,24.5 34.3,24.5 34.3,24.5 34.3,24.5 34.3,24.5 34.3,24.5 
		34.3,24.4 34.3,24.4 	"/>
	<polygon fill="none" points="34.3,24.5 34.3,24.5 34.3,24.5 	"/>
	<polygon fill="none" points="34.3,24.4 34.3,24.4 34.3,24.4 	"/>
	<polygon fill="none" points="34.2,24.5 34.3,24.4 34.2,24.5 	"/>
	<polygon fill="none" points="35.2,20.8 35.3,20.8 35.2,20.8 35.2,20.8 	"/>
	<polygon fill="none" points="36.6,21.2 36.6,21.2 36.7,21.3 	"/>
	<polygon fill="none" points="34.7,21.3 34.7,21.3 34.6,21.3 34.6,21.3 	"/>
	<polygon fill="none" points="35.3,20.8 35.2,20.7 35.2,20.8 35.2,20.8 	"/>
	<path fill="none" d="M36,22L36,22L36,22c0,0,0.1,0,0.1,0.1l0,0C36.1,22,36.1,22,36,22L36,22L36,22L36,22z"/>
	<polygon fill="none" points="35.9,13.3 35.8,13.2 35.9,13.3 	"/>
	<polygon fill="none" points="34.6,24 34.6,24 34.6,24 	"/>
	<polygon fill="none" points="34.5,24.4 34.5,24.4 34.5,24.4 34.5,24.4 34.5,24.4 34.5,24.4 34.5,24.4 34.5,24.4 34.5,24.4 
		34.5,24.4 	"/>
	<path fill="none" d="M34.8,21.3L34.8,21.3L34.8,21.3L34.8,21.3L34.8,21.3L34.8,21.3L34.8,21.3L34.8,21.3L34.8,21.3L34.8,21.3
		L34.8,21.3L34.8,21.3c-0.2,0.1,0,0-0.2,0.1l-0.1,0l0,0l0,0l0,0l0,0l0,0l0,0l0,0l0,0l0,0l0.1,0l0,0L34.8,21.3L34.8,21.3L34.8,21.3
		L34.8,21.3L34.8,21.3L34.8,21.3L34.8,21.3z M34.7,21.3L34.7,21.3L34.7,21.3L34.7,21.3L34.7,21.3L34.7,21.3z"/>
	<polygon fill="none" points="34.5,24.4 34.5,24.4 34.5,24.4 34.5,24.4 	"/>
	<polygon fill="none" points="34.5,24.5 34.5,24.5 34.6,24.5 34.6,24.5 	"/>
	<path fill="none" d="M34.8,21.3L34.8,21.3L34.8,21.3L34.8,21.3L34.8,21.3l0-0.1c0,0,0,0,0,0L34.8,21.3l0-0.1l0,0c0,0,0,0,0,0l0,0
		L34.8,21.3L34.8,21.3L34.8,21.3L34.8,21.3L34.8,21.3L34.8,21.3z"/>
	<polygon fill="none" points="36.2,20.8 36.2,20.8 36.2,20.8 36.3,20.9 	"/>
	<polygon fill="none" points="36.6,21.2 36.6,21.2 36.6,21.2 	"/>
	<path fill="none" d="M35.9,22L35.9,22L35.9,22L35.9,22L35.9,22L35.9,22L35.9,22L35.9,22L35.9,22L35.9,22L35.9,22l-0.1,0l0,0l0,0
		c0,0,0,0,0,0C35.8,22,35.8,22,35.9,22L35.9,22L35.9,22L35.9,22L35.9,22l-0.1,0.1l0,0c0.2,0.1,0.1-0.1,0.3,0L35.9,22L35.9,22
		C36,22.1,36,22,35.9,22L35.9,22L35.9,22L35.9,22L35.9,22z"/>
	<polygon fill="none" points="36.6,21.1 36.6,21.1 36.6,21.1 	"/>
	<polygon fill="none" points="36.6,21.3 36.6,21.3 36.6,21.3 	"/>
	<polygon fill="none" points="36,22 36,22 36,22 36,22 	"/>
	<path fill="none" d="M33.4,24.4L33.4,24.4L33.4,24.4L33.4,24.4L33.4,24.4L33.4,24.4L33.4,24.4L33.4,24.4L33.4,24.4l0-0.1l0,0l0,0
		l0,0l0,0l0,0l-0.1,0l0.1-0.1v0l0-0.1l0,0l0,0l0,0c0,0,0,0,0,0l0,0l0,0l0,0l0,0l0,0l0,0l0,0l0,0l0,0l0,0l0,0l0-0.1l0,0l0-0.1l0,0
		c0,0,0,0,0,0l0,0L33.2,24l0,0l0,0l0,0l0,0l0.1-0.1c0,0,0,0,0,0l0,0l0,0l0,0c0,0,0,0,0,0L33.1,24l0,0l0,0l0,0l0,0l0.1-0.1L33,24
		l0.1-0.1l-0.1,0.1l0,0l0,0l0,0l0.1-0.2c0,0,0,0,0,0l-0.1,0.2l0-0.2l-0.1,0.1l0,0l0,0l0-0.1l0,0.1l0-0.1l0,0.1l0-0.1l-0.1,0l0-0.1
		l0,0.1l0,0l0,0l0,0l0,0l0,0l0,0l0,0l0,0l0,0l0,0l0,0l0.1-0.1l-0.1,0l0,0l0,0l0,0l0,0l0-0.1l0,0l0,0l0,0L32.3,24l0,0l0,0l0.1,0l0,0
		l0,0.1l0,0l0,0l0-0.1l0.1,0.1l0-0.1l0,0l0,0l0.2,0.1l0,0l0.1,0l0,0l0.1,0l0,0.1c0,0,0,0,0,0C33,24.4,33.2,24.4,33.4,24.4L33.4,24.4
		L33.4,24.4z M32.9,24L32.9,24L32.9,24L32.9,24z M33.2,24L33.2,24L33.2,24L33.2,24z M33.3,24.2L33.3,24.2L33.3,24.2L33.3,24.2z"/>
	<polygon fill="none" points="32.7,23.8 32.8,23.7 32.7,23.7 32.7,23.7 32.7,23.7 32.7,23.8 	"/>
	<polygon fill="none" points="32.2,24 32.2,24 32.2,24 	"/>
	<polygon fill="none" points="32.2,24 32.2,24 32.2,24 	"/>
	<polygon fill="none" points="32.2,23.6 32.2,23.6 32.2,23.6 32.2,23.6 	"/>
	<rect x="32.6" y="23.9" transform="matrix(-0.5914 0.8064 -0.8064 -0.5914 71.1866 11.6668)" fill="none" width="0" height="0"/>
	<polygon fill="none" points="33.5,14.7 33.6,14.7 33.6,14.7 33.5,14.7 	"/>
	<polygon fill="none" points="32.3,23.7 32.3,23.7 32.3,23.7 32.3,23.7 32.4,23.6 32.4,23.6 32.3,23.7 32.3,23.7 32.2,24 32.3,24 
		32.3,23.7 32.3,23.7 	"/>
	<polygon fill="none" points="33.3,24.2 33.3,24.2 33.3,24.2 	"/>
	<polygon fill="none" points="33.4,24.1 33.3,24.1 33.3,24.1 	"/>
	<polygon fill="none" points="33.3,24 33.3,24 33.3,24 	"/>
	<polygon fill="none" points="35.7,21.9 35.7,21.9 35.7,21.9 	"/>
	<path fill="none" d="M33.3,24L33.3,24L33.3,24L33.3,24C33.4,23.9,33.4,23.9,33.3,24L33.3,24L33.3,24L33.3,24L33.3,24z"/>
	<polygon fill="none" points="32.6,23.9 32.6,23.9 32.7,23.8 	"/>
	<rect x="31.8" y="23.9" fill="none" width="0" height="0"/>
	<path fill="none" d="M31.1,24.4C31,24.4,31,24.4,31.1,24.4l0,0.2l0.2,0c0,0,0,0,0.1-0.1l0,0C31.3,24.6,31.1,24.5,31.1,24.4z"/>
	<rect x="31.8" y="24" transform="matrix(-0.3705 -0.9288 0.9288 -0.3705 21.3551 62.4877)" fill="none" width="0" height="0"/>
	<polygon fill="none" points="32.1,24.1 32.1,24.1 32.1,24.1 	"/>
	<path fill="none" d="M30,15.9L30,15.9L30,15.9C30,15.9,30,15.9,30,15.9z"/>
	<path fill="none" d="M31.1,24.1C31.1,24.1,31.1,24.1,31.1,24.1C31.1,24.1,31.1,24.1,31.1,24.1L31.1,24.1z"/>
	<rect x="31.8" y="23.9" transform="matrix(-0.3703 -0.9289 0.9289 -0.3703 21.3713 62.3678)" fill="none" width="0" height="0"/>
	<polygon fill="none" points="32,24.1 32,24.1 32,24.1 	"/>
	<polygon fill="none" points="32,23.9 32,23.9 32,23.9 	"/>
	<polygon fill="none" points="31.9,24.1 31.9,24.1 31.9,24.1 31.9,24.1 	"/>
	<rect x="31.9" y="24.1" transform="matrix(-0.3698 -0.9291 0.9291 -0.3698 21.2726 62.7159)" fill="none" width="0" height="0"/>
	<polygon fill="none" points="32,24.1 32,24.1 31.9,24.1 	"/>
	<rect x="33.6" y="14.6" fill="none" width="0" height="0"/>
	<polygon fill="none" points="34.1,24.4 34.1,24.4 34.1,24.4 34.1,24.5 34.1,24.5 34.1,24.5 34.1,24.5 34.1,24.5 34.1,24.4 	"/>
	<path fill="none" d="M33.9,24.5C33.9,24.5,33.9,24.5,33.9,24.5L33.9,24.5L33.9,24.5z"/>
	<polygon fill="none" points="33.6,14.5 33.6,14.5 33.6,14.5 	"/>
	<polygon fill="none" points="33.6,14.6 33.7,14.6 33.7,14.5 33.7,14.5 	"/>
	<rect x="33.6" y="14.5" transform="matrix(0.6126 -0.7904 0.7904 0.6126 1.592 32.1925)" fill="none" width="0" height="0"/>
	<polygon fill="none" points="33.6,14.5 33.6,14.5 33.6,14.5 33.7,14.5 	"/>
	<polygon fill="none" points="33.6,14.6 33.6,14.6 33.6,14.6 33.6,14.6 	"/>
	<path fill="none" d="M33.6,14.5L33.6,14.5L33.6,14.5C33.6,14.5,33.6,14.5,33.6,14.5z"/>
	<polygon fill="none" points="34.2,24.4 34.2,24.3 34.2,24.4 34.2,24.3 34.2,24.4 34.2,24.5 34.2,24.5 34.2,24.4 	"/>
	<path fill="none" d="M34.2,24.4L34.2,24.4C34.2,24.5,34.1,24.3,34.2,24.4L34.2,24.4l0-0.1l0,0l0-0.1L34.2,24.4l0-0.1L34.2,24.4
		L34.2,24.4L34.2,24.4l-0.1-0.2L34.2,24.4L34.2,24.4C34.1,24.4,34.2,24.5,34.2,24.4l-0.1-0.1L34.2,24.4l-0.1-0.1L34.2,24.4
		L34.2,24.4L34.2,24.4L34.2,24.4C34.1,24.5,34.2,24.5,34.2,24.4L34.2,24.4L34.2,24.4C34.2,24.5,34.2,24.5,34.2,24.4L34.2,24.4
		L34.2,24.4z"/>
	<polygon fill="none" points="34.2,24.5 34.2,24.5 34.2,24.5 	"/>
	<polygon fill="none" points="34.2,24.5 34.2,24.5 34.2,24.4 	"/>
	<rect x="34.2" y="24.5" fill="none" width="0" height="0"/>
	<polygon fill="none" points="33.5,14.6 33.5,14.6 33.5,14.5 	"/>
	<polygon fill="none" points="33.5,14.6 33.5,14.6 33.5,14.6 	"/>
	<path fill="none" d="M33.5,14.5L33.5,14.5L33.5,14.5C33.6,14.5,33.5,14.5,33.5,14.5z"/>
	<polygon fill="none" points="33.6,14.5 33.6,14.5 33.6,14.5 	"/>
	<polygon fill="none" points="33.6,14.6 33.6,14.6 33.6,14.6 	"/>
	<path fill="none" d="M33.5,14.7C33.5,14.7,33.5,14.7,33.5,14.7L33.5,14.7l0.1-0.1l0,0L33.5,14.7z"/>
	<polygon fill="none" points="33.6,14.5 33.6,14.6 33.6,14.6 33.6,14.6 33.6,14.6 33.6,14.5 	"/>
	<polygon fill="none" points="34.2,24.3 34.2,24.5 34.2,24.5 34.2,24.5 34.2,24.4 34.2,24.4 	"/>
	<polygon fill="none" points="33.6,14.6 33.6,14.6 33.6,14.6 33.6,14.6 33.6,14.6 33.6,14.6 	"/>
	<polygon fill="none" points="33.6,14.6 33.6,14.6 33.6,14.5 33.5,14.6 33.6,14.6 33.6,14.6 	"/>
	<polygon fill="none" points="33.6,14.6 33.6,14.6 33.5,14.6 33.6,14.6 	"/>
	<polygon fill="none" points="38.1,22.3 38.2,22.3 38.1,22.3 38.1,22.3 38.1,22.4 38.2,22.4 38.2,22.4 38.2,22.4 	"/>
	<polygon fill="none" points="41.6,24.9 41.7,24.9 41.6,24.9 	"/>
	<polygon fill="none" points="42.2,24.3 42.2,24.3 42.2,24.3 42.2,24.3 	"/>
	<path fill="none" d="M43.4,21.9C43.4,21.9,43.4,21.9,43.4,21.9C43.4,22,43.4,22,43.4,21.9L43.4,21.9C43.4,22,43.4,22,43.4,21.9
		L43.4,21.9C43.4,21.9,43.4,21.9,43.4,21.9L43.4,21.9z"/>
	<rect x="42.2" y="24.2" transform="matrix(0.5439 -0.8391 0.8391 0.5439 -1.0975 46.4784)" fill="none" width="0" height="0"/>
	<polygon fill="none" points="42,24.3 42,24.3 42.1,24.3 42,24.3 	"/>
	<path fill="none" d="M43.6,22L43.6,22l0.2,0.1l0,0c0,0,0,0,0,0C43.7,22.1,43.7,22,43.6,22z"/>
	<path fill="none" d="M42.2,24.4C42.2,24.4,42.2,24.4,42.2,24.4l0.1,0L42.2,24.4L42.2,24.4z"/>
	<polygon fill="none" points="44,22.3 44,22.3 44,22.2 	"/>
	<path fill="none" d="M42.4,41.9c0,0,0,0.1,0,0.1C42.5,41.9,42.7,41.7,42.4,41.9z"/>
	<polygon fill="none" points="44,22.2 44,22.1 44,22.1 44,22.2 44,22.2 	"/>
	<path fill="none" d="M43.9,22.1C43.9,22.1,43.8,22.2,43.9,22.1c0,0.1,0,0.1,0.1,0.1l0-0.1l0,0C43.9,22.2,43.9,22.1,43.9,22.1z"/>
	<polygon fill="none" points="44,22.2 44,22.2 44,22.2 44,22.2 44,22.2 	"/>
	<polygon fill="none" points="38.5,24.4 38.5,24.4 38.5,24.4 38.5,24.4 	"/>
	<polygon fill="none" points="38.4,22.8 38.3,22.8 38.3,22.9 38.4,22.8 38.4,22.8 38.4,22.8 	"/>
	<polygon fill="none" points="35.8,21.9 35.7,21.9 35.7,21.9 	"/>
	<polygon fill="none" points="38.8,22.9 38.8,22.9 38.8,22.9 	"/>
	<path fill="none" d="M38.6,22.7L38.6,22.7L38.6,22.7l-0.1,0L38.6,22.7L38.6,22.7L38.6,22.7l-0.1,0l-0.1,0l0,0l0,0l0-0.1l-0.1,0l0,0
		l-0.1,0l0,0.1l0-0.1l0,0.1l0-0.1l0,0.1l-0.1-0.1l0.1,0l0,0l0,0l-0.1,0l0,0l0,0c0,0,0,0.1-0.1,0.1l0.1,0l0,0l0,0l0,0l0,0l0.1,0
		l-0.1,0l0,0l0,0l-0.1,0l-0.1,0.1l0,0c0,0,0,0,0,0l0.1,0l0,0l0.1,0l-0.1,0l0.1,0l-0.2,0.1c0,0,0,0,0,0l0,0l0,0l0,0c0,0,0,0,0,0
		l0.3-0.2l-0.1,0l0,0l-0.1,0l0,0l-0.2,0.1l0.3-0.1l-0.1,0l0.2-0.1l0,0l-0.1,0l-0.1,0l-0.3,0.2c0,0,0,0,0,0l0.3-0.2L37.8,23l0.3-0.2
		l0,0l0,0l0,0L38,22.9l0.2-0.1L38,22.9l0.2-0.1l-0.1,0.1l0.1-0.1l0,0L38,23c0,0,0,0,0,0l0.1-0.1l0.1-0.1l0,0l-0.1,0.1l0.1-0.1
		l-0.1,0.1l0.1-0.1l0,0l0,0l0,0l0,0l0,0l0.1-0.1l0,0.1l0.1-0.1l0,0.1l0,0l0-0.1v0l0,0l0,0l0,0l0,0.1l0,0v0l0,0l0,0.1l0,0l0,0.1
		c0,0,0,0,0,0l0,0l0,0l0,0c0,0,0,0,0,0l0,0l0-0.2l0,0l0,0L38.6,22.7L38.6,22.7L38.6,22.7L38.6,22.7L38.6,22.7L38.6,22.7z M38.1,22.5
		L38.1,22.5L38.1,22.5L38.1,22.5z M38.1,22.8L38.1,22.8l0.1-0.1L38.1,22.8z"/>
	<path fill="none" d="M42.5,42L42.5,42L42.5,42C42.4,42,42.4,42,42.5,42z"/>
	<polygon fill="none" points="40.2,24.6 40.2,24.5 40.2,24.6 	"/>
	<polygon fill="none" points="38.5,23.4 38.5,23.4 38.5,23.4 	"/>
	<path fill="none" d="M40.2,24.6L40.2,24.6C40.1,24.6,40.1,24.6,40.2,24.6L40.2,24.6L40.2,24.6C40.2,24.6,40.2,24.6,40.2,24.6
		L40.2,24.6z"/>
	<polygon fill="none" points="40.2,24.6 40.1,24.6 40.1,24.6 	"/>
	<polygon fill="none" points="39,22.8 39,22.8 39,22.8 39,22.8 39,22.8 39,22.8 	"/>
	<path fill="none" d="M38.8,22.9L38.8,22.9L38.8,22.9L38.8,22.9C38.7,22.9,38.7,22.9,38.8,22.9L38.8,22.9L38.8,22.9
		C38.8,22.9,38.8,22.9,38.8,22.9L38.8,22.9L38.8,22.9L38.8,22.9z"/>
	<polygon fill="none" points="38.8,22.9 38.8,22.9 38.8,22.9 	"/>
	<polygon fill="none" points="38.5,23.4 38.5,23.4 38.5,23.4 38.5,23.4 38.5,23.4 	"/>
	<polygon fill="none" points="42.5,42 42.5,42 42.5,42 	"/>
	<path fill="none" d="M23.8,36.7c0-0.1,0-0.3,0.1-0.4c-0.1,0.1-0.1,0.2-0.1,0.3C23.8,36.6,23.8,36.7,23.8,36.7z"/>
	<polygon fill="none" points="38.6,22.8 38.6,22.8 38.6,22.8 	"/>
	<polygon fill="none" points="37.8,21.6 37.8,21.6 37.8,21.6 37.8,21.6 37.8,21.6 37.8,21.6 	"/>
	<polygon fill="none" points="36.5,21.5 36.5,21.5 36.6,21.8 36.6,21.5 36.5,21.5 36.5,21.5 	"/>
	<path fill="none" d="M36.6,21.3L36.6,21.3L36.6,21.3L36.6,21.3l0-0.1l0,0l0,0l0,0l0,0l-0.1,0.1l0-0.1l0,0l0,0l0,0l0,0l-0.1,0l0,0
		l0,0l0,0l0,0l0-0.1l0,0l0,0l0,0l0-0.1l0,0.1v0l0,0l-0.1-0.1l-0.1,0.3l0,0l0,0l0,0l0,0l0,0l0,0l0,0l0,0l0,0l0,0l0.1,0.1l0,0l0,0.1
		l0,0c0,0,0,0,0,0.1l0.1-0.1l0,0l0,0l0,0l0,0l0.1-0.1l0,0.1l0,0l0,0l0,0.1l0,0.1l0,0c0,0,0,0,0,0l0.1-0.1l0,0l0-0.1l0,0.1l0-0.1
		l-0.1,0.2c0,0,0,0,0,0l0,0l0,0l0,0c0,0,0,0,0,0l0.1-0.3l0,0.1l0,0l0,0l0,0l0,0.2l0.1-0.3l0,0.1l0-0.2l0,0l0,0.1l0,0.1l-0.1,0.3
		c0,0,0,0,0,0l0.1-0.3l0,0.3l0-0.2l0-0.1l0,0l0,0.2l0-0.2l0,0.2l0-0.2c0,0.2,0,0.1,0,0.2l0-0.2l0,0c0,0.1,0,0.2,0,0.4l0,0l0-0.2
		v-0.2l0,0l0-0.1l0,0.3l0-0.2v0.2c0-0.2,0-0.2,0-0.2l0,0l0,0v0l0-0.1l0,0.1c0-0.1,0,0,0-0.2l0,0.1l0,0l0-0.1l0,0.1l0-0.1l0,0.1l0,0
		l0,0.1l0,0l0,0l0,0l0,0.2l0,0l0,0.1l0,0l0,0l0,0l0,0l0-0.2l0,0L36.6,21.3l0,0.2l0,0L36.6,21.3L36.6,21.3L36.6,21.3l0,0.1L36.6,21.3
		L36.6,21.3L36.6,21.3L36.6,21.3L36.6,21.3L36.6,21.3L36.6,21.3l-0.1-0.1L36.6,21.3L36.6,21.3L36.6,21.3L36.6,21.3L36.6,21.3
		L36.6,21.3L36.6,21.3z M36.2,21.4L36.2,21.4L36.2,21.4L36.2,21.4z M36.3,21.4L36.3,21.4L36.3,21.4L36.3,21.4z M36.5,21.5L36.5,21.5
		l0-0.1L36.5,21.5z M36.5,21.2L36.5,21.2L36.5,21.2L36.5,21.2z"/>
	<polygon fill="none" points="37.8,21.6 37.8,21.6 37.7,21.7 37.7,21.7 	"/>
	<polygon fill="none" points="37.8,21.6 37.8,21.6 37.8,21.6 37.8,21.6 37.8,21.6 	"/>
	<polygon fill="none" points="37.9,24 37.9,24 37.9,24 	"/>
	<polygon fill="none" points="37.8,21.6 37.8,21.6 37.8,21.6 	"/>
	<path fill="none" d="M37.8,21.7L37.8,21.7L37.8,21.7L37.8,21.7L37.8,21.7L37.8,21.7L37.8,21.7L37.8,21.7L37.8,21.7L37.8,21.7
		L37.8,21.7L37.8,21.7L37.8,21.7L37.8,21.7L37.8,21.7L37.8,21.7L37.8,21.7L37.8,21.7L37.8,21.7L37.8,21.7L37.8,21.7l-0.1,0
		L37.8,21.7l-0.1-0.2L37.8,21.7L37.8,21.7L37.8,21.7L37.8,21.7L37.8,21.7L37.8,21.7l0-0.1l0-0.1l0.1,0l-0.1-0.1l0.1,0l0,0l0-0.1l0,0
		l0,0l0,0.1l-0.2-0.1l0,0.1l0,0l0,0l-0.2-0.1l0,0l-0.1,0l0,0l-0.1-0.1l0.1-0.1c0,0,0,0,0,0l0,0l-0.2,0.4L37,21.6l0,0l0,0l-0.1,0.1
		l0,0l0,0l0,0l0,0l0,0.1l0,0l0,0l0,0l0,0l-0.1,0.2l0,0l-0.1,0.1l0,0l0,0.1l0.1,0l0,0l0,0l0,0l0,0l0.1,0l-0.1,0l0,0l0,0l-0.1,0l0,0
		l0,0.1l0,0l0,0l0,0l0.1,0l0,0l0,0l0,0l0,0l-0.1,0.1l0,0l0,0l0,0l0,0l0,0l0.2-0.2l0,0.1l0,0l0,0l0,0L37,22.6l0.1-0.2l0,0.1l0.1-0.1
		l0,0l0,0.1l0,0.1L37,22.7l0,0l0.1-0.2l0,0.2l0.1-0.2l0,0l0,0l0,0.2l0-0.2l0,0.2l0-0.2l0,0.2l0-0.2l0,0l0,0.3c0,0,0,0,0,0l0-0.1
		l0-0.2v0l0,0v0l0,0l0-0.1l0,0.2l0-0.2l0,0.2l0-0.2l0,0l0,0l0,0l0,0l0,0l0-0.1l0,0.1l0-0.1l0,0l0,0l0-0.1l0,0l0,0l0,0l0,0l0,0
		l0.1,0.1c0,0,0,0,0,0l-0.1-0.2l0.1,0l0,0l0.1,0l0,0l0,0l0,0l0.1,0.1l0,0l0,0c0,0,0,0,0,0l0,0l0,0c0,0,0,0,0,0l-0.1-0.1h0l0-0.1l0,0
		l0.1-0.1l0-0.1l0,0l0,0l0,0l0-0.1l-0.1-0.1l0.1,0l0-0.1l0,0l0,0l0,0l-0.1-0.1l0.1,0l0,0L37.8,21.7l-0.1,0.2l0,0l0,0L37.8,21.7
		L37.8,21.7L37.8,21.7L37.8,21.7L37.8,21.7L37.8,21.7z M36.8,22.2L36.8,22.2L36.8,22.2L36.8,22.2z M37.1,22.6L37.1,22.6l0-0.1
		L37.1,22.6z M37.6,21.8L37.6,21.8L37.6,21.8L37.6,21.8z"/>
	<polygon fill="none" points="35.8,22 35.8,22 35.8,22 	"/>
	<path fill="none" d="M35.2,21.8L35.2,21.8L35.2,21.8L35.2,21.8L35.2,21.8l0,0.1L35.2,21.8L35.2,21.8L35.2,21.8L35.2,21.8l0.2,0l0,0
		L35.2,21.8c0.2,0.1,0.1,0,0.3,0l0,0l0.1,0l0,0l0,0l0,0l0,0l0,0l0,0l0,0l0,0l0,0l0,0l0,0l0,0l0.2,0.1l0,0l0,0l0,0l0,0l0-0.2
		c0,0,0,0,0,0l-0.1,0l0-0.1l-0.1,0l0,0l0,0l0.2-0.1c0,0,0,0,0,0l0,0l0,0l0,0c0,0,0,0,0,0l-0.2,0.2l0-0.1l-0.1,0l0,0l-0.1,0l0.1-0.1
		l-0.1,0l-0.1,0.1l0.1,0l0,0l0,0.1l-0.1,0l-0.1-0.1l0.1,0l0-0.1l0.2-0.1c0,0,0,0-0.1,0l-0.2,0.1l0.1-0.1l-0.2-0.1v0l0-0.1l-0.1,0.1
		l0,0l0.1-0.1l0,0l0,0L35.1,21l-0.1,0.3l0,0l-0.1,0v0l0-0.1l0,0l0,0l0,0l0.1,0l0,0.1l0.1-0.1l0,0.1L35.2,21.8L35.2,21.8L35.2,21.8
		L35.2,21.8L35.2,21.8L35.2,21.8L35.2,21.8L35.2,21.8L35.2,21.8L35.2,21.8L35.2,21.8z M35.2,21.3L35.2,21.3L35.2,21.3L35.2,21.3
		L35.2,21.3z"/>
	<polygon fill="none" points="35.7,22 35.8,22 35.7,22 	"/>
	<polygon fill="none" points="35.7,21.9 35.6,21.8 35.6,21.8 35.6,21.9 35.7,21.9 35.7,21.9 	"/>
	<polygon fill="none" points="35.7,21.9 35.7,21.9 35.7,21.9 35.8,22 35.8,22 35.7,21.9 35.7,21.9 	"/>
	<polygon fill="none" points="37.9,24 37.9,24 37.9,24 37.9,24 	"/>
	<path fill="none" d="M36.1,23.8L36.1,23.8C36.1,23.7,36.1,23.7,36.1,23.8L36.1,23.8l-0.1,0l-0.1-0.1c0,0-0.1,0-0.1-0.1l-0.1,0.1
		l0,0l0,0l0,0l0,0l-0.1,0l0-0.1l0,0l0,0l0-0.1l-0.1-0.1l0,0c0,0,0,0,0,0l0,0l0,0l0,0.1l-0.1,0l0,0.1l0,0l0,0l-0.1-0.2l0,0l0,0l0,0.1
		h0l0-0.1l0,0l0.1,0.3l0,0l0,0l0,0l0,0l-0.1-0.2l0.1,0.2l0-0.1l0.1,0.1l0,0l0-0.1l0,0l-0.1-0.2l-0.1,0l0,0l0.2,0.2l-0.2-0.2l0.2,0.2
		l0,0l0,0l-0.1-0.1l0.1,0.1l-0.1-0.1l0.1,0.1l-0.1,0l0.1,0.1l0,0l-0.2-0.1l0,0l0,0l0.2,0.1l0,0l0,0l0,0l0,0l-0.1,0l0.1,0.1l0,0.1
		l0.1,0.1l0,0l0-0.2l-0.1,0l0.2,0.2l-0.1,0.1l0,0l-0.1,0l0,0l0,0l0,0l-0.1-0.1l0,0l-0.1,0l0,0l0,0l0,0l0.1,0l0.1,0.1l-0.1,0
		l-0.1,0.1l0.1,0l0,0l0.3,0l0,0l0.1,0l0,0l0,0.1l0,0l0,0l0,0l0.1,0.2l0-0.1l0,0l0,0l0.2,0.1l0,0l0.1,0l0,0l0.1,0.1l0,0.1
		c0,0,0,0,0.1,0l0,0l0-0.1c0-0.3,0-0.5,0-0.8l0,0l0,0l0,0c0,0,0,0,0,0l0,0l0-0.1l0,0l0,0l0,0c0,0,0,0,0-0.1l0,0L36.1,23.8
		C36.1,23.8,36.1,23.8,36.1,23.8z M35.3,23.7l0.1,0h0l0,0l0,0l0,0l0,0L35.3,23.7z M35.4,23.6L35.4,23.6L35.4,23.6L35.4,23.6z
		 M35.3,24.2L35.3,24.2L35.3,24.2L35.3,24.2z M35.9,23.7L35.9,23.7L35.9,23.7L35.9,23.7z M36.1,23.8L36.1,23.8L36.1,23.8L36.1,23.8z
		"/>
	<polygon fill="none" points="36.6,21.7 36.6,21.7 36.6,21.7 36.6,21.7 36.6,21.7 36.6,21.7 	"/>
	<polygon fill="none" points="36.6,21.7 36.6,21.7 36.6,21.7 36.6,21.7 	"/>
	<polygon fill="none" points="35.2,23.7 35.2,23.7 35.2,23.7 	"/>
	<polygon fill="none" points="35.3,23.8 35.3,23.8 35.3,23.8 	"/>
	<path fill="none" d="M36.6,22.8L36.6,22.8L36.6,22.8C36.6,22.8,36.5,22.8,36.6,22.8L36.6,22.8l-0.1-0.1l0,0c0,0,0,0,0,0l0,0l0,0
		c-0.1-0.1-0.1-0.2-0.2-0.3l0,0l-0.1-0.2c0,0,0,0,0-0.1c0,0,0,0,0,0c0.1,0.2,0,0.2,0,0.3v0c0,0,0.1,0,0.1,0l0,0c0,0,0,0,0,0
		c0.1,0,0.2,0.1,0.1,0.2l0-0.1l0,0.1l0,0c0,0.2,0,0.3-0.1,0.4l0,0c0,0,0,0,0,0l-0.1,0.1l0,0l0,0.1L36,23.2L36,23.2
		c0.2,0.1,0.4,0.2,0.6,0.2l0.2-0.2l0,0L36.6,22.8z M36.4,22.6L36.4,22.6L36.4,22.6L36.4,22.6z"/>
	<polygon fill="none" points="38.2,23.4 38.3,23.4 38.3,23.6 38.3,23.6 38.3,23.5 38.3,23.6 38.3,23.6 38.3,23.4 	"/>
	<polygon fill="none" points="38.5,23.4 38.5,23.4 38.5,23.4 38.5,23.4 38.5,23.4 38.5,23.4 38.5,23.4 38.5,23.4 38.5,23.4 	"/>
	<polygon fill="none" points="38.4,23.6 38.4,23.6 38.3,23.5 	"/>
	<polygon fill="none" points="38.3,23.6 38.3,23.6 38.3,23.6 38.3,23.5 	"/>
	<polygon fill="none" points="38.4,23.5 38.4,23.5 38.4,23.5 38.4,23.5 38.4,23.5 38.4,23.5 38.4,23.5 38.4,23.5 38.4,23.5 
		38.4,23.5 38.4,23.5 38.4,23.5 38.4,23.5 38.4,23.5 38.4,23.5 	"/>
	<rect x="38.4" y="23.5" fill="none" width="0" height="0"/>
	<polygon fill="none" points="38.4,23.5 38.4,23.5 38.4,23.5 38.4,23.5 	"/>
	<polygon fill="none" points="38,24 38,24.1 38,24 	"/>
	<polygon fill="none" points="38.5,23.4 38.5,23.4 38.5,23.4 	"/>
	<polygon fill="none" points="38.5,23.8 38.5,23.8 38.5,23.8 	"/>
	<rect x="38.4" y="23.5" fill="none" width="0" height="0"/>
	<polygon fill="none" points="38.4,23.5 38.4,23.5 38.4,23.5 	"/>
	<polygon fill="none" points="38.4,23.4 38.4,23.4 38.4,23.4 	"/>
	<polygon fill="none" points="38,24 38,24 38,24 	"/>
	<path fill="none" d="M38.2,24.4L38.2,24.4C38.2,24.4,38.2,24.4,38.2,24.4z"/>
	<polygon fill="none" points="38,23.9 38,23.9 38,24 38,23.9 38,23.9 	"/>
	<polygon fill="none" points="38,24 38,24 37.9,23.9 37.9,23.9 37.9,23.9 37.9,24 38,24 38,24 38,24 38,24 38,24 38,24 38,24 	"/>
	<polygon fill="none" points="38,24.1 38,24 38,24 	"/>
	<polygon fill="none" points="38.2,24.6 38.3,24.5 38.3,24.5 	"/>
	<path fill="none" d="M38.5,23.9L38.5,23.9L38.5,23.9l0-0.1L38.5,23.9L38.5,23.9L38.5,23.9L38.5,23.9l-0.1-0.1l0,0l0-0.1l0,0.1l0,0
		l0,0l0,0l0.1-0.1l0,0l0,0l0,0l0,0l0,0l0,0h0l0,0l0,0.1l0-0.1l0,0.1l0,0l0,0l0,0.1l0,0l0,0l0,0l0,0l0,0l-0.1-0.1l0.1,0.2l0,0l0,0
		l0-0.1l0,0l0,0l0,0L38,23.6l0,0l0-0.1l0,0l0,0l0,0l0,0l0,0l0,0l0.1,0.1l0,0l0,0.1l0,0l0,0l0,0.1l0,0l0,0l0,0l0,0.1l0.1,0.1L38,23.9
		l0,0.1l0,0l0,0l0,0l0,0l0,0l0.1,0l0,0l0.1-0.1l0,0l0,0l0,0l0,0.1l0,0l0,0l0-0.1l0,0.1l0,0l0-0.1l0,0l0,0L38.5,23.9L38.4,24l0,0
		L38.5,23.9L38.5,23.9L38.5,23.9z M38.3,23.6L38.3,23.6L38.3,23.6L38.3,23.6L38.3,23.6z M38.3,23.7L38.3,23.7L38.3,23.7L38.3,23.7z
		 M38.3,23.7L38.3,23.7L38.3,23.7L38.3,23.7z M38.4,23.7L38.4,23.7L38.4,23.7L38.4,23.7z M38.5,23.8L38.5,23.8L38.5,23.8L38.5,23.8z
		"/>
	<polygon fill="none" points="38.4,23.5 38.4,23.5 38.3,23.5 	"/>
	<polygon fill="none" points="38.3,23.5 38.3,23.5 38.3,23.5 	"/>
	<polygon fill="none" points="38.3,23.6 38.4,23.6 38.4,23.6 38.3,23.5 38.3,23.5 38.3,23.5 	"/>
	<polygon fill="none" points="29.2,16.2 29.2,16.2 29.2,16.2 29.2,16.2 29.1,16.1 29.1,16.2 29.1,16.2 29.2,16.2 	"/>
	<path fill="none" d="M29.3,16.3L29.3,16.3L29.3,16.3l-0.2-0.1l0,0l0,0l0,0l0-0.1l-0.1,0l0,0l0,0.1C29.1,16.3,29.2,16.3,29.3,16.3
		L29.3,16.3z"/>
	<polygon fill="none" points="28.8,17.2 28.8,17.2 28.8,17.2 	"/>
	<path fill="none" d="M31,24.3C31,24.3,31,24.3,31,24.3L31,24.3L31,24.3z"/>
	<path fill="none" d="M29.1,16.1L29.1,16.1L29.1,16.1C29.1,16.1,29.1,16.1,29.1,16.1C29.1,16.1,29.1,16.1,29.1,16.1z"/>
	<polygon fill="none" points="28.6,18 28.7,18.1 28.7,18.1 	"/>
	<path fill="none" d="M0.8,30.7c0.1,0.1,0.2,0.2,0-0.2L0.8,30.7z"/>
	<path fill="none" d="M29.1,16.4C29.1,16.4,29.1,16.4,29.1,16.4L29.1,16.4C29.2,16.4,29.2,16.4,29.1,16.4L29.1,16.4z"/>
	<polygon fill="none" points="28.7,17.1 28.7,17.1 28.6,17.1 28.7,17.2 	"/>
	<path fill="none" d="M29.1,15.9L29.1,15.9l0-0.1l0.1-0.1l0.1,0l0.1,0c0,0,0,0,0,0l0.1,0c-0.1,0-0.1,0-0.2,0L29.1,15.9L29.1,15.9
		L29.1,15.9L29.1,15.9L29.1,15.9L29.1,15.9z"/>
	<polygon fill="none" points="29,15.9 29.1,15.7 29.1,15.7 	"/>
	<path fill="none" d="M43.8,22.4C43.8,22.4,43.8,22.4,43.8,22.4C43.8,22.4,43.8,22.4,43.8,22.4L43.8,22.4L43.8,22.4z"/>
	<path fill="none" d="M43.9,22.4L43.9,22.4L43.9,22.4C43.8,22.4,43.8,22.4,43.9,22.4C43.8,22.4,43.8,22.4,43.9,22.4z"/>
	<polygon fill="none" points="29,22.7 29,22.8 29,22.7 29.2,22.7 29.3,22.5 29.3,22.5 	"/>
	<path fill="none" d="M43.9,23.4C43.9,23.4,43.9,23.4,43.9,23.4L43.9,23.4C43.9,23.4,43.9,23.4,43.9,23.4L43.9,23.4L43.9,23.4z"/>
	<polygon fill="none" points="28.5,17.7 28.5,17.7 28.5,17.7 28.5,17.7 	"/>
	<path fill="none" d="M44,23.1l-0.1,0.2l0,0C43.9,23.3,44,23.2,44,23.1C44,23.2,44,23.2,44,23.1C44,23.1,43.9,23.1,44,23.1z"/>
	<rect x="29.1" y="15.9" fill="none" width="0" height="0"/>
	<path fill="none" d="M30,15.9L30,15.9C30,15.9,30,15.9,30,15.9L30,15.9z"/>
	<polygon fill="none" points="28.6,16.8 28.6,16.8 28.6,16.8 	"/>
	<polygon fill="none" points="28.5,17.1 28.5,17.1 28.5,17.1 	"/>
	<polygon fill="none" points="28.6,17.2 28.6,17.2 28.6,17.2 28.6,17.2 	"/>
	<path fill="none" d="M28.5,17.2L28.5,17.2C28.5,17.2,28.5,17.2,28.5,17.2L28.5,17.2C28.5,17.2,28.5,17.2,28.5,17.2z"/>
	<polygon fill="none" points="28.5,17.2 28.5,17.2 28.5,17.2 	"/>
	<polygon fill="none" points="28.5,17.2 28.5,17.2 28.6,17.2 28.5,17.2 	"/>
	<polygon fill="none" points="28.8,17.1 28.7,17.2 28.8,17.2 28.8,17.2 	"/>
	<polygon fill="none" points="29.2,23.1 29.2,23.1 29.2,23.1 29.2,23.1 	"/>
	<polygon fill="none" points="29.4,16.2 29.4,16.2 29.4,16.2 29.4,16.2 29.4,16.2 	"/>
	<polygon fill="none" points="29.3,23.2 29.3,23.2 29.4,23.2 29.4,23.2 	"/>
	<polygon fill="none" points="29.3,23.1 29.3,23.1 29.3,23.1 	"/>
	<polygon fill="none" points="29.3,23.1 29.3,23.1 29.3,23.1 29.3,23.1 29.3,23.1 29.3,23.1 29.3,23.1 29.3,23.1 29.3,23.1 	"/>
	<polygon fill="none" points="29.2,23 29.2,23 29.2,23.1 29.3,23.1 	"/>
	<polygon fill="none" points="29.3,23.1 29.3,23.1 29.3,23.1 29.2,23.1 	"/>
	<rect x="29.5" y="15.9" fill="none" width="0" height="0"/>
	<polygon fill="none" points="29.3,22.6 29.2,22.6 29.3,22.6 	"/>
	<polygon fill="none" points="29.3,23.1 29.3,23.1 29.3,23.1 	"/>
	<polygon fill="none" points="29.5,16.1 29.5,16.1 29.5,16.1 	"/>
	<rect x="29.3" y="23.2" fill="none" width="0" height="0"/>
	<polygon fill="none" points="29.3,23.2 29.3,23.2 29.3,23.2 29.3,23.2 	"/>
	<polygon fill="none" points="29.3,23.2 29.3,23.2 29.3,23.2 29.3,23.2 	"/>
	<polygon fill="none" points="29.3,23.2 29.3,23.2 29.3,23.2 	"/>
	<polygon fill="none" points="29.3,23.2 29.3,23.2 29.3,23.2 	"/>
	<polygon fill="none" points="29.3,15.6 29.3,15.6 29.2,15.6 29.3,15.6 29.3,15.6 29.5,15.6 29.5,15.6 29.4,15.6 	"/>
	<polygon fill="none" points="29.3,23.1 29.3,23.1 29.3,23.1 	"/>
	<polygon fill="none" points="29.5,16.1 29.5,16.1 29.5,16.1 	"/>
	<polygon fill="none" points="29.3,23.2 29.3,23.2 29.3,23.2 29.3,23.2 	"/>
	<polygon fill="none" points="29,23.1 29.1,23.1 29.1,23.1 	"/>
	<path fill="none" d="M29.2,16.4C29.2,16.4,29.2,16.4,29.2,16.4c0.1,0.1,0.1,0,0.1,0L29.2,16.4L29.2,16.4z"/>
	<path fill="none" d="M28.8,22L28.8,22L28.8,22l0.2,0.1c0,0,0,0,0,0L28.8,22z"/>
	<path fill="none" d="M28.9,22l-0.1,0L28.9,22C28.9,22.1,28.9,22.1,28.9,22z"/>
	<path fill="none" d="M30.1,2.3c-0.2-0.1-0.4-0.2-0.5-0.2C29.8,2.3,30,2.3,30.1,2.3z"/>
	<path fill="none" d="M48.4,32.2C48.5,31.9,48.6,31.8,48.4,32.2L48.4,32.2z"/>
	<path fill="none" d="M17.1,3.7c-0.3,0-0.5-0.1-0.5,0.3C16.7,4.1,16.9,3.8,17.1,3.7z"/>
	<path fill="none" d="M42.5,8.2c0,0,0.1,0,0.1,0C42.5,8,42.5,8.1,42.5,8.2z"/>
	<polygon fill="none" points="30,15.9 30,15.9 30,15.9 30,15.9 	"/>
	<polygon fill="none" points="29,22.9 29,23 29,22.9 	"/>
	<polygon fill="none" points="29.5,15.6 29.5,15.7 29.5,15.6 	"/>
	<polygon fill="none" points="29.5,16.1 29.5,16.1 29.5,16.1 	"/>
	<polygon fill="none" points="29.9,15.5 29.9,15.5 29.8,15.5 	"/>
	<path fill="#AF882E" d="M25.2,49.4c-0.2,0-0.1,0.2-0.2,0.3C25.5,49.6,25.2,49.3,25.2,49.4z"/>
	<polygon fill="#AF882E" points="29.4,48.2 28.9,48.4 28.9,48.5 	"/>
	<path fill="#AF882E" d="M30.4,48l-0.2,0.4c0.7-0.3,1.6-0.7,2.2-0.8c-0.5-0.3-1.2,0.4-1.8,0.4L30.4,48z"/>
	<path fill="#AF882E" d="M34,47.9C34,47.9,34.1,48,34,47.9c0.2,0,0.3,0,0.4-0.1C34.3,47.7,34.8,47.5,34,47.9z"/>
	<path fill="#AF882E" d="M34.1,48C33.7,48.1,34.4,48,34.1,48L34.1,48z"/>
	<path fill="#AF882E" d="M35.7,47.2l-0.4,0.4c0.1,0,0.6-0.1,0.4,0C36.1,47.2,36,47.2,35.7,47.2z"/>
	<path fill="#AF882E" d="M35.9,46.7l-0.2,0.2C35.8,46.8,35.9,46.8,35.9,46.7z"/>
	<path fill="#AF882E" d="M35.3,47.2l0.4-0.4c-0.1,0-0.2-0.2-0.2,0.2C35.5,46.8,35.5,47,35.3,47.2z"/>
	<path fill="#AF882E" d="M34.8,47c-0.9,0.4-0.6,0.7,0.3,0.2C34.7,47.3,34.4,47.4,34.8,47z"/>
	<path fill="#AF882E" d="M32.4,47.1l-0.4,0l-0.3,0.2C31.9,47.2,32.4,47.2,32.4,47.1z"/>
	<path fill="#AF882E" d="M37.9,45.9c0.2,0,0.5-0.2,0.6-0.1c0-0.1-0.3-0.1-0.4-0.2l0.4-0.4c-0.4,0.2-0.5,0.4-0.4,0.4c0,0,0,0,0,0
		L37.9,45.9z"/>
	<polygon fill="#AF882E" points="35.8,46.2 35.2,46.9 35.9,46.1 	"/>
	<polygon fill="#AF882E" points="40.4,44.3 40.3,44.6 40.1,45 	"/>
	<path fill="#AF882E" d="M42.2,43c-0.2,0.3-0.4,0.5-0.9,0.7c-0.1,0.3,0.4,0,0.3,0.3C41.9,43.7,42.1,43.3,42.2,43z"/>
	<path fill="#AF882E" d="M39.5,44.6L39.5,44.6l-0.2,0.1c0.1,0,0.2,0.1,0.5,0L39.5,44.6c0.2-0.1,0.3-0.2,0.4-0.3
		C39.8,44.3,39.7,44.4,39.5,44.6z"/>
	<path fill="#AF882E" d="M39.3,44.7C39.3,44.7,39.3,44.7,39.3,44.7L39.3,44.7z"/>
	<path fill="#AF882E" d="M37.2,45.1c-0.1,0.3,0.3,0.2,0,0.6C37.4,45.4,37.8,44.9,37.2,45.1z"/>
	<path fill="#AF882E" d="M38.3,44.9c0,0.1,0.2,0.1,0.1,0.2c0,0,0.4-0.5,0.4-0.5C38.9,44.6,38.3,44.9,38.3,44.9z"/>
	<polygon fill="#AF882E" points="39,44.4 38.9,44.6 39,44.5 	"/>
	<path fill="#AF882E" d="M40.6,43.7C40.5,43.7,40.5,43.8,40.6,43.7L40.6,43.7z"/>
	<polygon fill="#AF882E" points="44,40.1 44.1,40.1 44.1,40.1 	"/>
	<path fill="#AF882E" d="M42,42.3c-0.3,0.2-0.5,0.4-0.8,0.6c0,0,0-0.1-0.1,0c-0.2,0.1-0.3,0.3-0.3,0.4c0.1-0.1,0.3-0.3,0.4-0.4
		c0,0.1,0,0.3,0.3,0.1C41.6,42.8,41.8,42.6,42,42.3z"/>
	<path fill="#AF882E" d="M42.9,41.8c-0.1,0.1-0.3,0.1-0.4,0.2C42.7,42,43,41.9,42.9,41.8z"/>
	<path fill="#AF882E" d="M40.7,43.7L40.7,43.7C40.8,43.8,40.7,43.8,40.7,43.7z"/>
	<path fill="#AF882E" d="M40.6,43.7c0,0,0.1,0,0.1,0c0.1-0.1,0.1-0.2,0.2-0.3C40.7,43.5,40.6,43.6,40.6,43.7z"/>
	<path fill="#AF882E" d="M43.2,39.7c0.4-0.6,0.4-0.4,0.8-0.6c-0.4,0.1,0.2-1-0.3-1.2l-0.2,0.6c-0.1,0,0-0.3-0.2-0.2
		c0.2,0.2,0,0.9-0.6,1.1c-0.2,0.5,0.6,0.8,1.3,0.7c-0.1-0.1-0.1-0.1,0.1-0.7C43.9,39.5,43.1,40.2,43.2,39.7z"/>
	<path fill="#AF882E" d="M43.9,40.7c0.2-0.4,0.2-0.5,0.1-0.6L43.3,41l0-0.1l-0.1,0.2c0,0,0,0,0,0c-0.2,0.1-0.4,0.4-0.7,0.8
		c0.3-0.2,0.1,0,0,0.1l0,0h0c0,0,0.7-0.9,0.7-0.9C43.4,40.9,43.6,40.9,43.9,40.7z"/>
	<path fill="#AF882E" d="M42.5,42C42.4,42,42.4,42,42.5,42L42.5,42c0-0.1-0.1-0.1-0.1-0.1c0-0.3,0.2-0.8-0.2-0.8
		c-0.5,0.5-0.2,0.5-0.4,0.9c0.8-0.8-0.1,0.3,0.6-0.1c-0.1,0.2-0.3,0.3-0.4,0.5C42.2,42.2,42.4,42.1,42.5,42L42.5,42L42.5,42L42.5,42
		z"/>
	<path fill="#AF882E" d="M37.3,44.3C37.4,44.3,37.4,44.3,37.3,44.3C37.4,44.2,37.5,44.2,37.3,44.3z"/>
	<path fill="#AF882E" d="M37.6,44.5c0.3-0.1,0.8-0.2,1-0.1c-0.2-0.1-0.4-0.2-0.8-0.2C37.8,44.3,37.8,44.4,37.6,44.5
		c-0.3,0-0.1-0.2-0.2-0.2C37.3,44.5,37.1,44.8,37.6,44.5L37.6,44.5z"/>
	<path fill="#AF882E" d="M40.2,42.5l0.1,0.1c-0.4,0.3-0.2,0.3-0.2,0.5c0,0,0.6-0.7,0.6-0.7L40.2,42.5z"/>
	<polygon fill="#AF882E" points="44.4,40.4 44.4,39.7 44.3,40.1 	"/>
	<polygon fill="#AF882E" points="45.2,38.9 45,39.1 45.1,39.3 	"/>
	<path fill="#AF882E" d="M14.7,4.9l0-0.1C14.7,4.8,14.7,4.9,14.7,4.9z"/>
	<path fill="#AF882E" d="M45.6,10.1l-0.2,0.3c0.2,0.2,0.3,0.4,0.3,0.6C45.7,10.5,45.8,9.9,45.6,10.1z"/>
	<path fill="#AF882E" d="M28.5,2.5L28,2.2C28.1,2.3,28.3,2.4,28.5,2.5z"/>
	<path fill="#AF882E" d="M6.6,12.4l0.1,0.4C6.9,12.5,6.7,12.5,6.6,12.4z"/>
	<path fill="#AF882E" d="M49.4,27.6c0.2-0.3,0.2-0.6,0.3-0.8C49.5,27.2,49.2,27.5,49.4,27.6z"/>
	<path fill="#AF882E" d="M12.7,42.8C12.7,42.8,12.7,42.8,12.7,42.8C12.8,42.8,12.7,42.8,12.7,42.8z"/>
	<path fill="#AF882E" d="M21.8,48.9c-0.1,0-0.3,0-0.5,0C21.4,48.9,21.5,48.9,21.8,48.9z"/>
	<path fill="#AF882E" d="M47.5,34.9L47.5,34.9c0-0.1,0.1-0.2,0.1-0.3C47.6,34.7,47.6,34.8,47.5,34.9C47.5,34.9,47.5,34.9,47.5,34.9
		C47.4,35.2,47.5,35,47.5,34.9z"/>
	<path fill="#AF882E" d="M47.3,35.2c0.1-0.1,0.1-0.2,0.2-0.3C47.4,35,47.4,35.1,47.3,35.2z"/>
	<path fill="#AF882E" d="M47.4,35.2c0,0.1-0.1,0.1-0.1,0.2C47.3,35.5,47.3,35.5,47.4,35.2z"/>
	<path fill="#AF882E" d="M2.3,27.8C2.4,28,2.4,27.9,2.3,27.8C2.3,27.8,2.3,27.8,2.3,27.8z"/>
	<path fill="#AF882E" d="M38.8,7.5c0.5,0,0.6,0.1,0.8,0.4l0,0l0,0l0,0l0.3-0.8L38.8,7.5z"/>
	<path fill="#AF882E" d="M4.9,37.7C4,38,5.3,39,5.2,39.8c0-0.6,1.3,1.5,1.3,0.5c0.3,0.5-0.2,0.2-0.1,0.7c1.2,0.8,2,2.3,3.5,3.3
		c0.1-0.1,0-0.4,0.4-0.3l0.4,1c0.3,0.1,0.6-0.3,0.9,0.3c0-0.1-0.1-0.3,0.2-0.2c2.6,2.3,6.2,2.6,9.4,4c-0.4-0.3-0.1-0.3,0.2-0.2
		c-0.2-0.1,0-0.3,0-0.4c0,0,1.4,0.6,1.4,0.6c0.3-0.4,1.5,0,1.7-0.4l-0.4,0.1c0.6-0.4-0.8-1.1-0.6-1.7c-0.7,0.6-1.5-1-2.6-0.3
		c-0.2-0.2,0.2-0.2,0.1-0.3c-0.3,0.2-0.6,0.2-1.1,0l0.1,0c-1.6-0.3-2.2-0.8-3.7-1.6l0,0.3c-0.3-0.2-0.4-0.3-0.5-0.5
		c-0.6,0.2,1,0.5,0.4,0.8c-0.2-0.7-2.5-1.2-2.4-2c-0.5-0.3,0,0.4-0.5,0.1l0-0.2l-0.3,0.1c-0.3-0.2-0.3-0.6-0.3-0.7
		c0.1,0.1,0.2,0.1,0.3,0.2c-0.3-0.5-1.2-0.8-1.3-0.9l0.4,0.4c-1.4-0.8-2.7-2.3-4-3.2l0,0.2c-1-0.7-0.5-0.8-1.4-1.8l0.1,0
		c-0.3-0.1-0.5-0.4-0.7-0.7c0.3,0.2-0.1-0.7,0.3-0.4c-0.9-1-0.5-0.4-1.4-0.9l0.1-0.3C4.5,35,4.3,35,4,34.4c0.4,0.4,0.1-0.5,0.6-0.1
		c-0.2-1.4-1.3-1.7-0.8-2.5c-0.8-0.4,0.1,1.2-0.2,1C3.5,33.1,3,32.4,2.9,32c-0.2-0.4,0.6-1,0.2-2c0,0.1,0.1,0.1,0.1,0.2
		c0.1-0.4-0.5-0.7-0.3-1.3c-0.4-0.2-0.1-0.7-0.6-0.6l0.3,1c-0.2-0.5-0.9-1-0.8-2c0.1,0.1,0.3,0.3,0.4,0.5c0.1-0.3-0.2-0.5-0.1-0.8
		c0.5,0,0.3,1.2,0.8,1.8c0.2-0.3-0.5-1.1,0-0.9c-0.8-0.3-0.1-1.1-0.6-1.8l0.3,0c-0.1-0.1-0.2-0.3-0.2-0.6l0.4,0.4
		c-0.4-0.6,0.2-1.2,0.1-1.7c0,1.2-0.4,0.3-0.6,0.8C2,23.5,3.1,24,3.1,22.6c0,0.3-0.2,0.7-0.3,0.4C2.8,22.6,3,22.2,3.1,22
		c0.1-1.1-0.3,0.1-0.4-0.4c0.4-0.3-0.1-0.6-0.1-1.1l0.3,0c0.4-1.2-0.6-0.5-0.1-1.5l0.3,0.6l0-0.6l0.3,0.2c-0.1-0.7,0-0.9,0.3-1.4
		c-0.3,0.1-0.5-0.2-0.3-0.8c0.3-0.3,0.2,0.3,0.4-0.5c0.1,0.2,0.3,0.5-0.1,0.7c0.1,0.1,0.1,0.2,0.2,0.3c0.3-0.3,0.4-0.9,0.5-1.2
		c0,0.1-0.1,0.2-0.2,0.3c0,0,0-1.2,0-1.2c0.2-0.1,0.2,0,0.2,0.2c0.1-0.2,0-0.4,0.1-0.7C4.8,15.2,5,15.2,5,15.7l0.2-1.1
		c0.1,0,0.5-0.4,0.5-0.2C6.1,14,6,13,6.6,12.4l0,0l0-0.1l0,0c0-0.1,0-0.1,0.1-0.3c0.5-0.6,1.1-0.9,1.4-1.8l0.7-0.1
		c0.4-0.6-0.9,0.1-0.2-0.8c0.4-0.7,0.5,0,0.8-0.1C9.4,8.8,9.6,8,10.4,7.8C10.2,8,10.1,8.1,9.9,8.3l0.6-0.2c-0.2,0.8-0.7,1-0.1,0.9
		C9.9,8.2,12,7.5,11.6,6.8L12,6.7c-0.1,0.1-0.1,0.1-0.2,0.2c0.8-0.1,0.1-0.8,1-1.2c0.3-0.1,0.6-0.1,0.4,0.1l0.5-0.6
		c0.2-0.1,0.2,0,0.1,0.1c0.2-0.1,0.9-0.5,0.9-0.5l0,0C14.8,4.5,15,4.2,15.2,4c0.3,0-0.1,0.1,0,0.2c0,0,0.5-0.5,0.5-0.5
		c0.3,0.1-0.1,0.5-0.5,0.7C16.1,5,15.6,4,16.9,4l-0.5,0.3c0.5,0.3,0.9,0,1.6,0c-0.2-0.1-1.5-0.2-0.9-0.7c0.2,0,0.4-0.1,0.7-0.4
		c0.1,0.3,0.4,0.1,0.8,0l0.1,0.4c0.4-0.2,0.3-0.4,0.6-0.7c0.5-0.1,0.7,0.2,0.9,0.4c0.8-0.1-0.7-0.4,0.3-0.6c0.7,0.1,1.2-0.3,2-0.5
		c0.5,0.1-0.1,0.3,0.1,0.4L23,2.3c0.1,0,0.1,0.1,0.1,0.2c0.4-0.2,0-0.4,0.6-0.6c0.2-0.5,1.2,0.6,2,0.2c0.2,0.1-0.1,0.2-0.1,0.4
		c1-0.3,0.9-0.2,1.7-0.5L28,2.2c-0.5-0.4,0.2-0.6,0.9-0.8c-0.2-0.2-0.3-0.3-0.4-0.4c0,0,1-0.1,1,0c0.1,0.1,0,0.2-0.2,0.3l0.2,0
		c0.3,0.2,0.1,0.4-0.2,0.6L29,1.5c0.1-0.1,0.2-0.1,0.3-0.2c-0.1,0-0.3,0-0.4,0.1L29,1.5c-0.3,0.2-0.5,0.4-0.5,0.7
		c0.1,0,0.2-0.1,0.3-0.1c-0.1,0.1-0.1,0.1-0.1,0.2c0,0,0.1,0,0.3-0.1l0.1,0.5l0.1-0.2l1.1,0.6c1-0.3,1.9-0.6,3.3-0.3
		c-0.4,0.2-0.3,0.5-0.4,0.8c-0.2-0.5-1.1-0.2-1.7-0.5c0.3,0.2,0.2,0.3,0.1,0.3l1.3,0.1c-0.1,0.3,0.2,0.3,0.4,0.6c0-0.7,1,0,1.6,0.1
		c-0.1,0.2-0.3,0.3-0.8,0c0.4,0.7,1.2-0.3,1.6,0.4c-0.1-0.1-0.2-0.1-0.3-0.1c0.4,0,1.1,0.6,0.8,0.7l-0.1-0.1c0.9,0.5,2.6,1.8,3,1.4
		c0,0.1-0.5,0.4-0.6,0.5c0,0,0.6-0.1,1.3-0.1l1.3,0c-0.4,0.2-0.7,1.4-1.5,1.1c0.1,0.2,0.3,0.4,0.8,0.7c-0.1-0.2,0.2-0.8,0.4-0.6
		c0.1,0.8,0.1,0.5,0.3,1.4c-0.1-0.3,0.6-0.5,0.9-0.2c-0.1,0-0.5,0.5-0.7,0.4c0,0,1.2,0.3,1.2,0.3c-0.3-0.1-0.5,0.3-0.5,0.6
		c0-0.2,0.5,0.7,0.7,0.8L42.5,11c0.6,0.9,1.5,0.3,2.1,1.3c-0.2,0-0.9,0.2-0.7,0.7c0.5,0,2.1,0.1,2.8,1l-0.1,0.3c0,0,0.6,0.6,0.6,0.6
		c-0.7-0.3-2.4-1-3-1.4c0,0.4-0.2,0.2,0.1,0.8c-0.1,0.3-0.4-0.2-0.5-0.3l0.5,1.3c0.4-0.2,0.8,0.8,1.1,0.6c0,0-1-1.2-1-1.2
		c0.3-0.2,1.5,0.3,1.8,1.3c-0.1,0.3-0.8,0.1-0.9,0.2c0.2,0.1,0.6,0.8,0.5,0.9l-0.4-0.3c0.1,0.6,0.9,0.7,0.7,1.5
		c0,0.2-0.3,0.8-0.1,0.8c0.4-0.5,1.8-1,2.2-0.8c0,0.1-0.1,1.4-0.3,1.7c-0.3,0.5-1-0.4-1.2,0c0.1,0,0.3,0.2,0.4,0.3
		c-0.1,0.3-0.4,0-0.2,0.5c0.4,0,0.2,1.1,0.4,0.2c0.2,0.5,0,0.6,0.1,1.2c0.3-0.2,1,0.5,1.2,1c-0.1,0-0.3,0.1-0.3,0.2v0c0,0,0,0,0,0
		c0.1,1.1-0.3,1.7-0.3,2.8c-0.1,0.1-0.3,0.6-0.4,0.4c0.1,0.2,0.2,0.3,0.1,0.6c-0.5,0.6,0-0.7-0.5-0.3c0.2,0.1,0.2,0.8,0.3,1.3
		c0.4-0.1,0.2-1,0.1-1.5c0.5,0,1,0.9,1,2.1c0,0.9-0.4,0.3-0.4,0.5c-0.5,1.6,0.6,1.7-0.2,2.9c-0.5,0.4-0.6-0.2-0.9-0.1
		c0.1-0.7,0.6-1,0.6-1.5L47.4,31c-0.1-0.3,0-0.7,0.1-1c-0.4,0.4-0.8,2.7-1.6,3.7c0,0.2,0,0.7,0.2,0.5l0.1-0.4c0.4-0.2,0,0.9,0.4,0.4
		c-0.1,0.6,0,1.3-0.6,1.9l-0.4-0.1c0.1,0,0.5-0.3,0.5-0.6c0,0.4-1.1,0.8-0.8,1.3l0.5-0.3c-0.1,0.6-0.1,1.4-0.6,1.9
		c0.5-0.1,0.1-0.2,0.7-0.3c-0.7,0.1,1-1.6,0.1-1.3c0.7-0.2,0.7-0.7,1.4-1.1c-0.1,0-0.3,0.1,0-0.4c0,0,0-0.1,0-0.2l0,0l0,0
		c0,0,0,0,0,0c-0.1,0.1-0.2,0.2-0.3,0.2c-0.1-0.4,0.3-1.3,0.3-1.6c0.2-0.3,0.1,0.2,0.3,0.1l0-0.5c0.3,0.1,0.7-0.7,0.6,0.1l0.3-0.7
		c0.3-0.4,0.6-0.9,0.6-1.3c0.1-0.3-0.1-1,0.1-0.6l0.1-1.2l0.1,0c0.3-1.2,0-2.4,0.5-3.7c0,0.3,0.1,0.5,0,0.8c0.2-0.3,0.2-0.7,0-1
		c0,0.1,0,0.1-0.1,0.2c-0.1-0.4-0.1-0.8,0-1.5l0.2-0.1c-0.1-0.5,0.2-1.5-0.1-1.8c0.7-0.6-0.1-2.5-0.2-3.4l-0.3,0
		c-0.1-0.6-0.4-1.2-0.7-1.9l-0.3,0.1c-0.4-0.6-0.3-1.6-0.7-2.6c0.1,0,0.2,0.3,0.2,0.5c0.2-1.4-1.5-2.2-1.6-3.4
		c-0.2-0.2-0.3-0.4-0.4-0.6l0.1,0.1l-0.1-0.1c0-0.1-0.1-0.3-0.1-0.4c0,0.1,0,0.3,0,0.4c-0.1-0.2-0.3-0.4-0.6-0.7l0.2-0.3
		c0,0,0,0,0-0.1c-0.1-0.3-0.3-0.1-0.4,0.1c-0.1-0.1-0.3-0.2-0.4-0.2c0.2-0.5-0.6-0.6-0.4-1.1c-0.3,0-1-1-1.6-0.9
		c-0.2-0.3-0.4-0.6-0.7-0.7l0.2-0.4c0,0-0.9-0.2-0.9-0.2c-0.2-0.5-0.2-0.7,0.3-0.6c-1.1-0.4-0.8-0.5-1.8-0.8l0.2-0.2
		c-0.3-0.2-0.9-0.2-1-0.5c-0.3-0.9-3.1-2.1-4.7-3.2c0.1,0.8-0.7-0.6-1-0.1c0-0.2-0.3-0.4,0.1-0.4c-1-0.2-1.4-0.8-2.2-0.5
		c-0.1-0.2,0.3-0.2,0.2-0.3c-0.1,0-0.4,0.1-0.4-0.1c-0.1-0.1,0.2-0.1,0.4-0.1c-1-0.2-1.2,0.3-1.4,0.7c-0.4-0.4-0.7-0.4-1.1-0.1
		c-0.1-0.2-0.4-0.4,0.2-0.4c-0.3-0.1-2.1-0.5-2.2-0.1c-0.1-0.1-0.5-0.1-0.6,0c-0.8-0.1-0.9-0.1-1.6-0.1l0.2,0.1
		c-0.3,0.5-0.6,0.1-1.3,0.2l0,0c-1.5-0.2-0.6,0.2-2-0.1l0.1,0.3c0,0.7-1.3-0.2-2.1,0.2l0.3,0.1c-0.4,0.3-1.4-0.5-1.9-0.5
		c-0.1,0,0.1-0.1,0.3-0.2c-1.3,0,0,0.4-0.9,0.7c-0.2-0.2,0-0.6-0.6-0.4c-0.4,0-1.4,1.3-2.3,1.2c0.2,0.1,0.5,0.1,0.1,0.4
		c-0.5,0.3-1.8,0.2-2.1,1c-0.1,0-0.1,0-0.2,0c0.1-0.1,0.2-0.2,0.1-0.3C12.2,3,12.2,3,12.2,3.1c-0.3,0.4-1.2,1-1.3,1.4
		C10,3.9,8.9,6.7,8.3,6L7.3,7.1l0-0.1C6.5,7.6,6.5,8,6.4,8.4C6.2,8.6,6.3,8.4,6.2,8.3c-1.1,0.9-1.1,1.1-1.4,2.3l-0.3-0.1
		C4.5,10.9,3,12,2.7,13.4c0,0-0.1-0.1-0.1-0.2c-0.4,1.5-2.3,3.1-1.3,4c0,0,0,1,0,1c0.4-1.2,0.4,0.3,0.7-0.2c0,0.5-0.6,1.2-0.5,0.6
		l0.1-0.1C1,18.3,1,20.1,0.6,20c-0.4,2.5-0.8,5.1-0.5,7.5l0.4-0.3c0,0,0.1,0.8,0.1,0.8c-0.1,0.2-0.3,0.4-0.4-0.3
		c-0.2,0.4,0.4,1,0.5,1c0,1.2-0.6-0.4-0.6,0l0.1,0.5l0-0.1c0.3,0.4,0.4,0.4,0.6,1.1c0,0.5-0.2,0.3-0.2,0.5c0,0,0,0.1,0.1,0.3L1,32
		l0.2-0.5c0.3,0.4,0.3,1,0.5,0.4c-0.2,0.4,0.1,1.4,0.5,2.3c0.4,0.9,0.9,1.7,0.9,1.9c0.5,0.5,0.9,1,1.3,1.7
		C4.3,37.5,4.6,37.1,4.9,37.7z M48.4,32.2L48.4,32.2C48.6,31.8,48.5,31.9,48.4,32.2z M42.6,8.2c0,0-0.1,0-0.1,0
		C42.5,8.1,42.5,8,42.6,8.2z M30.1,2.3c-0.2,0.1-0.3,0-0.5-0.2C29.8,2.1,29.9,2.2,30.1,2.3z M17.1,3.7c-0.1,0.1-0.4,0.4-0.5,0.3
		C16.6,3.6,16.8,3.7,17.1,3.7z M0.8,30.7l0-0.2C1,30.9,0.9,30.8,0.8,30.7z"/>
	<path fill="#AF882E" d="M28.5,2.2c-0.1,0-0.1,0.1,0,0.2C28.5,2.3,28.5,2.2,28.5,2.2z"/>
	<path fill="#AF882E" d="M46.5,20.3c0-0.2,0.1-0.3,0.1-0.3C46.5,19.9,46.5,20,46.5,20.3z"/>
	<path fill="#AF882E" d="M46.6,36.8c-0.1,0.2-0.2,0.3-0.3,0.4c0.1,0,0.2,0,0.1,0.1L46.6,36.8z"/>
	<path fill="#AF882E" d="M42.1,40.1c0,0.1-0.1,0.1-0.1,0.2l0.1,0.1C42.3,40.1,42.4,39.9,42.1,40.1z"/>
	<path fill="#AF882E" d="M45.3,37.3c-0.2-0.1-0.3,0.3-0.5,0.6l0-0.1C45.1,38.1,45.2,37.7,45.3,37.3z"/>
	<path fill="#AF882E" d="M44.7,37.9c-0.1,0.1-0.1,0.2-0.2,0.3C44.6,38.4,44.6,38.1,44.7,37.9z"/>
	<path fill="#AF882E" d="M47.7,34.1c-0.1,0.1,0.3,0.2,0.1,0.3C48,34.7,48,33.1,47.7,34.1z"/>
	<polygon fill="#AF882E" points="44.7,36.8 44.4,37.1 44.8,37.2 	"/>
	<path fill="#AF882E" d="M46,34.7l-0.3,0.5c0.1,0,0,0.1,0,0.2C45.9,35,46.1,34.7,46,34.7z"/>
	<path fill="#AF882E" d="M45.7,35.4c-0.1,0.2-0.2,0.3-0.2,0.4C45.6,35.7,45.7,35.5,45.7,35.4z"/>
	<polygon fill="#AF882E" points="45.1,35.9 44.8,36.4 44.9,36.3 	"/>
	<path fill="#AF882E" d="M48.1,28.6V28c-0.1-0.1-0.2,0.1-0.2,0.3C47.9,28.5,47.9,28.7,48.1,28.6z"/>
	<path fill="#AF882E" d="M46.8,30.3c0.1-0.1,0.2-0.1,0.3-0.2L46.7,30L46.8,30.3z"/>
	<path fill="#AF882E" d="M47.1,28.5c-0.1-0.1-0.2-0.9-0.3-0.2C47,28.4,46.9,29.1,47.1,28.5z"/>
	<polygon fill="#AF882E" points="47.4,19.1 47.4,19.2 48,19.1 	"/>
	<path fill="#AF882E" d="M42.7,12.2c0.2,0.7,0.4-0.1,0.6,0.6c0.2,0.1-0.2-0.5,0-0.5C43,12.1,43,11.8,42.7,12.2z"/>
	<path fill="#AF882E" d="M43.4,12.4c0.1,0,0.1,0.1,0.2,0.1C43.5,12.4,43.4,12.4,43.4,12.4z"/>
	<polygon fill="#AF882E" points="23.6,49.4 24.1,49.5 23.8,49.3 	"/>
	<path fill="#AF882E" d="M24.7,49.4l0.3-0.4c-0.1,0-0.3,0-0.4-0.1L24.7,49.4z"/>
	<path fill="#AF882E" d="M18.5,4c-0.1-0.1-0.2-0.1-0.4,0l0.4,0.1L18.5,4z"/>
	<polygon fill="#AF882E" points="12.7,6.1 12.9,6.3 13,6.3 	"/>
	<path fill="#AF882E" d="M9.8,9.4C9.5,9.8,9,9.7,9.3,9.9C9.5,9.8,9.6,9.6,9.8,9.4z"/>
	<path fill="#AF882E" d="M10.8,31.9l0.1-0.1c0.3-0.3,0.5-0.5,0.8-0.7l0,0l0,0c0.2-0.2,0.4-0.4,0.7-0.6l0,0l0.2-0.2c0,0,0,0,0,0l0,0
		c0,0,0-0.1,0.1-0.1c0.1-0.1,0.2-0.1,0.3-0.2c0,0,0,0,0,0c0,0,0,0,0,0c0.1-0.1,0.2-0.2,0.3-0.2l0,0l0,0c1.8-1.3,3.8-2.1,5.9-2.5
		c0,0,0,0,0.1,0c0,0,0,0,0,0c0.2,0,0.3,0,0.5-0.1l0.2,0l0.7,0l-0.2,0c0.1,0,0.1,0,0-0.1c0.1,0,0.3,0,0.4-0.1c-0.2,0-0.4,0-0.6,0
		c-0.1,0-0.2-0.1-0.2-0.1c-0.3,0.1-0.7-0.1-1.2,0l0-0.1c-0.1,0-0.2,0.1-0.5,0.1l0,0c-0.7,0-1,0.1-1.8,0.2l0.1,0c-0.2,0-0.2,0-0.3,0
		c-0.2,0.1,0.5-0.1,0.3,0c-0.3-0.1-1.2,0.2-1.4,0.2c-0.3,0.1,0.1,0-0.2,0.1l-0.1,0L15,27.5c-0.2,0-0.3,0-0.3,0l0.2-0.1
		c-0.2,0-0.6,0.2-0.7,0.2l0.3-0.1c-0.7,0.3-1.5,0.5-2.2,0.9l0.1,0c-0.5,0.3-0.4,0.2-0.9,0.4l0,0l-0.4,0.2c0.1-0.1-0.3,0.1-0.1,0
		c-0.5,0.3-0.2,0.2-0.5,0.4l-0.1,0c-0.1,0.1-0.1,0.1-0.3,0.3c0.2-0.1-0.2,0,0-0.1c-0.6,0.2-0.7,0.6-1,0.6c-0.2,0.2,0.5-0.3,0.3-0.2
		c0.1,0-0.1,0.2-0.3,0.3c-0.2,0.1-0.3,0.1-0.7,0.4l0.1-0.1c-0.2,0.1-0.3,0.2-0.5,0.4l-0.2,0.3L8,31.1c-0.2,0.2-0.3,0.4-0.7,0.7
		l0.2-0.2l-0.3,0.2c0-0.1,0.4-0.4,0.6-0.6c-0.1,0.1-0.4,0.4-0.3,0.2c-0.1,0.2-0.4,0.3-0.6,0.6l0,0l-0.2,0.2L6.8,32
		c-0.1,0.1-0.3,0.2-0.4,0.4c0.1-0.1,0,0.1,0.1,0c-0.3,0.3-0.3,0.3-0.5,0.4c0.4,1,1,2,1.5,2.9l0,0c0.1-0.1,0.1-0.2,0.2-0.3l0,0
		c0.3-0.3,0.5-0.6,0.7-0.9l0.1-0.1l0.1-0.2c0.2-0.2-0.2,0.3,0,0.1c0,0,0.2-0.3,0.3-0.5c-0.1,0-0.3,0.3-0.4,0.5c0,0,0-0.1,0-0.2
		c0.3-0.4,0.6-0.8,1-1.2C9.9,32.7,10.4,32.2,10.8,31.9z"/>
	<path fill="#AF882E" d="M20.8,26.8C20.6,26.8,20.7,26.8,20.8,26.8L20.8,26.8z"/>
	<path fill="#AF882E" d="M6.5,32.4c0,0-0.1,0.1-0.2,0.2C6.3,32.5,6.4,32.4,6.5,32.4z"/>
	<polygon fill="#AF882E" points="9.7,33.1 9.8,33 9.7,33.1 	"/>
	<path fill="#AF882E" d="M9.3,33.7C9.3,33.7,9.4,33.5,9.3,33.7C9.3,33.7,9.1,34,9.3,33.7z"/>
	<polygon fill="#AF882E" points="20.4,27.3 20.3,27.3 20.2,27.3 	"/>
	<polygon fill="#AF882E" points="20.8,27.2 20.6,27.2 20.7,27.3 	"/>
	<path fill="#AF882E" d="M10.5,37.8l0-0.1C10.4,37.8,10.5,37.8,10.5,37.8z"/>
	<path fill="#AF882E" d="M13.2,33.1c0,0-0.1,0.1-0.2,0.2C13.1,33.2,13.2,33.2,13.2,33.1z"/>
	<path fill="#AF882E" d="M17.4,32.8c0.3-0.5,0.7-1,1.1-1.4l0,0l0.1-0.2c0,0,0,0,0,0l0,0c0,0,0-0.1,0-0.1c0.1-0.1,0.1-0.2,0.2-0.2
		c0,0,0,0,0,0c0,0,0,0,0,0c0.1-0.1,0.2-0.2,0.2-0.3l0,0l0,0c0.6-0.6,1.1-1.1,1.7-1.6c1.2-0.9,2.5-1.5,3.9-1.8l0.4,0l-0.2,0
		c0,0,0,0,0.1,0c0.1,0,0.2-0.1,0.4-0.1c-0.2,0-0.3,0-0.5,0c-0.1,0-0.2-0.1-0.2-0.1c-0.2,0.1-0.7-0.2-1.1,0l0-0.1
		c-0.1,0-0.2,0.1-0.5,0.1l0,0c-0.7,0-0.9,0.1-1.7,0.2l0.1,0c-0.2,0-0.2,0-0.3,0c-0.2,0.1,0.4-0.1,0.3,0c-0.2-0.1-1.1,0.3-1.2,0.3
		c-0.2,0.1,0.1,0-0.1,0.1l-0.1,0l0,0.1c-0.2,0-0.2,0-0.3,0l0.1-0.1c-0.2,0-0.5,0.3-0.6,0.3l0.2-0.1c-0.4,0.2-0.6,0.3-1,0.5
		c-0.3,0.2-0.6,0.4-0.9,0.6l0.1,0c-0.4,0.3-0.4,0.2-0.8,0.5l0,0l-0.3,0.3l-0.1,0c-0.4,0.4-0.2,0.2-0.4,0.5l-0.1,0
		c-0.1,0.1-0.1,0.1-0.3,0.3c0.1-0.2-0.2,0.1,0-0.1c-0.5,0.3-0.6,0.6-0.8,0.7c-0.1,0.2,0.4-0.3,0.3-0.2l-0.2,0.3
		c-0.1,0.1-0.3,0.1-0.6,0.5l0.1-0.1c-0.1,0.1-0.2,0.3-0.4,0.4l-0.1,0.3l0.3-0.3c-0.1,0.2-0.2,0.4-0.5,0.7l0.1-0.2l-0.2,0.3
		c0-0.1,0.3-0.4,0.4-0.6L14,32.1c0,0.2-0.3,0.3-0.4,0.6l0,0l-0.1,0.2l0-0.2c-0.1,0.1-0.2,0.3-0.3,0.4c0.1,0,0,0.1,0.1,0
		c-0.3,0.5-0.3,0.2-0.7,0.8l0.2-0.1L12.6,34c-0.2,0.4,0.1,0,0,0.1c-0.1,0.1-0.1,0.2-0.2,0.4l0,0c-0.3,0.4,0,0.2-0.3,0.5l0.1-0.2
		L12,35.1l0-0.1c-0.1,0.2-0.1,0.3-0.3,0.5c0.1,0,0.1,0.1,0,0.3c-0.1,0.1,0-0.1-0.1,0.2l0.1-0.3l0-0.1l-0.3,0.5l0.1-0.1l-0.2,0.4
		l0-0.1l-0.1,0.3c0,0-0.1-0.1,0-0.2L11,36.8l-0.1,0.1c-0.1,0.2-0.2,0.6-0.4,0.9l0,0.1c-0.1,0.3-0.3,0.5-0.4,0.9l0,0
		c1.1,1.1,2.3,2.2,3.6,3l0.1-0.4l-0.1,0.2c0.1-0.4,0-0.5,0.1-0.9c0,0.1,0.1,0.2,0.2,0c0-0.1-0.1-0.2-0.1-0.4c0-0.2,0.1-0.3,0.2-0.5
		c0,0.2,0,0.5,0,0.6c0.1-0.1,0.1,0,0.1-0.3l0,0.2l0.2-0.5l0-0.4l-0.1,0.6c-0.1,0-0.1-0.4,0.1-0.8l0.1,0.1l0.1-0.4l0,0.2
		c0.1-0.2,0-0.4,0.2-0.6l0.2-0.3l-0.2,0c0-0.1,0.1-0.1,0.1-0.2l0,0l0-0.1l0,0c0-0.1,0.1-0.2,0.1-0.3l0.1,0.1l0-0.1
		c0.1-0.1,0,0.1,0.1-0.1c0-0.1,0.2-0.4,0-0.1c0.1-0.2,0.1-0.2,0.2-0.4c0,0,0-0.1,0-0.2c0-0.1,0.1-0.2,0.1-0.2l0,0
		c0.2-0.3,0.3-0.6,0.5-1l0.1-0.1l0.1-0.2c0.2-0.2-0.1,0.2,0,0.1c0,0,0.1-0.3,0.2-0.5c-0.1,0-0.2,0.4-0.3,0.5c0,0,0-0.1,0-0.1
		c0.2-0.4,0.4-0.8,0.6-1.1c0.2-0.2,0.6-0.9,0.8-1.2L17.4,32.8z"/>
	<polygon fill="#AF882E" points="10.5,37.8 10.5,37.8 10.5,37.8 	"/>
	<polygon fill="#AF882E" points="16.7,34.1 16.6,34.2 16.6,34.2 	"/>
	<path fill="#AF882E" d="M16.3,34.8C16.3,34.8,16.4,34.5,16.3,34.8C16.3,34.8,16.2,35.1,16.3,34.8z"/>
	<path fill="#AF882E" d="M13.9,41c0,0.2-0.1,0.3,0,0.2c0.1-0.3,0-0.1,0.1-0.3L13.9,41z"/>
	<polygon fill="#AF882E" points="25.1,27.3 25,27.3 24.9,27.3 	"/>
	<polygon fill="#AF882E" points="25.4,27.3 25.3,27.3 25.3,27.3 	"/>
	<polygon fill="#AF882E" points="22.4,44.1 22.2,44.1 22.4,44.4 22.4,44.1 22.4,44.1 22.4,44.1 	"/>
	<path fill="#AF882E" d="M20.4,34c0,0,0,0.1-0.1,0.2C20.3,34.1,20.4,34.1,20.4,34z"/>
	<path fill="#AF882E" d="M17.9,41.4L17.9,41.4C17.9,41.4,17.9,41.4,17.9,41.4L17.9,41.4z"/>
	<path fill="#AF882E" d="M25.4,32.7l0-0.2c0,0,0,0,0,0l-0.2,0l-0.1-0.4c0,0,0,0,0,0c0-0.1,0.3-0.2,0.3-0.3l0.1,0l0.1,0
		c0.4-0.7,0.7-1.3,1.1-1.8c0.9-1.3,1.9-2.1,2.9-2.6l0.2,0l-0.1,0l0,0c0.2-0.1,0.3-0.1,0.5-0.2c-0.2,0-0.3-0.1-0.5-0.1
		c-0.1,0-0.1-0.1-0.1-0.1c-0.2,0.1-0.6-0.3-1-0.1l0-0.1c-0.1,0-0.2,0.1-0.4,0.1l0,0c-0.6,0-0.8,0.1-1.5,0.3l0.1,0l-0.2,0.1l0.3,0
		c-0.2,0-0.9,0.4-1.1,0.4c-0.2,0.1,0.1,0-0.1,0.1l-0.1,0l0,0.1l-0.2,0.1l0.1-0.1c-0.2,0.1-0.4,0.3-0.5,0.3l0.2-0.1
		c-0.5,0.3-1.1,0.8-1.4,1.3l0,0c-0.3,0.3-0.3,0.2-0.6,0.6l0,0L23,30.2l-0.1,0c-0.3,0.4-0.1,0.2-0.2,0.5l-0.1,0c0,0.1,0,0.1-0.2,0.3
		c0.1-0.2-0.1,0.1,0-0.1c-0.4,0.4-0.3,0.7-0.6,0.8c0,0.2,0.3-0.3,0.2-0.2l-0.1,0.3c-0.1,0.1-0.3,0.2-0.5,0.5l0-0.1l-0.2,0.4L21.1,33
		l0.2-0.3c-0.1,0.2-0.1,0.4-0.3,0.7l0.1-0.2l-0.2,0.3c-0.1-0.1,0.2-0.4,0.3-0.6L21,33c0,0.2-0.2,0.3-0.3,0.6l0,0l-0.1,0.2l0-0.2
		c0,0.1-0.1,0.3-0.2,0.4c0-0.1,0,0.1,0.1,0c-0.2,0.5-0.2,0.2-0.5,0.8l0.1-0.1L20,34.9c-0.2,0.4,0.1,0,0,0.1
		c-0.1,0.1-0.1,0.2-0.1,0.4l0,0c-0.2,0.4,0,0.2-0.1,0.5l0-0.2l-0.1,0.2l0-0.1c-0.1,0.2-0.1,0.3-0.2,0.5c0.1,0,0.1,0.1,0,0.2
		c-0.1,0.1,0-0.1-0.1,0.2l0.1-0.3l0-0.1l-0.2,0.5l0-0.1l-0.1,0.4l0-0.1l-0.1,0.3c0,0-0.1,0,0-0.2l-0.1,0.4l-0.1,0.1
		c-0.1,0.2-0.1,0.5-0.2,0.8l0,0h0l0-0.1c0,0.2,0,0.1,0,0.1l0,0l0,0l0,0.1c-0.1,0.3-0.2,0.5-0.2,0.8l-0.1,0.2
		c-0.1,0.3,0.2-0.2,0.1,0.2c-0.1,0.3-0.1,0.1-0.1,0.2c0,0.2,0,0.4-0.1,0.7l0.1-0.2L18,40.7c0-0.3,0.1-0.4,0-0.3l-0.1,0.9l-0.1,0.1
		c0,0.2,0.2,0.2,0.1,0.5l0.1,0.1v0l-0.2,0.3l-0.1,0l-0.1,0.6l0,0.2h0l0,0.1l0-0.1l0,0.2c-0.1,0.1,0-0.1,0-0.3
		c-0.2,0.2,0,0.2-0.2,0.6l0-0.2c-0.1,0.1-0.1,0.3-0.2,0.5c0,0,0,0,0,0c0.1-0.1,0.2-0.4,0.2-0.2l0,0.2c1.5,0.6,3.1,1,4.8,1.2
		c0-0.3,0-0.5,0-0.6l0.1,0.1l-0.1-0.5c0-0.1,0-0.1,0-0.2c0.1,0,0.2,0,0.2,0.2c0-0.1,0.1-0.2,0.1-0.4l-0.1,0.1
		c0.1-0.2,0.1-0.1,0.2-0.4l-0.1-0.2l0.1,0.1l-0.1-0.4l0.1,0l0.1-0.4l0,0.1c0.1-0.4-0.1-0.4,0-0.8c0,0.1,0.1,0.1,0.2-0.1
		c0-0.1-0.1-0.2-0.1-0.3c0-0.1,0.1-0.3,0.1-0.4c0,0.2,0.1,0.4,0.1,0.6c0.1-0.1,0,0,0.1-0.3l0,0.2l0.1-0.5l0-0.4l0,0.6
		c-0.1,0-0.1-0.4,0-0.7l0.2,0.1l0.1-0.4c0-0.1,0-0.3,0.1-0.4l0.1-0.3l-0.2,0c0-0.1,0-0.1,0-0.2l0,0l0-0.1l0,0c0-0.1,0-0.2,0.1-0.3
		l0.1,0.1l0-0.1c0-0.1,0,0,0.1-0.1c-0.1,0,0.1-0.4,0-0.1c0-0.2,0.1-0.2,0.1-0.4c0,0-0.1-0.1-0.1-0.2c0-0.1,0-0.2,0.1-0.2l0,0l0,0
		c0.1-0.4,0.2-0.6,0.3-0.9l0.1-0.1l0-0.2c0.1-0.2-0.1,0.2,0.1,0.1c0,0,0-0.3,0.1-0.5c0,0,0,0,0,0c0,0,0.1-0.1,0.1-0.1
		c0,0.1,0,0.3,0,0c0,0,0,0,0-0.1c0.1-0.2,0.2-0.3,0.3-0.5c0.1-0.2-0.3-0.9,0.7-1.2v-0.1c0-0.5,0.2-1,0.4-1.5L25.4,32.7z M23.8,36.7
		c0,0,0-0.1-0.1-0.1c0-0.1,0.1-0.2,0.1-0.3C23.9,36.4,23.8,36.6,23.8,36.7z"/>
	<path fill="#AF882E" d="M23.1,40.1L23.1,40.1c0,0.1,0,0.1,0,0.2V40.1z"/>
	<path fill="#AF882E" d="M22.7,41.9L22.7,41.9c0,0.2,0,0.2,0,0.2c0.1-0.3,0-0.1,0-0.3L22.7,41.9z"/>
	<polygon fill="#AF882E" points="30,27.3 30,27.4 30.1,27.4 	"/>
	<polygon fill="#AF882E" points="17.8,41.8 17.8,41.8 17.7,41.8 	"/>
	<path fill="#AF882E" d="M18.1,39.9l-0.1,0.2C18.1,40,18.2,39.9,18.1,39.9z"/>
	<polygon fill="#AF882E" points="35.9,22 35.9,22 35.9,22 35.9,22 35.8,22 35.8,22 	"/>
	<polygon fill="#AF882E" points="34.7,21.3 34.7,21.3 34.7,21.3 	"/>
	<polygon fill="#AF882E" points="36,22 36,22 36,22 	"/>
	<polygon fill="#AF882E" points="34.6,21.4 34.6,21.4 34.6,21.4 	"/>
	<polygon fill="#AF882E" points="35.7,21.8 35.6,21.8 35.7,21.9 	"/>
	<polygon fill="#AF882E" points="35.6,21.8 35.6,21.8 35.6,21.8 	"/>
	<polygon fill="#AF882E" points="35.7,21.9 35.7,21.9 35.7,21.9 35.7,21.9 35.7,21.9 35.7,21.9 	"/>
	<polygon fill="#AF882E" points="36.4,22.6 36.4,22.5 36.4,22.5 	"/>
	<polygon fill="#AF882E" points="35.3,21.3 35.3,21.3 35.2,21.3 35.3,21.4 	"/>
	<polygon fill="#AF882E" points="34.7,21.3 34.7,21.3 34.7,21.3 34.7,21.3 34.7,21.3 	"/>
	<polygon fill="#AF882E" points="35.3,24.2 35.3,24.2 35.2,24.2 	"/>
	<polygon fill="#AF882E" points="35.4,23.8 35.4,23.8 35.4,23.8 35.4,23.8 35.3,23.7 35.4,23.8 35.4,23.8 	"/>
	<polygon fill="#AF882E" points="35.7,23.6 35.7,23.6 35.7,23.6 	"/>
	<polygon fill="#AF882E" points="35.8,23.6 35.7,23.6 35.7,23.7 	"/>
	<polygon fill="#AF882E" points="36.1,23.8 36.1,23.8 36.1,23.8 	"/>
	<polygon fill="#AF882E" points="35.9,23.7 35.9,23.7 35.8,23.7 	"/>
	<polygon fill="#AF882E" points="35.4,23.6 35.5,23.7 35.4,23.7 	"/>
	<polygon fill="#AF882E" points="36.3,21.5 36.3,21.5 36.3,21.5 	"/>
	<polygon fill="#AF882E" points="36.5,21.5 36.5,21.5 36.5,21.5 	"/>
	<polygon fill="#AF882E" points="36.3,21.5 36.3,21.5 36.4,21.4 	"/>
	<polygon fill="#AF882E" points="36.2,21.4 36.2,21.3 36.2,21.3 	"/>
	<polygon fill="#AF882E" points="36.3,21.4 36.3,21.4 36.3,21.4 	"/>
	<polygon fill="#AF882E" points="36.5,21.5 36.5,21.4 36.5,21.4 	"/>
	<polygon fill="#AF882E" points="36.5,21.2 36.5,21.2 36.5,21.2 	"/>
	<polygon fill="#AF882E" points="37.8,21.6 37.8,21.6 37.8,21.6 	"/>
	<polygon fill="#AF882E" points="37.3,22.4 37.3,22.5 37.3,22.4 	"/>
	<polygon fill="#AF882E" points="37.7,21.7 37.7,21.7 37.8,21.7 37.8,21.7 37.7,21.7 	"/>
	<polygon fill="#AF882E" points="37.7,21.7 37.7,21.7 37.7,21.7 37.7,21.7 37.7,21.7 37.7,21.7 37.7,21.7 37.7,21.7 	"/>
	<polygon fill="#AF882E" points="37.3,22.5 37.3,22.5 37.3,22.5 	"/>
	<polygon fill="#AF882E" points="36.8,22.3 36.8,22.3 36.9,22.3 	"/>
	<polygon fill="#AF882E" points="37.2,22.5 37.3,22.5 37.3,22.5 	"/>
	<polygon fill="#AF882E" points="36.8,22.3 36.8,22.3 36.8,22.3 	"/>
	<polygon fill="#AF882E" points="36.8,22.2 36.8,22.2 36.8,22.2 	"/>
	<polygon fill="#AF882E" points="37.1,22.6 37.1,22.5 37.1,22.5 	"/>
	<polygon fill="#AF882E" points="37.5,21.8 37.6,21.8 37.5,21.8 	"/>
	<polygon fill="#AF882E" points="38.1,22.5 38.1,22.5 38.1,22.6 	"/>
	<polygon fill="#AF882E" points="38.1,22.5 38.1,22.6 38.1,22.5 	"/>
	<polygon fill="#AF882E" points="38.4,22.8 38.4,22.8 38.4,22.8 	"/>
	<polygon fill="#AF882E" points="38.3,22.8 38.3,22.8 38.3,22.8 	"/>
	<polygon fill="#AF882E" points="38.1,22.5 38.1,22.5 38.1,22.5 	"/>
	<polygon fill="#AF882E" points="38.1,22.8 38.2,22.7 38.2,22.7 	"/>
	<polygon fill="#AF882E" points="38.5,23.8 38.5,23.8 38.5,23.8 	"/>
	<polygon fill="#AF882E" points="38.2,23.7 38.2,23.7 38.2,23.7 	"/>
	<polygon fill="#AF882E" points="38.2,23.7 38.2,23.7 38.2,23.7 	"/>
	<polygon fill="#AF882E" points="38.4,23.7 38.4,23.7 38.3,23.7 	"/>
	<polygon fill="#AF882E" points="38.3,23.7 38.3,23.7 38.3,23.7 	"/>
	<polygon fill="#AF882E" points="38.3,23.6 38.3,23.6 38.3,23.6 38.3,23.6 	"/>
	<polygon fill="#AF882E" points="38.3,23.7 38.3,23.7 38.3,23.7 	"/>
	<polygon fill="#AF882E" points="33.3,24.1 33.3,24 33.3,24.1 	"/>
	<polygon fill="#AF882E" points="33.3,24 33.4,24 33.4,24 33.3,24 	"/>
	<polygon fill="#AF882E" points="33.3,24 33.3,24 33.3,24 	"/>
	<polygon fill="#AF882E" points="33.4,24 33.3,24 33.3,24 	"/>
	<polygon fill="#AF882E" points="33.3,24 33.3,24 33.3,24 33.3,24 33.3,24 33.3,24 	"/>
	<polygon fill="#AF882E" points="33.3,24.2 33.3,24.2 33.3,24.2 	"/>
	<polygon fill="#AF882E" points="33.2,24 33.3,24 33.3,24 	"/>
	<polygon fill="#AF882E" points="32.9,24 32.9,24 32.9,23.9 	"/>
	<path fill="#AF882E" d="M37,12.7c-0.6,0.3-0.3,0.3-0.4,0.3L37,12.7z"/>
	<polygon fill="#AF882E" points="35.8,28.3 35.8,28.3 35.8,28.3 	"/>
	<path fill="#AF882E" d="M35.8,28.3l0.2,0l0,0l0-0.3l-0.1-0.3C35.9,28,35.9,28.2,35.8,28.3L35.8,28.3z"/>
	<polygon fill="#AF882E" points="31.1,24.3 31.1,24.3 31.1,24.3 	"/>
	<path fill="#AF882E" d="M32.7,13.3c-0.1,0-0.2,0-0.3,0.1L32.7,13.3z"/>
	<path fill="#AF882E" d="M35.7,13.1L35.7,13.1C35.7,13,35.7,13,35.7,13.1L35.7,13.1z"/>
	<polygon fill="#AF882E" points="29.2,16.2 29.2,16.2 29.1,16.2 29.2,16.2 	"/>
	<path fill="#AF882E" d="M31.1,24.2C31.1,24.3,31.1,24.3,31.1,24.2L31.1,24.2L31.1,24.2z"/>
	<path fill="#AF882E" d="M30.9,14.3c0,0,0.1,0,0.2,0C31,14.3,31,14.3,30.9,14.3z"/>
	<polygon fill="#AF882E" points="31.1,24.2 31.1,24.2 31.1,24.2 	"/>
	<polygon fill="#AF882E" points="35.8,12.9 35.8,12.9 35.8,12.9 35.9,12.9 35.9,12.9 	"/>
	<polygon fill="#AF882E" points="33.6,14.6 33.6,14.6 33.6,14.6 33.6,14.6 	"/>
	<polygon fill="#AF882E" points="29.2,23.1 29.2,23.1 29.3,23.1 29.3,23.1 29.3,23.1 	"/>
	<polygon fill="#AF882E" points="33.5,14.6 33.5,14.6 33.6,14.6 33.6,14.6 	"/>
	<polygon fill="#AF882E" points="33.6,14.6 33.6,14.6 33.6,14.6 	"/>
	<polygon fill="#AF882E" points="33.6,14.6 33.6,14.6 33.6,14.6 33.6,14.6 33.6,14.6 33.6,14.6 	"/>
	<path fill="none" stroke="#AF882E" stroke-width="0" stroke-linecap="round" stroke-linejoin="round" d="M44,23.2
		C44,23.2,44,23.2,44,23.2"/>
	<path fill="#AF882E" d="M43.9,23.4l-0.1,0.1L43.9,23.4C43.9,23.4,43.9,23.4,43.9,23.4L43.9,23.4L43.9,23.4
		C43.9,23.4,43.9,23.4,43.9,23.4L43.9,23.4C43.9,23.4,43.9,23.4,43.9,23.4z"/>
	<path fill="#AF882E" d="M45.4,21.9c-0.4-2.8-1.3-5.4-2.7-7.7c-0.1,0-0.2-0.1-0.3-0.1l0,0l0,0L42.1,14l-0.2-0.3l-0.1-0.1l0-0.1
		c0-0.1,0,0-0.1-0.3l0.1,0.2l0,0.1l0,0l0.2,0.2l0.1,0.1c0,0-0.2-0.3-0.3-0.4l0,0l0-0.1l-0.1-0.3c0-0.1-0.1-0.1-0.1-0.2
		c0.1,0.1,0.1,0.1,0.1,0.2c-0.1-0.3-0.4-0.4-0.7-0.4l0.1,0.1l-0.3-0.1l-0.2,0.1l-0.3,0.3c0,0,0,0,0,0l0,0l-0.1,0l-0.1,0l-0.1,0
		l0.1,0l0.1,0l0.1,0l0,0l-0.2,0h0l-0.4,0l0,0l-0.2-0.3l-0.2-0.1c-0.2-0.1-0.6-0.2-0.9-0.1c-0.2,0-0.3,0.1-0.4,0.2l-0.1,0.1l-0.1-0.1
		l-0.4,0c-0.2,0-0.5,0.1-0.7,0.3l-0.1,0.1l0,0.1l0,0c0,0,0,0-0.2-0.1c0-0.1-0.1-0.1-0.1-0.2l-0.3-0.1l-0.1,0l0,0l0,0L35.7,13
		c-0.1,0.1-0.1,0.1-0.1,0.2c-0.1,0-0.1-0.1-0.2-0.1c-0.1,0,0,0-0.1,0c0,0,0-0.1-0.1-0.1c-0.1-0.1-0.3-0.1-0.4-0.1
		c-0.4,0-0.5,0.4-0.4,0.3c0,0,0.1-0.2,0.3-0.3l0.2,0l-0.2,0.1l-0.2,0.2l0,0.1c-0.4,0.2-0.5,0.3-0.5,0.3l0,0l0,0l0,0l0,0l-0.2,0
		l-0.3,0.1l-0.2,0.1v0l0.1,0l0.1,0l0,0.1l-0.1,0.1h0l0-0.1l-0.1,0l0,0.1h0l0-0.1L33,13.8l0-0.2c0-0.2-0.2-0.3-0.3-0.3l-0.3,0.1
		l-0.1,0l0.1-0.1c0,0,0,0,0,0l0,0c0,0-0.2,0-0.3,0.3c0,0,0,0,0,0c-0.1,0-0.1,0-0.2,0.1L31.6,14l-0.1,0.4c0.1,0.2-0.2,0.1,0,0.1
		c0,0.1-0.2-0.1-0.4-0.2c-0.2,0-0.2,0-0.1,0c0,0,0,0-0.1,0c-0.2,0-0.4,0-0.5,0.1c-0.3,0.2-0.5,0.6-0.5,0.6l0,0
		c0,0.1-0.1,0.3-0.1,0.5l0,0.1l-0.1,0l-0.1,0l-0.2,0l-0.1,0l-0.1,0l-0.2,0.2l0,0.1l0.1,0l0,0l0,0l0,0l0-0.1l0.2-0.2
		c0.2,0,0.2,0,0.2,0l-0.1,0c0,0,0,0,0,0l-0.1,0l-0.1,0l-0.1,0.1l0,0.2l0,0.1h0v-0.1l0,0l0,0v0v0V16l0,0l0,0l0,0h0c0,0,0,0,0,0l0,0
		l0,0l0,0l0,0c-0.1,0-0.2,0-0.1,0l0,0l0,0l0,0.1c0.1,0,0.1,0.1,0.2,0.1l-0.1,0l0,0c-0.1,0,0,0-0.2,0l0-0.1l0.1,0
		c-0.3,0.1-0.4,0.3-0.4,0.4c-0.1,0.1-0.1,0.2-0.1,0.3c0,0.1,0,0.1,0,0.2l0,0l0,0l-0.3,0.3l0.2,0.3l0.1,0c-0.2,0.1-0.4,0.1-0.6,0.3
		c-0.4,0.4-0.1,1,0.2,1.2c0,0.3,0,0,0,0.1l0,0.1l-0.1,0.1l-0.1,0.1c-0.1,0.3-0.1,0.3-0.1,0.3c0,0,0.1,0.2,0.3,0.5
		c0,0,0.1,0.1,0.1,0.2v0l-0.1,0l-0.1,0l0,0c-0.1,0-0.2,0.2-0.1,0.4l0.2,0.1l0.1,0c0.1,0,0.2,0,0.3-0.1c0.1,0,0.2,0,0.2-0.1l0,0l0,0
		l0,0l0.1,0l0,0l0,0l0.1,0l0.2-0.1l0,0l0,0l0,0.1l0,0l0,0l0.3,0.1c-0.1,0.1-0.3,0.2-0.4,0.4l-0.2-0.1l-0.2,0.1c0,0.1,0,0.1,0,0.1
		c0,0,0,0.1,0,0.1c0,0,0,0,0-0.1l0,0l0.1,0.2l0.1,0l0,0.1l-0.1,0l0.1,0l0.1,0.2l-0.1-0.2l0.1,0c0.1,0.1,0.1,0.2,0.2,0.3l0.1,0.1
		l0-0.1l0,0c0,0,0.1,0.1,0.1,0.1l0,0l0,0.1l0-0.1l-0.1,0.1l-0.1,0l0,0.1l0-0.1l0.3-0.1l0,0l0,0l0,0l0,0l0,0l0-0.1l0,0.1l-0.1-0.1
		l-0.2-0.1l0.1,0.1l0.1,0l-0.1,0l0.1,0.1l-0.2,0l0,0.1l0,0.3l0,0.1l0.1,0.1l0.3,0l0,0.1l0,0.1l0,0.1l0,0.3l0,0
		c-0.2,0.2,0,0.5,0.1,0.5l0,0c0.1,0,0.1,0.1,0.3,0l0,0c0.3,0.1,0.7,0.1,0.9-0.1l0.1-0.1l0.1,0c0,0.1,0.2,0.1,0.4,0.2l0-0.1h0l0,0.1
		c0,0,0.1,0,0.1,0l0,0l0,0v0v0.1v0v0l0,0l0,0l0,0l0,0c0,0,0,0,0,0l0,0l0,0l0,0l0,0c0,0,0,0,0,0c0,0-0.1,0-0.1,0l0,0l0,0
		c-0.2,0-0.4-0.1-0.4-0.2l-0.1,0.1c0,0-0.1,0.1-0.2,0.1c0.2,0,0.1,0,0.1,0l0.2-0.1l0.1-0.1c0,0,0.2,0.2,0.4,0.2l0,0l0.1,0.2l0.3,0.3
		l0.1,0.1h0l0-0.2l0.1-0.2c0.1,0,0.2,0,0.4,0c0.1,0,0.2,0,0.3,0c0.2,0,0.3,0,0.4,0.1l0.1,0c-0.1,0-0.2-0.1-0.4-0.1
		c0.1,0,0.2,0,0.2,0c0.1,0,0.3,0.1,0.5,0.1l-0.1,0l0.1,0c0.1,0,0.1,0,0.1,0c0,0,0.4,0,0.7,0c0.1,0,0.2,0,0.2,0l0,0l0,0
		c0.2,0,0.5,0,0.6,0.1l0.1,0l-0.1,0l-0.1,0l0.1,0c0.2,0,0.5,0.3,0.8,0.4l0.4,0.3l0.1,0.1l0,0.3c0,0.7,0.1,1.3,0.1,1.4L36,27.2
		c0,0.4,0.1,0.8,0.1,1.2c0,0,0,0.1,0,0.1l0,0c0,0,0,0,0,0l0,0l-0.1,0c-0.2-0.1-0.3-0.1-0.5-0.2l0-0.1l0.1-0.1l0.3,0.1
		c0,0-0.4-0.2-1-0.3c0.2,0.1,0.4,0.2,0.2,0.2c-0.7-0.2-0.4-0.2-1.3-0.3c0.3,0,0,0.1-0.5,0.2c0.1,0-0.1-0.1,0.1-0.1
		c0,0-0.3,0-0.5,0.2c-0.2,0.1-0.5,0.2-0.5,0.2c0.3-0.1,0-0.1-0.2,0c0.1-0.1-0.8,0.5-1,0.7l0.4-0.3c-0.5,0.4-0.7,0.6-0.8,0.9
		c-0.3,0.4-0.5,0.7-0.7,1c0.1-0.1,0.1-0.4-0.3,0.1c-0.1,0.2-0.2,0.5-0.4,0.9c-0.2,0.4-0.4,0.7-0.6,1.1c0.2-0.6,0.4-1.2,0.6-1.6
		c-0.3,0.4-0.1,0.1-0.4,0.7c-0.1,0.1,0,0,0-0.1l-0.5,1l-0.4,1.1c0,0,0.2-0.4,0.3-0.8c0.2-0.4,0.4-0.8,0.4-0.8c0.1,0-0.3,1-0.7,2
		c-0.1,0.3,0-0.2-0.1-0.2l-0.4,1.1l0.1-0.5c-0.2,0.6-0.3,1-0.6,1.7c-0.1,0.2-0.3,0.7-0.3,0.8c0.1-0.2,0.2-0.3,0.3-0.3
		c-0.1,0.3-0.2,0.5-0.2,0.8l0,0.1l0,0.3h0c-0.1,0-0.2,0.5-0.2,0.8c-0.1,0.1,0.1-0.7-0.1-0.5l0,0.3c-0.1,0.3,0-0.1-0.2,0.4
		c0,0.1-0.3,1.2,0,0.3C26.2,40,26.1,40,26,40.7c0.1-0.1,0.1,0.2,0,0.6c0,0.2,0,0.5,0,0.7l0.1,0v0c0,1.2-0.5,1.8-0.6,2.9
		c0,0.1-0.1,0.3-0.2,0.4c8-0.1,14.8-4.7,18.1-11.4c-0.1-0.1-0.2-0.2-0.4-0.3l0.1,0c-1.3-1.2-1.9-1.7-3.4-2.9l0.1,0.1
		c-0.3-0.2-0.4-0.4-0.5-0.4l0,0l0.2,0.2c0.2,0.2,0.5,0.4,0.3,0.3c-0.1-0.1-0.3-0.3-0.5-0.4c-0.2-0.3-0.4-0.5-0.6-0.8
		c-0.2-0.3-0.4-0.6-0.6-0.8l-0.3-0.3l0-0.1c-0.1-0.6,0,0.2-0.1-0.4l0-0.2l-0.1-0.2c0-0.4,0-0.6,0-0.7l0.1,0.4
		c-0.1-0.6-0.1-1.5-0.1-1.7l0,0.6c0-0.4,0-0.9,0-1.3c0-0.3,0-0.3,0.2-0.3l0.1,0l0,0l0,0l0.1,0.1c0.1,0,0.2,0,0.3,0l0,0l0.4,0.1
		c0.1,0,0.1-0.1,0.1-0.1l0,0l0,0l0,0l0.1,0l0,0l0.1,0l0,0l0,0l0.2-0.2c0.2,0.1,0.3,0.1,0.5,0l0,0.2l0.1,0.2h0c0,0,0,0,0,0l0-0.2
		l0-0.1v-0.1v0l0,0c0,0,0,0,0,0c0.5,0,0.5-0.3,0.6-0.1c0,0.1,0.2,0.3,0.5,0.4l0,0.1l0.2,0.1c0.2,0,0.1,0,0.2,0l0,0l0.2-0.1l0.1,0
		l0.1,0c0.1,0,0.3-0.1,0.3-0.3c0-0.1,0-0.2,0-0.2l0.1,0c0.4-0.1,0.7-0.4,0.7-0.6l-0.1-0.2l-0.1-0.1l0-0.1l0.1,0l0.2,0.1
		c0.1,0,0.2,0,0.6-0.2l0.2,0l0.1-0.2c0,0,0,0,0,0c0,0,0-0.1,0-0.1l0.1-0.1c0,0,0,0,0,0.1l0-0.1l0,0c0.1-0.1,0-0.3,0-0.4
		c0.3,0,0.3-0.1,0.1,0l-0.2-0.1c0,0,0,0-0.1-0.1l0,0l0,0c0,0,0,0,0,0c0,0,0,0,0,0l0-0.1l0,0c0,0,0-0.1,0-0.1c0,0,0.1,0,0.1,0.1
		l0,0.1l0.3,0.1l0.1-0.1l0.1-0.1c0.2,0,0.4,0,0.7-0.1C45.1,22.1,45.2,22.1,45.4,21.9z M29,15.9l0.1-0.2l0,0L29,15.9z M28.5,17.7
		L28.5,17.7L28.5,17.7C28.5,17.7,28.5,17.7,28.5,17.7L28.5,17.7z M28.5,17.2L28.5,17.2L28.5,17.2L28.5,17.2z M28.5,17.1L28.5,17.1
		L28.5,17.1L28.5,17.1z M28.5,17.2L28.5,17.2C28.5,17.2,28.5,17.2,28.5,17.2L28.5,17.2C28.5,17.2,28.5,17.2,28.5,17.2z M28.5,17.2
		C28.5,17.2,28.5,17.2,28.5,17.2L28.5,17.2L28.5,17.2L28.5,17.2z M28.6,17.2L28.6,17.2L28.6,17.2L28.6,17.2L28.6,17.2z M28.6,16.8
		C28.6,16.8,28.6,16.8,28.6,16.8L28.6,16.8L28.6,16.8z M28.7,17.1L28.7,17.1L28.7,17.1l-0.1,0.1L28.7,17.1z M28.6,18L28.6,18
		L28.6,18L28.6,18z M28.7,17.2L28.7,17.2l0.1,0l0,0L28.7,17.2z M28.8,17.2L28.8,17.2L28.8,17.2L28.8,17.2z M29.1,16.1L29.1,16.1
		C29.1,16.1,29.1,16.1,29.1,16.1C29.1,16.1,29.1,16.1,29.1,16.1L29.1,16.1z M29,16.2L29,16.2l0-0.1l0.1,0L29,16.2L29,16.2L29,16.2
		L29,16.2L29,16.2L29,16.2l0.1,0l0,0.1l0,0l0,0l0.1,0.1l-0.1,0C29.2,16.3,29.1,16.3,29,16.2z M29.2,16.4
		C29.1,16.4,29.1,16.4,29.2,16.4L29.2,16.4C29.2,16.4,29.2,16.4,29.2,16.4L29.2,16.4z M29.2,16.4C29.2,16.4,29.2,16.4,29.2,16.4
		l0-0.1L29.2,16.4C29.3,16.4,29.3,16.4,29.2,16.4z M28.9,22C28.9,22.1,28.9,22.1,28.9,22l-0.1,0L28.9,22z M28.8,22.1L28.8,22.1
		L28.8,22.1l0.1,0c0,0,0,0,0,0L28.8,22.1z M29,22.9L29,22.9L29,22.9L29,22.9z M29,23.1l0.1,0l0,0L29,23.1z M29.3,22.6L29.3,22.6
		L29.3,22.6L29.3,22.6z M29.3,23.1L29.3,23.1L29.3,23.1L29.3,23.1L29.3,23.1L29.3,23.1L29.3,23.1L29.3,23.1L29.3,23.1L29.3,23.1
		L29.3,23.1L29.3,23.1L29.3,23.1L29.3,23.1L29.3,23.1L29.3,23.1L29.3,23.1L29.3,23.1L29.3,23.1L29.3,23.1z M29.3,23.1L29.3,23.1
		L29.3,23.1L29.3,23.1z M29.3,23.1L29.3,23.1L29.3,23.1L29.3,23.1z M29.3,23.2L29.3,23.2L29.3,23.2L29.3,23.2L29.3,23.2L29.3,23.2
		L29.3,23.2L29.3,23.2L29.3,23.2L29.3,23.2L29.3,23.2L29.3,23.2L29.3,23.2L29.3,23.2L29.3,23.2L29.3,23.2L29.3,23.2L29.3,23.2
		L29.3,23.2z M29.4,16.2L29.4,16.2L29.4,16.2L29.4,16.2L29.4,16.2L29.4,16.2z M29.5,15.9L29.5,15.9L29.5,15.9L29.5,15.9L29.5,15.9z
		 M29.5,16.1L29.5,16.1L29.5,16.1L29.5,16.1z M29.5,16.1L29.5,16.1C29.5,16.1,29.5,16.1,29.5,16.1L29.5,16.1z M29.5,16.1L29.5,16.1
		C29.5,16.1,29.5,16.1,29.5,16.1L29.5,16.1z M29.5,15.6l-0.1,0h-0.1l-0.1,0l0.1,0l0.1,0L29.5,15.6L29.5,15.6L29.5,15.6z M29.5,15.6
		C29.5,15.6,29.5,15.6,29.5,15.6L29.5,15.6L29.5,15.6z M29.9,15.5L29.9,15.5L29.9,15.5L29.9,15.5z M30,15.9L30,15.9L30,15.9L30,15.9
		C30,15.9,30,15.9,30,15.9L30,15.9L30,15.9C30,15.9,30,15.9,30,15.9L30,15.9L30,15.9c0-0.1,0-0.1,0-0.1L30,15.9L30,15.9L30,15.9z
		 M31.1,24.1C31.1,24.1,31.1,24.1,31.1,24.1L31.1,24.1C31.1,24.1,31.1,24.1,31.1,24.1z M31.3,24.6l-0.2,0L31,24.4c0,0,0.1,0,0.1,0
		C31.1,24.5,31.3,24.6,31.3,24.6L31.3,24.6C31.3,24.6,31.3,24.6,31.3,24.6z M31.8,23.9L31.8,23.9L31.8,23.9L31.8,23.9L31.8,23.9z
		 M31.8,23.9L31.8,23.9L31.8,23.9L31.8,23.9L31.8,23.9z M31.9,24L31.9,24L31.9,24L31.9,24L31.9,24z M31.9,24.1L31.9,24.1L31.9,24.1
		L31.9,24.1L31.9,24.1z M31.9,24.2L31.9,24.2L31.9,24.2L31.9,24.2L31.9,24.2z M32,24.1L32,24.1L32,24.1L32,24.1z M32,24.1L32,24.1
		L32,24.1L32,24.1z M32,23.9L32,23.9L32,23.9L32,23.9z M32.1,24.1L32.1,24.1L32.1,24.1L32.1,24.1z M32.7,23.7L32.7,23.7L32.7,23.7
		L32.7,23.7L32.7,23.7L32.7,23.7L32.7,23.7z M32.6,23.9L32.6,23.9L32.6,23.9L32.6,23.9L32.6,23.9L32.6,23.9L32.6,23.9L32.6,23.9z
		 M32.2,24L32.2,24L32.2,24L32.2,24z M32.2,23.6L32.2,23.6L32.2,23.6L32.2,23.6L32.2,23.6z M32.2,24L32.2,24L32.2,24L32.2,24z
		 M32.3,24L32.3,24l0-0.3l0,0l0.1-0.1l0,0l0,0.1l0,0l0,0l0,0l0,0.1l0,0L32.3,24z M32.9,24.3C32.8,24.3,32.8,24.3,32.9,24.3l0-0.1
		l-0.1,0l0,0l-0.1,0l0,0L32.6,24l0,0l0,0l0,0.1L32.5,24l0,0.1l0,0l0,0l0-0.1l0,0l-0.1,0l0,0l0,0l0.1-0.2l0,0l0,0l0,0l0,0.1l0,0l0,0
		l0,0l0,0l0.1,0l-0.1,0.1l0,0l0,0l0,0l0,0l0,0l0,0l0,0l0,0l0,0l0,0l0,0l0-0.1l0,0.1l0.1,0l0,0.1l0-0.1l0,0.1l0-0.1l0,0.1l0,0l0,0
		l0.1-0.1l0,0.2l0.1-0.2c0,0,0,0,0,0l-0.1,0.2l0,0l0,0l0,0l0.1-0.1L33,24l0.1-0.2L33,24l0,0l0,0l0,0l0,0l0.1-0.2c0,0,0,0,0,0l0,0
		l0,0l0,0c0,0,0,0,0,0L33.1,24l0,0l0,0l0,0l0,0l0.1-0.1l0,0c0,0,0,0,0,0l0,0l0,0.1l0,0l0,0c0,0,0,0,0,0l0,0l0,0c0,0,0,0,0,0l0,0l0,0
		l0,0l0,0.1v0l-0.1,0.1l0.1,0l0,0l0,0l0,0l0,0l0,0l0,0l0,0l0,0l0,0l0,0l0,0l0,0l0,0l0,0l0,0l0,0C33.2,24.4,33,24.4,32.9,24.3z
		 M33.4,24.1L33.4,24.1L33.4,24.1L33.4,24.1z M33.3,24.2L33.3,24.2L33.3,24.2L33.3,24.2z M33.6,14.7L33.6,14.7L33.6,14.7L33.6,14.7
		L33.6,14.7z M33.6,14.6L33.6,14.6L33.6,14.6L33.6,14.6L33.6,14.6L33.6,14.6L33.6,14.6l-0.1,0.2c0,0,0,0,0,0L33.6,14.6l-0.1,0
		L33.6,14.6L33.6,14.6L33.6,14.6L33.6,14.6L33.6,14.6L33.6,14.6C33.5,14.5,33.6,14.5,33.6,14.6L33.6,14.6L33.6,14.6L33.6,14.6
		L33.6,14.6L33.6,14.6L33.6,14.6L33.6,14.6L33.6,14.6L33.6,14.6L33.6,14.6L33.6,14.6L33.6,14.6L33.6,14.6L33.6,14.6L33.6,14.6
		C33.6,14.5,33.6,14.5,33.6,14.6L33.6,14.6L33.6,14.6l0-0.1h0L33.6,14.6l0.1-0.1L33.6,14.6L33.6,14.6L33.6,14.6L33.6,14.6L33.6,14.6
		z M33.7,14.6L33.7,14.6L33.7,14.6L33.7,14.6L33.7,14.6z M33.9,24.5L33.9,24.5L33.9,24.5C33.9,24.5,33.9,24.5,33.9,24.5z M34.1,24.5
		L34.1,24.5C34.1,24.5,34.1,24.5,34.1,24.5L34.1,24.5L34.1,24.5L34.1,24.5L34.1,24.5L34.1,24.5L34.1,24.5L34.1,24.5z M34.2,24.5
		L34.2,24.5L34.2,24.5C34.2,24.5,34.1,24.5,34.2,24.5L34.2,24.5L34.2,24.5L34.2,24.5l-0.1-0.1l0,0l0-0.1L34.2,24.5
		C34.2,24.5,34.1,24.4,34.2,24.5l0-0.1l0-0.1L34.2,24.5L34.2,24.5L34.2,24.5l0-0.2l0,0l0-0.1l0,0.1l0,0L34.2,24.5L34.2,24.5
		c0-0.2,0,0,0-0.1L34.2,24.5L34.2,24.5L34.2,24.5C34.2,24.5,34.2,24.5,34.2,24.5z M34.2,24.5l0-0.1L34.2,24.5
		C34.2,24.5,34.2,24.5,34.2,24.5z M34.2,24.5L34.2,24.5L34.2,24.5L34.2,24.5z M34.2,24.5L34.2,24.5L34.2,24.5L34.2,24.5L34.2,24.5z
		 M34.2,24.5L34.2,24.5l0-0.1L34.2,24.5l0-0.2L34.2,24.5L34.2,24.5L34.2,24.5C34.2,24.5,34.2,24.5,34.2,24.5z M34.2,24.5
		C34.2,24.5,34.2,24.5,34.2,24.5L34.2,24.5l0-0.2l0,0.1L34.2,24.5L34.2,24.5z M34.2,24.4L34.2,24.4L34.2,24.4L34.2,24.4z M34.2,24.4
		L34.2,24.4L34.2,24.4L34.2,24.4z M34.2,24.5L34.2,24.5L34.2,24.5L34.2,24.5z M34.3,21.6L34.3,21.6L34.3,21.6L34.3,21.6z M34.3,24.5
		L34.3,24.5L34.3,24.5C34.3,24.5,34.3,24.5,34.3,24.5z M34.3,24.5L34.3,24.5L34.3,24.5C34.3,24.5,34.3,24.5,34.3,24.5z M34.3,24.5
		C34.3,24.5,34.3,24.5,34.3,24.5L34.3,24.5L34.3,24.5z M34.3,24.5C34.3,24.5,34.3,24.5,34.3,24.5C34.3,24.5,34.3,24.5,34.3,24.5
		C34.3,24.5,34.3,24.5,34.3,24.5L34.3,24.5L34.3,24.5L34.3,24.5L34.3,24.5L34.3,24.5L34.3,24.5L34.3,24.5L34.3,24.5z M34.3,24.4
		L34.3,24.4L34.3,24.4L34.3,24.4z M34.3,24.5L34.3,24.5L34.3,24.5L34.3,24.5L34.3,24.5z M34.4,24.5C34.4,24.5,34.4,24.5,34.4,24.5
		L34.4,24.5L34.4,24.5z M34.4,24.4L34.4,24.4L34.4,24.4L34.4,24.4L34.4,24.4z M38.4,21L38.4,21L38.4,21L38.4,21L38.4,21z M38.3,21.9
		l0.3-0.4l0.1,0l0,0l0,0l0,0l0,0l-0.1,0.1l0,0l0,0l0,0l0,0l0,0l0,0l-0.1,0l0,0l0,0l0,0l-0.1,0l0,0l0,0l0,0l0,0l0,0l-0.1,0.1l0,0
		L38.3,21.9L38.3,21.9L38.3,21.9L38.3,21.9L38.3,21.9z M38.3,22L38.3,22C38.3,22,38.3,22,38.3,22L38.3,22z M38.3,21L38.3,21L38.3,21
		L38.3,21L38.3,21L38.3,21L38.3,21L38.3,21L38.3,21L38.3,21L38.3,21z M38.3,22L38.3,22L38.3,22C38.3,22,38.3,22,38.3,22z M38.2,22.4
		l-0.1,0L38.2,22.4L38.2,22.4L38.2,22.4l-0.1-0.1L38.2,22.4L38.2,22.4L38.2,22.4z M38.2,22.1L38.2,22.1L38.2,22.1
		C38.2,22.1,38.2,22.1,38.2,22.1z M38.1,21.2L38.1,21.2L38.1,21.2L38.1,21.2L38.1,21.2z M38.1,21.1L38.1,21.1L38.1,21.1L38.1,21.1
		L38.1,21.1L38.1,21.1z M37.9,21.5L37.9,21.5L37.9,21.5L37.9,21.5z M36.6,21.2L36.6,21.2L36.6,21.2L36.6,21.2L36.6,21.2z M36.6,21.2
		L36.6,21.2L36.6,21.2L36.6,21.2z M36.6,21.3L36.6,21.3L36.6,21.3L36.6,21.3z M36.6,21.1L36.6,21.1L36.6,21.1L36.6,21.1z M36.6,21.2
		L36.6,21.2L36.6,21.2L36.6,21.2z M36.2,20.8L36.2,20.8L36.2,20.8L36.2,20.8L36.2,20.8z M36.1,22C36.1,22,36.1,22,36.1,22L36.1,22
		C36,22,36,22,36.1,22L36.1,22l-0.1,0L36.1,22C36,22,36,22.1,35.9,22.1L36.1,22l0,0.2c-0.2-0.1-0.1,0-0.3,0l0,0l0.1,0l0,0h0l0,0l0,0
		c-0.1,0-0.1,0-0.1,0c0,0,0,0,0,0l0,0l0,0l0.1,0l0,0l0,0l0,0l0,0L36.1,22L36.1,22L36.1,22L36.1,22L36.1,22L36.1,22L36.1,22z
		 M35.9,13.3L35.9,13.3L35.9,13.3L35.9,13.3z M35.2,20.7L35.2,20.7L35.2,20.7L35.2,20.7L35.2,20.7z M35.3,20.8L35.3,20.8L35.3,20.8
		L35.3,20.8L35.3,20.8z M34.7,21.2L34.7,21.2L34.7,21.2L34.7,21.2l0-0.1c0,0,0,0,0,0L34.7,21.2L34.7,21.2l0-0.1c0,0,0,0,0,0
		L34.7,21.2L34.7,21.2L34.7,21.2L34.7,21.2L34.7,21.2L34.7,21.2L34.7,21.2L34.7,21.2z M34.7,21.3L34.7,21.3L34.7,21.3L34.7,21.3
		L34.7,21.3z M34.5,24.4L34.5,24.4L34.5,24.4L34.5,24.4L34.5,24.4L34.5,24.4L34.5,24.4L34.5,24.4L34.5,24.4L34.5,24.4L34.5,24.4z
		 M34.5,24.4L34.5,24.4L34.5,24.4L34.5,24.4L34.5,24.4z M34.5,24.5C34.5,24.5,34.5,24.5,34.5,24.5L34.5,24.5L34.5,24.5L34.5,24.5z
		 M34.6,24L34.6,24L34.6,24L34.6,24z M34.7,21.4L34.7,21.4L34.7,21.4L34.7,21.4l-0.1,0L34.7,21.4l-0.1,0l0,0l0,0l0,0l0,0l0.1,0
		C34.8,21.3,34.6,21.4,34.7,21.4L34.7,21.4L34.7,21.4L34.7,21.4L34.7,21.4L34.7,21.4L34.7,21.4L34.7,21.4L34.7,21.4L34.7,21.4
		L34.7,21.4L34.7,21.4L34.7,21.4L34.7,21.4z M35.1,21.8l0.1-0.1L35.1,21.8L35.1,21.8l0.1-0.1l0,0l0,0l0,0L35,21.5l0-0.1l-0.1,0.1
		l0-0.1l-0.1,0l0,0l0,0l0,0l0,0.1v0l0.1,0l0,0l0.1-0.3l0.1,0.1l0,0l0,0L35,21.2l0,0l0.1-0.1l0,0.1v0l0.2,0.1l-0.1,0.1l0.2-0.1
		c0,0,0,0,0.1,0l-0.2,0.1l0,0.1l-0.1,0l0.1,0.1l0.1,0l0-0.1l0,0l-0.1,0l0.1-0.1l0.1,0l-0.1,0.1l0.1,0l0,0l0.1,0l0,0.1l0.2-0.2
		c0,0,0,0,0,0l0,0l0,0l0,0c0,0,0,0,0,0l-0.2,0.1l0,0l0,0l0.1,0l0,0.1l0.1,0c0,0,0,0,0,0l0,0.2l0,0l0,0l0,0l0,0l-0.2-0.1l0,0l0,0l0,0
		l0,0l0,0l0,0l0,0l0,0.1l0,0l0,0l0,0l0,0l0,0l-0.1,0l0,0l0,0l0,0l0,0l0,0l-0.1,0l0,0c-0.2-0.1,0,0.1-0.2,0l0.1,0l0,0l-0.1,0l0,0
		l0-0.1l0,0L35.1,21.8L35.1,21.8L35.1,21.8l0.1-0.1L35.1,21.8L35.1,21.8L35.1,21.8L35.1,21.8L35.1,21.8z M35.8,22L35.8,22L35.8,22
		L35.8,22z M35.8,22L35.8,22L35.8,22L35.8,22z M36.1,23.9C36.1,23.9,36.1,23.9,36.1,23.9L36.1,23.9L36.1,23.9L36.1,23.9l0,0.1l0,0
		c0,0,0,0,0,0l0,0l0,0l0,0c0,0.3,0,0.5,0,0.8l0,0.1l0,0c0,0,0,0-0.1,0l0-0.1L36,24.8l0,0l-0.1,0l0,0l-0.2-0.1l0,0l0,0l0,0.1
		l-0.1-0.2l0,0l0,0l0,0l0-0.1l0,0l-0.1,0l0,0l-0.3,0l0,0l-0.1,0l0.1-0.1l0.1,0l-0.1-0.1l-0.1,0l0,0l0,0l0,0l0.1,0l0,0l0.1,0.1l0,0
		l0,0l0,0l0.1,0l0,0l0.1-0.1L35.3,24l0.1,0l0,0.2l0,0l-0.1-0.1l0-0.1l-0.1-0.1l0.1,0l0,0l0,0l0,0l0,0l-0.2-0.1l0,0l0,0l0.2,0.1l0,0
		l-0.1-0.1l0.1,0l-0.1-0.1l0.1,0.1l-0.1-0.1l0.1,0.1l0,0l0,0l-0.2-0.2l0.2,0.2l-0.2-0.2l0,0l0.1,0l0.1,0.2l0,0l0,0.1l0,0l-0.1-0.1
		l0,0.1l-0.1-0.2l0.1,0.2l0,0l0,0l0,0l0,0l-0.1-0.3l0,0l0,0.1h0l0-0.1l0,0l0,0l0.1,0.2l0,0l0,0l0-0.1l0.1,0l0-0.1l0,0l0,0
		c0,0,0,0,0,0l0,0l0.1,0.1l0,0.1l0,0l0,0l0.1-0.1c0,0,0.1,0,0.1,0.1l0.1,0.1l0,0l0.1,0c0,0,0,0,0,0l0,0
		C36.1,23.8,36.1,23.8,36.1,23.9L36.1,23.9L36.1,23.9z M35.2,23.7L35.2,23.7L35.2,23.7L35.2,23.7z M35.3,23.8L35.3,23.8L35.3,23.8
		L35.3,23.8z M36.5,23.5c-0.2,0-0.4-0.1-0.6-0.2l0.1-0.1l0.1,0.1l0-0.1l0,0l0.1-0.1c0,0,0,0,0,0l0,0c0.1-0.1,0.2-0.2,0.1-0.4l0,0
		l0-0.1l0,0.1c0-0.1,0-0.2-0.1-0.2c0,0,0,0,0,0l0,0c0,0-0.1,0-0.1,0v0c0,0,0.2-0.1,0-0.3c0,0,0,0,0,0c0,0,0,0,0,0.1l0.1,0.2l0,0
		c0.1,0.1,0.1,0.2,0.2,0.3l0,0l0,0c0,0,0,0,0,0l0,0l0.1,0.1l0,0c0,0,0,0,0,0.1l0,0l0,0l0.1,0.4l0,0L36.5,23.5z M36.6,21.7L36.6,21.7
		L36.6,21.7L36.6,21.7L36.6,21.7z M36.6,21.7L36.6,21.7L36.6,21.7L36.6,21.7L36.6,21.7L36.6,21.7L36.6,21.7z M36.7,21.3L36.7,21.3
		L36.7,21.3L36.7,21.3l-0.2-0.1L36.7,21.3L36.7,21.3L36.7,21.3l-0.1-0.1L36.7,21.3l-0.1-0.1L36.7,21.3L36.7,21.3l-0.1,0L36.7,21.3
		L36.7,21.3l-0.1,0.1l0,0l0-0.1l0,0.2l0,0l0,0.2l0,0l0,0l0,0l0,0l0-0.1l0,0l0-0.2l0,0l0,0l0,0l0-0.1l0,0l0-0.1l0,0.1l0-0.1l0,0.1
		l0,0l0,0.3l0-0.2l0,0l0-0.1c0,0.2,0,0.1,0,0.2l0-0.1l0,0.1v0l0,0l0,0c0,0,0,0,0,0.2v-0.2l0,0.2l0-0.3l0,0.1l0,0v0.2l0,0.2l0,0
		c0-0.2,0-0.4,0-0.4l0,0l0,0.2c0-0.2,0-0.1,0-0.2l0,0.2l0-0.2l0,0.2l0-0.2l0,0l0,0.1l0,0.2l0-0.3l-0.1,0.3c0,0,0,0,0,0l0.1-0.3
		l0-0.1l0-0.1l0,0l0,0.2l0-0.1l-0.1,0.3l0-0.2l0,0l0,0l0,0l0-0.1l-0.1,0.3c0,0,0,0,0,0l0,0l0,0l0,0c0,0,0,0,0,0l0.1-0.2l0,0.1l0-0.1
		l0,0.1l0,0l-0.1,0.1c0,0,0,0,0,0l0,0l0-0.1l0-0.1l0,0l0,0l-0.1,0.1c0,0,0,0,0-0.1l0,0l0-0.1l0,0l-0.1-0.1l0,0l0,0l0,0l0,0l0,0l0,0
		l0,0l0,0l0,0l0,0l0.1-0.3l0.1,0.1l0,0v0l0-0.1l0,0.1l0,0l0,0l0,0l0,0.1l0,0l0,0l0,0l0,0l0.1,0l0,0l0,0l0,0l0,0l0,0.1l0.1-0.1l0,0
		l0,0l0,0l0,0l0,0.1L36.7,21.3L36.7,21.3L36.7,21.3L36.7,21.3L36.7,21.3L36.7,21.3z M37.8,21.7L37.8,21.7L37.8,21.7l0,0.1L37.8,21.7
		l0,0.1L37.8,21.7l-0.1,0.1l0,0l-0.1,0l0.1,0.1l0,0l0,0l0,0l0,0.1l-0.1,0l0.1,0.1l0,0.1l0,0l0,0l0,0l0,0.1l-0.1,0.1l0,0l0,0.1h0
		l0.1,0.1c0,0,0,0,0,0l0,0l0,0c0,0,0,0,0,0l0,0l0,0l-0.1-0.1l0,0l0,0l0,0l-0.1,0l0,0l-0.1,0l0.1,0.2c0,0,0,0,0,0l-0.1-0.1l0,0l0,0
		l0,0.1l0-0.1l0,0.1l0,0l0,0l0,0.2l0-0.2l0,0.2l0-0.2l0,0.1l0,0v0l0,0v0l0,0.2l0,0.1c0,0,0,0,0,0l0-0.3l0,0l0,0.2l0-0.2l0,0.2l0-0.2
		l0,0.2l0-0.2l0,0l0,0l-0.1,0.2l0-0.2L37,22.8l0,0l0.1-0.2l0-0.1l0-0.1l0,0L37,22.5l0-0.1L37,22.6l0.1-0.1l0,0l0,0l0,0l0-0.1
		l-0.2,0.2l0,0l0,0l0,0l0,0l0,0l0.1-0.1l0,0l0,0l0,0l0,0l-0.1,0l0,0l0,0l0,0l0-0.1l0,0l0.1,0l0,0l0,0l-0.1,0l0-0.1l0,0l0.1-0.1l0,0
		l0.1-0.2l0,0l0,0l0,0l0,0l0-0.1l0,0l0,0l0,0l0,0l0.1-0.1l0,0l0,0l0.1-0.1l0.2-0.4l0,0c0,0,0,0,0,0l-0.1,0.1l0.1,0.1l0,0l0.1,0l0,0
		l0.2,0.1l0,0l0,0l0-0.1l0.2,0.1l0-0.1l0,0l0,0l0,0.1l0,0l-0.1,0l0.1,0.1l-0.1,0l0,0.1l0,0l0,0L37.8,21.7L37.8,21.7L37.8,21.7
		L37.8,21.7L37.8,21.7L37.8,21.7L37.8,21.7L37.8,21.7l0-0.1l0,0L37.8,21.7L37.8,21.7l-0.1-0.2L37.8,21.7L37.8,21.7L37.8,21.7
		L37.8,21.7L37.8,21.7L37.8,21.7L37.8,21.7L37.8,21.7L37.8,21.7L37.8,21.7L37.8,21.7L37.8,21.7l0-0.1L37.8,21.7L37.8,21.7L37.8,21.7
		L37.8,21.7z M37.8,21.6L37.8,21.6L37.8,21.6L37.8,21.6z M37.9,24L37.9,24L37.9,24L37.9,24z M37.9,24L37.9,24L37.9,24L37.9,24
		L37.9,24z M38,24L38,24L38,24L38,24z M38,24.1L38,24.1L38,24.1L38,24.1z M38,24L38,24L38,24L38,24L38,24L38,24l-0.1-0.1l0,0l0,0
		L38,24L38,24L38,24L38,24L38,24z M38,24L38,24L38,24L38,24L38,24L38,24z M38,24L38,24L38,24L38,24z M38.2,24.4L38.2,24.4
		C38.2,24.4,38.2,24.4,38.2,24.4z M38.2,24.6L38.2,24.6L38.2,24.6L38.2,24.6z M38.4,24L38.4,24L38.4,24L38.4,24L38.4,24L38.4,24
		L38.4,24L38.4,24L38.4,24l-0.1-0.1l0,0.1l0,0l0,0l0-0.1l0,0l0,0l0,0L38.1,24l0,0l-0.1,0l0,0l0,0l0,0l0,0l0,0l0-0.1l0.1,0.1L38,23.9
		l0-0.1l0,0l0,0l0,0l0-0.1l0,0l0,0l0-0.1l0,0L38,23.6l0,0l0,0l0,0l0,0l0,0l0,0l0,0.1l0,0l0.1,0.1l0,0l0,0l0,0l0,0.1l0,0l0,0
		l-0.1-0.2l0.1,0.1l0,0l0,0l0-0.1l0,0.1l0-0.1l0,0h0l0,0l0,0l0,0l0,0l0,0l0,0l-0.1,0.1l0,0l0,0l0,0l0-0.1l0,0.1l0,0l0,0.1l0,0l0,0v0
		l0,0l0,0l0,0L38.4,24L38.4,24L38.4,24z M38.3,23.5L38.3,23.5L38.3,23.5L38.3,23.5L38.3,23.5L38.3,23.5L38.3,23.5z M38.3,23.5
		L38.3,23.5L38.3,23.5L38.3,23.5z M38.4,23.5L38.4,23.5L38.4,23.5L38.4,23.5z M38.4,23.5L38.4,23.5L38.4,23.5L38.4,23.5L38.4,23.5z
		 M38.4,23.5L38.4,23.5L38.4,23.5L38.4,23.5L38.4,23.5z M38.4,23.6L38.4,23.6L38.4,23.6L38.4,23.6z M38.3,23.6L38.3,23.6L38.3,23.6
		L38.3,23.6L38.3,23.6l-0.1-0.1l0,0l0,0L38.3,23.6z M38.3,23.6L38.3,23.6L38.3,23.6L38.3,23.6L38.3,23.6z M38.4,23.5L38.4,23.5
		L38.4,23.5L38.4,23.5L38.4,23.5L38.4,23.5L38.4,23.5L38.4,23.5L38.4,23.5L38.4,23.5L38.4,23.5L38.4,23.5L38.4,23.5L38.4,23.5
		L38.4,23.5L38.4,23.5z M38.4,23.4L38.4,23.4L38.4,23.4L38.4,23.4z M38.4,23.5L38.4,23.5L38.4,23.5L38.4,23.5L38.4,23.5z M38.4,23.5
		L38.4,23.5L38.4,23.5L38.4,23.5z M38.5,23.8L38.5,23.8L38.5,23.8L38.5,23.8z M38.5,23.4L38.5,23.4L38.5,23.4L38.5,23.4z M38.5,23.4
		L38.5,23.4L38.5,23.4L38.5,23.4L38.5,23.4L38.5,23.4L38.5,23.4L38.5,23.4L38.5,23.4L38.5,23.4z M38.5,23.4L38.5,23.4L38.5,23.4
		L38.5,23.4L38.5,23.4L38.5,23.4z M38.5,23.4L38.5,23.4L38.5,23.4C38.5,23.4,38.5,23.4,38.5,23.4z M38.5,24.4L38.5,24.4L38.5,24.4
		L38.5,24.4L38.5,24.4z M38.6,22.8L38.6,22.8L38.6,22.8L38.6,22.8z M38.6,22.8L38.6,22.8L38.6,22.8L38.6,22.8L38.6,22.8L38.6,22.8
		l-0.1,0.2l0,0c0,0,0,0,0,0l0,0l0,0l0,0c0,0,0,0,0,0l0-0.1l0,0l0-0.1l0,0v0l0,0l0-0.1l0,0l0,0l0,0v0l0,0.1l0,0l-0.1,0.2l0-0.1l0,0
		l0-0.1l-0.1,0.1l0-0.1l-0.1,0.1l0,0l0,0l-0.1,0.1l0.1-0.1l-0.1,0.1l0.1-0.1l0,0l-0.1,0.1L38,23c0,0,0,0,0,0l0.2-0.2l0,0l-0.1,0.1
		l0.1-0.1L38,22.9l0.2-0.1L38,22.9l0.2-0.1l0,0l0,0l0,0L37.8,23l0.2-0.2L37.8,23c0,0,0,0,0,0l0.3-0.2l0.1,0l0.1,0l0,0l-0.2,0.1
		l0.1,0l-0.3,0.1l0.2-0.1l0,0l0.1,0l0,0l0.1,0l-0.3,0.2c0,0,0,0,0,0l0,0l0,0l0,0c0,0,0,0,0,0l0.2-0.1l-0.1,0l0.1,0l-0.1,0l0,0
		l-0.1,0c0,0,0,0,0,0l0,0l0.1-0.1l0.1,0l0,0l0,0l-0.1,0c0,0,0-0.1,0.1-0.1l0,0l0,0l0.1,0l0,0l0,0l-0.1,0l0.1,0.1l0-0.1l0,0.1l0-0.1
		l0,0.1l0-0.1l0.1,0l0,0l0.1,0l0,0.1l0,0l0,0L38.6,22.8l0-0.1L38.6,22.8L38.6,22.8L38.6,22.8L38.6,22.8L38.6,22.8L38.6,22.8
		L38.6,22.8L38.6,22.8L38.6,22.8z M38.8,22.9L38.8,22.9L38.8,22.9L38.8,22.9z M38.8,22.9C38.8,22.9,38.8,22.9,38.8,22.9L38.8,22.9
		L38.8,22.9C38.7,22.9,38.7,22.9,38.8,22.9L38.8,22.9L38.8,22.9L38.8,22.9L38.8,22.9L38.8,22.9L38.8,22.9z M38.8,22.9L38.8,22.9
		L38.8,22.9L38.8,22.9z M39,22.8L39,22.8L39,22.8L39,22.8L39,22.8L39,22.8L39,22.8z M40.2,24.6L40.2,24.6L40.2,24.6L40.2,24.6z
		 M40.2,24.6L40.2,24.6C40.1,24.6,40.1,24.6,40.2,24.6L40.2,24.6L40.2,24.6C40.2,24.6,40.2,24.6,40.2,24.6L40.2,24.6z M40.2,24.6
		L40.2,24.6L40.2,24.6L40.2,24.6z M41.6,24.9L41.6,24.9L41.6,24.9L41.6,24.9z M42,24.3L42,24.3L42,24.3L42,24.3L42,24.3z M42.2,24.3
		L42.2,24.3L42.2,24.3L42.2,24.3L42.2,24.3z M42.2,24.3L42.2,24.3L42.2,24.3L42.2,24.3L42.2,24.3z M42.2,24.4
		C42.2,24.4,42.2,24.4,42.2,24.4L42.2,24.4l0.1,0L42.2,24.4z M43.4,22C43.4,22,43.4,22,43.4,22L43.4,22C43.4,22,43.4,22,43.4,22
		C43.4,21.9,43.4,21.9,43.4,22L43.4,22C43.4,21.9,43.4,21.9,43.4,22L43.4,22z M43.8,22.1L43.8,22.1L43.6,22l0,0
		C43.7,22,43.7,22.1,43.8,22.1C43.8,22.1,43.8,22.1,43.8,22.1z M44,22.2L44,22.2c-0.1,0-0.1,0-0.1,0c0,0,0,0,0-0.1
		C43.9,22.1,43.9,22.2,44,22.2L44,22.2L44,22.2L44,22.2L44,22.2C44,22.2,44,22.2,44,22.2L44,22.2L44,22.2L44,22.2z M44,22.3L44,22.3
		L44,22.3C44,22.3,44,22.3,44,22.3z"/>
	<polygon fill="#AF882E" points="29.1,15.9 29.1,15.9 29.1,16 29.1,15.9 29.1,15.9 	"/>
	<path fill="#AF882E" d="M43.9,23.4L43.9,23.4c0-0.1,0-0.1,0-0.1C44,23.2,43.9,23.3,43.9,23.4L43.9,23.4z"/>
	<path fill="#AF882E" d="M33.8,24.8C33.8,24.8,33.8,24.8,33.8,24.8C33.8,24.8,33.8,24.8,33.8,24.8C33.8,24.8,33.8,24.8,33.8,24.8z"
		/>
	<path fill="#AF882E" d="M43.9,23.4l0.2-0.1v0L43.9,23.4C43.9,23.4,43.9,23.4,43.9,23.4L43.9,23.4z"/>
	<polygon fill="#AF882E" points="29,15.9 29,15.9 29,16 29,16 29,16 29,16 	"/>
	<path fill="none" stroke="#AF882E" stroke-width="0" stroke-linecap="round" stroke-linejoin="round" d="M33.8,24.8
		c-0.1,0-0.1,0-0.2,0"/>
	<polygon fill="#AF882E" points="29.1,16 29,16 29.1,16 	"/>
	<polygon fill="#AF882E" points="43.9,23.4 43.9,23.4 43.9,23.4 43.9,23.4 43.9,23.4 	"/>
	<path fill="#AF882E" d="M31,24.2C31,24.2,31,24.2,31,24.2L31,24.2l-0.1,0.1c0,0,0,0,0,0L31,24.2z"/>
	<polygon fill="#AF882E" points="44,22.2 44,22.2 44,22.2 	"/>
	<polygon fill="#AF882E" points="25.3,45.3 25.3,45.3 25.3,45.3 	"/>
	<polygon fill="#AF882E" points="33.6,14.6 33.6,14.6 33.6,14.6 	"/>
	<path fill="#AF882E" d="M43.8,22.4L43.8,22.4C43.8,22.4,43.8,22.4,43.8,22.4C43.8,22.4,43.8,22.4,43.8,22.4z"/>
	<rect x="29.3" y="23.2" fill="#AF882E" width="0" height="0"/>
	<polygon fill="#AF882E" points="29.3,23.2 29.3,23.2 29.3,23.2 29.3,23.2 	"/>
	<polygon fill="#AF882E" points="35.9,12.9 35.9,12.9 35.9,12.9 	"/>
	<path fill="#AF882E" d="M42.5,24.5C42.4,24.5,42.4,24.5,42.5,24.5L42.5,24.5L42.5,24.5L42.5,24.5z"/>
	<polygon fill="#AF882E" points="42,24.9 42,24.9 42,25 	"/>
	<polygon fill="#AF882E" points="41.9,25 41.8,25 41.8,25 	"/>
	<polygon fill="#AF882E" points="42.5,24.5 42.4,24.5 42.3,24.5 	"/>
	<polygon fill="#AF882E" points="43.8,23.4 43.8,23.4 43.8,23.4 	"/>
	<polygon fill="#AF882E" points="44.3,22.4 44.3,22.4 44.3,22.4 44.2,22.4 44.2,22.4 	"/>
	<path fill="none" stroke="#AF882E" stroke-width="0" stroke-linecap="round" stroke-linejoin="round" d="M28.5,21.9
		c0,0,0,0.1,0,0.2"/>
	<path fill="none" stroke="#AF882E" stroke-width="0" stroke-linecap="round" stroke-linejoin="round" d="M28.5,22
		c0,0,0.1,0.1,0.1,0.1"/>
	<path fill="#AF882E" d="M28.8,31.8l0.2-0.4C29,31.5,28.9,31.7,28.8,31.8z"/>
	<polygon fill="#AF882E" points="29.6,15.5 29.6,15.5 29.7,15.5 	"/>
	<path fill="#AF882E" d="M32.9,24.7l-0.1,0C32.8,24.7,32.8,24.7,32.9,24.7L32.9,24.7z"/>
	<polygon fill="#AF882E" points="29.1,23.7 29.1,23.7 29.1,23.7 	"/>
	<path fill="#AF882E" d="M30.3,24.3c-0.1,0-0.2,0-0.2,0C30.2,24.3,30.2,24.3,30.3,24.3z"/>
	<polygon fill="#AF882E" points="36.7,13 36.7,13 36.6,13.1 	"/>
	<path fill="#AF882E" d="M26.5,38.3c0,0,0,0.1-0.1,0.3C26.4,38.5,26.4,38.4,26.5,38.3z"/>
	<path fill="#AF882E" d="M30.4,29.6c-0.6,0.6-0.1,0.2-0.6,0.7c-0.1,0.2,0.4-0.5,0.3-0.3C30.4,29.7,30.6,29.5,30.4,29.6z"/>
	<polygon fill="#AF882E" points="31.4,14.2 31.3,14.3 31.5,14.1 	"/>
	<path fill="#AF882E" d="M34.2,13.3l-0.3,0.2l0,0h0C34,13.4,34.3,13.3,34.2,13.3z"/>
</g>
</svg>
