<?xml version="1.0" encoding="utf-8"?>
<!-- Generator: Adobe Illustrator 19.1.0, SVG Export Plug-In . SVG Version: 6.00 Build 0)  -->
<svg version="1.1" id="Layer_1" xmlns="http://www.w3.org/2000/svg" xmlns:xlink="http://www.w3.org/1999/xlink" x="0px" y="0px"
	 width="50.1px" height="49.7px" viewBox="0 0 50.1 49.7" enable-background="new 0 0 50.1 49.7" xml:space="preserve">
<g>
	<path fill="none" d="M48.4,32.2C48.5,31.9,48.6,31.8,48.4,32.2L48.4,32.2z"/>
	<path fill="none" d="M0.8,30.7c0.1,0.1,0.2,0.2,0-0.2L0.8,30.7z"/>
	<path fill="none" d="M17.1,3.7c-0.3,0-0.5-0.1-0.5,0.3C16.7,4.1,16.9,3.8,17.1,3.7z"/>
	<path fill="none" d="M30.1,2.3c-0.2-0.1-0.4-0.2-0.5-0.2C29.8,2.3,30,2.3,30.1,2.3z"/>
	<path fill="none" d="M42.5,8.2c0,0,0.1,0,0.1,0C42.5,8,42.5,8.1,42.5,8.2z"/>
	<path fill="none" d="M42.5,42L42.5,42L42.5,42C42.4,42,42.4,42,42.5,42z"/>
	<polygon fill="none" points="42.5,42 42.5,42 42.5,42 	"/>
	<path fill="none" d="M42.4,41.9c0,0,0,0.1,0,0.1C42.5,41.9,42.7,41.7,42.4,41.9z"/>
	<path fill="#AF882E" d="M25.2,49.4c-0.2,0-0.1,0.2-0.2,0.3C25.5,49.6,25.2,49.3,25.2,49.4z"/>
	<polygon fill="#AF882E" points="28.9,48.5 29.4,48.2 28.9,48.4 	"/>
	<path fill="#AF882E" d="M30.4,48l-0.2,0.4c0.7-0.3,1.6-0.7,2.2-0.8c-0.5-0.3-1.2,0.4-1.8,0.4L30.4,48z"/>
	<path fill="#AF882E" d="M34,47.9C34,47.9,34.1,48,34,47.9c0.2,0,0.3,0,0.4-0.1C34.3,47.7,34.8,47.5,34,47.9z"/>
	<path fill="#AF882E" d="M34.1,48C33.7,48.1,34.4,48,34.1,48L34.1,48z"/>
	<path fill="#AF882E" d="M35.7,47.2l-0.4,0.4c0.1,0,0.6-0.1,0.4,0C36.1,47.2,36,47.2,35.7,47.2z"/>
	<path fill="#AF882E" d="M35.9,46.7l-0.2,0.2C35.8,46.8,35.9,46.8,35.9,46.7z"/>
	<path fill="#AF882E" d="M35.3,47.2l0.4-0.4c-0.1,0-0.2-0.2-0.2,0.2C35.5,46.8,35.5,47,35.3,47.2z"/>
	<path fill="#AF882E" d="M34.8,47c-0.9,0.4-0.6,0.7,0.3,0.2C34.7,47.3,34.4,47.4,34.8,47z"/>
	<path fill="#AF882E" d="M32.4,47.1l-0.4,0l-0.3,0.2C31.9,47.2,32.4,47.2,32.4,47.1z"/>
	<path fill="#AF882E" d="M37.9,45.9c0.2,0,0.5-0.2,0.6-0.1c0-0.1-0.3-0.1-0.4-0.2l0.4-0.4c-0.4,0.2-0.5,0.4-0.4,0.4c0,0,0,0,0,0
		L37.9,45.9z"/>
	<polygon fill="#AF882E" points="35.8,46.2 35.2,46.9 35.9,46.1 	"/>
	<polygon fill="#AF882E" points="40.4,44.3 40.3,44.6 40.1,45 	"/>
	<path fill="#AF882E" d="M42.2,43c-0.2,0.3-0.4,0.5-0.9,0.7c-0.1,0.3,0.4,0,0.3,0.3C41.9,43.7,42.1,43.3,42.2,43z"/>
	<path fill="#AF882E" d="M39.5,44.6L39.5,44.6l-0.2,0.1c0.1,0,0.2,0.1,0.5,0L39.5,44.6c0.2-0.1,0.3-0.2,0.4-0.3
		C39.8,44.3,39.7,44.4,39.5,44.6z"/>
	<path fill="#AF882E" d="M39.3,44.7C39.3,44.7,39.3,44.7,39.3,44.7L39.3,44.7z"/>
	<path fill="#AF882E" d="M37.2,45.1c-0.1,0.3,0.3,0.2,0,0.6C37.4,45.4,37.8,44.9,37.2,45.1z"/>
	<path fill="#AF882E" d="M38.3,44.9c0,0.1,0.2,0.1,0.1,0.2c0,0,0.4-0.5,0.4-0.5C38.9,44.6,38.3,44.9,38.3,44.9z"/>
	<polygon fill="#AF882E" points="39,44.4 38.9,44.6 39,44.5 	"/>
	<path fill="#AF882E" d="M41.5,43c0.1-0.3,0.3-0.5,0.5-0.7c-0.3,0.2-0.5,0.4-0.8,0.6c0,0,0-0.1-0.1,0c-0.2,0.1-0.3,0.3-0.3,0.4
		c0.1-0.1,0.3-0.3,0.4-0.4C41.3,43.1,41.3,43.3,41.5,43z"/>
	<path fill="#AF882E" d="M40.6,43.7C40.5,43.7,40.5,43.8,40.6,43.7L40.6,43.7z"/>
	<polygon fill="#AF882E" points="44,40.1 44.1,40.1 44.1,40.1 	"/>
	<path fill="#AF882E" d="M42.9,41.8c-0.1,0.1-0.3,0.1-0.4,0.2C42.7,42,43,41.9,42.9,41.8z"/>
	<path fill="#AF882E" d="M40.7,43.7L40.7,43.7C40.8,43.8,40.7,43.8,40.7,43.7z"/>
	<path fill="#AF882E" d="M40.6,43.7c0,0,0.1,0,0.1,0c0.1-0.1,0.1-0.2,0.2-0.3C40.7,43.5,40.6,43.6,40.6,43.7z"/>
	<path fill="#AF882E" d="M43.2,39.7c0.4-0.6,0.4-0.4,0.8-0.6c-0.4,0.1,0.2-1-0.3-1.2l-0.2,0.6c-0.1,0,0-0.3-0.2-0.2
		c0.2,0.2,0,0.9-0.6,1.1c-0.2,0.5,0.6,0.8,1.3,0.7c-0.1-0.1-0.1-0.1,0.1-0.7C43.9,39.5,43.1,40.2,43.2,39.7z"/>
	<path fill="#AF882E" d="M43.9,40.7c0.2-0.4,0.2-0.5,0.1-0.6L43.3,41l0-0.1l-0.1,0.2c0,0,0,0,0,0c-0.2,0.2-0.4,0.4-0.7,0.8
		c0.3-0.2,0.1,0,0,0.1l0,0h0c0,0,0.7-0.9,0.7-0.9C43.4,40.9,43.6,40.9,43.9,40.7z"/>
	<path fill="#AF882E" d="M42.5,42C42.4,42,42.4,42,42.5,42L42.5,42c0-0.1-0.1-0.1-0.1-0.1c0-0.3,0.2-0.8-0.2-0.8
		c-0.5,0.5-0.2,0.5-0.4,0.9c0.8-0.8-0.1,0.3,0.6-0.1c-0.1,0.2-0.3,0.3-0.4,0.5C42.2,42.2,42.4,42.1,42.5,42L42.5,42L42.5,42L42.5,42
		z"/>
	<path fill="#AF882E" d="M37.3,44.3C37.4,44.3,37.4,44.3,37.3,44.3C37.4,44.2,37.5,44.2,37.3,44.3z"/>
	<path fill="none" stroke="#AF882E" stroke-width="0" stroke-linecap="round" stroke-linejoin="round" d="M38.6,44.4
		C38.6,44.4,38.6,44.4,38.6,44.4"/>
	<path fill="#AF882E" d="M37.6,44.5c0.3-0.1,0.8-0.2,1-0.1c-0.2-0.1-0.4-0.2-0.8-0.2C37.8,44.3,37.8,44.4,37.6,44.5
		c-0.3,0-0.1-0.2-0.2-0.2C37.3,44.5,37.1,44.8,37.6,44.5L37.6,44.5z"/>
	<path fill="#AF882E" d="M40.2,42.5l0.1,0.1c-0.4,0.3-0.2,0.3-0.2,0.5c0,0,0.6-0.7,0.6-0.7L40.2,42.5z"/>
	<polygon fill="#AF882E" points="44.4,40.4 44.4,39.7 44.3,40.1 	"/>
	<polygon fill="#AF882E" points="45.2,38.9 45,39.1 45.1,39.3 	"/>
	<path fill="#AF882E" d="M14.7,4.9l0-0.1C14.7,4.8,14.7,4.9,14.7,4.9z"/>
	<path fill="#AF882E" d="M45.6,10.1l-0.2,0.3c0.2,0.2,0.3,0.4,0.3,0.6C45.7,10.5,45.8,9.9,45.6,10.1z"/>
	<path fill="#AF882E" d="M28.5,2.5L28,2.2C28.1,2.3,28.3,2.4,28.5,2.5z"/>
	<path fill="#AF882E" d="M6.7,12.8c0.2-0.4,0-0.3-0.1-0.4L6.7,12.8z"/>
	<path fill="#AF882E" d="M49.4,27.6c0.2-0.3,0.2-0.6,0.3-0.8C49.5,27.2,49.2,27.5,49.4,27.6z"/>
	<path fill="#AF882E" d="M12.7,42.8C12.7,42.8,12.7,42.8,12.7,42.8C12.8,42.8,12.7,42.8,12.7,42.8z"/>
	<path fill="#AF882E" d="M21.8,48.9c-0.1,0-0.3,0-0.5,0C21.4,48.9,21.5,48.9,21.8,48.9z"/>
	<path fill="#AF882E" d="M47.3,35.2c0.1-0.1,0.1-0.2,0.2-0.3C47.4,35,47.4,35.1,47.3,35.2z"/>
	<path fill="#AF882E" d="M47.4,35.2c0,0.1-0.1,0.1-0.1,0.2C47.3,35.5,47.3,35.5,47.4,35.2z"/>
	<path fill="#AF882E" d="M47.5,34.9L47.5,34.9c0-0.1,0.1-0.2,0.1-0.3C47.6,34.7,47.6,34.8,47.5,34.9C47.5,34.9,47.5,34.9,47.5,34.9
		C47.4,35.2,47.5,35,47.5,34.9z"/>
	<path fill="#AF882E" d="M2.3,27.8C2.4,28,2.4,27.9,2.3,27.8C2.3,27.8,2.3,27.8,2.3,27.8z"/>
	<path fill="#AF882E" d="M38.8,7.5c0.5,0,0.6,0.1,0.8,0.4l0,0l0,0l0,0l0.3-0.8L38.8,7.5z"/>
	<path fill="none" stroke="#AF882E" stroke-width="0" stroke-linecap="round" stroke-linejoin="round" d="M3.1,22.6c0,0,0-0.1,0-0.1
		"/>
	<path fill="none" stroke="#AF882E" stroke-width="0" stroke-linecap="round" stroke-linejoin="round" d="M13.8,5.2
		C13.8,5.3,13.8,5.3,13.8,5.2"/>
	<path fill="#AF882E" d="M1.2,31.4c0.3,0.4,0.3,1,0.5,0.4c-0.2,0.4,0.1,1.4,0.5,2.3c0.4,0.9,0.9,1.7,0.9,1.9c0.5,0.5,0.9,1,1.3,1.7
		c0-0.2,0.2-0.5,0.6,0.1C4,38,5.3,39,5.2,39.8c0-0.6,1.3,1.5,1.3,0.5c0.3,0.5-0.2,0.2-0.1,0.7c1.2,0.8,2,2.3,3.5,3.3
		c0.1-0.1,0-0.4,0.4-0.3l0.4,1c0.3,0.1,0.6-0.3,0.9,0.3c0-0.1-0.1-0.3,0.2-0.2c2.6,2.3,6.2,2.6,9.4,4c-0.4-0.3-0.1-0.3,0.2-0.2
		c-0.2-0.1,0-0.3,0-0.4c0,0,1.4,0.6,1.4,0.6c0.3-0.4,1.5,0,1.7-0.4l-0.4,0.1c0.6-0.4-0.8-1.1-0.6-1.7c-0.7,0.6-1.5-1-2.6-0.3
		c-0.2-0.2,0.2-0.2,0.1-0.3c-0.3,0.2-0.6,0.2-1.1,0l0.1,0c-1.6-0.3-2.2-0.8-3.7-1.6l0,0.3c-0.3-0.2-0.4-0.3-0.5-0.5
		c-0.6,0.2,1,0.5,0.4,0.8c-0.2-0.7-2.5-1.2-2.4-2c-0.5-0.3,0,0.4-0.5,0.1l0-0.2l-0.3,0.1c-0.3-0.2-0.3-0.6-0.3-0.7
		c0.1,0.1,0.2,0.1,0.3,0.2c-0.3-0.5-1.2-0.8-1.3-0.9l0.4,0.4c-1.4-0.8-2.7-2.3-4-3.2l0,0.2c-1-0.7-0.5-0.8-1.4-1.8l0.1,0
		c-0.3-0.1-0.5-0.4-0.7-0.7c0.3,0.2-0.1-0.7,0.3-0.4c-0.9-1-0.5-0.4-1.4-0.9l0.1-0.3C4.5,35,4.3,35,4,34.4c0.4,0.4,0.1-0.5,0.6-0.1
		c-0.2-1.4-1.3-1.7-0.8-2.5c-0.8-0.4,0.1,1.2-0.2,1C3.5,33.1,3,32.4,2.9,32c-0.2-0.4,0.6-1,0.2-2c0,0.1,0.1,0.1,0.1,0.2
		c0.1-0.4-0.5-0.7-0.3-1.3c-0.4-0.2-0.1-0.7-0.6-0.6l0.3,1c-0.2-0.5-0.9-1-0.8-2c0.1,0.1,0.3,0.3,0.4,0.5c0.1-0.3-0.2-0.5-0.1-0.8
		c0.5,0,0.3,1.2,0.8,1.8c0.2-0.3-0.5-1.1,0-0.9c-0.8-0.3-0.1-1.1-0.6-1.8l0.3,0c-0.1-0.1-0.2-0.3-0.2-0.6l0.4,0.4
		c-0.4-0.6,0.2-1.2,0.1-1.7c0,1.2-0.4,0.3-0.6,0.8C2,23.5,3.1,24,3.1,22.6c0,0.3-0.2,0.7-0.3,0.4C2.8,22.6,3,22.2,3.1,22
		c0.1-1.1-0.3,0.1-0.4-0.4c0.4-0.3-0.1-0.6-0.1-1.1l0.3,0c0.4-1.2-0.6-0.5-0.1-1.5l0.3,0.6l0-0.6l0.3,0.2c-0.1-0.7,0-0.9,0.3-1.4
		c-0.3,0.1-0.5-0.2-0.3-0.8c0.3-0.3,0.2,0.3,0.4-0.5c0.1,0.2,0.3,0.5-0.1,0.7c0.1,0.1,0.1,0.2,0.2,0.3c0.3-0.3,0.4-0.9,0.5-1.2
		c0,0.1-0.1,0.2-0.2,0.3c0,0,0-1.2,0-1.2c0.2-0.1,0.2,0,0.2,0.2c0.1-0.2,0-0.4,0.1-0.7C4.8,15.2,5,15.2,5,15.7l0.2-1.1
		c0.1,0,0.5-0.4,0.5-0.2C6.1,14,6,13,6.6,12.4l0,0l0-0.1l0,0c0-0.1,0-0.1,0.1-0.3c0.5-0.6,1.1-0.9,1.4-1.8l0.7-0.1
		c0.4-0.6-0.9,0.1-0.2-0.8c0.4-0.7,0.5,0,0.8-0.1C9.4,8.8,9.6,8,10.4,7.8C10.2,8,10.1,8.1,9.9,8.3l0.6-0.2c-0.2,0.8-0.7,1-0.1,0.9
		C9.9,8.2,12,7.5,11.6,6.8L12,6.7c-0.1,0.1-0.1,0.1-0.2,0.2c0.8-0.1,0.1-0.8,1-1.2c0.3-0.1,0.6-0.1,0.4,0.1l0.5-0.6
		c0.2-0.1,0.2,0,0.1,0.1c0.2-0.1,0.9-0.5,0.9-0.5l0,0C14.8,4.5,15,4.2,15.2,4c0.3,0-0.1,0.1,0,0.2c0,0,0.5-0.5,0.5-0.5
		c0.3,0.1-0.1,0.5-0.5,0.7C16.1,5,15.6,4,16.9,4l-0.5,0.3c0.5,0.3,0.9,0,1.6,0c-0.2-0.1-1.5-0.2-0.9-0.7c0.2,0,0.4-0.1,0.7-0.4
		c0.1,0.3,0.4,0.1,0.8,0l0.1,0.4c0.4-0.2,0.3-0.4,0.6-0.7c0.5-0.1,0.7,0.2,0.9,0.4c0.8-0.1-0.7-0.4,0.3-0.6c0.7,0.1,1.2-0.3,2-0.5
		c0.5,0.1-0.1,0.3,0.1,0.4L23,2.3c0.1,0,0.1,0.1,0.1,0.2c0.4-0.2,0-0.4,0.6-0.6c0.2-0.5,1.2,0.6,2,0.2c0.2,0.1-0.1,0.2-0.1,0.4
		c1-0.3,0.9-0.2,1.7-0.5L28,2.2c-0.5-0.4,0.2-0.6,0.9-0.8c-0.2-0.2-0.3-0.3-0.4-0.4c0,0,1-0.1,1,0c0.1,0.1,0,0.2-0.2,0.3l0.2,0
		c0.3,0.2,0.1,0.4-0.2,0.6L29,1.5c0.1-0.1,0.2-0.1,0.3-0.2c-0.1,0-0.3,0-0.4,0.1L29,1.5c-0.3,0.2-0.5,0.4-0.5,0.7
		c0.1,0,0.2-0.1,0.3-0.1c-0.1,0.1-0.1,0.1-0.1,0.2c0,0,0.1,0,0.3-0.1l0.1,0.5l0.1-0.2l1.1,0.6c1-0.3,1.9-0.6,3.3-0.3
		c-0.4,0.2-0.3,0.5-0.4,0.8c-0.2-0.5-1.1-0.2-1.7-0.5c0.3,0.2,0.2,0.3,0.1,0.3l1.3,0.1c-0.1,0.3,0.2,0.3,0.4,0.6c0-0.7,1,0,1.6,0.1
		c-0.1,0.2-0.3,0.3-0.8,0c0.4,0.7,1.2-0.3,1.6,0.4c-0.1-0.1-0.2-0.1-0.3-0.1c0.4,0,1.1,0.6,0.8,0.7l-0.1-0.1c0.9,0.5,2.6,1.8,3,1.4
		c0,0.1-0.5,0.4-0.6,0.5c0,0,0.6-0.1,1.3-0.1l1.3,0c-0.4,0.2-0.7,1.4-1.5,1.1c0.1,0.2,0.3,0.4,0.8,0.7c-0.1-0.2,0.2-0.8,0.4-0.6
		c0.1,0.8,0.1,0.5,0.3,1.4c-0.1-0.3,0.6-0.5,0.9-0.2c-0.1,0-0.5,0.5-0.7,0.4c0,0,1.2,0.3,1.2,0.3c-0.3-0.1-0.5,0.3-0.5,0.6
		c0-0.2,0.5,0.7,0.7,0.8L42.5,11c0.6,0.9,1.5,0.3,2.1,1.3c-0.2,0-0.9,0.2-0.7,0.7c0.5,0,2.1,0.1,2.8,1l-0.1,0.3c0,0,0.6,0.6,0.6,0.6
		c-0.7-0.3-2.4-1-3-1.4c0,0.4-0.2,0.2,0.1,0.8c-0.1,0.3-0.4-0.2-0.5-0.3l0.5,1.3c0.4-0.2,0.8,0.8,1.1,0.6c0,0-1-1.2-1-1.2
		c0.3-0.2,1.5,0.3,1.8,1.3c-0.1,0.3-0.8,0.1-0.9,0.2c0.2,0.1,0.6,0.8,0.5,0.9l-0.4-0.3c0.1,0.6,0.9,0.7,0.7,1.5
		c0,0.2-0.3,0.8-0.1,0.8c0.4-0.5,1.8-1,2.2-0.8c0,0.1-0.1,1.4-0.3,1.7c-0.3,0.5-1-0.4-1.2,0c0.1,0,0.3,0.2,0.4,0.3
		c-0.1,0.3-0.4,0-0.2,0.5c0.4,0,0.2,1.1,0.4,0.2c0.2,0.5,0,0.6,0.1,1.2c0.3-0.2,1.2,0.5,1.3,1c-0.1,0-0.1,0.1-0.1,0.2v0
		c0,0.1-0.2,0.1-0.2,0c0.1,1.1-0.3,1.7-0.3,2.8c-0.1,0.1-0.3,0.6-0.5,0.4c0.1,0.2,0.2,0.3,0.1,0.6c-0.5,0.6,0-0.7-0.5-0.3
		c0.2,0.1,0.2,0.8,0.3,1.3c0.4-0.1,0.2-1,0.1-1.5c0.5,0,1,0.9,1,2.1c0,0.9-0.4,0.3-0.4,0.5c-0.5,1.6,0.6,1.7-0.2,2.9
		c-0.5,0.4-0.6-0.2-0.9-0.1c0.1-0.7,0.6-1,0.6-1.5L47.4,31c-0.1-0.3,0-0.7,0.1-1c-0.4,0.4-0.8,2.7-1.6,3.7c0,0.2,0,0.7,0.2,0.5
		l0.1-0.4c0.4-0.2,0,0.9,0.4,0.4c-0.1,0.6,0,1.3-0.6,1.9l-0.4-0.1c0.1,0,0.5-0.3,0.5-0.6c0,0.4-1.1,0.8-0.8,1.3l0.5-0.3
		c-0.1,0.6-0.1,1.4-0.6,1.9c0.5-0.1,0.1-0.2,0.7-0.3c-0.7,0.1,1-1.6,0.1-1.3c0.7-0.2,0.7-0.7,1.4-1.1c-0.1,0-0.3,0.1,0-0.4
		c0,0,0-0.1,0-0.2l0,0l0,0c0,0,0,0,0,0c-0.1,0.1-0.2,0.2-0.3,0.2c-0.1-0.4,0.3-1.3,0.3-1.6c0.2-0.3,0.1,0.2,0.3,0.1l0-0.5
		c0.3,0.1,0.7-0.7,0.6,0.1l0.3-0.7c0.3-0.4,0.6-0.9,0.6-1.3c0.1-0.3-0.1-1,0.1-0.6l0.1-1.2l0.1,0c0.3-1.2,0-2.4,0.5-3.7
		c0,0.3,0.1,0.5,0,0.8c0.2-0.3,0.2-0.7,0-1c0,0.1,0,0.1-0.1,0.2c-0.1-0.4-0.1-0.8,0-1.5l0.2-0.1c-0.1-0.5,0.2-1.5-0.1-1.8
		c0.7-0.6-0.1-2.5-0.2-3.4l-0.3,0c-0.1-0.6-0.4-1.2-0.7-1.9l-0.3,0.1c-0.4-0.6-0.3-1.6-0.7-2.6c0.1,0,0.2,0.3,0.2,0.5
		c0.2-1.4-1.5-2.2-1.6-3.4c-0.2-0.2-0.3-0.4-0.4-0.6l0.1,0.1l-0.1-0.1c0-0.1-0.1-0.3-0.1-0.4c0,0.1,0,0.3,0,0.4
		c-0.1-0.2-0.3-0.4-0.6-0.7l0.2-0.3c0,0,0,0,0-0.1c-0.1-0.3-0.3-0.1-0.4,0.1c-0.1-0.1-0.3-0.2-0.4-0.2c0.2-0.5-0.6-0.6-0.4-1.1
		c-0.3,0-1-1-1.6-0.9c-0.2-0.3-0.4-0.6-0.7-0.7l0.2-0.4c0,0-0.9-0.2-0.9-0.2c-0.2-0.5-0.2-0.7,0.3-0.6c-1.1-0.4-0.8-0.5-1.8-0.8
		l0.2-0.2c-0.3-0.2-0.9-0.2-1-0.5c-0.3-0.9-3.1-2.1-4.7-3.2c0.1,0.8-0.7-0.6-1-0.1c0-0.2-0.3-0.4,0.1-0.4c-1-0.2-1.4-0.8-2.2-0.5
		c-0.1-0.2,0.3-0.2,0.2-0.3c-0.1,0-0.4,0.1-0.4-0.1c-0.1-0.1,0.2-0.1,0.4-0.1c-1-0.2-1.2,0.3-1.4,0.7c-0.4-0.4-0.7-0.4-1.1-0.1
		c-0.1-0.2-0.4-0.4,0.2-0.4c-0.3-0.1-2.1-0.5-2.2-0.1c-0.1-0.1-0.5-0.1-0.6,0c-0.8-0.1-0.9-0.1-1.6-0.1l0.2,0.1
		c-0.3,0.5-0.6,0.1-1.3,0.2l0,0c-1.5-0.2-0.6,0.2-2-0.1l0.1,0.3c0,0.7-1.3-0.2-2.1,0.2l0.3,0.1c-0.4,0.3-1.4-0.5-1.9-0.5
		c-0.1,0,0.1-0.1,0.3-0.2c-1.3,0,0,0.4-0.9,0.7c-0.2-0.2,0-0.6-0.6-0.4c-0.4,0-1.4,1.3-2.3,1.2c0.2,0.1,0.5,0.1,0.1,0.4
		c-0.5,0.3-1.8,0.2-2.1,1c-0.1,0-0.1,0-0.2,0c0.1-0.1,0.2-0.2,0.1-0.3C12.2,3,12.2,3,12.2,3.1c-0.3,0.4-1.2,1-1.3,1.4
		C10,3.9,8.9,6.7,8.3,6L7.3,7.1l0-0.1C6.5,7.6,6.5,8,6.4,8.4C6.2,8.6,6.3,8.4,6.2,8.3c-1.1,0.9-1.1,1.1-1.4,2.3l-0.3-0.1
		C4.5,10.9,3,12,2.7,13.4c0,0-0.1-0.1-0.1-0.2c-0.4,1.5-2.3,3.1-1.3,4c0,0,0,1,0,1c0.4-1.2,0.4,0.3,0.7-0.2c0,0.5-0.6,1.2-0.5,0.6
		l0.1-0.1C1,18.3,1,20.1,0.6,20c-0.4,2.5-0.8,5.1-0.5,7.5l0.4-0.3c0,0,0.1,0.8,0.1,0.8c-0.1,0.2-0.3,0.4-0.4-0.3
		c-0.2,0.4,0.4,1,0.5,1c0,1.2-0.6-0.4-0.6,0l0.1,0.5l0-0.1c0.3,0.4,0.4,0.4,0.6,1.1c0,0.5-0.2,0.3-0.2,0.5c0,0,0,0.1,0.1,0.3L1,32
		L1.2,31.4z M48.4,32.2L48.4,32.2C48.6,31.8,48.5,31.9,48.4,32.2z M42.6,8.2c0,0-0.1,0-0.1,0C42.5,8.1,42.5,8,42.6,8.2z M30.1,2.3
		c-0.2,0.1-0.3,0-0.5-0.2C29.8,2.1,29.9,2.2,30.1,2.3z M17.1,3.7c-0.1,0.1-0.4,0.4-0.5,0.3C16.6,3.6,16.8,3.7,17.1,3.7z M0.8,30.7
		l0-0.2C1,30.9,0.9,30.8,0.8,30.7z"/>
	<path fill="#AF882E" d="M28.5,2.2c-0.1,0-0.1,0.1,0,0.2C28.5,2.3,28.5,2.2,28.5,2.2z"/>
	<path fill="#AF882E" d="M46.5,20.3c0-0.2,0.1-0.3,0.1-0.3C46.5,19.9,46.5,20,46.5,20.3z"/>
	<path fill="#AF882E" d="M46.3,37.2c0.1,0,0.2,0,0.1,0.1l0.2-0.5C46.5,37.1,46.4,37.1,46.3,37.2z"/>
	<path fill="#AF882E" d="M42,40.3l0.1,0.1c0.2-0.3,0.3-0.5,0-0.3C42.1,40.2,42,40.2,42,40.3z"/>
	<path fill="#AF882E" d="M45.3,37.3c-0.2-0.1-0.3,0.3-0.5,0.6l0-0.1C45.1,38.1,45.2,37.7,45.3,37.3z"/>
	<path fill="#AF882E" d="M44.7,37.9c-0.1,0.1-0.1,0.2-0.2,0.3C44.6,38.4,44.6,38.1,44.7,37.9z"/>
	<path fill="#AF882E" d="M47.7,34.1c-0.1,0.1,0.3,0.2,0.1,0.3C48,34.7,48,33.1,47.7,34.1z"/>
	<polygon fill="#AF882E" points="44.7,36.8 44.4,37.1 44.8,37.2 	"/>
	<path fill="#AF882E" d="M46,34.7l-0.3,0.5c0.1,0,0,0.1,0,0.2C45.9,35,46.1,34.7,46,34.7z"/>
	<path fill="#AF882E" d="M45.7,35.4c-0.1,0.2-0.2,0.3-0.2,0.4C45.6,35.7,45.7,35.5,45.7,35.4z"/>
	<polygon fill="#AF882E" points="45.1,35.9 44.8,36.4 44.9,36.3 	"/>
	<path fill="#AF882E" d="M48.1,28.6V28c-0.1-0.1-0.2,0.1-0.2,0.3C47.9,28.5,47.9,28.7,48.1,28.6z"/>
	<path fill="#AF882E" d="M46.8,30.3c0.1-0.1,0.2-0.1,0.3-0.2L46.7,30L46.8,30.3z"/>
	<path fill="#AF882E" d="M47.1,28.5c-0.1-0.1-0.2-0.9-0.3-0.2C47,28.4,46.9,29.1,47.1,28.5z"/>
	<polygon fill="#AF882E" points="47.4,19.1 47.4,19.2 48,19.1 	"/>
	<path fill="#AF882E" d="M42.7,12.2c0.2,0.7,0.4-0.1,0.6,0.6c0.2,0.1-0.2-0.5,0-0.5C43,12.1,43,11.8,42.7,12.2z"/>
	<path fill="#AF882E" d="M43.4,12.4c0.1,0,0.1,0.1,0.2,0.1C43.5,12.4,43.4,12.4,43.4,12.4z"/>
	<polygon fill="#AF882E" points="23.6,49.4 24.1,49.5 23.8,49.3 	"/>
	<path fill="#AF882E" d="M24.6,48.9l0.1,0.4l0.3-0.4C24.9,49,24.7,49,24.6,48.9z"/>
	<path fill="#AF882E" d="M18.1,3.9l0.4,0.1l0-0.1C18.4,3.9,18.3,3.9,18.1,3.9z"/>
	<polygon fill="#AF882E" points="13,6.3 12.7,6.1 12.9,6.3 	"/>
	<path fill="#AF882E" d="M9.8,9.4C9.5,9.8,9,9.7,9.3,9.9C9.5,9.8,9.6,9.6,9.8,9.4z"/>
	<path fill="#AF882E" d="M42,23c0.3-0.4,0.4-0.8,0.4-1.3v0c0-0.9-0.4-1.7-0.8-2.4c-0.2-0.3-0.5-0.6-0.6-0.9
		c-0.1-0.3-0.1-0.6-0.1-0.8c0.1-0.6,0.1-1.1-0.1-1.7c0-0.1-0.1-0.3-0.2-0.4c-0.3-0.2-0.6-0.4-0.9-0.6c-0.1,0-0.2-0.1-0.2-0.1
		c-0.2-0.3-0.3-0.7-0.5-1c-0.1-0.2-0.3-0.3-0.5-0.3c-0.3,0-0.5,0.2-0.7,0.3c-0.3-0.4-0.7-0.8-1.2-0.9c-0.2,0-0.4-0.1-0.6,0
		c-0.2,0.2-0.4,0.4-0.7,0.6c-0.4,0.1-0.8,0.3-1.3,0.3c-0.2,0.4-0.4,0.9-0.5,1.4c-0.3,0-0.7-0.1-1-0.1c-0.3,0-0.6,0.2-0.9,0.3
		c-0.2,0.1-0.3,0.2-0.4,0.3c-0.4,0-0.7,0-1.1,0c-0.2,0-0.4,0.2-0.6,0.2c-0.4-0.1-0.9-0.3-1.3-0.4c-0.4,0-0.8,0.1-1.2,0.3
		c-0.2,0.1-0.3,0.3-0.5,0.3c-0.5-0.1-1-0.3-1.5-0.4c-0.4,0-0.8,0.1-1.2,0.4c-0.2-0.2-0.5-0.4-0.7-0.6c-0.2-0.1-0.5-0.3-0.7-0.2
		c-0.4,0.1-0.6,0.6-1,0.6c-0.6,0-1.1-0.5-1.7-0.6c-0.3,0-0.5,0.3-0.8,0.4c-0.4-0.2-0.7-0.5-1.1-0.6c-0.3-0.1-0.7-0.1-1,0
		c-0.3,0.1-0.4,0.4-0.6,0.5c-0.5-0.1-0.9-0.2-1.4-0.3c-0.3-0.1-0.7,0-1,0.1c0,0.2-0.1,0.4-0.2,0.5c-0.1,0.2-0.4,0.2-0.6,0.2
		c-0.3,0-0.6-0.1-0.9-0.2c-0.1,0-0.3,0-0.4,0.1c-0.3,0.1-0.5,0.2-0.7,0.3c-0.2,0.1-0.3,0.2-0.4,0.4c-0.2,0.4-0.3,0.8-0.5,1.2
		c-0.1,0.2-0.3,0.4-0.5,0.4c-0.2,0-0.5,0.1-0.7,0.1c-0.3,0.4-0.5,0.9-0.5,1.4c0.1,0.3,0.3,0.6,0.3,1c-0.2,0.4-0.7,0.6-0.9,0.9
		c-0.1,0.2-0.3,0.5-0.3,0.8v0.2c0,0.6,0.4,1.1,0.7,1.6c0.1,0.2,0.4,0.3,0.5,0.6c0,0.4-0.3,0.8-0.2,1.2c0,0.2,0,0.5,0.2,0.7
		c0.3,0.5,0.6,0.9,1,1.3c0.1,0.1,0.1,0.1,0.1,0.2c0.1,0.3-0.2,0.5-0.3,0.8c-0.1,0.2,0,0.5,0.1,0.6c0.4,0.6,1.1,0.8,1.6,1.4
		c0.2,0.2,0.2,0.5,0.2,0.7c0.4,0.5,0.8,1.1,0.7,1.7c-0.1,0.8-0.2,1.8-0.3,2.6c0,0.2,0-0.1,0.1,0.9c0.6,0,1.3,0,1.9,0
		c0.1-2,0.3-2.9,0.4-4.2c0.1,0,0.2,0,0.3-0.1c0.5-0.2,0.8-0.8,1.3-1c0.1,0,0.2-0.1,0.3-0.1c0.3,0.1,0.6,0.2,0.8,0.2
		c0.3,0.1,0.5,0,0.8-0.1c0.4-0.1,0.6-0.5,0.9-0.7c0.5,0.3,0.8,0.7,1.4,0.9c0.3,0.1,0.7,0,1,0c0.1-0.2,0.2-0.3,0.4-0.4
		c0.3,0.3,0.7,0.5,1.1,0.7c0.4,0.2,0.8,0.3,1.2,0.1c0.4-0.2,0.7-0.6,1.1-0.8c0.2-0.1,0.4-0.1,0.6,0c0.3,0.1,0.4,0.5,0.6,0.7
		c0.8,0.1,1.7-0.1,2.3-0.7c0.2,0.2,0.4,0.5,0.7,0.5c0.4,0.1,0.8,0,1.1-0.1c0.1-0.1,0.3,0.1,0.3,0.2c0.1,0.6,0.2,1.3,0.1,1.9
		c-0.1,1-0.1,2-0.2,3h1.8c0.1-2,0.2-3.1,0.3-4.6c0.2-0.1,0.5-0.3,0.6-0.5c0.3-0.4,0.4-1,0.8-1.3c0.2-0.2,0.5,0.1,0.7-0.1
		c0.2-0.2,0.3-0.4,0.3-0.6c0.1-0.4,0.2-0.9,0.3-1.3c0-0.1,0-0.1,0.1-0.2c0.2-0.3,0.5-0.6,0.7-0.8c0.2-0.1,0.2-0.3,0.2-0.5
		c0-0.3-0.1-0.6-0.1-1c0-0.1,0-0.1,0-0.2c0.4-0.2,0.8-0.4,1.2-0.7c0.2-0.1,0.4-0.3,0.4-0.5c0.2-0.4,0.1-0.8,0.1-1.2
		c0-0.2,0-0.3,0.2-0.4c0.1-0.1,0.2-0.1,0.3-0.1c0.7,0.1,1.3,0.2,2,0.3c0.3,0,0.5,0,0.8,0C41.3,23.3,41.8,23.3,42,23z"/>
</g>
</svg>
