<!-- Generator: Adobe Illustrator 19.1.0, SVG Export Plug-In  -->
<svg version="1.1"
	 xmlns="http://www.w3.org/2000/svg" xmlns:xlink="http://www.w3.org/1999/xlink" xmlns:a="http://ns.adobe.com/AdobeSVGViewerExtensions/3.0/"
	 x="0px" y="0px" width="45.3px" height="45px" viewBox="0 0 45.3 45" enable-background="new 0 0 45.3 45" xml:space="preserve">
<defs>
</defs>
<g>
	<path fill="none" d="M21.6,26.4C21.6,26.4,21.6,26.5,21.6,26.4C21.6,26.4,21.6,26.4,21.6,26.4z"/>
	<path fill="none" d="M21.7,26.6C21.7,26.6,21.7,26.6,21.7,26.6L21.7,26.6z"/>
	<path fill="none" d="M21.6,26.5C21.6,26.4,21.6,26.5,21.6,26.5C21.6,26.5,21.6,26.5,21.6,26.5z"/>
	<path fill="none" d="M21.7,26.6C21.7,26.6,21.7,26.6,21.7,26.6L21.7,26.6z"/>
	<path fill="none" d="M21.7,26.6C21.7,26.6,21.7,26.6,21.7,26.6L21.7,26.6z"/>
	<path fill="none" d="M21.6,26.5c0,0,0.1-0.1,0-0.1C21.5,26.5,21.5,26.5,21.6,26.5C21.6,26.5,21.6,26.5,21.6,26.5z"/>
	<path fill="none" d="M21.7,26.6C21.7,26.6,21.7,26.6,21.7,26.6L21.7,26.6z"/>
	<path fill="none" d="M21.7,26.6C21.7,26.6,21.7,26.6,21.7,26.6L21.7,26.6z"/>
	<path fill="none" d="M21.7,26.6C21.7,26.6,21.7,26.6,21.7,26.6L21.7,26.6z"/>
	<path fill="none" d="M21.7,26.6C21.7,26.6,21.7,26.6,21.7,26.6L21.7,26.6z"/>
	<path fill="none" d="M21.7,26.6C21.7,26.6,21.7,26.6,21.7,26.6L21.7,26.6z"/>
	<path fill="none" d="M21.6,26.6C21.7,26.6,21.7,26.6,21.6,26.6L21.6,26.6z"/>
	<path fill="none" d="M21.6,26.6c0.1,0-0.1-0.1,0-0.2C21.5,26.4,21.5,26.6,21.6,26.6C21.6,26.6,21.5,26.6,21.6,26.6z"/>
	<path fill="none" d="M22.3,20.1c0.3,0,0.7,0,1,0C23,20.1,22.7,20.1,22.3,20.1z"/>
	<path fill="none" d="M21.9,20.1C21.8,20.1,21.8,20.1,21.9,20.1C21.8,20.1,21.9,20.1,21.9,20.1z"/>
	<path fill="none" d="M23.1,38.4c0,0-0.2,0-0.2,0C22.9,38.4,23,38.4,23.1,38.4z"/>
	<path fill="none" d="M29.3,38.4C29.2,38.4,29.2,38.4,29.3,38.4C29.2,38.4,29.2,38.4,29.3,38.4z"/>
	<path fill="none" d="M20.3,30.5c0.2-0.2,0.4-0.3,0.5-0.4C20.7,30.2,20.4,30.3,20.3,30.5z"/>
	<path fill="none" d="M29,38.9C29,38.9,29,38.9,29,38.9C29,38.9,29,38.9,29,38.9z"/>
	<path fill="none" d="M22.2,24.9C22.2,24.9,22.5,24.9,22.2,24.9C22.2,24.9,22.2,24.9,22.2,24.9z"/>
	<path fill="none" d="M23.2,21.8C23.1,21.8,23.2,21.8,23.2,21.8C23.2,21.8,23.2,21.8,23.2,21.8z"/>
	<path fill="none" d="M23.3,24.7c-0.4,0-0.8,0-1.1,0C22.3,24.7,23.3,24.7,23.3,24.7C22.9,24.7,23.3,24.7,23.3,24.7z"/>
	<path fill="none" d="M22,25.2c0,0,0,0.5,0,0.5C22,25.5,22,25.3,22,25.2z"/>
	<path fill="none" d="M25.1,23.5c0,0.2,0,0.3,0,0.5C25.1,23.6,25.1,23.9,25.1,23.5z"/>
	<path fill="none" d="M25.1,24.1c0,0.3,0-0.2,0-0.1C25.1,24.1,25.1,24.1,25.1,24.1C25.1,24.2,25.1,24.1,25.1,24.1z"/>
	<path fill="none" d="M25.1,19.3c0-0.2,0-0.4,0-0.5c0,0.1,0.1-1,0-0.6c0,0,0-0.2,0-0.3C25.1,18.4,25,18.8,25.1,19.3z"/>
	<path fill="none" d="M25.1,28.4C25.1,28.4,25.1,28.3,25.1,28.4C25.1,28.4,25.1,28.4,25.1,28.4z"/>
	<path fill="none" d="M25.1,20.3c0,0.3,0,0.6,0,0.9c0-0.7,0-1.3-0.1-1.9C25.1,19.6,25,20,25.1,20.3z"/>
	<path fill="none" d="M25.1,16.3c0-0.1,0-0.2,0-0.3c0,0.7,0,1.5,0,2.2C25.1,17.5,25,16.9,25.1,16.3C25.1,16.2,25.1,16.9,25.1,16.3z"
		/>
	<path fill="none" d="M25.1,28.2c0,0,0,0.1,0.1,0.2C25.2,28.3,25.2,28.2,25.1,28.2C25.1,28.2,25.2,28.2,25.1,28.2z"/>
	<path fill="none" d="M21.7,26.6C21.7,26.6,21.7,26.6,21.7,26.6C21.7,26.6,21.7,26.6,21.7,26.6z"/>
	<path fill="none" d="M25.1,15.9C25.1,15.7,25.2,15.7,25.1,15.9c0.1-0.1,0.1-0.3,0.1-0.5C25.1,15.6,25.1,15.7,25.1,15.9
		C25.1,15.9,25.1,15.8,25.1,15.9z"/>
	<path fill="none" d="M25.1,28.2C25.1,28.3,25.1,28.2,25.1,28.2C25.1,28.2,25.1,28.2,25.1,28.2z"/>
	<path fill="none" d="M25.1,28.2C25.1,28.2,25.1,28.2,25.1,28.2C25.1,28.2,25.1,28.2,25.1,28.2z"/>
	<path fill="none" d="M25,27.8C25,27.8,25,27.7,25,27.8C25,27.8,25,27.8,25,27.8z"/>
	<path fill="none" d="M21.8,25.4c0-0.1,0-0.2,0-0.2C21.8,25.2,21.8,25.5,21.8,25.4z"/>
	<path fill="none" d="M20.8,30c0.1,0,1.1-0.5,1.1-0.5C21.8,29.6,20.9,30,20.8,30C20.8,30,21,29.9,20.8,30z"/>
	<path fill="none" d="M21.8,28.2c0,0.1,0,0.2,0,0.4C21.8,28.5,21.8,28.4,21.8,28.2z"/>
	<path fill="none" d="M21.8,29.6C21.9,29.5,21.8,29.6,21.8,29.6C21.8,29.6,21.8,29.6,21.8,29.6z"/>
	<path fill="none" d="M21.8,27.6c0-0.3,0-0.7,0-1.1C21.8,26.6,21.8,27.5,21.8,27.6z"/>
	<path fill="none" d="M25.1,28.7C25.1,28.7,25.1,28.7,25.1,28.7C25.1,28.7,25.1,28.7,25.1,28.7z"/>
	<path fill="none" d="M25.1,28.4c0-0.1,0-0.2,0-0.3C25,28.1,25.1,28.8,25.1,28.4C25.1,28.4,25.1,28.5,25.1,28.4z"/>
	<path fill="none" d="M21.8,21.9c0.4,0,0.8-0.1,1.2-0.1c-0.1,0-0.2,0-0.3,0c0-0.1,0.2,0,0.2,0c0,0-0.2,0-0.2,0c0.1,0,0.2,0,0.3,0
		C22.6,21.8,22.2,21.9,21.8,21.9z"/>
	<path fill="none" d="M25,11.6C25,11.6,25,11.6,25,11.6L25,11.6z"/>
	<path fill="none" d="M25.1,28.5c0,0.3-0.3,0.9,0,1C25.2,29.3,25.1,28.5,25.1,28.5C25.1,28.7,25.1,28.5,25.1,28.5z M25.1,29.5
		c0-0.1,0-0.1,0-0.2C25.1,29.3,25.1,29.4,25.1,29.5C25.1,29.5,25.1,29.5,25.1,29.5z"/>
	<path fill="none" d="M23.8,8.6C23.8,8.7,23.8,8.6,23.8,8.6C23.8,8.6,23.8,8.7,23.8,8.6z"/>
	<path fill="none" d="M26.1,30.2c-0.1-0.1-0.2-0.1-0.3-0.2C25.9,30.1,26,30.1,26.1,30.2z"/>
	<path fill="none" d="M26.3,30.2c0.1,0.1,0.2,0.2,0.2,0.2C26.4,30.3,26.4,30.3,26.3,30.2C26.3,30.2,26.5,30.4,26.3,30.2z"/>
	<path fill="none" d="M27.4,31.3c-0.1-0.2-0.3-0.4-0.4-0.5C27,30.9,27.3,31.2,27.4,31.3z"/>
	<path fill="none" d="M27.8,18.7C27.8,18.5,27.9,18.8,27.8,18.7C27.8,18.7,27.8,18.7,27.8,18.7z"/>
	<path fill="none" d="M27.4,31.3c0,0.1,0.1,0.2,0.1,0.3C27.4,31.3,27.3,31.2,27.4,31.3z"/>
	<path fill="none" d="M27.9,25.7c0,0.1,0,0.2,0,0.3C27.9,26,27.9,25.6,27.9,25.7C27.9,25.7,27.9,25.7,27.9,25.7z"/>
	<path fill="none" d="M27.4,31.3c0,0,0,0-0.1-0.1C27.3,31.2,27.3,31.3,27.4,31.3z"/>
	<path fill="none" d="M28,33.8c0-0.6-0.3-2.4-0.8-2.5c-0.2-0.3-0.3-0.5-0.6-0.6c0.1,0,0.1,0.1,0.1,0.1c-0.1,0.1-0.6-0.6-0.6-0.6
		c0.4,0.3-0.3-0.2-0.3-0.2c0,0.2,0.8,0.2,0.8,0.5c-0.1-0.6-1.6-0.6-1.6-1.2c0,0.1,0,0.1,0,0.2c-0.1,0,0-0.6,0-0.7c0,0.1,0,0.3,0,0.4
		c0.1-0.3,0-0.7,0-1.1c0,0.2,0-0.1,0-0.1c0,0,0,0.2,0,0.2c-0.2-0.7-0.1-1.7,0-2.4c0,0.2,0,0.3,0,0.5c0-0.1,0-0.2,0-0.3
		c0,0.8,0.1-0.7,0-0.7c0-0.1,0-1.3-0.1-1.3c0,0.2,0.1,0.6,0,0.8c0-0.1,0-0.7,0-0.8c0,0,0,0.3,0,0.3c0.2-0.5,0.2-1.6,0.2-2.1
		c0,0,0.1-0.2,0.1-0.4c0,0-0.2-0.4-0.2-0.3c0-0.2,0-0.4-0.1-0.7c0,0.5,0-0.5-0.1-0.6c-0.1,0.4,0-0.4,0,0.2c0-0.2-0.3-0.3-0.3-0.5v0
		V20v0c0-0.1,0.3-0.3,0.3-0.4c0,0-0.1,0.1-0.1,0.2c-0.1-0.1,0-1.1,0-1.3c0,0.1,0,0.2,0,0.2c0-0.2,0-0.4,0-0.6c0,0,0,0.1,0.1,0.1
		c0,0-0.1-1.1-0.1-1.1c0,0.3,0,0.6,0,0.9c0.1-0.1-0.1-1.3-0.1-1.4c0,0.1,0,0.2,0,0.3c0-0.2,0.1-0.2,0.2-0.4c0,0.3,0.2,0.5,0.2,0.9
		c0-0.4-0.2-1.2-0.2-1.3c0-0.4-0.1-0.8-0.1-1.2c0,0.1,0,0.2,0,0.2c0-0.2,0.1-0.7,0.1-0.7c0-0.2,0-0.4-0.1-0.5c0,0,0,0.1,0.1,0.1
		c0,0.1-0.1-0.5-0.1-0.2c0,0,0.1-0.7,0.1-0.7c0.1,0,0.1,0.1,0.1,0.2c0-0.2,0.1-0.4,0.2-0.6c-0.3,0-0.3-0.2-0.3-0.5
		c0.2,0.2,0.3,0.5,0.3,0.7c0-0.4-0.1-0.7-0.2-1c0,0-0.1,0.1-0.1,0.1c-0.3-0.3-0.2-1.4-0.2-1.8c0,0,0,0.1,0,0.1c0-0.1,0-0.4,0-0.5
		c-0.1-0.2-0.3-0.3-0.5-0.5C24,9,24.4,9.3,24.4,9.2C24,8.7,23.2,8.8,22.7,9c0.2-0.1,0.6-0.3,0.9-0.2c0-0.1-0.2-0.1,0.1-0.1
		C23,8.7,22.4,9,22.1,9.6C22,9.9,22,10.3,22,10.4c0,0-0.1-0.4-0.1-0.2c0,0,0,0.6,0.1,0.6c0,0,0-0.3,0-0.4c0,0.5,0,1.1,0,1.6
		c0,0,0,0.5,0,0.7c0.3,0,0.6,0,0.9-0.1c0,0-0.1,0-0.1,0c0.2,0.1,0.5,0,0.7,0c0,0.1,0,1,0,1c0,0,0-0.1,0-0.1c-0.1,0.2-0.2,1.9,0,2
		c0,0,0.1-0.4,0.1-0.5c0,0.3,0.1,0.9-0.3,0.9c0.2,0,0.3-0.1,0.2-0.4c0,0.4,0,0.3-0.4,0.4c-0.2,0-0.3,0-0.5,0c0.1,0,0.3,0,0.4,0
		c-0.1,0-0.3,0-0.4,0c0,0,0.1,0,0.1,0c-0.1,0-0.3,0-0.5,0c0,0-0.2,0-0.3,0.1c0,0,0,0.4,0,0.5c0,0,0-0.1,0-0.2c0,0.1,0,0.8,0,0.8
		c0.1,0,1.1,0,1.1-0.1c-0.1,0-0.2,0-0.3,0c0.2,0,0.4,0,0.5,0c-0.2,0-0.3-0.1-0.5-0.1c0.2,0,0.3-0.2,0.6-0.2c0,0.2,0,0,0,0
		c-0.4,0-0.4,0-0.4,0.4c0,0.1,0.6-0.2,0.4,0.3c0-0.1,0-0.2,0-0.3c-0.1,0,0.1,1.4,0,1.5c0,0,0-0.1,0-0.1c0.1,0.4,0,1.8-0.4,2
		c0,0.2-1.1-0.1-1.1,0.6c0-0.1,0-0.3-0.1-0.4c0,0.1,0,0.3,0,0.4c0-0.1,0-0.1,0-0.1c0,0.1,0,0.9,0,0.5c0,0.1,0.1,0.3,0.1,0.2
		c0,0.1,0,0.1,0.1,0c-0.1,0-0.1,0-0.1,0c0.3-0.1,0.8,0,1.1,0c0,0-0.1,0-0.1,0c0.1,0,0.3,0,0.4,0c0,0,0,0.1,0,0.1
		c-0.1-0.1,0-0.1-0.3-0.1c0.6,0,0.1,1.4,0.3,1.4c0,0,0-0.1,0-0.2c-0.1,0.1,0,0.7,0,0.8c0-0.1,0-0.2,0-0.3c0,0.2,0,1.5-0.1,1.5
		c0.2,0,0.1-0.3,0.1-0.5c0,0.2,0,0.4,0,0.6c-0.2,0-0.5,0-0.7,0c0.1,0,0.1,0,0.2,0c-0.5,0-0.9-0.2-1,0.5c-0.1-0.7,0,0,0,0.1
		c0,0.2,0,0.4,0,0.6c0.1,0,0.1,0,0.2,0.1c0,0.1-0.2,0.1-0.2,0.2c-0.2,0-0.1,0.5,0,0.7c0,0,0,0,0,0c0-0.2-0.1-0.5,0-0.6
		c-0.2,0.3,0,1.3,0,1.6c0-0.4,0,0.2-0.1-0.1c0,0.5,0.1,1,0.1,1.6c0-0.1-0.2,0-0.2,0c-1.6,0.6-2.6,2.1-2.8,3.9c0-0.1,0-0.2,0-0.2
		C19,33.4,19,33.9,19,34c0,0,0,0,0,0c0.1,0.3,0,0.6,0.1,0.9c0,0.2,0.3,0.7,0.3,0.9c0-0.1-0.2-0.3-0.2-0.4c0,0,0.2,0.4,0.1,0.4
		c0,0,0-0.1,0-0.1c0.4,0.8,1,1.7,1.8,2.1c0,0,0,0-0.1,0c0.7,0.2,1.2,0.6,1.9,0.7c0.8,0.1,1.7-0.1,2.4-0.5C27,37.1,28,35.5,28,33.8z
		 M27,31c0,0-0.1-0.1-0.1-0.1C26.9,30.9,26.9,31,27,31z M25,28.9C25,28.8,25,28.8,25,28.9C25,28.8,25,28.8,25,28.9z M25,24.7
		c0,0.1,0,0.2,0,0.3C25,25,25,24.8,25,24.7z M24.8,15.4c0-0.1,0,0.3,0.1,0.4c0-0.3,0,0,0,0.1C24.8,15.7,24.8,15.6,24.8,15.4
		C24.8,15.3,24.8,15.8,24.8,15.4z M23.6,14.8c0-0.1,0-0.1,0-0.2C23.6,14.7,23.6,14.8,23.6,14.8z M22.1,16.6
		C22,16.6,22.1,16.6,22.1,16.6L22.1,16.6z M23.3,20.4c0.1,0,0.2,0,0.3-0.1c0,0,0,0.1,0,0.1C23.5,20.4,23.4,20.4,23.3,20.4z
		 M23.6,17.7c0,0.1,0,0.3,0,0.4C23.6,18.1,23.6,18,23.6,17.7z M24.8,25C24.8,24.6,24.9,25.1,24.8,25C24.9,25.4,24.9,25.1,24.8,25z
		 M24.9,26.1c0-0.1,0-0.1,0-0.2C24.9,26,24.9,26,24.9,26.1z M24.9,29.5c0,0.2,0-0.1,0-0.2C24.9,29.3,24.9,29.4,24.9,29.5z M25,28.8
		c0-0.1,0-0.3,0-0.4c-0.1,0,0,0.6,0,0.6C25,29,25,28.9,25,28.8C25,28.8,25,28.9,25,28.8z M25.1,29.7c0.1,0,0.1,0,0.2,0.1
		C25.2,29.7,25.2,29.7,25.1,29.7z"/>
	<path fill="none" d="M22,26.2C22,26.2,22,26.1,22,26.2C22,26.2,22,26.2,22,26.2z"/>
	<path fill="none" d="M27.4,40.4c0.2,0,0.1,0.2,0.2,0.2c0,0,0-0.2,0-0.2C27.5,40.4,27.4,40.4,27.4,40.4
		C27.4,40.4,27.4,40.4,27.4,40.4z"/>
	<path fill="none" d="M22,26.2C22,26.2,22,26.2,22,26.2L22,26.2z"/>
	<path fill="none" d="M22,26.2C22,26.2,22,26.2,22,26.2C22,26.2,22,26.2,22,26.2z"/>
	<path fill="none" d="M22.7,38.3c0.1,0,0.3,0.1,0.2,0.1C22.9,38.4,22.8,38.4,22.7,38.3z"/>
	<path fill="none" d="M27.8,25.5C27.9,25.5,27.8,25.8,27.8,25.5C27.8,25.5,27.8,25.5,27.8,25.5z"/>
	<path fill="none" d="M25,12.4c0,0,0.1,0.1,0,0.1C25.1,12.6,25,12.4,25,12.4C25,12.4,25,12.4,25,12.4z"/>
	<path fill="none" d="M25.2,29.5c0,0,0.3,0.1,0.2,0.1C25.4,29.6,25.3,29.6,25.2,29.5z"/>
	<path fill="none" d="M25,13.6C25,13.6,25,13.6,25,13.6C25,13.6,25,13.6,25,13.6z"/>
	<path fill="none" d="M29.6,38c-0.1,0.1-0.2,0.2-0.3,0.4C29.4,38.3,29.5,38.1,29.6,38z"/>
	<path fill="none" d="M29.3,38.4c0,0-0.1,0.1-0.1,0.2C29.5,38.4,29.5,38.3,29.3,38.4z"/>
	<path fill="none" d="M27.9,15.9C27.9,15.9,27.9,15.9,27.9,15.9C27.9,15.9,27.9,15.9,27.9,15.9z"/>
	<path fill="none" d="M25.7,29.8c-0.1-0.1-0.2-0.1-0.3-0.2C25.4,29.6,25.7,29.8,25.7,29.8C25.6,29.7,25.7,29.8,25.7,29.8z"/>
	<path fill="none" d="M29.2,38.5C29.2,38.5,29.2,38.5,29.2,38.5L29.2,38.5z"/>
	<path fill="none" d="M27.9,19.8C27.8,19.9,27.9,19.6,27.9,19.8C27.9,19.8,27.9,19.8,27.9,19.8z"/>
	<path fill="#AF882E" d="M19,0.4c0.3-0.1,0.5-0.1,0.8-0.1c-0.1,0-1,0-1,0C18.9,0.3,19,0.3,19,0.4z"/>
	<path fill="#AF882E" d="M43.3,31.5c-0.1,0.2,0,0.2,0,0.2C43.4,31.4,43.3,31.5,43.3,31.5z"/>
	<path fill="#AF882E" d="M44.2,28.3c0-0.2,0-0.3,0.1-0.5C44.3,28,44.2,28.1,44.2,28.3z"/>
	<path fill="#AF882E" d="M44.5,26.9c0,0.1,0,0.2,0.1,0.3c0.1-0.7,0.1-1.4,0.3-2.1C44.5,25.6,44.7,26.3,44.5,26.9z"/>
	<path fill="#AF882E" d="M45.2,23.8c0-0.2,0-0.3,0-0.5C45.2,23.5,45.2,23.7,45.2,23.8C45.2,23.8,45.2,23,45.2,23.8z"/>
	<path fill="#AF882E" d="M45.2,23.7C45.2,24.1,45.3,23.5,45.2,23.7L45.2,23.7z"/>
	<path fill="#AF882E" d="M45.2,22.2c0,0.2,0,0.3,0.1,0.4c0-0.1,0.1-0.7,0-0.7C45.2,22,45.2,22.1,45.2,22.2z"/>
	<path fill="#AF882E" d="M45.1,21.7l0,0.2C45.2,21.9,45.2,21.9,45.1,21.7z"/>
	<path fill="#AF882E" d="M45.2,22.2c0,0.1,0,0.2,0,0.3c0-0.2,0-0.3-0.1-0.5C45.1,22,45.1,22.1,45.2,22.2
		C45.1,22.1,45.1,22,45.2,22.2z"/>
	<path fill="#AF882E" d="M45.1,22.9c0,0.9,0.1,0.7,0.1-0.1C45.2,23,45.1,23.3,45.1,22.9z"/>
	<path fill="#AF882E" d="M44.6,25.5c0-0.1,0.1-0.6,0.1-0.6C44.7,25.1,44.6,25.3,44.6,25.5z"/>
	<path fill="#AF882E" d="M45.1,19.4c-0.1-0.1,0,0.5,0,0.5C45.1,19.8,45,19.4,45.1,19.4C45,19.3,45,19.4,45.1,19.4z"/>
	<path fill="#AF882E" d="M45,19.6l-0.1-0.5C44.9,19.5,45,19.6,45,19.6z"/>
	<path fill="#AF882E" d="M45,21.7c0,0.3,0.1,0.5,0.1,0.8c0-0.3-0.1-0.6-0.1-1C45,21.6,45,21.6,45,21.7z"/>
	<path fill="#AF882E" d="M44.9,17.7c-0.1-0.2-0.1-0.3-0.2-0.5C44.7,17.4,44.8,17.6,44.9,17.7z"/>
	<path fill="#AF882E" d="M44.1,15.3c0.1,0.1,0.4,0.9,0.3,1c0,0,0-0.3,0.1-0.1C44.4,15.9,44.3,15.6,44.1,15.3
		C44.2,15.6,44.3,15.6,44.1,15.3z"/>
	<path fill="none" stroke="#AF882E" stroke-width="0" stroke-linecap="round" stroke-linejoin="round" d="M43.9,14.9
		c0.1,0.1,0.1,0.3,0.2,0.4"/>
	<path fill="#AF882E" d="M44.7,17.8c0,0.2,0,0.2,0,0.4C44.8,18.1,44.8,18,44.7,17.8z"/>
	<path fill="#AF882E" d="M44.7,18c0-0.1-0.1-0.3-0.1-0.4C44.6,17.6,44.7,18.2,44.7,18z"/>
	<path fill="none" stroke="#AF882E" stroke-width="0" stroke-linecap="round" stroke-linejoin="round" d="M44.7,18.3
		C44.7,18.3,44.7,18.3,44.7,18.3"/>
	<path fill="#AF882E" d="M44.7,20.1c0.1,0.2,0.1-0.1,0.2,0.3C44.9,20.1,44.7,19.5,44.7,20.1z"/>
	<path fill="#AF882E" d="M44.8,19.1c0-0.1-0.1-0.6-0.1-0.5C44.7,18.5,44.8,19,44.8,19.1C44.8,19,44.8,19,44.8,19.1z"/>
	<path fill="#AF882E" d="M44.6,18.3c0,0.1,0.1,0.2,0.1,0.2C44.7,18.4,44.7,18.4,44.6,18.3z"/>
	<path fill="#AF882E" d="M44.1,15.8c-0.1-0.2-0.2-0.5-0.3-0.7c0.1,0.2,0.1,0.8,0.3,0.9C44.2,16,44.2,15.9,44.1,15.8
		C44,15.6,44.3,16.1,44.1,15.8z"/>
	
		<line fill="none" stroke="#AF882E" stroke-width="0" stroke-linecap="round" stroke-linejoin="round" x1="44.4" y1="16.8" x2="44.4" y2="16.9"/>
	<path fill="#AF882E" d="M42.8,12.6C42.8,12.6,42.8,12.5,42.8,12.6L42.8,12.6z"/>
	<path fill="#AF882E" d="M44.1,16c0,0.2,0.1,0.3,0.2,0.5C44.3,16.5,44,15.8,44.1,16C44.2,16.3,44.1,16,44.1,16z"/>
	<path fill="#AF882E" d="M43.7,14.6c0-0.1-0.1-0.4-0.1-0.4C43.7,14.3,43.7,14.5,43.7,14.6z"/>
	<path fill="#AF882E" d="M44.4,16.8L44.4,16.8C44.4,16.7,44.4,16.7,44.4,16.8z"/>
	<path fill="#AF882E" d="M44.3,16.5c0,0.1,0.1,0.2,0.1,0.4C44.4,16.7,44.4,16.6,44.3,16.5C44.4,16.6,44.4,16.6,44.3,16.5z"/>
	<path fill="#AF882E" d="M42.5,12.2c0.1,0.1,0.2,0.7,0.2,0.8c-0.2-0.2-0.3-0.6-0.4-0.9c0,0.1-0.5-0.5-0.6-0.5c0,0,0.3,0.5,0.3,0.5
		c0,0-0.1,0-0.1-0.1c0.4,0.1,0.4,1.1,0.7,1.2C43.2,13.4,42.5,12.2,42.5,12.2C42.5,12.4,42.8,12.6,42.5,12.2z"/>
	<path fill="#AF882E" d="M42.8,12.6c0.1,0.3,0.3,0.6,0.4,1c0,0,0,0,0-0.1c0,0.1,0.1,0.1,0.1,0.2C43.2,13.4,43.2,12.7,42.8,12.6z"/>
	<path fill="#AF882E" d="M43.7,14.6c0,0-0.4-0.8-0.4-0.9C43.4,14,43.6,14.3,43.7,14.6c-0.1-0.1-0.3-0.4-0.4-0.4
		c-0.1,0,0.3,0.7,0.4,0.8c0,0-0.1-0.4-0.1-0.4c0,0,0.1,0.2,0.1,0.2C43.7,14.8,43.7,14.7,43.7,14.6c0,0.1,0.1,0.3,0.1,0.5
		C43.9,15.2,43.7,14.4,43.7,14.6z"/>
	<path fill="#AF882E" d="M44.5,19.6C44.5,19.5,44.5,19.5,44.5,19.6C44.5,19.5,44.5,19.5,44.5,19.6z"/>
	<path fill="#AF882E" d="M44.5,19.2c0,0.1,0.1,0.4,0.1,0.5c0,0,0-0.1-0.1-0.1c0,0,0.1,0.3,0.1,0.2c0.1-0.3-0.1-0.7,0-1.1
		C44.6,18.8,44.5,19,44.5,19.2C44.5,19.2,44.5,18.9,44.5,19.2z"/>
	<path fill="none" stroke="#AF882E" stroke-width="0" stroke-linecap="round" stroke-linejoin="round" d="M44.6,18.6
		C44.6,18.6,44.6,18.7,44.6,18.6"/>
	<path fill="#AF882E" d="M43.9,16.1c0,0.3,0.1,0.6,0.3,0.8C44.1,16.6,44,16.3,43.9,16.1z"/>
	<path fill="#AF882E" d="M42.9,12.5c0,0-0.3-0.3-0.3-0.4C42.7,12.3,42.8,12.4,42.9,12.5z"/>
	<path fill="#AF882E" d="M42.3,11.5c-0.1-0.1-0.1-0.2-0.2-0.2C42.2,11.4,42.3,11.4,42.3,11.5z"/>
	<path fill="#AF882E" d="M1.1,25.1l0.1,0.2C1.2,25.2,1.1,25.2,1.1,25.1z"/>
	<path fill="#AF882E" d="M1,23.4L1,23.4C1,23.4,1,23.5,1,23.4z"/>
	<path fill="#AF882E" d="M4.4,10.6c0.1-0.1,0.2-0.2,0.3-0.4L4.4,10.6z"/>
	<path fill="#AF882E" d="M4.3,33.9c0,0,0.2,0.2,0.2,0.2C4.3,33.7,4.3,33.9,4.3,33.9z"/>
	<path fill="#AF882E" d="M33.9,3c0.3,0.2,0.5,0.5,0.6,0.5C34.3,3.3,34.1,3.1,33.9,3z"/>
	<path fill="#AF882E" d="M0.2,24.7c0-0.2-0.1-0.2-0.1-0.2C0.2,24.7,0.2,24.7,0.2,24.7z"/>
	<path fill="#AF882E" d="M33.1,2.6c0.3,0.2,0.5,0.3,0.8,0.4C33.7,2.8,33.4,2.7,33.1,2.6C33.2,2.6,33.4,2.7,33.1,2.6z"/>
	
		<line fill="none" stroke="#AF882E" stroke-width="0" stroke-linecap="round" stroke-linejoin="round" x1="34.1" y1="40.9" x2="34.2" y2="40.8"/>
	<path fill="#AF882E" d="M41.5,34.7c0-0.1,0.1-0.2,0.2-0.4C41.7,34.4,41.6,34.5,41.5,34.7z"/>
	<path fill="#AF882E" d="M39.8,7.9C39.9,8,39.8,7.9,39.8,7.9L39.8,7.9z"/>
	<path fill="none" stroke="#AF882E" stroke-width="0" stroke-linecap="round" stroke-linejoin="round" d="M40.1,8.9
		C40.2,8.9,40.2,8.9,40.1,8.9"/>
	<path fill="#AF882E" d="M30.8,2.1L30.8,2.1C30.9,2.1,30.9,2.1,30.8,2.1z"/>
	<path fill="#AF882E" d="M40,8.2C39.9,8,39.8,8,39.8,7.9C39.8,8,39.9,8.1,40,8.2z"/>
	<path fill="#AF882E" d="M40,8.1c0.1,0.1,0.1,0.1,0.1,0.2C40.1,8.3,40.1,8.2,40,8.1z"/>
	<path fill="#AF882E" d="M39.5,7.6c0.1,0.1,0.2,0.2,0.2,0.3C39.7,7.8,39.6,7.7,39.5,7.6C39.6,7.7,39.7,7.7,39.5,7.6z"/>
	<path fill="#AF882E" d="M16.5,43.5C16.5,43.5,16.5,43.5,16.5,43.5C16.7,43.6,16.6,43.5,16.5,43.5z"/>
	<path fill="#AF882E" d="M14,2.6C14.1,2.6,14,2.7,14,2.6L14,2.6z"/>
	<path fill="#AF882E" d="M13.3,3c0.2-0.2,0.4-0.3,0.7-0.4C13.6,2.4,13.5,2.8,13.3,3z"/>
	<path fill="#AF882E" d="M42.7,32.2c0,0.1-0.1,0.3-0.2,0.4c0-0.1,0-0.1,0-0.2c-0.3,0-0.8,0.7-0.9,0.9c-0.2,0.3-1.4,1.5-1.3,1.9
		c0,0,0.1-0.2,0-0.2c-0.2,0.7-0.9,1.2-1.3,1.8c-0.6,0.7-1.3,1.3-2,1.9c0.1,0,0.1,0,0.2,0c0,0-0.5,0.4-0.5,0.4c0.1,0,0.7-0.5,0.7-0.5
		c0,0.2-2.5,2-2.7,1.9c0,0,0.1,0,0.1,0c-0.1-0.1-0.7,0.7-1,0.5c0.1-0.1,0.2-0.1,0.3-0.2c-0.5,0.2-0.9,0.6-1.3,0.8
		c0.2-0.1,0.3-0.2,0.5-0.2c-1.4,0.9-3,1.4-4.6,2c0,0,0.1,0,0.1,0c-0.7,0.2-1.6,0.4-2.1,0.5c-0.3,0.1-0.6,0.2-0.9,0.2
		c0.2-0.1-0.3-0.1-0.3-0.1c0,0,0-0.1,0.1-0.1c-0.9,0.2-1.7,0.4-2.6,0.5c0.1,0,0.1,0,0.2,0c0,0-0.2,0-0.2-0.1c0.1,0,0.1-0.1,0.2-0.1
		c-0.2,0-2.7-0.1-2.7-0.1c0,0,0.9,0.2,1,0.1c-0.1,0-0.1,0,0,0c0,0.4-2.6-0.5-2.8-0.5c0.1,0,0.1,0,0.2,0c-0.3-0.1-1.8-0.5-2-0.3
		c0.3,0.1,0.6,0.2,1,0.2c-0.7-0.1-1.3-0.2-2-0.4c0.2,0,0.4,0,0.5,0.1c-0.2-0.1-0.5-0.1-0.8-0.2c0.2-0.2,1.5,0.3,1.8,0.3
		c-0.1-0.1-1-0.2-0.8-0.3c-0.6,0.1-1.2-0.4-1.7-0.4c0,0,0.1,0,0.1-0.1c-0.2,0-0.4-0.1-0.5-0.2c0.1,0,0.3,0,0.4,0
		c-0.6-0.1-1-0.5-1.5-0.7c0.4,0.2,0.4,0.4,0.6,0.5c-0.8-0.3-1.3-0.9-2.1-1.3c0,0,0.5,0.3,0.5,0.3c-0.2,0.2-1-0.8-1.2-0.8
		c0,0,0.2,0.2,0.2,0.2c0,0-0.4-0.3-0.5-0.3c-0.4-0.2-0.4-0.3-0.7-0.5c-0.3-0.2-0.6-0.3-1-0.6c0.1,0.1,0.3,0.1,0.4,0.2
		c-0.2-0.1-0.3-0.2-0.5-0.3c0.1,0,0.1,0,0.2,0c-0.4-0.3-0.8-0.5-1.1-0.9c0.1,0.1-0.8-0.6-0.9-0.8c0.3,0.1,0.5,0.5,0.7,0.5
		c-0.3-0.3-0.6-0.6-0.9-0.9c0.6,0.6-0.8-0.5-0.7-0.6c0.1,0,0.1,0.1,0.2,0.1c-0.2-0.2-0.3-0.3-0.5-0.5c0.2,0,0.3,0.1,0.5,0.3
		c-0.7-0.7-1.1-1.4-1.7-2.2c-0.5-0.6-0.9-1.3-1.2-2.1c-0.2-0.3-0.4-0.7-0.5-1c0-0.1,0-0.5-0.2-0.6c0,0,0,0.2,0,0.2
		c0-0.1-0.7-0.8-0.4-0.9c0,0-0.6-1.6-0.6-1.8C1.9,28.7,2,28.9,2,29.1c0-0.2-0.1-0.4-0.1-0.6c0.1,0.2,0.2,0.7,0.4,0.8
		c0,0,0-0.2-0.1-0.3c-0.2-0.3-0.3-0.7-0.4-1c-0.1-0.5-0.5-1-0.4-1.4c0,0.1,0,0.1,0.1,0.2c0-0.5-0.7-1.4-0.4-1.8c0,0,0,0,0-0.3
		c0-0.1-0.1-0.6,0-0.4c0-0.1-0.1-1.8-0.2-1.8c0,0,0,0.2,0,0.2c0-0.1,0-0.7,0-0.7c0.1,0.1,0.1,0.6,0.1,0.7c0.2-0.5,0-1.2,0.1-1.7
		c0,0.2,0,0.4,0,0.6c0.2-0.4,0.2-1,0.3-1.4c0,0.1-0.2,0.8-0.3,0.8c-0.2,0,0.2-1.6,0.2-1.8c0,0,0.1,0,0.1,0c0-0.4-0.1-0.7,0-1
		c0,0,0.3-0.7,0.3-0.7c0,0-0.1,0.2-0.2,0.2c-0.2-0.1,0.7-2.3,0.7-2.5c0,0,0,0.1,0,0.1c-0.1-0.3,0.2-0.5,0.2-0.8
		c-0.1-0.6,1.2-1.7,1-2.1c0,0,0,0.1,0,0.1c0.3-0.8,0.5-1.4,1.1-2.1c0,0.1-0.1,0.1-0.2,0.1c0-0.3,0.2-0.7,0.4-0.9
		c-0.1,0.2-0.1,0.3,0,0.5c0.1-0.3,0.6-0.7,0.9-1.1c0.8-0.8,1.2-1.9,2.1-2.8c-0.2,0.3,0,0.1,0.1,0.3C7.2,6.8,6.9,7.5,6.6,7.9
		C6.4,8,6.9,7.6,6.7,7.8C7.2,7.3,7.5,6.9,8,6.5c-0.1,0,0.8-0.9,1-1.1C9.1,5.5,8.5,6,8.5,6C9,5.7,9.2,5.2,9.7,5
		C9.6,5,9.5,5.1,9.5,5.1c0.2-0.2,0.6-0.6,0.9-0.6c0,0-0.1,0.1-0.1,0.1c0.4-0.3,0.9-0.6,1.3-0.9c0.3-0.2,1.2-0.5,1.3-0.9
		c0,0.1,0,0.2-0.1,0.3c0.4-0.4,0.9-0.8,1.4-1.2c-0.1,0.3,0.5,0.3-0.1,0.7c0.3-0.1,0.6-0.3,0.9-0.4c-0.1,0-0.2,0-0.3-0.1
		c0,0,1.2-0.2,1.2-0.2c-0.3,0.1,0.3-0.3,0.3-0.4c-0.1,0.1,0.1,0.2,0,0.3c0.3-0.2,0.6-0.3,0.9-0.5c-0.3,0.1,0.2,0.2,0.3,0.2
		c0.3-0.1,0.6-0.1,0.9-0.2c-0.1,0-0.3,0-0.4,0c0.7-0.2,1.3-0.5,2.1-0.6C19.7,0.9,20.1,1,20.3,1c0.3-0.2,0.6-0.3,0.9-0.4
		c0.7-0.3,1.4-0.3,2.1-0.3c-0.8,0.2-1.6,0.5-2.4,0.7C21,0.9,21.5,1,21.6,1c-0.1,0.1-0.4,0.1-0.5,0.1c0.2,0,2.5-0.1,2.4-0.2
		c-0.5,0-1,0.1-1.5,0.1c-0.1-0.2,2-0.6,2-0.3c0,0.1-0.3,0.2-0.3,0.2c0.3-0.1,0.8-0.1,1,0c-0.1,0-0.3,0-0.4,0c0.4,0.1,0.8-0.1,1.3,0
		c0.1,0,0.9,0.4,1,0.3c-0.3-0.2-0.4-0.8,0.1-0.7c0.3,0.1,1.2,0.2,1.3,0.5c0,0.1-0.5,0.1-0.5,0.2c0,0.1,1.2,0.2,1.3,0.3
		c-0.1,0-0.2-0.1-0.3-0.1c0.2,0.1,1,0.4,1.1,0.3c0.3-0.2,1,0.1,1.2,0.3c0.5,0.2,1,0.5,1.5,0.7c0.3,0.1,1,0.7,1.1,0.7
		c0.1,0,0.7,0.3,0.6,0.4c0,0-0.4-0.2-0.4-0.2c0.2,0,0.9,0.5,1.2,0.6c-0.1-0.3-0.9-0.6-1.2-0.8c0.2-0.3,2.1,0.7,2.1,1
		c0,0.1,2.6,1.6,2.3,1.8c-0.3,0.2-1-0.8-1.3-1c0.1,0.1,0.3,0.3,0.4,0.4c-0.3-0.1-0.5-0.3-0.7-0.5c0.4,0.4,0.9,0.8,1.3,1.2
		c0.6,0.5,1.1,1.4,1.7,1.8c0,0-0.3-0.3-0.3-0.4c0,0,0.3,0.2,0.4,0.3c0,0,0-0.1-0.1-0.1c0.3,0.3,1.3,1,1.2,1.5
		c0.1-0.1-0.3-0.5-0.4-0.6c0.3,0.3,0.4,0.9,0.8,1.2C41,10,40.9,9.8,40.8,9.7c0.4,0.5,0.9,0.9,1.1,1.4c0-0.2-0.1-0.4-0.2-0.6
		c0,0.1-0.8-0.8-0.8-0.9c0,0,0,0.1,0,0.1c-0.1-0.5-0.5-0.9-0.7-1.3c0,0,0,0,0,0.1c0,0-0.3-0.3-0.4-0.4c0.1,0.1,0.1,0.2,0.2,0.3
		C39.9,8.3,39,7.6,39,7.3c0,0,0.1,0,0.1,0.1c-0.1,0-0.5-0.7-0.5-0.7c0.1,0,0.2,0.1,0.3,0.2c-0.6-0.6-1.2-1.2-1.9-1.7
		c0.1,0.1-0.5-0.3-0.6-0.4c-0.4-0.3-0.8-0.6-1.3-0.9c-1.2-0.7-2.4-1.6-3.7-2.1c-1.2-0.5-2.5-1-3.7-1.2c-0.5-0.1-1.4-0.1-1.7-0.2
		c-0.8-0.1-1.6-0.2-2.4-0.3c0.1,0,0.2,0,0.3,0c-1.2-0.2-2.5,0.1-3.8,0.2c0.1,0.4,0,0.4-0.4,0.4c0.1-0.1,0.2-0.1,0.3-0.2
		c-0.3,0-0.5,0-0.8,0c-0.2,0-0.1-0.2-0.4-0.1c0,0.1,0,0.1,0.1,0.1c-0.6,0.1-2.6,0.2-2.9,0.9c-0.1,0-0.1,0,0-0.1
		c-0.3,0.1-0.6,0.2-0.9,0.3c-0.1,0-0.1-0.1-0.2,0c-0.3,0.2-0.6,0.5-1,0.5c0-0.1,0-0.2,0.2-0.2c-0.5,0.3-1,0.5-1.5,0.9
		c0,0,0-0.1,0-0.1C10.7,3.6,9,4.7,7.4,6c0.2,0-0.9,1-0.7,0.6c-0.4,0.5-1,0.9-1.3,1.5c-0.1,0,0-0.2,0-0.2c0,0-0.3,0.4-0.3,0.3
		c0-0.1,0.1-0.2,0.1-0.2C5,8.3,4.6,8.8,4.8,9.1C4.8,9.3,4,10,4,10.2c0-0.1,0.1-0.2,0.2-0.3c-0.8,1.2-1.4,2.3-2,3.6
		c0-0.1,0.1-0.1,0.1-0.2c0,0.6-0.4,1.1-0.6,1.6c-0.2,0.4-0.3,0.8-0.5,1.2c0.3,0-0.4,1.5-0.4,1.8c0-0.1,0.1-0.2,0.1-0.3
		c-0.1,0.5-0.4,1-0.6,1.5c0,0,0-0.3,0-0.3c-0.1,0.4,0.1,0.8-0.1,1c-0.4,0.3-0.1,2.2-0.1,2.7c0-0.1,0-0.1,0.1-0.2
		c0.3,0.4,0,1.4,0,1.8c0,0.5,0.2,1,0.2,1.5c0.2,0.8,0.3,1.6,0.5,2.5c0.2,0.6,0.2,1.1,0.5,1.7c0.1,0.3,0.2,0.6,0.3,0.9
		c0.1,0.2,0.6,1,0.6,1.1c0,0,0,0-0.1,0C2.5,32.5,3,33.3,3.4,34c0.6,0.9,1,1.8,1.7,2.6c0,0-0.1,0-0.1-0.1c0.8,0.8,1.3,1.7,2.2,2.4
		c0.4,0.3,0.9,0.6,1.3,0.9c0,0-0.4-0.4-0.4-0.4c0.1,0,0.2,0.1,0.3,0.1c0,0,0-0.1-0.1-0.1c0.2,0.1,0.5,0.3,0.6,0.6
		c0,0.1-0.3-0.2-0.3-0.1c-0.1,0.3,1.8,1.5,2,1.6c1.6,1,3.4,1.9,5.2,2.5c0,0-0.2-0.2-0.2-0.2c0,0.1,0.9,0.1,0.9,0.3
		c0,0.1-0.5-0.1-0.4-0.1c0.3,0.2,1.2,0,1.3,0.3c0,0-0.5,0-0.5,0c0.1,0.1,0.3,0.1,0.5,0.1c0,0-0.1,0-0.1,0c0.9,0.1,1.7,0.3,2.6,0.5
		c-0.1,0-0.2-0.1-0.4-0.2c0.1,0,0.9,0.2,0.5,0c0.9,0.4,2.2,0.3,3.1,0.3c0.9,0,1.8-0.2,2.8-0.3c-0.1,0-0.1,0-0.1,0
		c-0.1-0.2,0.6,0,0.6,0c0.5,0.1,1-0.2,1.6-0.2c-0.2,0,0.6-0.2,0.6-0.2c0,0,0.8-0.3,0.4-0.2c0.4-0.1,0.1,0,0.3,0
		c0.3,0.1,1-0.3,1.3-0.4c1-0.3,2-0.7,2.9-1.2c0-0.1-0.4,0.2,0-0.2c0.1-0.1,0.3-0.1,0.5-0.2c0.4-0.1,0.6-0.4,1-0.6c0,0-0.1,0-0.1,0
		c0.1-0.3,1.4-1,1.7-1.2c0.6-0.5,1.2-1,1.7-1.5c1.2-1.2,2.3-2.5,3.3-3.8c-0.3,0.4,0-0.1,0-0.2c-0.1,0.2-0.1-0.1,0-0.1
		c0.2-0.3,0.4-0.5,0.6-0.8C42.3,33.5,42.8,32.4,42.7,32.2z"/>
	<path fill="#AF882E" d="M1,24.3c0,0.1,0,0.1,0,0.1C1,24.4,1,24.4,1,24.3z"/>
	<path fill="none" stroke="#AF882E" stroke-width="0" stroke-linecap="round" stroke-linejoin="round" d="M23.7,0.1
		c0.1,0,0.1,0,0.2,0"/>
	<path fill="#AF882E" d="M4.7,10.2C4.7,10.2,4.6,10.2,4.7,10.2C4.6,10.3,4.6,10.3,4.7,10.2z"/>
	<path fill="#AF882E" d="M4.2,33.9C4.2,33.9,4.3,33.9,4.2,33.9L4.2,33.9z"/>
	<path fill="#AF882E" d="M27.8,1.5c-0.1-0.1-0.2-0.1-0.3-0.1C27.5,1.4,27.6,1.4,27.8,1.5z"/>
	<path fill="#AF882E" d="M41.3,9.8c-0.1-0.1-0.2-0.3-0.3-0.4C41,9.5,41.1,9.6,41.3,9.8C41.2,9.7,41.2,9.7,41.3,9.8z"/>
	<path fill="#AF882E" d="M43,14c0-0.1-0.1-0.2-0.2-0.3C42.7,13.8,43.1,14.1,43,14z"/>
	<path fill="#AF882E" d="M41.3,10.3c-0.1,0.1,0.3,0.6,0.3,0.6C41.6,10.7,41.5,10.5,41.3,10.3C41.2,10.4,41.5,10.6,41.3,10.3z"/>
	<path fill="#AF882E" d="M41.7,11l0.2,0.3C41.9,11.3,41.8,11.1,41.7,11z"/>
	<path fill="#AF882E" d="M39.4,7.4c0.2,0.1-0.8-0.8-0.2-0.1C39.3,7.5,39.4,7.3,39.4,7.4z"/>
	<path fill="#AF882E" d="M41.2,10.7c-0.1-0.1,0-0.2-0.2-0.3C41.1,10.5,41.2,10.6,41.2,10.7z"/>
	<path fill="#AF882E" d="M39.7,8.4C39.8,8.6,40,8.8,40.1,9C40.1,9,39.7,8.4,39.7,8.4z"/>
	<path fill="#AF882E" d="M40.4,9.3c-0.1-0.1-0.2-0.3-0.3-0.4C40.2,9.1,40.3,9.3,40.4,9.3z"/>
	<path fill="#AF882E" d="M40.8,10.1c-0.1-0.2-0.2-0.3-0.3-0.5C40.6,9.8,40.7,9.9,40.8,10.1z"/>
	<path fill="#AF882E" d="M35.3,4.4c-0.2-0.1-0.4-0.2-0.5-0.3C34.7,4.1,35.3,4.4,35.3,4.4z"/>
	<path fill="#AF882E" d="M36.6,5.7c-0.1-0.1-0.1-0.1-0.2-0.2c0,0-0.1,0.1-0.1,0.1C36.4,5.6,36.5,5.7,36.6,5.7z"/>
	<path fill="#AF882E" d="M35,4.7c0.1,0,0.6,0.3,0.1,0C35.1,4.7,34.4,4.3,35,4.7z"/>
	<path fill="#AF882E" d="M27,1c0.1,0,0.1,0,0.2,0c0-0.1,0-0.1,0-0.2C27.1,0.9,27.1,0.9,27,1z"/>
	<path fill="#AF882E" d="M19.1,1.3c0.2,0,0.6-0.2,0.8-0.2C19.7,1,18.9,1.2,19.1,1.3C19.8,1.2,18.9,1.2,19.1,1.3z"/>
	<path fill="#AF882E" d="M19.5,1.1c0.1,0,0.1,0,0.2-0.1C19.6,1,19.6,1.1,19.5,1.1z"/>
	<path fill="#AF882E" d="M42.7,32.9c0.1-0.1,0.2-0.3,0.2-0.4C42.8,32.6,42.7,32.7,42.7,32.9z"/>
	<path fill="#AF882E" d="M43.1,31.9c0-0.1,0-0.2,0-0.3c0,0.1-0.1,0.2-0.2,0.3C43,32,43,32,43.1,31.9z"/>
	<path fill="#AF882E" d="M1.3,20c0.1-0.1,0.1-0.3,0.1-0.4C1.3,19.7,1.3,19.8,1.3,20z"/>
	<path fill="#AF882E" d="M1.3,25.7c0,0,0-0.1-0.1,0.1C1.3,25.7,1.3,25.7,1.3,25.7z"/>
	<path fill="#AF882E" d="M2.8,30.5c-0.1-0.2-0.2-0.4-0.2-0.6C2.7,30.3,2.7,30.6,2.8,30.5z"/>
	
		<line fill="none" stroke="#AF882E" stroke-width="0" stroke-linecap="round" stroke-linejoin="round" x1="27.6" y1="26.6" x2="27.6" y2="27.6"/>
	<path fill="#AF882E" d="M29.8,38c1.5-2.2,1.8-5.1,0.6-7.5c-0.5-1-1.3-1.9-2.2-2.6c-0.1-0.2-0.1-0.8-0.1-1c-0.1-0.6,0.1-1.2,0-1.7
		c0,0,0,0.1,0,0.1c-0.1-1,0-2.1,0-3.2c0,0,0,0.1,0,0.1c0,0,0-0.4,0-0.5c0,0,0,0.5,0,0.5c0.1,0,0.1-1.9,0-2.1c0,0,0,0,0,0
		c0-0.2,0-1.1,0-0.5c0-0.3,0-0.7,0-1c0,0.1,0,0.2,0,0.4c0-1.1,0-2.1,0-3.2c0,0,0,0,0,0.1c0-0.4,0-1,0-1.4c0,0,0-0.7,0-0.6
		c0,0,0-0.3,0-0.2c0-0.6-0.1-1.1-0.1-1.7c0,0.3,0-0.3,0.1,0.1c0-0.4,0.2-1.4,0-1.7c0,0.1,0,0.5,0,0.6c0,0,0,0,0,0
		c-0.1-0.6,0.3-2.6-0.4-2.9c0.1,0.2,0.2,0.4,0.3,0.6c-0.2-0.4-0.4-0.8-0.6-1.1c0.1,0.1,0.1,0.2,0.2,0.3c-0.1-0.2-0.2-0.3-0.3-0.4
		c0.2,0,0.5,0.8,0.6,1c0-0.1-0.2-0.5-0.2-0.5c-0.4-0.4-0.6-0.9-0.9-1.2c0.1,0,0.1,0.1,0.2,0.2c0,0-0.5-0.5-0.5-0.5c0,0,0,0,0.1,0.1
		c-0.4-0.3-0.8-0.6-1.2-0.8c0.1,0,0.1,0.1,0.2,0.1c-0.4-0.5-1.6-0.3-2.2-0.3c0.1,0,0.1,0,0.2-0.1c-0.2,0-0.4,0-0.4,0
		c-0.6,0.1-1.1,0.3-1.7,0.5c0.2-0.1,0.3-0.2,0.5-0.3c-0.3,0.1-0.5,0.2-0.8,0.4c0.4-0.2-0.3,0.2-0.4,0.3c-0.1,0-0.1,0,0-0.1
		c-0.1,0.1-0.2,0.2-0.4,0.3c0.1-0.1,0.1-0.2,0.2-0.3c-0.1-0.1-1.2,1.4-1.2,1.4c-0.3,0.5-0.5,1-0.6,1.6c-0.1,0.3,0,0.8-0.1,1.1
		c0,0,0-0.1,0-0.1c0.2,0.4,0,1.5,0,1.9c0-0.1,0-0.3,0-0.4c0,0.1,0,0.2,0,0.4c0-0.1-0.1-0.5,0-0.6c-0.1,0.3,0,0.7,0,1
		c0,0.2,0,0.4,0,0.6c0,0.1,0,0.5,0,0.1c0,0.3,0,1.1,0,1.2c0,0.1,0,0.4,0,0.5c-0.1-0.2,0,0.3,0,0.4c0,0.2,0,0.5,0,0.7
		c0,0,0-0.1,0-0.1c0,0.1,0,0.3,0,0.4c0-0.2,0-0.3,0-0.5c-0.1,0.4,0,0.7,0,1.1c0-0.1,0-0.2,0-0.4c-0.1,0.3,0,0.6-0.1,0.9
		c0-0.1,0.1-0.4,0.1-0.5c0.1,0.3,0,0.9,0,1.1c0,0.3,0.1,0.8,0,1.1c0,0,0-0.1,0-0.1c0,0,0.1,1.5,0,1.7c0,0,0-0.1,0-0.1
		c0.1,0.5-0.2,1.5,0,2c0,0,0,0,0-0.1c0,0.4,0,0.7,0.1,1.1c0,0.1,0,0.1,0,0.2c0,0.3,0,0.1,0,0.1c0,0,0.1,0.6,0.1,0.6
		c0-0.1,0-0.2-0.1-0.2c0,0.8,0.1,2.1,0.1,3.1c0-0.3,0,0-0.1-0.1c0.1-0.4,0-0.7,0-1.1c0-0.1,0,0.3,0,0.1c0,0.3,0,0.6,0,0.9
		c0,0.5-0.2,0.4-0.5,0.8c-0.1,0,0.5-0.5,0.3-0.3c-0.1,0.1-0.3,0.2-0.4,0.3c-0.1,0.1-0.5,0.7-0.2,0.2c-0.1,0.2-0.3,0.3-0.4,0.5
		c0,0,0.1-0.1,0.1-0.1c-0.3,0.3-1.2,1.3-1.1,1.7c0,0,0-0.1,0-0.1c0,0.1-0.3,1.2-0.4,1.1c0-0.1,0-0.2,0-0.3C16.1,31.6,16,31.8,16,32
		c0-0.1,0-0.1,0.1-0.2c-0.1,0-0.2,0.7-0.2,0.8c0.1-0.2,0,0.4,0,0.3c0,0-0.1,0-0.1-0.1c0,0.2,0,0.4,0,0.6c0-0.2-0.1,0.1-0.1,0.1
		c0,0.2,0,0.4,0,0.7c0-0.1,0-0.2,0-0.3c0,0.5,0.2,0.9,0.2,1.4c0-0.1,0-0.1-0.1-0.1c-0.1,0.4,0.4,1.1,0.5,1.4
		c-0.2-0.3-0.3-0.5-0.4-0.8c0,0.1,0.1,0.4,0.1,0.5c0-0.1-0.1-0.2-0.1-0.3c-0.2,0.1,0.7,1.4,0.6,1.4c-0.2-0.3-0.3-0.6-0.4-0.9
		c0,0.1,0.6,1.1,0.6,1.1c0,0-0.1-0.1-0.1-0.1c0.1,0.2,0.3,0.4,0.4,0.6C17,38,17,38,16.9,37.9c0.1,0.2,0.7,1.2,0.9,1.2
		c-0.1-0.1-0.1-0.2,0-0.2c0.3,0.3,0.4,0.5,0.8,0.8c0,0-0.2-0.1-0.2-0.1c0.1,0,0.9,0.8,0.5,0.4c1.1,0.7,2.4,1,3.5,1.5
		c0,0-0.3,0-0.3,0c0.1,0.1,0.7,0.1,0.8,0.1c-0.3-0.1-0.6-0.1-0.9-0.1c0,0,2.1,0.1,2.3,0c0.7-0.1,1.7-0.2,2.3-0.6
		c-0.1,0-0.2,0.1-0.3,0.1c0,0,0.3-0.2,0.2-0.1c0.4-0.2,0.8-0.5,1.2-0.7c0,0,0,0.1-0.1,0.1c0,0,0,0,0,0c0.1-0.1,0.1,0,0.2-0.1
		c-0.1-0.1,0.8-0.8,1.1-1.1c0,0.1,0.4-0.4,0.4-0.5c0,0-0.2,0-0.2,0c0-0.2,0.3-0.3,0.4-0.4C29.5,38.2,29.8,37.9,29.8,38
		C30.5,36.8,29.8,38,29.8,38z M23.4,38.4c-0.3,0-0.5,0-0.8-0.1c0.1,0,0.2,0.1,0.2,0.1c0,0-1.7-0.7-1.8-0.8c0,0,0,0,0.1,0
		c-0.8-0.3-1.4-1.2-1.8-2.1c0,0,0,0.1,0,0.1c0,0-0.1-0.4-0.1-0.4c-0.1,0.1,0.2,0.3,0.2,0.4c0-0.2-0.2-0.7-0.3-0.9
		c-0.1-0.3,0-0.6-0.1-0.9c0,0,0,0,0,0c0-0.1,0-0.9,0-0.4c0.2-1.8,1.2-3.3,2.8-3.9c0,0,0.2-0.2,0.2,0c0-0.5-0.1-1-0.1-1.6
		c0,0.3,0-0.2,0.1,0.1c0-0.4-0.2-1.3,0-1.6c-0.1,0.1,0,0.4,0,0.6c0,0,0,0,0,0c0-0.1-0.1-0.6,0-0.7c0-0.2,0.4-0.2,0-0.3
		c0,0.1,0,0.3,0,0.4c-0.3,0,0.2-0.6,0.2-0.5c0,0.2,0.1,0.5-0.2,0.5c0-0.3,0-0.5,0-0.8c0-0.2-0.1-1.1,0-0.4c0.1-0.7,0.5-0.6,1-0.6
		c-0.1,0-0.1,0-0.2,0c0.2,0,0.5,0,0.7,0c0-0.2,0-0.4,0-0.6c0,0.2,0.1,0.5-0.1,0.5c0.1,0,0.1-1.3,0.1-1.5c0,0.1,0,0.2,0,0.3
		c0-0.1-0.1-0.8,0-0.8c0,0,0,0.2,0,0.2c-0.2,0,0.3-1.4-0.3-1.4c0.3,0.1,0.1,0,0.3,0.1c0,0,0-0.1,0-0.1c-0.1,0-0.3,0-0.4,0
		c0,0,0.1,0,0.1,0c-0.4,0-0.8,0-1.1,0c0,0,0.1,0,0.1,0c-0.1,0-0.1,0-0.1,0c0,0.2-0.1-0.1-0.1-0.2c0,0.4,0-0.4,0-0.5
		c0-0.1,0-0.1,0,0.1c0-0.1,0-0.3,0-0.4c0.1,0.1,0.1,0.3,0.1,0.4c0-0.7,1.1-0.4,1.1-0.6c0.3-0.2,0.4-1.6,0.4-2c0,0,0,0.1,0,0.1
		c0.1-0.1,0-1.3,0-1.5c-0.5,0.1-1,0-1.5,0.1c0,0,0-1.1,0-1.1c0.1-0.2,0.5-0.1,0.7-0.1c0,0-0.1,0-0.1,0c0.1,0,0.3,0,0.4,0
		c-0.1,0-0.3,0-0.4,0c0.2,0,0.3,0,0.5,0c0.4,0,0.4,0.1,0.4-0.4c0.1,0.2,0,0.4-0.2,0.4c0.4,0,0.2-0.6,0.3-0.9c0,0.1-0.1,0.5-0.1,0.5
		c-0.1-0.1-0.1-1.8,0-2c0,0,0,0.1,0,0.1c0,0,0-1,0-1c-0.2,0-0.5,0.1-0.7,0c0,0,0,0,0.1,0c-0.3,0.1-0.6,0.1-0.9,0.1
		c0-0.2,0-0.6,0-0.7c0-0.4-0.1-0.9,0-1.3c0,0.3-0.1-0.4-0.1-0.5c0,0.1,0,0.2,0.1,0.2c-0.1-0.8,0.8-1.7,1.7-1.6c-0.3,0,0,0-0.1,0.1
		c-0.3-0.1-0.7,0-0.9,0.2c0.4-0.2,1.3-0.3,1.7,0.2c0,0-0.4-0.3-0.3-0.2c0.2,0.2,0.4,0.3,0.5,0.5c0,0,0.1,0.4,0.2,0.5
		c0,0,0-0.1,0-0.1c0.1,0.4-0.2,1.5,0.1,1.8c0,0,0-0.1,0.1-0.1c0.1,0.2,0.2,0.5,0.2,0.7c0,0.3-0.2,0.6-0.2,0.1c0,0.2-0.1,0.4-0.1,0.6
		c0-0.4,0,0.5,0,0.6c0-0.2,0.1,0.4,0.1,0.2c0,0-0.1,0-0.1-0.1c0,0.2,0,0.4,0.1,0.5c0,0-0.1,0.5-0.1,0.7c0-0.1,0-0.2,0-0.2
		c0,0.4,0.1,0.8,0.1,1.2c0,0.2,0.3,0.8,0.3,1.3c0-0.3-0.2-0.6-0.2-0.9c0,0.1-0.1,0.3-0.1,0.4c0-0.1,0-0.2,0-0.3c0,0.1,0.1,1.3,0,1.4
		c0-0.3,0-0.6,0-0.9c0,0,0.1,1.1,0.1,1.1c0,0,0-0.1-0.1-0.1c0,0.2,0,0.4,0,0.6c0-0.1,0-0.2,0-0.2c0,0.3-0.1,1.1,0.1,1.3
		c0-0.1,0-0.2,0-0.2c0,0.1-0.3,0.3-0.3,0.4v0V20v0c0,0.2,0.3,0.3,0.3,0.5c0,0,0-0.2,0-0.2c-0.1-0.1-0.1,0.7-0.1,0.8
		c0-0.4,0.1,0.4,0.2,0.5c0.1,0.1,0.3,0.7,0.1,0.7c-0.2,0-0.1,1.8-0.2,2.1c0,0,0-0.3,0-0.3c0,0,0,0.7,0,0.8c0.1-0.2,0-0.6,0-0.8
		c0.1,0,0.1,1.2,0.1,1.3c0,0,0,1.6,0,0.7c0,0.1,0,0.2,0,0.3c0-0.2,0-0.3,0-0.5c-0.1,0.7-0.2,1.7,0,2.4c0,0,0-0.2,0-0.2
		c0,0,0,0.3,0,0.1c0,0.4,0.1,0.7,0,1.1c0,0,0-0.3,0-0.4c0,0.1-0.1,0.7,0,0.7c0-0.1,0-0.1,0-0.2c0,0.6,1.5,0.5,1.6,1.2
		c0-0.3-0.7-0.3-0.8-0.5c0.1,0.1,0.2,0.1,0.3,0.2c-0.1,0-0.2-0.1-0.3-0.2c0.1,0,0.8,0.6,0.8,0.6c0.2-0.1-0.6-0.5-0.6-0.4
		c0.2,0.1,0,0.4,0.2,0.4c0.5,0,0.6,0.2,0.9,0.6c0.7,0.1,0.8,2.3,0.8,2.8C27.8,36.4,25.8,38.4,23.4,38.4z M23.8,8.6
		C23.8,8.7,23.8,8.6,23.8,8.6C23.8,8.6,23.8,8.7,23.8,8.6z M27.5,40C27.5,40,27.5,40,27.5,40C27.5,40,27.5,40,27.5,40z M27,30.8
		c0,0.1,0.3,0.4,0.4,0.5C27.2,31.2,27.1,31,27,30.8z M27.4,31.3c0,0-0.1-0.2-0.1-0.1c0.1,0.1,0.1,0.3,0.2,0.4
		C27.5,31.5,27.4,31.4,27.4,31.3z M27.9,32.6L27.9,32.6L27.9,32.6z M27.9,25.7c0,0.1,0,0.2,0,0.3C27.9,26.1,27.9,25.5,27.9,25.7z
		 M27.8,18.7C27.9,18.8,27.8,18.5,27.8,18.7C27.8,18.7,27.8,18.7,27.8,18.7z M27.9,15.9C27.9,15.9,27.9,15.9,27.9,15.9
		C27.9,15.9,27.9,15.9,27.9,15.9z M27.9,19.8C27.9,19.6,27.8,19.9,27.9,19.8C27.9,19.8,27.9,19.8,27.9,19.8z M27.8,25.5
		C27.8,25.8,27.9,25.5,27.8,25.5C27.8,25.5,27.8,25.5,27.8,25.5z M28,33.1C28,33,28,33,28,33.1C28,33,28,33,28,33.1z M28.1,33.4
		L28.1,33.4L28.1,33.4z M28,33.6C28,33.5,28,33.6,28,33.6C28,33.6,28,33.5,28,33.6z M27.5,31.5c0,0.1,0.1,0.1,0.1,0.2
		C27.6,31.6,27.5,31.6,27.5,31.5z M25.4,29.6c0.1,0.1,0.2,0.1,0.3,0.2C25.7,29.8,25.4,29.6,25.4,29.6z M25.4,29.6
		c-0.7-0.2-0.2-0.7-0.2-1.2C25.2,28.8,25,29.5,25.4,29.6z M25.1,12.6c0-0.1,0-0.1,0-0.1C25,12.4,25.1,12.6,25.1,12.6z M25,13.6
		C25,13.6,25,13.6,25,13.6C25,13.6,25,13.6,25,13.6z M25.2,15.4c0,0.2,0,0.4,0,0.5c0-0.2-0.1-0.3-0.1,0
		C25.1,15.7,25.1,15.6,25.2,15.4z M25.2,22.2C25.2,22.2,25.2,22.2,25.2,22.2L25.2,22.2z M25.1,28.3c0-0.1,0,0,0,0.2
		C25.2,28.4,25.2,28.3,25.1,28.3z M25.1,28.4C25.1,28.4,25.1,28.3,25.1,28.4C25.1,28.4,25.1,28.4,25.1,28.4z M25.1,24.2
		c0-0.2,0-0.5,0-0.7C25.1,23.8,25.1,24,25.1,24.2C25.1,24.2,25.1,24.2,25.1,24.2z M25.1,17.9c0-0.7,0-1.3,0.1-2c0,0.7,0,1.5,0,2.2
		C25.1,18.1,25.1,18,25.1,17.9C25.1,17.4,25.1,18,25.1,17.9z M25.1,17.9c0,0.1,0,0.2,0,0.3c0-0.5,0,0.6,0,0.6c0,0.1,0,0.4,0,0.5
		C25,18.8,25.1,18.4,25.1,17.9C25.1,17.9,25.1,18.4,25.1,17.9z M25.1,19.3c0,0.7,0,1.3,0.1,1.9C25.1,20.5,25.1,19.9,25.1,19.3z
		 M25,27.8C25,27.8,25,27.8,25,27.8C25,27.7,25,27.8,25,27.8z M25.1,28.2c0,0.1,0,0.2,0,0.3C25.1,28.5,25.1,28.1,25.1,28.2z
		 M25.1,28.7C25.1,28.7,25.1,28.7,25.1,28.7C25.1,28.7,25.1,28.7,25.1,28.7z M25,11.6C25,11.7,25,11.6,25,11.6L25,11.6z M22.8,21.8
		c0.3,0-0.1,0-0.1,0c0.1,0,0.2,0,0.3,0c-0.4,0-0.8,0.1-1.2,0.1c0.4,0,0.8-0.1,1.2-0.1c-0.1,0-0.2,0-0.3,0
		C22.7,21.8,23,21.8,22.8,21.8C22.9,21.8,23.1,21.8,22.8,21.8z M21.6,29.7c0,0-0.7,0.3-0.9,0.4c0.1-0.1,1.1-0.4,1.1-0.5
		C21.8,29.6,21.7,29.6,21.6,29.7C21.7,29.5,21.8,29.6,21.6,29.7z M21.8,25.2c0,0,0,0.2,0,0.2C21.8,25.4,21.8,25.2,21.8,25.2z
		 M21.8,26.6c0,0.3,0,0.7,0,1.1C21.8,27.5,21.8,26.6,21.8,26.6C21.8,26.7,21.8,26.6,21.8,26.6z M21.8,29.5
		C21.7,29.6,21.8,29.5,21.8,29.5L21.8,29.5z M21.8,28.6c0-0.1,0-0.2,0-0.4C21.8,28,21.8,28.7,21.8,28.6z M21.7,26.6
		C21.7,26.6,21.7,26.6,21.7,26.6L21.7,26.6z M21.7,26.6C21.7,26.6,21.7,26.6,21.7,26.6L21.7,26.6z M21.6,26.4c0.1,0.1,0,0.1,0,0.1
		C21.5,26.5,21.5,26.5,21.6,26.4C21.6,26.4,21.6,26.4,21.6,26.4z M21.7,26.6C21.7,26.6,21.7,26.6,21.7,26.6
		C21.7,26.6,21.7,26.6,21.7,26.6z M21.7,26.6C21.7,26.6,21.7,26.6,21.7,26.6L21.7,26.6z M21.6,26.4c-0.1,0.1,0,0.1,0.1,0.2
		C21.5,26.6,21.5,26.4,21.6,26.4C21.5,26.5,21.6,26.4,21.6,26.4z M22,25.2c0,0,0,0.5,0,0.5C22,25.5,22,25.3,22,25.2
		C22,25.2,22,25.3,22,25.2z M22.2,24.9C22.5,24.9,22.2,24.9,22.2,24.9C22.2,24.9,22.2,24.9,22.2,24.9z M22.2,24.7c0.1,0,1.1,0,1.1,0
		C22.9,24.7,22.6,24.7,22.2,24.7C22.2,24.7,22.6,24.7,22.2,24.7z M23.1,21.8C23.3,21.8,23.1,21.8,23.1,21.8
		C23.1,21.8,23.1,21.8,23.1,21.8z M21.9,20.1C21.8,20.1,21.8,20.1,21.9,20.1C21.9,20.1,21.8,20.1,21.9,20.1z M23.3,20.1
		c-0.3,0-0.7,0-1,0C22.7,20.1,23,20.1,23.3,20.1z M20.8,30c-0.1,0.2-0.4,0.3-0.5,0.4C20.4,30.3,20.7,30.2,20.8,30z M22.9,38.4
		c0.1,0,0.1,0,0.2,0C23.1,38.4,22.8,38.4,22.9,38.4C22.9,38.4,22.8,38.4,22.9,38.4z M26.7,40.5l-0.2,0.1L26.7,40.5z M30,37.2
		c0-0.1,0.1-0.2,0.1-0.2C30.1,37.1,30,37.1,30,37.2z M30.7,35.3L30.7,35.3L30.7,35.3z M30.5,36.1L30.5,36.1L30.5,36.1z M29.3,38.4
		C29.2,38.4,29.2,38.4,29.3,38.4C29.2,38.4,29.2,38.4,29.3,38.4z M29,38.9C29,38.9,29,38.9,29,38.9C29,38.9,29,38.9,29,38.9z
		 M29.2,38.5c0-0.1,0.3-0.4,0.4-0.5c-0.2,0.2-0.3,0.3-0.2,0.3C29.3,38.4,29.3,38.5,29.2,38.5C29.2,38.5,29.3,38.4,29.2,38.5z"/>
	<path fill="#AF882E" d="M26.6,40.8c-0.1,0-0.2,0.2-0.2,0.2c0.4-0.1,0.7-0.3,1.1-0.3c0.1-0.1,0.2-0.2-0.1-0.2c0.2,0,0.2,0,0.2,0.2
		c0-0.2,0.1-0.3,0.1-0.5C27.3,40.4,26.9,40.6,26.6,40.8z"/>
	<path fill="#AF882E" d="M27.5,40.6C27.5,40.6,27.5,40.6,27.5,40.6L27.5,40.6z"/>
	<path fill="#AF882E" d="M27.9,40.1L27.9,40.1C27.9,40.1,27.9,40.1,27.9,40.1z"/>
	<path fill="#AF882E" d="M26.5,40.9C26.5,40.9,26.5,40.9,26.5,40.9C26.5,40.9,26.5,40.9,26.5,40.9z"/>
	<path fill="none" stroke="#AF882E" stroke-width="0" stroke-linecap="round" stroke-linejoin="round" d="M27.6,31.7
		c-0.1-0.1-0.1-0.2-0.1-0.2"/>
	<path fill="none" stroke="#AF882E" stroke-width="0" stroke-linecap="round" stroke-linejoin="round" d="M28,33C28,33,28,33,28,33"
		/>
	
		<line fill="none" stroke="#AF882E" stroke-width="0" stroke-linecap="round" stroke-linejoin="round" x1="28.1" y1="33.3" x2="28.1" y2="33.4"/>
	
		<line fill="none" stroke="#AF882E" stroke-width="0" stroke-linecap="round" stroke-linejoin="round" x1="27.9" y1="32.6" x2="27.9" y2="32.5"/>
	<path fill="none" stroke="#AF882E" stroke-width="0" stroke-linecap="round" stroke-linejoin="round" d="M28,33.6
		C28,33.6,28,33.5,28,33.6"/>
	
		<line fill="none" stroke="#AF882E" stroke-width="0" stroke-linecap="round" stroke-linejoin="round" x1="22" y1="16.3" x2="22.1" y2="16.5"/>
	<path fill="#AF882E" d="M22.3,15.8L22.3,15.8C22.3,15.8,22.3,15.8,22.3,15.8z"/>
	
		<line fill="none" stroke="#AF882E" stroke-width="0" stroke-linecap="round" stroke-linejoin="round" x1="22" y1="10.6" x2="22" y2="10.3"/>
	<path fill="#AF882E" d="M23.6,20.4c0,0-0.2,0-0.3,0C23.4,20.4,23.6,20.5,23.6,20.4C23.6,20.4,23.6,20.4,23.6,20.4z"/>
	<path fill="none" stroke="#AF882E" stroke-width="0" stroke-linecap="round" stroke-linejoin="round" d="M19,33.6
		C19,33.6,19,33.6,19,33.6"/>
	<path fill="none" stroke="#AF882E" stroke-width="0" stroke-linecap="round" stroke-linejoin="round" d="M25,28.8
		C25,28.8,25,28.8,25,28.8"/>
	
		<line fill="none" stroke="#AF882E" stroke-width="0" stroke-linecap="round" stroke-linejoin="round" x1="25.2" y1="22.6" x2="25.2" y2="22.6"/>
	
		<line fill="none" stroke="#AF882E" stroke-width="0" stroke-linecap="round" stroke-linejoin="round" x1="25.1" y1="28.4" x2="25.1" y2="28.3"/>
	<path fill="#AF882E" d="M24.8,12.4C24.8,12.4,24.8,12.4,24.8,12.4L24.8,12.4z"/>
	<path fill="#AF882E" d="M24.8,11.9c0,0.2,0,0.3,0,0.5C24.9,12.2,24.9,12.1,24.8,11.9z"/>
	<path fill="#AF882E" d="M23.2,16.6c-0.1,0.1-0.1,0.2-0.2,0.2c0.2,0,0.3,0.1,0.5,0.1c-0.1,0-0.3,0-0.4,0c0.2,0,0.3,0,0.5,0
		C23.6,16.6,23.7,16.6,23.2,16.6z"/>
	<path fill="#AF882E" d="M23.6,17c0-0.1,0,0.2,0,0.3C23.6,17.2,23.6,17.1,23.6,17z"/>
	<path fill="#AF882E" d="M23.6,17C23.5,17,23.6,17,23.6,17C23.6,17,23.6,17,23.6,17z"/>
	
		<line fill="none" stroke="#AF882E" stroke-width="0" stroke-linecap="round" stroke-linejoin="round" x1="21.2" y1="26.6" x2="21.2" y2="26.6"/>
	<path fill="#AF882E" d="M22,10.3C22,10.3,22,10.3,22,10.3C22,10.4,22,10.4,22,10.3z"/>
	<path fill="#AF882E" d="M23.6,20.4C23.6,20.4,23.5,20.3,23.6,20.4L23.6,20.4z"/>
	<path fill="#AF882E" d="M24.8,20.3c0,0,0,0,0,0.2C24.8,20.4,24.8,20.3,24.8,20.3z"/>
	<path fill="#AF882E" d="M25.1,29.5c0,0,0-0.1,0-0.2C25.1,29.3,25.1,29.4,25.1,29.5C25.1,29.5,25.1,29.5,25.1,29.5z"/>
	<path fill="#AF882E" d="M27,31c0,0-0.1-0.2-0.1-0.2C26.9,30.9,26.9,31,27,31z"/>
	<path fill="#AF882E" d="M25.1,29.7c0.1,0,0.1,0,0.2,0.1C25.2,29.7,25.2,29.7,25.1,29.7z"/>
	<path fill="#AF882E" d="M25,28.4c0,0.1,0,0.3,0,0.4C25,28.7,25,28.6,25,28.4z"/>
	<path fill="#AF882E" d="M25,29.1c0-0.1,0-0.2,0-0.3C25,28.9,25,29,25,29.1z"/>
	<path fill="#AF882E" d="M24.9,29.5c0-0.1,0-0.1,0-0.2C24.9,29.3,25,29.7,24.9,29.5z"/>
	<path fill="#AF882E" d="M25,25.1c0-0.1,0-0.2,0-0.3C25,24.8,25,25,25,25.1z"/>
	<path fill="#AF882E" d="M24.9,26.1c0-0.1,0-0.1,0-0.2C24.9,26,24.9,26,24.9,26.1z"/>
	<path fill="#AF882E" d="M24.8,25C24.9,25.1,24.9,25.4,24.8,25C24.9,25.1,24.8,24.6,24.8,25z"/>
	<path fill="#AF882E" d="M24.8,15.9c0-0.1,0-0.4,0-0.5C24.8,15.4,24.8,15.8,24.8,15.9C24.8,16,24.8,15.5,24.8,15.9z"/>
	<path fill="none" stroke="#AF882E" stroke-width="0" stroke-linecap="round" stroke-linejoin="round" d="M24.8,15.8
		c0,0,0-0.1,0-0.1"/>
	<path fill="#AF882E" d="M23.6,14.8c0-0.1,0-0.2,0-0.2C23.6,14.7,23.6,14.8,23.6,14.8z"/>
	<path fill="#AF882E" d="M22.1,16.6C22.1,16.6,22,16.6,22.1,16.6L22.1,16.6z"/>
	<path fill="#AF882E" d="M23.6,18.1c0-0.1,0-0.3,0-0.4C23.6,18,23.6,18.1,23.6,18.1z"/>
	<path fill="none" stroke="#AF882E" stroke-width="0" stroke-linecap="round" stroke-linejoin="round" d="M30,37.2
		c0-0.1,0.1-0.2,0.1-0.2"/>
	
		<line fill="none" stroke="#AF882E" stroke-width="0" stroke-linecap="round" stroke-linejoin="round" x1="30.7" y1="35.3" x2="30.7" y2="35.3"/>
	
		<line fill="none" stroke="#AF882E" stroke-width="0" stroke-linecap="round" stroke-linejoin="round" x1="30.5" y1="36.1" x2="30.5" y2="36.1"/>
	
		<line fill="none" stroke="#AF882E" stroke-width="0" stroke-linecap="round" stroke-linejoin="round" x1="18.7" y1="14.4" x2="18.8" y2="14.5"/>
	<path fill="#AF882E" d="M18.8,15.6L18.8,15.6C18.8,15.6,18.8,15.6,18.8,15.6z"/>
	
		<line fill="none" stroke="#AF882E" stroke-width="0" stroke-linecap="round" stroke-linejoin="round" x1="18.8" y1="24.5" x2="18.8" y2="24.2"/>
	<path fill="#AF882E" d="M19.1,8.5l0-0.2C19,8.6,19.1,8.5,19.1,8.5z"/>
	<path fill="none" stroke="#AF882E" stroke-width="0" stroke-linecap="round" stroke-linejoin="round" d="M28.1,19.6
		C28.1,19.6,28.1,19.6,28.1,19.6"/>
	<path fill="none" stroke="#AF882E" stroke-width="0" stroke-linecap="round" stroke-linejoin="round" d="M27.1,40.4
		C27.1,40.4,27.1,40.4,27.1,40.4"/>
	<path fill="#AF882E" d="M20.1,40.6L20.1,40.6C20.1,40.7,20.1,40.7,20.1,40.6z"/>
	
		<line fill="none" stroke="#AF882E" stroke-width="0" stroke-linecap="round" stroke-linejoin="round" x1="26.5" y1="40.6" x2="26.7" y2="40.5"/>
	<path fill="#AF882E" d="M27.4,7.9C27.4,8,27.4,8,27.4,7.9C27.5,8.1,27.5,8,27.4,7.9z"/>
	<path fill="#AF882E" d="M16.2,31.4C16.2,31.4,16.2,31.3,16.2,31.4L16.2,31.4z"/>
	<path fill="#AF882E" d="M16.3,30.9c0,0.2-0.1,0.3-0.2,0.5C16.3,31.2,16.4,31.1,16.3,30.9z"/>
	<path fill="#AF882E" d="M28,9.3c0,0,0,0.1,0,0.1C28,9.4,28,9.4,28,9.3z"/>
	<path fill="none" stroke="#AF882E" stroke-width="0" stroke-linecap="round" stroke-linejoin="round" d="M25.1,5.8
		c-0.1,0-0.1,0-0.2-0.1"/>
	<path fill="#AF882E" d="M25.9,6.3c0.1,0.1,0.2,0.2,0.3,0.2C26.3,6.5,26.2,6.5,25.9,6.3z"/>
	<path fill="#AF882E" d="M24.4,5.6c0.1,0,0.1,0,0.2,0C24.9,5.7,24.3,5.6,24.4,5.6z"/>
	<path fill="#AF882E" d="M27.5,40.1c0,0-0.3,0.1-0.4,0.2C27.2,40.3,27.4,40.2,27.5,40.1z"/>
	<path fill="#AF882E" d="M27.5,40.1C27.5,40.1,27.5,40.1,27.5,40.1C27.5,40.1,27.5,40.1,27.5,40.1z"/>
	<path fill="#AF882E" d="M18.8,24.6C18.8,24.5,18.8,24.5,18.8,24.6C18.8,24.5,18.8,24.5,18.8,24.6z"/>
	<path fill="#AF882E" d="M19.1,8.5C19.1,8.5,19.1,8.4,19.1,8.5L19.1,8.5z"/>
	<path fill="#AF882E" d="M18.4,39.7c-0.1-0.1-0.1-0.1-0.1-0.1C18.3,39.5,18.3,39.6,18.4,39.7z"/>
	<path fill="none" stroke="#AF882E" stroke-width="0" stroke-linecap="round" stroke-linejoin="round" d="M27.5,40
		C27.5,40,27.5,40,27.5,40"/>
	<path fill="#AF882E" d="M27.1,40.5c0.3,0.1-0.3,0.1-0.3,0.1C26.8,40.6,27.1,40.5,27.1,40.5C27.1,40.4,27.1,40.5,27.1,40.5z"/>
	<path fill="#AF882E" d="M27.1,40.4c0.1-0.1,0.2-0.1,0.2-0.1C27.3,40.3,27.2,40.3,27.1,40.4z"/>
	<path fill="none" stroke="#AF882E" stroke-width="0" stroke-linecap="round" stroke-linejoin="round" d="M27.6,40.2
		C27.6,40.2,27.6,40.1,27.6,40.2"/>
	<path fill="none" stroke="#AF882E" stroke-width="0" stroke-linecap="round" stroke-linejoin="round" d="M27.5,40.2
		C27.5,40.2,27.6,40.2,27.5,40.2"/>
	<path fill="#AF882E" d="M24.1,41.4c0,0,0.1,0,0.2,0C24.2,41.4,24.2,41.4,24.1,41.4z"/>
	<path fill="#AF882E" d="M23.1,41.5C23.2,41.5,23.5,41.5,23.1,41.5C23.2,41.5,22.6,41.5,23.1,41.5z"/>
	<path fill="#AF882E" d="M15.8,34.8c0,0.2,0.1,0.3,0.1,0.5C15.8,35.2,15.8,34.7,15.8,34.8C15.8,35.2,15.8,34.6,15.8,34.8z"/>
	<path fill="none" stroke="#AF882E" stroke-width="0" stroke-linecap="round" stroke-linejoin="round" d="M15.9,35c0,0,0,0.1,0,0.1"
		/>
	<path fill="#AF882E" d="M18.7,18.1c0,0.1,0-0.3,0-0.2C18.7,17.9,18.7,18,18.7,18.1z"/>
	<path fill="#AF882E" d="M18.7,14.2C18.7,14.2,18.7,14.2,18.7,14.2L18.7,14.2z"/>
	<path fill="#AF882E" d="M18.7,10.9c0,0.1,0,0.3,0,0.4C18.7,11,18.7,10.8,18.7,10.9z"/>
</g>
</svg>
