<!-- Generator: Adobe Illustrator 19.1.0, SVG Export Plug-In  -->
<svg version="1.1"
	 xmlns="http://www.w3.org/2000/svg" xmlns:xlink="http://www.w3.org/1999/xlink" xmlns:a="http://ns.adobe.com/AdobeSVGViewerExtensions/3.0/"
	 x="0px" y="0px" width="44.8px" height="45.1px" viewBox="0 0 44.8 45.1" enable-background="new 0 0 44.8 45.1"
	 xml:space="preserve">
<defs>
</defs>
<g>
	<path fill="none" d="M21.1,29.1c0,0-0.2,0-0.1,0C21,29.1,21,29.1,21.1,29.1z"/>
	<path fill="none" d="M24.5,32.4c0,0-0.4,0-0.4,0C24.3,32.5,24.4,32.6,24.5,32.4z"/>
	<path fill="none" d="M24.5,31.6C24.6,31.6,24.6,31.6,24.5,31.6C24.6,31.6,24.6,31.6,24.5,31.6z"/>
	<path fill="none" d="M24.6,31.9C24.6,31.9,24.6,31.8,24.6,31.9C24.6,31.9,24.6,31.9,24.6,31.9z"/>
	<path fill="none" d="M21.4,29C21.3,28.9,21.2,29.2,21.4,29C21.2,29.2,21.5,29,21.4,29z"/>
	<path fill="none" d="M28.4,34c0,0,0.3-0.1,0.4-0.1C28.8,33.9,28.4,33.9,28.4,34z"/>
	<path fill="none" d="M25.8,40c0,0,0.3-0.1,0.4-0.1C26.1,39.9,25.8,39.9,25.8,40z"/>
	<path fill="none" d="M22.7,34.4c0,0-0.1,0-0.2,0.1C22.6,34.4,22.7,34.4,22.7,34.4z"/>
	<path fill="none" d="M23.1,29.2C23.1,29.2,23,29.2,23.1,29.2C23,29.2,23.1,29.2,23.1,29.2z"/>
	<path fill="none" d="M19,12.5C19,12.5,19,12.5,19,12.5C19,12.5,19,12.5,19,12.5z"/>
	<path fill="none" d="M22.1,34.5c-0.1,0.1-0.2,0.1-0.2,0.1C21.9,34.6,22.1,34.6,22.1,34.5z"/>
	<path fill="none" d="M22.1,29.1c0,0,0,0.1,0,0.1C22.1,29.2,22.1,29.1,22.1,29.1z"/>
	<path fill="none" d="M21.4,29.3c-0.1,0.2-0.1,0.2,0.1,0.2C21.6,29.5,21.4,29.3,21.4,29.3z"/>
	<path fill="none" d="M28.1,37.8c-0.1,0-0.1,0,0.1,0.1C28.1,37.9,28.1,37.9,28.1,37.8z"/>
	<path fill="none" d="M25.6,39.9c0,0,0,0.1,0,0.1c0.1,0,0.2-0.1,0.2-0.2C25.8,39.9,25.7,39.9,25.6,39.9C25.6,40,25.7,39.9,25.6,39.9
		z"/>
	<path fill="none" d="M30.8,31.1C30.9,31.1,30.9,31,30.8,31.1C30.9,31,30.9,31.1,30.8,31.1z"/>
	<path fill="none" d="M30.8,31.3C30.9,31.3,30.8,31.3,30.8,31.3L30.8,31.3z"/>
	<path fill="none" d="M30.7,30.1C30.7,30.2,30.6,30,30.7,30.1L30.7,30.1z"/>
	<path fill="none" d="M29.2,33.7c0,0,0.1-0.1,0.1-0.1C29.2,33.7,29.2,33.7,29.2,33.7z"/>
	<path fill="none" d="M29,33.8c-0.1,0-0.1,0-0.2,0.1C28.8,33.9,28.9,33.8,29,33.8z"/>
	<path fill="none" d="M30.6,30C30.6,30.1,30.6,30,30.6,30L30.6,30z"/>
	<path fill="none" d="M9,40.3c-0.1-0.1-0.1-0.1-0.2-0.2C8.9,40.1,9,40.2,9,40.3z"/>
	<path fill="none" d="M24.5,34.6C24.7,34.6,24.5,34.6,24.5,34.6L24.5,34.6z"/>
	<path fill="none" d="M26.5,39.7C26.5,39.8,26.7,39.7,26.5,39.7L26.5,39.7z"/>
	<path fill="none" d="M28.2,37.3c-0.1,0.2,0,0.4,0,0.6C28.2,37.7,28.2,37.5,28.2,37.3C28.1,37.5,28.2,37.5,28.2,37.3z"/>
	<path fill="none" d="M28.2,36.6c-0.1,0.2,0,0,0.1,0.3C28.2,36.8,28.2,36.8,28.2,36.6z"/>
	<path fill="none" d="M28.2,37.4c0-0.1,0-0.2,0-0.2C28.2,37.3,28.2,37.4,28.2,37.4z M28.2,37.4C28.2,37.4,28.2,37.4,28.2,37.4
		C28.2,37.3,28.2,37.3,28.2,37.4z"/>
	<path fill="none" d="M26.2,39.9c0,0,0.1,0,0.2-0.1C26.3,39.8,26.2,39.9,26.2,39.9z"/>
	<path fill="none" d="M16.5,16.1c0.1,0-0.2,0-0.2,0C16.4,16.1,16.5,16.1,16.5,16.1z"/>
	<path fill="none" d="M18.4,12.2c0,0,0.1,0.1,0.1,0.1C18.5,12.2,18.4,12.2,18.4,12.2z"/>
	<path fill="none" d="M17.3,16.4C17.3,16.4,17.2,16.3,17.3,16.4C17.2,16.3,17.3,16.4,17.3,16.4z"/>
	<path fill="none" d="M16.5,12.2c0.1,0,0.2,0.1,0.2,0.1C16.8,12.3,16.6,12.2,16.5,12.2z"/>
	<path fill="none" d="M18.8,12.4C18.8,12.4,18.7,12.3,18.8,12.4L18.8,12.4z"/>
	<path fill="none" d="M17.2,12.5C17.1,12.5,17.2,12.5,17.2,12.5L17.2,12.5z"/>
	<path fill="none" d="M17.1,11.9C17,11.8,17.1,11.9,17.1,11.9L17.1,11.9z"/>
	<path fill="none" d="M19,16.2C19,16.2,19.1,16.2,19,16.2C19.1,16.2,19,16.2,19,16.2z"/>
	<path fill="none" d="M17,19.8c0,0,0-0.1-0.1-0.1C17,19.8,17,19.9,17,19.8z"/>
	<path fill="none" d="M17.1,21.5c0,0.1,0.1-0.5,0.1-0.5C17.1,21.2,17.1,21.3,17.1,21.5C17.1,21.5,17.1,21.4,17.1,21.5z"/>
	<path fill="none" d="M15.7,18.3C15.6,18.3,15.7,18.3,15.7,18.3C15.7,18.3,15.6,18.3,15.7,18.3z"/>
	<path fill="none" d="M16.2,18.6C16,18.5,16.1,18.6,16.2,18.6L16.2,18.6z"/>
	<path fill="none" d="M17.2,21.1c0-0.1,0-0.2,0-0.2C17.2,21,17.2,21.1,17.2,21.1z M17.2,21C17.2,21,17.2,21,17.2,21
		C17.2,21,17.2,21,17.2,21z"/>
	<path fill="none" d="M17.2,20.3C17.2,20.4,17.2,20.4,17.2,20.3c-0.2,0.1,0,0.2,0.1,0.4C17.2,20.5,17.2,20.4,17.2,20.3
		C17.2,20.4,17.2,20.4,17.2,20.3z"/>
	<path fill="none" d="M17.2,16.3c-0.1,0-0.2,0-0.2,0C17,16.3,17.2,16.3,17.2,16.3z"/>
	<path fill="none" d="M13.6,9.4c-0.1,0-0.2,0-0.2,0C13.5,9.5,13.6,9.5,13.6,9.4z"/>
	<path fill="none" d="M12.8,12.1C12.7,12,12.6,12,12.6,12C12.6,12,12.7,12,12.8,12.1z"/>
	<path fill="none" d="M13.6,9.4C13.6,9.5,13.6,9.5,13.6,9.4C13.6,9.4,13.6,9.4,13.6,9.4z"/>
	<path fill="none" d="M11.7,11C11.7,11,11.6,11,11.7,11L11.7,11z"/>
	<path fill="none" d="M18.5,16.3C18.5,16.3,18.4,16.3,18.5,16.3C18.5,16.3,18.6,16.3,18.5,16.3z"/>
	<path fill="none" d="M16.4,11.8C16.1,11.8,16.4,11.8,16.4,11.8L16.4,11.8z"/>
	<path fill="none" d="M13.8,9.5c0,0-0.1,0.1-0.1,0.1c0.1,0,0.3-0.1,0.4-0.1C14,9.5,13.9,9.5,13.8,9.5z"/>
	<path fill="none" d="M15.9,11.8C15.8,11.7,15.8,11.8,15.9,11.8C15.9,11.8,15.9,11.8,15.9,11.8z"/>
	<path fill="none" d="M16.3,16c0,0-0.1,0-0.1-0.1c0.1,0.1,0.3,0.1,0.5,0.2C16.5,16,16.4,16,16.3,16C16.2,15.9,16.4,16,16.3,16z"/>
	<path fill="none" d="M16.1,11.8C16.1,11.8,16.3,11.8,16.1,11.8L16.1,11.8z"/>
	<path fill="none" d="M14.9,9.5c-0.2,0-0.3,0-0.5,0C14,9.5,14.9,9.5,14.9,9.5z"/>
	<path fill="none" d="M15.8,11.8C15.8,11.8,15.8,11.8,15.8,11.8C15.8,11.8,15.8,11.8,15.8,11.8z"/>
	<path fill="none" d="M18,12.9c0,0-0.1,0-0.1-0.1C18,12.9,18,12.9,18,12.9z"/>
	<path fill="none" d="M27.4,22.5c-0.1,0-0.1,0.1-0.2,0.1C27.2,22.6,27.3,22.7,27.4,22.5z"/>
	<path fill="none" d="M24.1,12.2c0-0.1,0-0.1,0-0.1C24.1,12.1,24.1,12.1,24.1,12.2z"/>
	<path fill="none" d="M22.8,17.3c0,0-0.1-0.1-0.1-0.2C22.7,17.2,22.8,17.3,22.8,17.3z"/>
	<path fill="none" d="M22.7,17c0,0,0,0.1,0,0.2C22.7,17.1,22.7,17,22.7,17z"/>
	<path fill="none" d="M29.8,19.6C29.8,19.6,29.8,19.6,29.8,19.6C29.8,19.6,29.8,19.6,29.8,19.6z"/>
	<path fill="none" d="M24.2,16.9c0,0.1-0.2,0.2-0.2,0.3C23.9,17.3,24.2,17.1,24.2,16.9z"/>
	<path fill="none" d="M22.5,16.2c0,0.1,0.1,0.2,0.1,0.3C22.5,16.4,22.5,16.3,22.5,16.2z"/>
	<path fill="none" d="M23.8,17.4c-0.1,0-0.1,0-0.2,0.1C23.6,17.5,23.7,17.5,23.8,17.4z"/>
	<path fill="none" d="M23.7,17.4C23.7,17.4,23.5,17.6,23.7,17.4c-0.2,0.2-0.5,0.1-0.7,0.1C23.1,17.5,23.7,17.6,23.7,17.4z"/>
	<path fill="none" d="M26.1,17.1C26.3,17.2,26.1,17.1,26.1,17.1L26.1,17.1z"/>
	<path fill="none" d="M29.8,20C29.9,19.8,29.8,19.9,29.8,20L29.8,20z"/>
	<path fill="none" d="M24.4,20.7c0-0.1,0.1,0.1-0.1-0.1C24.3,20.6,24.3,20.7,24.4,20.7z"/>
	<path fill="none" d="M22.2,14.3C22.3,14.5,22.2,14.2,22.2,14.3L22.2,14.3z"/>
	<path fill="none" d="M22.1,12.9C22.1,12.9,22.1,12.9,22.1,12.9C22.1,13.1,22,13.2,22.1,12.9z"/>
	<path fill="none" d="M22.2,13.1c0,0,0.1,0.2,0.1,0.2C22.2,13.2,22.2,13.1,22.2,13.1z"/>
	<path fill="none" d="M24,17.3c0,0-0.1,0-0.1,0.1C23.9,17.3,24,17.5,24,17.3z"/>
	<path fill="none" d="M23.1,19.8c0.1,0,0.5,0.4,0.4,0.4c0.2-0.1-0.1-0.7-0.2-0.8c0,0.1,0.1,0.3,0.1,0.4
		C23.3,19.8,23.2,19.8,23.1,19.8C23.2,19.8,23.2,19.8,23.1,19.8z"/>
	<path fill="none" d="M23.1,20.8C23.1,20.8,23.1,20.8,23.1,20.8C23.1,20.8,23.1,20.8,23.1,20.8z"/>
	<path fill="none" d="M23.4,19.4C23.3,19.2,23.4,19.4,23.4,19.4L23.4,19.4z"/>
	<path fill="none" d="M19.9,17.7C19.7,17.7,19.9,17.7,19.9,17.7L19.9,17.7z"/>
	<path fill="none" d="M23.5,20.6c0,0.1-0.4,0.2-0.4,0.1C23,21.2,23.5,21.1,23.5,20.6z"/>
	<path fill="none" d="M23.5,20.5c0-0.1,0-0.2,0-0.2C23.5,20.3,23.5,20.4,23.5,20.5z"/>
	<path fill="none" d="M24.1,12c0-0.3,0.1-0.6,0.2-0.9C24.2,11.5,24.1,11.7,24.1,12z"/>
	<path fill="none" d="M21.4,17.6c-0.1,0-0.3,0-0.4,0C21.2,17.5,21.3,17.6,21.4,17.6z"/>
	<path fill="none" d="M24.2,11.3c0-0.1,0.1-0.2,0.1-0.3C24.2,11.1,24.4,10.6,24.2,11.3z"/>
	<path fill="none" d="M21.9,17.7c0.1,0,0.2,0.1,0.2,0.1C22.1,17.8,22,17.8,21.9,17.7z"/>
	<path fill="none" d="M21.6,17.6C21.7,17.6,21.6,17.6,21.6,17.6c-0.2,0,0.6-0.1-0.2,0C21.8,17.7,21.9,17.6,21.6,17.6
		C21.7,17.6,21.9,17.6,21.6,17.6z"/>
	<path fill="none" d="M21,23.1c0,0-0.1-0.1-0.1-0.1C20.7,23.2,21,23.1,21,23.1z"/>
	<path fill="none" d="M34.3,21.8C34,21.9,34.6,21.7,34.3,21.8L34.3,21.8z"/>
	<path fill="none" d="M29.8,19.9C29.8,19.9,29.8,19.9,29.8,19.9C29.8,19.8,29.8,19.8,29.8,19.9z"/>
	<path fill="none" d="M36,18.3c0,0,0,0.1,0,0.2C36,18.4,36,18.4,36,18.3z"/>
	<path fill="none" d="M36.2,19.1C36.2,19.1,36.2,19.1,36.2,19.1C36.2,19.1,36.2,19.1,36.2,19.1z"/>
	<path fill="none" d="M36.1,19.2c0,0.1,0,0.1,0,0.2C36.2,19.3,36.2,19.3,36.1,19.2z"/>
	<path fill="none" d="M31.1,20.9C31.1,20.9,31.2,21,31.1,20.9C31.1,20.9,31.2,20.9,31.1,20.9z"/>
	<path fill="none" d="M29.8,22.6C29.9,22.5,29.7,22.6,29.8,22.6C29.7,22.6,29.9,22.5,29.8,22.6z"/>
	<path fill="none" d="M31.2,20.9C31.2,20.9,31.2,20.8,31.2,20.9C31.2,20.9,31.2,20.9,31.2,20.9z"/>
	<path fill="none" d="M29.8,22.6C29.8,22.6,29.7,22.5,29.8,22.6L29.8,22.6z"/>
	<path fill="none" d="M34,16.5C33.9,16.2,34.2,16.8,34,16.5L34,16.5z"/>
	<path fill="none" d="M27.2,33.9c0.1,0,0.1,0,0.2,0C27.4,33.8,27.2,33.9,27.2,33.9C27.3,33.9,27.3,33.9,27.2,33.9z"/>
	<path fill="none" d="M32.5,16.6C32.5,16.5,32.4,16.6,32.5,16.6C32.3,16.6,32.5,16.5,32.5,16.6z"/>
	<path fill="none" d="M34.1,21.8c0,0-0.4,0-0.4,0.1C33.7,21.9,34.1,21.8,34.1,21.8z"/>
	<path fill="none" d="M33.7,21.8c-0.1,0-0.2,0.1-0.2,0.2C33.6,22,33.7,22,33.7,21.8C33.6,21.9,33.7,22,33.7,21.8z"/>
	<path fill="none" d="M28.2,34c0.1,0,0.2-0.1,0.2-0.2C28.3,33.9,28.3,33.9,28.2,34z"/>
	<path fill="none" d="M27.9,17C28,17,27.9,17,27.9,17c0.1,0,0,0-0.2,0C28.1,17.1,28.2,17.1,27.9,17C28,17,28.2,17.1,27.9,17z"/>
	<path fill="none" d="M28.3,17.3c-0.1,0-0.2-0.1-0.3-0.1C28.1,17.2,28.2,17.2,28.3,17.3z"/>
	<path fill="none" d="M27.7,17C27.7,17,27.7,17,27.7,17C27.7,17,27.7,17,27.7,17z"/>
	<path fill="none" d="M28.7,17.4C28.7,17.4,28.7,17.5,28.7,17.4C28.7,17.5,28.7,17.4,28.7,17.4z"/>
	<path fill="none" d="M27.7,17c0,0-0.3-0.2-0.4-0.2C27.4,17,27.5,16.9,27.7,17z"/>
	<path fill="none" d="M27.9,22.4c-0.1,0,0.1-0.1,0.1-0.1c-0.1,0-0.3,0.1-0.4,0.1C27.7,22.4,27.8,22.4,27.9,22.4z"/>
	<path fill="none" d="M31.9,27.8C31.9,27.8,31.9,27.7,31.9,27.8L31.9,27.8z"/>
	<path fill="none" d="M32,27.6c-0.1,0-0.1,0-0.2,0.1C31.8,27.8,31.9,27.7,32,27.6z"/>
	<path fill="none" d="M30.9,27.9C30.8,28.1,30.8,28.1,30.9,27.9C30.9,28,30.9,27.9,30.9,27.9z"/>
	<path fill="none" d="M31.9,27.7C31.8,27.8,31.9,27.7,31.9,27.7L31.9,27.7z"/>
	<path fill="none" d="M14.7,18.2C14.7,18.2,14.8,18.3,14.7,18.2L14.7,18.2z"/>
	<path fill="none" d="M33.5,25.3C33.5,25.3,33.5,25.3,33.5,25.3C33.5,25.3,33.5,25.3,33.5,25.3z"/>
	<path fill="none" d="M33.5,25.1C33.5,25.1,33.5,25,33.5,25.1C33.5,25,33.5,25.1,33.5,25.1z"/>
	<path fill="none" d="M22.7,23.5c0,0,0.1,0,0.1-0.1C22.8,23.5,22.7,23.5,22.7,23.5z"/>
	<path fill="none" d="M25.6,23.2C25.8,23.3,25.7,23.2,25.6,23.2L25.6,23.2z"/>
	<path fill="none" d="M27.1,26.5c0.2,0,0.1-0.6,0-0.6C27,26.1,27.1,26.3,27.1,26.5C27.1,26.3,27.2,26.5,27.1,26.5z"/>
	<path fill="none" d="M23.8,23.1c0,0-0.1,0-0.1,0C23.8,23.1,23.9,23.1,23.8,23.1z"/>
	<path fill="none" d="M27.2,25.6c0.1,0,0-0.3,0-0.4C27.2,25.4,27.2,25.6,27.2,25.6z"/>
	<path fill="none" d="M25.1,28.4C25.1,28.4,25,28.4,25.1,28.4L25.1,28.4z"/>
	<path fill="none" d="M27.2,26C27.2,25.9,27.2,26,27.2,26L27.2,26z"/>
	<path fill="none" d="M3.6,11.6c0-0.3,0.4-0.5,0.5-0.7C3.9,11,3.6,11.5,3.6,11.6C3.6,11.5,3.6,11.5,3.6,11.6z"/>
	<path fill="none" d="M6.6,7.5C6.5,7.6,6.4,7.7,6.6,7.5C6.7,7.4,6.8,7.2,6.8,7C6.4,7.5,6,8.1,5.6,8.6C5.8,8.4,6,8.1,6.2,7.9
		c0,0.1,0,0.2-0.1,0.3C6.5,7.9,6.7,7.5,7,7.1C6.9,7.2,6.7,7.4,6.6,7.5C6.5,7.6,6.7,7.4,6.6,7.5z"/>
	<path fill="none" d="M15.8,1.8c-0.1,0.1-0.3,0.1-0.4,0.2C15.5,1.9,15.7,1.8,15.8,1.8z"/>
	<path fill="none" d="M24.7,23.1c0,0,0,0.1,0,0.1C24.7,23.2,24.7,23.1,24.7,23.1z"/>
	<path fill="none" d="M27.2,26C27.2,25.8,27.2,25.9,27.2,26L27.2,26z"/>
	<path fill="none" d="M13.1,18.5c0,0-0.1,0.1-0.2,0.1C12.9,18.6,13.1,18.6,13.1,18.5z"/>
	<path fill="none" d="M23,23.4c0-0.2-0.2,0.1-0.3,0.1C22.8,23.5,22.9,23.5,23,23.4C23,23.4,22.9,23.5,23,23.4z"/>
	<path fill="none" d="M13.6,18.2c-0.1,0-0.1,0-0.1,0C13.5,18.3,13.5,18.2,13.6,18.2z"/>
	<path fill="none" d="M19.3,23.8c0.1,0,0.1,0.1,0.1,0C19.4,23.8,19.4,23.8,19.3,23.8z"/>
	<path fill="none" d="M27.2,25.7c0,0,0,0.1,0,0.2C27.2,25.8,27.2,25.7,27.2,25.7z"/>
	<path fill="none" d="M24.6,28.6c0.1,0,0.2,0,0.2-0.1C24.7,28.5,24.6,28.5,24.6,28.6z"/>
	<path fill="none" d="M23.1,23.4C23.1,23.4,23,23.4,23.1,23.4C23,23.4,23,23.4,23.1,23.4z"/>
	<path fill="none" d="M20.9,26.2C20.9,26.2,20.9,26.2,20.9,26.2C20.9,26.2,20.9,26.2,20.9,26.2z"/>
	<path fill="none" d="M14,18.5c0.1-0.1,0.1-0.2,0.1-0.3c-0.1,0.2,0-0.1-0.1,0c0.1,0-0.2,0.5,0.1,0.2C14,18.4,14,18.4,14,18.5z"/>
	<path fill="none" d="M24.1,23.5c-0.1-0.1,0.7,0.6-0.1-0.2C23.9,23.5,23.9,23.5,24.1,23.5z"/>
	<path fill="none" d="M24,23.2c0-0.1,0-0.1,0-0.2c0,0.1-0.1,0-0.1,0.1C23.9,23.1,23.9,23.1,24,23.2C24,22.7,24,23.2,24,23.2z"/>
	<path fill="none" d="M18.3,29.1C18.2,29.2,18.3,29.2,18.3,29.1C18.3,29.1,18.3,29.1,18.3,29.1z"/>
	<path fill="none" d="M19,23.6c-0.1,0,0.4,0-0.2,0C19.2,23.7,19.3,23.7,19,23.6C19,23.6,19.3,23.7,19,23.6z"/>
	<path fill="none" d="M18.4,23.5c0.1,0,0.3,0.1,0.4,0.1C18.7,23.5,18.5,23.5,18.4,23.5z"/>
	<path fill="#AF882E" d="M18.3,44.9C18.7,44.9,18.6,44.9,18.3,44.9L18.3,44.9z"/>
	<path fill="#AF882E" d="M18.2,44.8c0,0,0.3,0.1,0.1,0.1c0.3,0,0.6,0,0.9,0C19,44.9,18.4,44.9,18.2,44.8z"/>
	<path fill="#AF882E" d="M18.6,44.6c0,0.1,0.8,0.1,0.9,0.1C19.3,44.7,18.9,44.5,18.6,44.6C18.6,44.7,18.8,44.5,18.6,44.6z"/>
	<path fill="#AF882E" d="M18.1,44.5c0.1,0,0.3,0,0.4,0C18.4,44.5,18.1,44.5,18.1,44.5z"/>
	<path fill="#AF882E" d="M18.6,44.6C18.7,44.6,18.4,44.5,18.6,44.6L18.6,44.6z"/>
	<path fill="#AF882E" d="M18.6,44.6C18.6,44.6,18.6,44.6,18.6,44.6C18.7,44.6,18.7,44.6,18.6,44.6z"/>
	<path fill="#AF882E" d="M20.5,44.9c-0.1,0-0.2,0-0.4-0.1C20.2,44.9,20.4,45,20.5,44.9z"/>
	<path fill="#AF882E" d="M17.8,44.5L17.8,44.5C17.9,44.5,17.9,44.5,17.8,44.5z"/>
	<path fill="#AF882E" d="M17.8,44.5c0.1,0,0.2,0,0.3,0C18.3,44.6,17.5,44.3,17.8,44.5C17.9,44.5,17.6,44.4,17.8,44.5z"/>
	<path fill="#AF882E" d="M22.8,44.7c0.2,0,0.8-0.1,0.9-0.2c-0.2,0.3-1.5,0-1.7,0c-0.4,0,0,0.3,0.1,0.4c0.2,0.1,0.5,0,0.7,0
		c-0.2,0-0.6-0.2-0.8-0.1C22.2,44.6,22.6,44.6,22.8,44.7C22.8,44.7,22.5,44.6,22.8,44.7z"/>
	<path fill="#AF882E" d="M23.1,44.5C23.2,44.5,23.3,44.3,23.1,44.5C23.1,44.5,23.1,44.5,23.1,44.5z"/>
	<path fill="#AF882E" d="M21.1,44.9c0.3,0,0.9,0.4,1.2,0.1C21.9,44.9,21.5,44.9,21.1,44.9C21.4,44.9,21.1,44.9,21.1,44.9z"/>
	<path fill="#AF882E" d="M20.6,44.7c0-0.1-0.9,0-0.9,0c0.1,0,0.4,0,0.4,0.1c0,0-0.6,0,0,0.1c-0.2,0-0.4,0-0.5-0.1
		c0.5,0.1,1,0.1,1.5,0.1c-0.3,0-0.6,0-1-0.1C20.1,44.8,20.6,44.7,20.6,44.7C20.6,44.7,20.6,44.8,20.6,44.7z"/>
	<path fill="#AF882E" d="M22.8,45c-0.2,0-0.3,0-0.5,0.1C22.3,45.1,22.7,45,22.8,45z"/>
	<path fill="#AF882E" d="M23.5,45c0.1,0,0.2,0,0.3-0.1C23.6,44.9,23.6,45,23.5,45z"/>
	<path fill="#AF882E" d="M27.9,44.4C27.7,44.4,27.8,44.4,27.9,44.4L27.9,44.4z"/>
	<path fill="#AF882E" d="M27.5,44.4c0.1,0,0.2,0,0.3,0C27.8,44.4,27.7,44.4,27.5,44.4z"/>
	<path fill="#AF882E" d="M27.6,44.4c-0.1,0-0.1,0-0.2,0C27.4,44.5,27.4,44.5,27.6,44.4z"/>
	<path fill="#AF882E" d="M25.5,44.8c0.2,0,0.3-0.1,0.5-0.1C25.9,44.8,25.7,44.8,25.5,44.8C25.6,44.8,25.6,44.8,25.5,44.8
		C25.7,44.8,25.6,44.8,25.5,44.8z"/>
	<path fill="#AF882E" d="M21.3,44.5c0-0.1-0.4,0-0.4,0C21.1,44.5,21.2,44.5,21.3,44.5z"/>
	<path fill="#AF882E" d="M25,44.6c-0.1-0.1-0.8,0.1-0.6,0C24.3,44.8,24.9,44.6,25,44.6z"/>
	<path fill="#AF882E" d="M23.9,44.7c0,0,0.1,0,0.3,0L23.9,44.7z"/>
	<path fill="#AF882E" d="M24.7,44.4c0.1,0,0.2,0.1,0.3,0C24.9,44.4,24.8,44.4,24.7,44.4z"/>
	<path fill="#AF882E" d="M27.5,34.1C27.4,34.1,27.5,34.1,27.5,34.1L27.5,34.1z"/>
	<path fill="#AF882E" d="M5,36.8c0.2,0.2,0.2,0,0.2,0.1C5,36.7,5,36.8,5,36.8z"/>
	<path fill="#AF882E" d="M8.8,40.1C8.9,40.1,9,40.2,9,40.3C9,40.2,8.9,40.1,8.8,40.1c0.3,0.3-0.2-0.1-0.3-0.2
		c0.6,0.4,1.2,0.7,1.7,1.2C9.9,40.6,9.3,40.5,8.8,40.1C8.9,40.1,9.3,40.5,8.8,40.1z"/>
	<path fill="#AF882E" d="M11.3,42.1c0.1,0.1,0.2,0.1,0.3,0.2C11.7,42.3,11.1,41.9,11.3,42.1z"/>
	<path fill="#AF882E" d="M11.3,42.1C11,41.9,11.4,42.2,11.3,42.1L11.3,42.1z"/>
	<path fill="#AF882E" d="M12.8,42.9c-0.2-0.2-0.4-0.2-0.6-0.3C12.3,42.7,12.8,43.1,12.8,42.9z"/>
	<path fill="#AF882E" d="M13.1,42.9l-0.2-0.1C12.9,42.8,13,42.9,13.1,42.9z"/>
	<path fill="#AF882E" d="M12.6,42.7c0,0-0.1,0-0.1,0c0.1,0,0.2,0.1,0.4,0.1c-0.1-0.1-0.3-0.1-0.4-0.2C12.5,42.7,12.6,42.7,12.6,42.7
		C12.2,42.6,12.5,42.7,12.6,42.7z"/>
	<path fill="#AF882E" d="M12.7,42.7C12.8,42.7,12.7,42.7,12.7,42.7L12.7,42.7z"/>
	<path fill="#AF882E" d="M12.1,42.4c-0.7-0.4-0.7-0.2,0.1,0.1C11.9,42.4,11.7,42.2,12.1,42.4z"/>
	<path fill="#AF882E" d="M10.4,41.1c-0.1-0.1-0.3-0.3-0.5-0.3C10,40.8,10.4,41.1,10.4,41.1z"/>
	<path fill="#AF882E" d="M14.8,43.7c0.1,0.1,0.4,0.2,0.5,0.2C15.3,43.9,14.8,43.7,14.8,43.7z"/>
	<path fill="#AF882E" d="M15.2,43.9C15.3,43.9,15.2,43.9,15.2,43.9L15.2,43.9z"/>
	<path fill="#AF882E" d="M15.1,43.7l0.5,0.1C15.2,43.7,15.1,43.7,15.1,43.7z"/>
	<path fill="#AF882E" d="M13.4,42.8c-0.3-0.1-0.6-0.2-0.9-0.3C12.8,42.6,13.1,42.7,13.4,42.8z"/>
	<path fill="#AF882E" d="M16.4,44.2C16.4,44.2,16.5,44.2,16.4,44.2L16.4,44.2z"/>
	<path fill="#AF882E" d="M16.4,44.2c0.1,0,0.2,0.1,0.3,0.1C16.6,44.2,16.4,44.1,16.4,44.2z"/>
	<path fill="#AF882E" d="M14.7,43.3c-0.2,0,0.1,0.1-0.3,0.1C14.7,43.4,15.3,43.6,14.7,43.3z"/>
	<path fill="#AF882E" d="M15.6,43.8c0.1,0,0.5,0.2,0.6,0.1C16.1,43.9,15.7,43.8,15.6,43.8C15.7,43.8,15.7,43.9,15.6,43.8
		C15.6,43.8,15.7,43.9,15.6,43.8z"/>
	<path fill="#AF882E" d="M16.4,44c-0.1,0-0.2,0-0.3,0C16.2,44,16.3,44,16.4,44z"/>
	<path fill="#AF882E" d="M15.3,43.3C15.4,43.4,15.4,43.4,15.3,43.3C15.3,43.3,15.3,43.3,15.3,43.3z"/>
	<path fill="#AF882E" d="M16.1,43.8c-0.2-0.2-0.5-0.3-0.8-0.4c0.2,0.1-0.2-0.1-0.2-0.1C15.4,43.5,15.7,43.8,16.1,43.8
		C15.9,43.6,15.7,43.8,16.1,43.8z"/>
	<path fill="#AF882E" d="M17.9,44.3c0.3,0.1,0.6,0.1,0.8,0.1C18.4,44.3,18.1,44.2,17.9,44.3z"/>
	<path fill="#AF882E" d="M31.5,2.8L31.5,2.8C31.5,2.7,31.4,2.7,31.5,2.8z"/>
	<path fill="#AF882E" d="M41.4,11.6c0,0.1,0.1,0.2,0.2,0.4L41.4,11.6z"/>
	<path fill="#AF882E" d="M20.4,1c0.4,0,0.2-0.1,0.3-0.1C20.6,0.9,20.4,1,20.4,1z"/>
	<path fill="#AF882E" d="M34.8,41.3c0.3-0.1,0.5-0.3,0.7-0.5C35.3,41,35.1,41.2,34.8,41.3z"/>
	<path fill="#AF882E" d="M3.2,33.8c0,0.1,0.1,0.2,0.2,0.4C3.3,34.1,3.2,34,3.2,33.8z"/>
	<path fill="#AF882E" d="M37.1,39L37.1,39C37,39,37,39,37.1,39z"/>
	<path fill="#AF882E" d="M28.2,44.3c-0.1,0-0.1,0-0.1,0C28.1,44.3,28.1,44.3,28.2,44.3z"/>
	<path fill="#AF882E" d="M6.6,7.5C6.5,7.5,6.5,7.5,6.6,7.5C6.4,7.7,6.5,7.6,6.6,7.5z"/>
	<path fill="#AF882E" d="M44.1,23.7C44.2,23.8,44.1,23.7,44.1,23.7L44.1,23.7z"/>
	<path fill="#AF882E" d="M44.1,22.9c0.1,0.3,0.1,0.5,0,0.8C44.6,23.5,44.3,23.2,44.1,22.9z"/>
	<path fill="#AF882E" d="M30.6,2.3c-0.1,0-0.1,0-0.1,0C30.6,2.3,30.6,2.3,30.6,2.3z"/>
	<path fill="#AF882E" d="M2,15.3C2,15.3,2,15.4,2,15.3C2,15.3,2,15.3,2,15.3z"/>
	<path fill="#AF882E" d="M34.2,40.9c0.1,0,0.1-0.1,0.1-0.1C34.3,40.8,34.3,40.8,34.2,40.9z"/>
	<path fill="#AF882E" d="M29.2,44c0.2-0.1,0.3-0.1,0.2-0.1C29.3,43.9,29.3,44,29.2,44z"/>
	<path fill="#AF882E" d="M44.8,22.6c0,0.1,0,0.1,0,0.2C44.8,22.9,44.8,22.7,44.8,22.6z"/>
	<path fill="#AF882E" d="M25.9,1.2c-0.1,0-0.2,0-0.3,0.1C25.7,1.2,25.8,1.2,25.9,1.2z"/>
	<path fill="#AF882E" d="M43.2,13.3C43.2,13.4,43.2,13.4,43.2,13.3C43.2,13.3,43.2,13.3,43.2,13.3z"/>
	<path fill="#AF882E" d="M30.1,43.4c0.2,0.2,1.4-0.8,1.7-0.9c-0.6,0.2-1.2,0.5-1.8,0.7c-0.7,0.2-1.5,0.3-2.2,0.7
		c0.1-0.1,0.3-0.1,0.4-0.1c0,0-0.5,0.2-0.2,0.2c-0.4,0.1-0.7,0.4-1.1,0.5c0.2,0,0.5,0,0.7-0.1c-0.8,0.2,0.5-0.3,0.6-0.4
		c0.9-0.2,1.7-0.3,2.5-0.7C30.5,43.4,30.2,43.5,30.1,43.4C30.2,43.5,30.2,43.5,30.1,43.4z"/>
	<path fill="#AF882E" d="M26.7,44.3c-0.5,0.2-1-0.1-1.4,0.2c0.2,0,0.3,0,0.5,0c-0.6,0.1-1.2,0.4-1.8,0.3c0.7,0.2,1.7-0.3,2.4-0.3
		c-0.1,0-0.3-0.1-0.4-0.2C26.2,44.6,26.6,44.4,26.7,44.3C26.2,44.5,26.6,44.4,26.7,44.3z"/>
	<path fill="#AF882E" d="M31.9,42.9c-0.4,0.2-0.8,0.3-1.2,0.5C31,43.3,31.4,43.1,31.9,42.9z"/>
	<path fill="#AF882E" d="M34.2,4.5c0,0-0.1-0.1-0.2-0.1C34,4.4,34.1,4.5,34.2,4.5z"/>
	<path fill="#AF882E" d="M44.8,24.3c0-0.5,0-1,0-1.5c0,0,0,0.1,0,0.1c-0.1-2.6-0.2-5.4-0.9-7.9c-0.2-0.6-0.4-1.1-0.8-1.6
		c0.3,0-0.6-1.2-0.7-1.4c-0.8-1.2-1.6-2.5-2.5-3.6c0,0.1-0.4-0.2-0.5-0.2c-0.4-0.3-0.6-0.8-0.8-1.2c-0.3-0.5-0.8-0.6-1.2-0.9
		c-0.4-0.3-0.6-0.8-0.9-1c0.4,0.4-0.2-0.2-0.3-0.2c-0.1-0.1-0.8-0.9-0.4-0.6C35.6,4,35.3,4,35.1,3.8c-0.2-0.2-0.3-0.4-0.5-0.6
		c-0.6-0.3-1.3-0.5-1.9-0.9c0.1,0.2,0.1,0.2-0.2,0.1c-0.2-0.1-0.5-0.2-0.7-0.4c-0.2-0.1-0.5-0.2-0.8-0.4c0,0-0.8-0.5-0.3-0.3
		c-3-0.7-6-1.6-9.1-1.5c-2.8,0.1-5.7,0.5-8.2,2c0.1-0.1,0.4,0,0.5-0.2c-0.2,0.3-0.5,0.5-0.9,0.5c0.1,0,0.2-0.2,0.2-0.2
		c-0.8-0.7-2.4,1-3,1.4C9.5,4.2,8.7,4.7,8,5.3C7.8,5.4,6.4,6.4,6.5,6.6c0.1,0,0.1,0,0.2-0.1c0,0-1.1,1.1-1.2,1.2
		c0-0.1,0.1-0.3,0.2-0.4C5.3,7.6,5.2,8,5,8.4c-0.3,0.5-0.8,1-1.2,1.5C3.9,9.8,4,9.7,4.1,9.6c-0.5,0.9-1.3,1.7-1.7,2.6
		c-0.5,1.1-0.8,2.2-1.2,3.3c-0.8,2.4-1.4,5-1.2,7.5c0.1-0.4,0.1,0.4,0.1,0.5c-0.1,0.4-0.1,0.7,0,1c0.2,1,0.4,2.1,0.6,3.1
		c0.4,2.1,1.4,4.1,2.3,6c-0.1-0.3,0.1,0,0.2,0.1c-0.1-0.2,0.1,0,0.1,0c0.2,0.4,0.3,0.7,0.5,1c0.3,0.4,0.5,1,1,1.2
		c-0.1-0.1-0.2-0.2-0.3-0.3c0.1,0.2,0.1-0.3,0.1-0.3c0-0.3-0.2-0.6-0.4-0.9c-0.2-0.3-0.3-0.7-0.4-1.1C3.7,33,3.3,32.7,3,32.3
		c-0.5-0.7-0.7-1.7-0.9-2.5c-0.1-0.4-0.3-0.8-0.3-1.2c0-0.1-0.1-0.6-0.2-0.4c0-0.2-0.2-0.4-0.2-0.7c-0.1,0.2-0.1,0.7,0.1,0.8
		c-0.6-0.3-0.6-1.4-0.6-2c0-0.5,0-1,0.1-1.5c0-0.6-0.2-1.3-0.1-1.9c0,0.2,0,0.4,0,0.6C0.6,21.3,1,19.1,1.3,17
		c0.1-0.8,0.7-1.5,0.9-2.3c0.1-0.4,0.2-0.9,0.4-1.3c0-0.1,0.4-0.5,0.2-0.3c0.2-0.4,1.7-1.9,1.3-2.4c0.8-1,1.6-1.9,2.4-2.9
		C6.4,8,6.2,8.1,6.1,8.2C6.2,8.1,6.2,8,6.2,7.9C6,8.1,5.8,8.4,5.6,8.6C6,8.1,6.4,7.5,6.8,7C6.8,7.2,6.7,7.4,6.6,7.5
		C6.7,7.4,6.9,7.2,7,7.1C6.8,7.4,6.7,7.6,6.5,7.9C6.7,7.6,7,7.4,7.1,7.1c0.4-0.3,0.7-0.6,1.1-1C8.1,6.2,8,6.3,8,6.4
		C8.3,6,8.9,5.7,9.3,5.4C9.1,5.5,8.8,5.6,8.6,5.7c0.6-0.6,1.4-0.8,2.1-1.3c-0.1,0-0.5,0.2-0.5,0.3c-0.1-0.3,1-0.5,1.2-0.7
		c0.3-0.1,0.6-0.5,0.8-0.7c0.4-0.3,0.8-0.5,1.2-0.6c-0.1,0.1-0.2,0.2-0.4,0.3c0.1,0,0.6-0.4,0.4-0.1c0.6-0.4,1.3-0.6,1.9-0.9
		C15.2,2,15,2.1,15,2.2c0.4-0.1,0.8-0.3,1.2-0.4c-0.1,0-0.2,0-0.2,0c0.1-0.4,1.3-0.4,1.6-0.5c-0.1,0.2-0.3,0.3-0.5,0.3
		c1.6-0.5,3.5-0.8,5.3-0.8c0.6,0,1.2,0.1,1.7,0.1c0.8,0,1.7,0,2.5,0.2c-0.2,0-0.4,0-0.7-0.1c1.5,0.4,3,0.5,4.4,1.1
		c0.6,0.2,1.1,0.4,1.7,0.7c0.2,0.1,0.6,0.4,0.8,0.4C32.5,3.3,32.3,3.1,32,3c0.4,0.5,1,0.5,1.5,0.9c-0.2-0.1-0.3-0.2-0.5-0.3
		c0.2,0.3,0.5,0.4,0.7,0.6c-0.1-0.1-0.2-0.2-0.2-0.3c0,0,2.6,1.7,2.8,2.1c0-0.2,0.8,0.5,0.9,0.5C37.7,7,38.3,7.4,38.7,8
		c0.6,0.7,1.1,1.5,1.7,2.3c0.2,0.3,0.5,0.6,0.7,1c0.2,0.4,0.7,0.6,0.9,1c-0.1-0.1-0.2-0.2-0.4-0.2c0.6,0.6,0.6,1.5,1,2.2
		c0.4,0.7,0.9,1.4,1.1,2.2c-0.1-0.2-0.1,0-0.3,0c0-0.6-0.5-1.1-0.6-1.6c0.3,1.1,0.7,2.2,1.1,3.3c0,0-0.3-0.6-0.3-0.7
		c0,0.4,0.2,0.7,0.3,1.1c0.1,0.4,0.1,0.9,0.2,1.3c0.1,0.7-0.2,2.2,0.3,2.8c-0.2-0.5-0.2,0.5-0.2,0.6c0.1,0.4,0.3,0.7,0.4,1.1
		c-0.2-0.3-0.5,0-0.5-0.4c0,0.1,0,1,0,0.9c-0.1,0.3-0.2,0.7-0.2,1c0,0.2,0.2,0.3,0.2,0.6c0-0.1-0.2,0-0.2-0.1c0,0.3,0,0.7,0,1
		c0-0.2-0.2,0.1-0.2,0.1c-0.2,0.3-0.2,0.7-0.3,1.1c0-0.1,0.1-0.3,0.1-0.4c-0.2,0.7-0.1,1.4-0.4,2.1c0-0.1-0.1-0.2-0.2-0.1
		c-0.2,0.3-0.1,0.7-0.1,1.1c-0.1,0.8-0.4,1.5-0.7,2.2c0.2-0.8,0.3-1.7,0.5-2.5c0,0.1-0.4,0.6-0.3,0.4c-0.2,0.6,0-0.2-0.1,0.3
		c0,0.3-0.5,1.3-0.7,1.7c0.2-0.5,0.4-0.9,0.6-1.4c0.1,0-0.6,1.9-0.6,1.9c0,0,0-0.3-0.1-0.3c-0.1,0.3-0.2,0.7-0.5,0.9
		c0.1-0.1,0.1-0.3,0.2-0.4c-0.3,0.4-0.3,0.9-0.7,1.2c-0.2,0.1-0.8,0.4-0.7,0.7c0.2-0.1,0.5-0.2,0.6,0.1c0.1,0.3-0.2,0.5-0.4,0.8
		c-0.2,0.2-0.4,0.5-0.7,0.5c-0.2,0,0.2-0.4,0-0.5c-0.3,0.1-0.5,0.4-0.6,0.7c-0.2,0.3-0.8,0.6-0.8,1c0.1,0.7-1,1.2-1.5,1.5
		c-0.8,0.5-1.6,1-2.4,1.5c0.1-0.1,0.1-0.1,0.1-0.2c-0.1,0.2-0.7,0.5-0.9,0.7c0.5,0.1,0.9-0.5,1.2-0.8c0.3,0.5-2.3,2-2.6,2.1
		c1-0.5,2-1,3-1.6c-0.1,0.1-0.3,0.1-0.4,0.2c3.3-2,5.8-4.9,7.8-8.2c-0.1,0.1-0.1,0.3-0.2,0.4c0.5-0.6,0.9-1.4,1.2-2.2
		c0.2-0.7,0.2-1.7,0.7-2.3c0.5-0.6,0.6-1.5,0.7-2.3c0.1-0.4-0.1-0.9,0-1.3C44.5,25.2,44.8,24.8,44.8,24.3
		C44.9,23.8,44.8,24.7,44.8,24.3z M3.6,11.6c0-0.1,0.3-0.5,0.5-0.7C3.9,11,3.6,11.3,3.6,11.6C3.6,11.5,3.6,11.5,3.6,11.6z M15.3,1.9
		c0.1-0.1,0.3-0.1,0.4-0.2C15.7,1.8,15.5,1.9,15.3,1.9z"/>
	<path fill="#AF882E" d="M26.4,1.2c-0.2,0-0.3-0.1-0.5-0.1C26,1.2,26.2,1.2,26.4,1.2z"/>
	<path fill="#AF882E" d="M44.6,18.7C44.6,19,44.5,18,44.6,18.7L44.6,18.7z"/>
	<path fill="#AF882E" d="M6,7.2c0.1-0.1,0.2-0.3,0.2-0.3C6.2,6.9,6.1,7,6,7.2z"/>
	<path fill="#AF882E" d="M17.9,0.4c0,0,0.1,0,0.1,0C17.9,0.4,17.9,0.4,17.9,0.4z"/>
	<path fill="#AF882E" d="M41.6,12C41.6,12,41.6,11.9,41.6,12C41.6,11.9,41.6,11.9,41.6,12z"/>
	<path fill="#AF882E" d="M28.4,44.2c-0.2,0.1,1.1-0.4,0.2-0.1C28.4,44.1,28.5,44.2,28.4,44.2z"/>
	<path fill="#AF882E" d="M27.4,44c-0.1-0.1-0.6,0.1-0.7,0.2c0.4-0.1,0.1,0,0,0C27,44.2,27.2,44,27.4,44C27.3,43.9,27.2,44,27.4,44z"
		/>
	<path fill="#AF882E" d="M26.7,44.2c-0.2,0-0.3,0.1-0.4,0.1C26.4,44.2,26.6,44.2,26.7,44.2z"/>
	<path fill="#AF882E" d="M26,44.2C25.8,44.2,25.9,44.2,26,44.2L26,44.2z"/>
	<path fill="#AF882E" d="M33.2,41.8c0.1-0.1,0.3-0.1,0.3-0.2C33.4,41.7,33.3,41.7,33.2,41.8z"/>
	<path fill="#AF882E" d="M31.2,42.5c0.1,0,0.2,0,0.3,0C31.5,42.3,31.4,42.3,31.2,42.5z"/>
	<path fill="#AF882E" d="M32.8,41.7c0-0.1,0.7-0.5,0.1-0.1C32.8,41.7,32.3,42,32.8,41.7z"/>
	<path fill="#AF882E" d="M39.7,36.2c0.1,0,0.1,0.1,0.2,0.1C39.8,36,39.8,36,39.7,36.2z"/>
	<path fill="#AF882E" d="M43.2,28.8c-0.3-0.1-0.2,0.7-0.3,0.8c0.1-0.2,0.2-0.4,0.2-0.6C43,29.7,43.2,28.9,43.2,28.8
		C42.9,28.8,43.3,28.9,43.2,28.8z"/>
	<path fill="#AF882E" d="M43,29.6c0-0.1,0-0.2,0-0.2C43,29.4,43,29.5,43,29.6z"/>
	<path fill="#AF882E" d="M4.5,36.1c0-0.2-0.1-0.3-0.2-0.4C4.3,35.8,4.4,35.9,4.5,36.1z"/>
	<path fill="#AF882E" d="M5.1,36.6C5,36.5,5,36.4,4.9,36.3C5,36.5,4.9,36.6,5.1,36.6z"/>
	<path fill="#AF882E" d="M34.4,4.5c0.1,0.1,0.2,0.2,0.3,0.3C34.6,4.7,34.5,4.6,34.4,4.5z"/>
	<path fill="#AF882E" d="M29.3,1.9c0,0.1,0.1,0.1,0.1,0.2C29.4,2,29.3,1.9,29.3,1.9z"/>
	<path fill="#AF882E" d="M24.3,1.1c0.2,0,0.4,0,0.7,0.1C24.5,1.1,24.3,1,24.3,1.1z"/>
	<path fill="#AF882E" d="M31.3,17C31.2,17.1,31.3,17.1,31.3,17C31.3,17,31.3,17,31.3,17z"/>
	<path fill="#AF882E" d="M31,17.5C31,17.4,31,17.4,31,17.5L31,17.5z"/>
	<path fill="#AF882E" d="M30.8,17.8c0,0,0.1-0.2,0.1-0.2C30.9,17.5,30.9,17.5,30.8,17.8z"/>
	<path fill="#AF882E" d="M30.6,17.9C30.6,18,30.6,18,30.6,17.9L30.6,17.9z"/>
	<path fill="#AF882E" d="M30.5,18.1C30.5,18,30.5,18.2,30.5,18.1L30.5,18.1z"/>
	<path fill="#AF882E" d="M30.6,18.1C30.7,17.9,30.6,18,30.6,18.1C30.6,18,30.6,18,30.6,18.1z"/>
	<path fill="#AF882E" d="M30.5,18.4C30.4,18.5,30.5,18.5,30.5,18.4L30.5,18.4z"/>
	<path fill="#AF882E" d="M30.3,18.9c0,0,0,0.1,0,0.1C30.3,18.4,30.3,18.9,30.3,18.9z"/>
	<path fill="#AF882E" d="M30.4,18.7C30.4,18.7,30.4,18.7,30.4,18.7C30.4,18.7,30.4,18.7,30.4,18.7z"/>
	<path fill="#AF882E" d="M30.6,18.4C30.6,18.4,30.5,18.4,30.6,18.4C30.5,18.4,30.5,18.5,30.6,18.4z"/>
	<path fill="#AF882E" d="M30.5,18.5C30.5,18.6,30.5,18.6,30.5,18.5L30.5,18.5z"/>
	<path fill="#AF882E" d="M30.4,19C30.5,19.2,30.4,18.9,30.4,19L30.4,19z"/>
	<path fill="#AF882E" d="M30.4,18.9C30.4,19.1,30.4,18.9,30.4,18.9L30.4,18.9z"/>
	<path fill="#AF882E" d="M30.4,18.8C30.4,18.8,30.4,19,30.4,18.8L30.4,18.8z"/>
	<path fill="#AF882E" d="M30.9,20.5C30.9,20.6,30.9,20.5,30.9,20.5L30.9,20.5z"/>
	<path fill="#AF882E" d="M35.9,17.7C35.9,17.8,36,17.6,35.9,17.7L35.9,17.7z"/>
	<path fill="#AF882E" d="M31.1,20.9C31.1,20.9,31.1,20.9,31.1,20.9C31.1,20.9,31.1,20.8,31.1,20.9z"/>
	<path fill="#AF882E" d="M30.5,19.5c0,0.1,0.6,0.2,0.6,0.3c-0.2,0-0.3,0.1-0.2,0.3c-0.1,0-0.4-0.3-0.4-0.4c0,0.1,0,0.2,0,0.2
		c0,0.1,0.6,0.8,0.6,0.5c0,0.1,0,0.2,0,0.4c-0.1,0-0.2,0-0.2-0.1c0.1,0.1,0.2,0.3,0.3,0.4c0.1,0.1,0.3,0.5,0.6,0.7
		c0.4,0.2,0.8,0.4,1,0.8c0.2-0.5,0.8-0.3,1.2-0.3c0.7-0.1,1.3-0.5,1.7-0.9c1-1.1,1.3-2.5,0.2-3.5c-0.4-0.4-0.8-1.1-1.4-1.3
		c-0.6-0.2-1.4-0.2-2,0c-1.2,0.5-2,1.9-1.8,3.1C30.6,19.4,30.4,19.4,30.5,19.5C30.5,19.5,30.4,19.4,30.5,19.5z M36.2,19.1
		C36.2,19.1,36.2,19.1,36.2,19.1C36.2,19.1,36.2,19.1,36.2,19.1z M36.1,19.4c0-0.1,0-0.1,0-0.2C36.2,19.3,36.2,19.3,36.1,19.4z
		 M36,18.3c0,0.1,0,0.1,0,0.2C35.9,18.4,35.9,18.4,36,18.3z M34.3,21.8C34.6,21.7,34,21.9,34.3,21.8L34.3,21.8z M34,16.5
		C34.2,16.8,33.9,16.2,34,16.5L34,16.5z M34.1,21.8c0,0-0.4,0.1-0.4,0.1C33.7,21.9,34.1,21.8,34.1,21.8z M33.5,21.9
		c0.1,0,0.1,0,0.2-0.1c0,0.1-0.1,0.2-0.2,0.2C33.5,22,33.5,21.9,33.5,21.9C33.6,21.9,33.5,21.9,33.5,21.9z M32.5,16.6
		C32.5,16.5,32.3,16.6,32.5,16.6C32.4,16.6,32.5,16.5,32.5,16.6z M31.2,20.9C31.2,20.9,31.2,20.9,31.2,20.9
		C31.2,20.8,31.2,20.9,31.2,20.9z"/>
	<path fill="#AF882E" d="M30.5,19.5C30.4,19.4,30.5,19.5,30.5,19.5L30.5,19.5z"/>
	<path fill="#AF882E" d="M30.5,19.5C30.5,19.5,30.4,19.4,30.5,19.5L30.5,19.5z"/>
	<path fill="#AF882E" d="M30.5,19.1C30.5,19.1,30.4,19.3,30.5,19.1L30.5,19.1z"/>
	<path fill="#AF882E" d="M30.4,19.1c0,0.1,0,0.1,0,0.2C30.4,18.9,30.4,19.3,30.4,19.1z"/>
	<path fill="#AF882E" d="M30.4,19.1C30.4,19.1,30.4,19.1,30.4,19.1C30.4,19.1,30.4,19,30.4,19.1z"/>
	<path fill="#AF882E" d="M30.6,18.6C30.6,18.6,30.6,18.4,30.6,18.6C30.5,18.6,30.5,18.6,30.6,18.6z"/>
	<path fill="#AF882E" d="M30.5,18.8C30.5,19,30.5,18.9,30.5,18.8L30.5,18.8z"/>
	<path fill="#AF882E" d="M30.5,19.9C30.6,20.2,30.5,19.9,30.5,19.9L30.5,19.9z"/>
	<path fill="#AF882E" d="M30.5,19.3C30.5,19.2,30.5,19.4,30.5,19.3L30.5,19.3z"/>
	<path fill="#AF882E" d="M30.5,19.8C30.6,19.8,30.4,19.6,30.5,19.8L30.5,19.8z"/>
	<path fill="#AF882E" d="M30.6,20.3C30.6,20.2,30.6,20.3,30.6,20.3C30.5,20.2,30.7,20.4,30.6,20.3z"/>
	<path fill="#AF882E" d="M25,17.6C24.9,17.6,25,17.6,25,17.6C25,17.6,25,17.6,25,17.6z"/>
	<path fill="#AF882E" d="M24.7,18.1C24.7,18,24.7,18,24.7,18.1L24.7,18.1z"/>
	<path fill="#AF882E" d="M24.5,18.4c0,0,0.1-0.2,0.1-0.2C24.6,18,24.6,18.1,24.5,18.4z"/>
	<path fill="#AF882E" d="M24.3,18.5C24.3,18.5,24.3,18.6,24.3,18.5L24.3,18.5z"/>
	<path fill="#AF882E" d="M24.2,18.7C24.2,18.6,24.2,18.8,24.2,18.7L24.2,18.7z"/>
	<path fill="#AF882E" d="M24.3,18.6C24.4,18.5,24.3,18.5,24.3,18.6C24.3,18.6,24.3,18.6,24.3,18.6z"/>
	<path fill="#AF882E" d="M24.2,19C24.1,19.1,24.2,19,24.2,19L24.2,19z"/>
	<path fill="#AF882E" d="M24.1,19.3C24.2,19.4,24,19.2,24.1,19.3L24.1,19.3z"/>
	<path fill="#AF882E" d="M24.1,19.6c-0.1-0.7,0-0.1,0-0.1C24,19.5,24,19.6,24.1,19.6z"/>
	<path fill="#AF882E" d="M24.1,19.2C24.1,19.3,24.1,19.4,24.1,19.2L24.1,19.2z"/>
	<path fill="#AF882E" d="M24.2,18.9C24.2,19,24.2,19.1,24.2,18.9C24.3,19,24.2,19,24.2,18.9z"/>
	<path fill="#AF882E" d="M24.2,19.1C24.2,19.2,24.2,19.2,24.2,19.1L24.2,19.1z"/>
	<path fill="#AF882E" d="M24.1,19.5C24.2,19.8,24.1,19.5,24.1,19.5L24.1,19.5z"/>
	<path fill="#AF882E" d="M24.1,19.5C24.1,19.6,24.1,19.5,24.1,19.5L24.1,19.5z"/>
	<path fill="#AF882E" d="M24.1,19.4C24.1,19.4,24.1,19.5,24.1,19.4L24.1,19.4z"/>
	<path fill="#AF882E" d="M24.1,20c0,0,0-0.2,0-0.1C24.1,19.8,24,20,24.1,20z"/>
	<path fill="#AF882E" d="M24.2,19.8C24.2,19.8,24.2,19.8,24.2,19.8C24.2,19.6,24.2,19.8,24.2,19.8z"/>
	<path fill="#AF882E" d="M24.1,19.7C24.1,19.8,24.1,19.7,24.1,19.7L24.1,19.7z"/>
	<path fill="#AF882E" d="M24.1,19.6C24.1,19.7,24.1,20,24.1,19.6C24.1,19.7,24.1,19.7,24.1,19.6z"/>
	<path fill="#AF882E" d="M24.3,19.1C24.3,19.1,24.3,19,24.3,19.1C24.2,19.2,24.2,19.2,24.3,19.1z"/>
	<path fill="#AF882E" d="M24.2,19.4C24.2,19.6,24.2,19.5,24.2,19.4L24.2,19.4z"/>
	<path fill="#AF882E" d="M27.9,17C27.9,17,27.9,17,27.9,17C27.9,17,28,17,27.9,17z"/>
	<path fill="#AF882E" d="M26.2,17c0,0-1.5,0.6-0.9,0.6c-0.5,0.5-0.9,1.2-0.9,1.9c0,0.3,0,1.1-0.2,1.2c0.4-0.1,0.6,0.5,0.8,0.7
		c0.3,0.5,0.6,0.9,1.1,1.1c1.3,0.4,2.7-0.1,3.6-1.1c1.8-2.1-0.5-4.9-3-4.9C26.7,16.5,26.2,16.9,26.2,17z M24.4,20.7
		c0,0-0.1-0.1-0.1-0.1C24.4,20.8,24.4,20.7,24.4,20.7z M26.1,17.1C26.1,17.1,26.3,17.2,26.1,17.1L26.1,17.1z M29.8,20
		C29.8,19.9,29.9,19.8,29.8,20L29.8,20z M29.8,19.6C29.8,19.6,29.8,19.6,29.8,19.6C29.8,19.6,29.8,19.6,29.8,19.6z M29.8,19.9
		C29.8,19.9,29.8,19.9,29.8,19.9C29.8,19.8,29.8,19.8,29.8,19.9z M28.8,17.5C28.7,17.5,28.7,17.4,28.8,17.5
		C28.7,17.4,28.7,17.5,28.8,17.5z M27.9,22.4c-0.1,0-0.2,0-0.3,0.1c0.1,0,0.3-0.1,0.4-0.1C28,22.4,27.9,22.4,27.9,22.4
		C27.8,22.4,27.9,22.4,27.9,22.4z M28,17.1c0.1,0,0.2,0.1,0.3,0.1C28.2,17.2,28.1,17.2,28,17.1z M27.7,17c0.1,0,0.1,0,0.2,0
		C28.2,17.1,28.1,17.1,27.7,17z M27.7,17C27.7,17,27.7,17,27.7,17C27.7,17,27.7,17,27.7,17z M27.7,17c-0.2-0.1-0.3,0-0.4-0.2
		C27.4,16.8,27.7,17,27.7,17z M27.4,22.5c-0.2,0.2-0.2,0.1-0.2,0.1C27.3,22.5,27.3,22.5,27.4,22.5z"/>
	<path fill="#AF882E" d="M27.9,22.4C27.9,22.4,27.9,22.4,27.9,22.4C27.9,22.4,27.8,22.4,27.9,22.4z"/>
	<path fill="#AF882E" d="M25.1,17.5C25.1,17.5,25.1,17.4,25.1,17.5C25.1,17.5,25.1,17.5,25.1,17.5z"/>
	<path fill="#AF882E" d="M25.1,17.5C25.1,17.5,25.2,17.2,25.1,17.5L25.1,17.5z"/>
	<path fill="#AF882E" d="M24.3,19.8C24.2,19.7,24.2,19.9,24.3,19.8L24.3,19.8z"/>
	<path fill="#AF882E" d="M24.3,20.8C24.3,20.8,24.3,20.8,24.3,20.8C24.3,20.8,24.4,20.9,24.3,20.8z"/>
	<path fill="#AF882E" d="M18.7,18.2C18.6,18.2,18.7,18.2,18.7,18.2C18.7,18.2,18.7,18.2,18.7,18.2z"/>
	<path fill="#AF882E" d="M18.4,18.6C18.4,18.5,18.4,18.6,18.4,18.6L18.4,18.6z"/>
	<path fill="#AF882E" d="M18.2,18.9c0,0,0.1-0.2,0.1-0.2C18.3,18.6,18.3,18.7,18.2,18.9z"/>
	<path fill="#AF882E" d="M18,19.1C18,19.1,18,19.2,18,19.1L18,19.1z"/>
	<path fill="#AF882E" d="M17.9,19.2C17.9,19.1,17.9,19.4,17.9,19.2L17.9,19.2z"/>
	<path fill="#AF882E" d="M18,19.2C18.1,19.1,18,19.1,18,19.2C18,19.2,18.1,19.1,18,19.2z"/>
	<path fill="#AF882E" d="M17.9,19.6C17.8,19.7,17.9,19.6,17.9,19.6L17.9,19.6z"/>
	<path fill="#AF882E" d="M17.8,19.9C17.9,20,17.7,19.8,17.8,19.9L17.8,19.9z"/>
	<path fill="#AF882E" d="M17.8,20.1C17.8,20.1,17.8,20.1,17.8,20.1C17.8,20.3,17.8,20.2,17.8,20.1z"/>
	<path fill="#AF882E" d="M17.8,20C17.7,19.9,17.8,20.1,17.8,20L17.8,20z"/>
	<path fill="#AF882E" d="M17.9,19.8C17.8,19.8,17.8,19.9,17.9,19.8L17.9,19.8z"/>
	<path fill="#AF882E" d="M17.9,19.5C17.9,19.5,17.9,19.6,17.9,19.5C18,19.5,18,19.6,17.9,19.5z"/>
	<path fill="#AF882E" d="M17.9,19.7C17.9,19.7,17.9,19.8,17.9,19.7L17.9,19.7z"/>
	<path fill="#AF882E" d="M17.8,20.1C17.9,20.4,17.8,20,17.8,20.1L17.8,20.1z"/>
	<path fill="#AF882E" d="M17.8,20C17.8,20.2,17.8,20,17.8,20L17.8,20z"/>
	<path fill="#AF882E" d="M17.8,20C17.8,20,17.8,20.1,17.8,20L17.8,20z"/>
	<path fill="#AF882E" d="M17.8,20.6c0,0,0-0.2,0-0.1C17.8,20.3,17.8,20.5,17.8,20.6z"/>
	<path fill="#AF882E" d="M17.8,20.3C17.8,20.2,17.8,20.2,17.8,20.3C17.8,20.3,17.8,20.3,17.8,20.3z"/>
	<path fill="#AF882E" d="M17.9,20.3C17.9,20.3,17.9,20.4,17.9,20.3C17.9,20.2,17.9,20.3,17.9,20.3z"/>
	<path fill="#AF882E" d="M18,19.7C18,19.7,18,19.6,18,19.7C17.9,19.8,17.9,19.7,18,19.7z"/>
	<path fill="#AF882E" d="M17.9,20C17.9,20.2,17.9,20,17.9,20L17.9,20z"/>
	<path fill="#AF882E" d="M18,21.4C18,21.2,18,21.3,18,21.4L18,21.4z"/>
	<path fill="#AF882E" d="M18,21.3C18.1,21.3,18.1,21.3,18,21.3C18,21.3,18,21.2,18,21.3z"/>
	<path fill="#AF882E" d="M23.1,19.8C23.2,19.8,23.2,19.8,23.1,19.8L23.1,19.8z"/>
	<path fill="#AF882E" d="M21.6,17.6C21.6,17.6,21.7,17.6,21.6,17.6C21.6,17.6,21.6,17.6,21.6,17.6z"/>
	<path fill="#AF882E" d="M21.3,17.4c-2-0.3-3.6,1.2-3.3,3.2c-0.1-0.1,0-0.3-0.2-0.1c0.1,0.1,0.1,0.1,0.1,0c0.1,0.3,0,0.4,0.1,0.7
		c0-0.3,0-0.3,0-0.2c0,0.1,0.2,0.3,0,0.2c0.2,0.4,0.4,0.9,0.7,1.2c0.4,0.4,1,0.5,1.4,1c-0.1-0.4,0.7-0.2,0.9-0.2c-0.1,0,0,0.1,0,0.2
		c0-0.1,0-0.2,0.2-0.2c0,0.3,1.1-0.3,1.2-0.4c0.8-0.5,1.3-1.3,1.5-2.1c0.1-0.8-0.1-1.8-0.6-2.4C22.7,17.7,21.7,17.5,21.3,17.4
		C20.7,17.3,21.1,17.4,21.3,17.4z M19.9,17.7C19.9,17.7,19.7,17.7,19.9,17.7L19.9,17.7z M23.5,20.5c0-0.1,0-0.2,0-0.2
		C23.6,20.3,23.5,20.4,23.5,20.5z M23.4,19.4C23.4,19.4,23.3,19.2,23.4,19.4L23.4,19.4z M23.3,19.3c0.1,0.1,0.4,0.8,0.2,0.8
		c0.1,0-0.4-0.4-0.4-0.4c0.1,0,0.3,0,0.4,0C23.4,19.6,23.4,19.5,23.3,19.3C23.4,19.5,23.4,19.5,23.3,19.3z M23.1,20.7
		c0,0,0.4-0.1,0.4-0.1c0,0.2-0.1,0.5-0.3,0.4C23.1,20.9,23.1,20.6,23.1,20.7C23.1,20.8,23.1,20.8,23.1,20.7z M20.9,23.1
		c0.1,0,0.1,0,0.1,0.1C21,23.1,20.7,23.2,20.9,23.1z M22.1,17.8c0,0-0.1,0-0.2-0.1C22,17.8,22.1,17.8,22.1,17.8z M21.6,17.6
		c0.3,0.1,0.2,0.1-0.2,0C21.5,17.6,21.6,17.6,21.6,17.6z M21,17.5c0.1,0,0.3,0,0.4,0C21.3,17.6,21.2,17.5,21,17.5z"/>
	<path fill="#AF882E" d="M17.9,21c0,0,0-0.1,0-0.2C17.8,20.9,17.8,20.9,17.9,21z"/>
	<path fill="#AF882E" d="M18,20.4C17.9,20.3,18,20.5,18,20.4L18,20.4z"/>
	<path fill="#AF882E" d="M18,21.4C18,21.4,18,21.4,18,21.4C18,21.4,18.1,21.5,18,21.4z"/>
	<path fill="#AF882E" d="M12.4,18.8C12.4,18.7,12.4,18.7,12.4,18.8C12.3,18.8,12.4,18.8,12.4,18.8z"/>
	<path fill="#AF882E" d="M12.1,19.1C12,19.3,12.1,19.1,12.1,19.1L12.1,19.1z"/>
	<path fill="#AF882E" d="M11.9,19.5c0,0,0.1-0.2,0.1-0.2C12,19.2,12,19.2,11.9,19.5z"/>
	<path fill="#AF882E" d="M11.8,19.6C11.7,19.7,11.7,19.7,11.8,19.6L11.8,19.6z"/>
	<path fill="#AF882E" d="M11.6,19.8C11.6,19.7,11.6,19.9,11.6,19.8L11.6,19.8z"/>
	<path fill="#AF882E" d="M11.7,19.8C11.8,19.7,11.8,19.7,11.7,19.8C11.7,19.7,11.8,19.7,11.7,19.8z"/>
	<path fill="#AF882E" d="M11.6,20.1C11.5,20.3,11.6,20.2,11.6,20.1L11.6,20.1z"/>
	<path fill="#AF882E" d="M11.5,20.7C11.5,20.7,11.5,20.7,11.5,20.7C11.5,20.9,11.5,20.8,11.5,20.7z"/>
	<path fill="#AF882E" d="M11.5,20.6C11.4,20.5,11.5,20.7,11.5,20.6L11.5,20.6z"/>
	<path fill="#AF882E" d="M11.7,20.1C11.7,20.1,11.7,20.1,11.7,20.1C11.7,20.1,11.7,20.2,11.7,20.1z"/>
	<path fill="#AF882E" d="M11.6,20.2C11.6,20.3,11.6,20.4,11.6,20.2L11.6,20.2z"/>
	<path fill="#AF882E" d="M11.5,20.7C11.6,20.9,11.5,20.6,11.5,20.7L11.5,20.7z"/>
	<path fill="#AF882E" d="M11.5,20.6C11.5,20.8,11.5,20.6,11.5,20.6L11.5,20.6z"/>
	<path fill="#AF882E" d="M11.5,20.5C11.5,20.5,11.5,20.7,11.5,20.5L11.5,20.5z"/>
	<path fill="#AF882E" d="M11.5,21.1c0,0,0-0.2,0-0.1C11.5,20.9,11.5,21.1,11.5,21.1z"/>
	<path fill="#AF882E" d="M11.5,20.8C11.5,20.9,11.5,21.2,11.5,20.8C11.5,20.8,11.5,20.8,11.5,20.8z"/>
	<path fill="#AF882E" d="M11.6,20.9C11.6,20.9,11.6,20.9,11.6,20.9C11.6,20.7,11.6,20.9,11.6,20.9z"/>
	<path fill="#AF882E" d="M11.7,20.2C11.7,20.2,11.7,20.1,11.7,20.2L11.7,20.2z"/>
	<path fill="#AF882E" d="M11.6,20.6C11.7,20.6,11.5,20.6,11.6,20.6L11.6,20.6z"/>
	<path fill="#AF882E" d="M16.5,23.1C16.4,23.2,16.7,23,16.5,23.1L16.5,23.1z"/>
	<path fill="#AF882E" d="M16.2,23.3c0,0.1,0.3-0.2,0.4-0.3c-0.1,0-0.2,0-0.3,0.1c1-0.8,1.8-2.7,0.7-3.8c0.1,0.2-0.3-0.1-0.3-0.1
		c-0.2-0.2-0.5-0.4-0.7-0.6c0.1,0.1,0-0.3,0-0.3c-0.1-0.1-0.6-0.1-0.5-0.4c-0.1,0.2-1.7,0.1-1.9,0.2c-1,0.1-1.7,1.2-1.9,2.1
		c0,0-0.1,0,0-0.1c0,0-0.1,0.1-0.1,0.1c0.1,0,0.1,0,0.1-0.1c-0.1,0.3-0.1,0.6-0.1,1c-0.1-0.1,0-0.3-0.2-0.1c0.1,0.1,0.1,0.1,0.1,0
		c0,0.1,0,0.4,0.1,0.4c-0.2,0-0.4-0.1-0.5,0c0,0,0.2-0.2,0.2-0.1c0-0.1-0.3,0.1-0.3,0.2c0.4-0.1,0.8,0.5,0.2,0.3
		c0.6,0.1,0.9,0.9,1.3,1.4c0.2,0.2,0.4,0.4,0.6,0.5c0.2,0,0.3,0,0.5,0c0.3-0.1,0.3,0.2,0.2,0.1C14.6,23.9,15.6,23.8,16.2,23.3
		C16.2,23.3,15.6,23.8,16.2,23.3z M17.2,21.5c0-0.1,0-0.3,0-0.5C17.2,21.2,17.2,21.3,17.2,21.5C17.2,21.5,17.2,21.3,17.2,21.5z
		 M17.2,21.1c0,0-0.1-0.1,0-0.2C17.3,20.9,17.3,21,17.2,21.1z M17.2,20.3c0,0.1,0,0.2,0.1,0.4c0-0.1-0.1-0.2-0.2-0.3
		C17.1,20.3,17.1,20.3,17.2,20.3C17.2,20.4,17.1,20.3,17.2,20.3z M17,19.8c0,0.1,0,0-0.1-0.1C17,19.7,17,19.8,17,19.8z M16.2,18.6
		C16.1,18.6,16,18.5,16.2,18.6L16.2,18.6z M15.8,18.4C15.7,18.3,15.6,18.3,15.8,18.4C15.6,18.3,15.7,18.3,15.8,18.4z M14.7,18.2
		C14.8,18.3,14.7,18.2,14.7,18.2L14.7,18.2z M12.9,18.6c0.1,0,0.2-0.1,0.2-0.1C13.1,18.6,12.9,18.6,12.9,18.6z M13.5,18.3
		c0,0,0.1,0,0.1,0C13.5,18.2,13.5,18.3,13.5,18.3z M14,18.1c0.1-0.1,0,0.2,0.1,0c0,0.1,0,0.2-0.1,0.3C14,18.4,13.9,18.2,14,18.1z"/>
	<path fill="#AF882E" d="M17.2,20.3C17.2,20.3,17.2,20.4,17.2,20.3L17.2,20.3z"/>
	<path fill="#AF882E" d="M14,18.5C14.1,18.4,14.1,18.2,14,18.5L14,18.5z"/>
	<path fill="#AF882E" d="M14.1,18C14.2,18.1,14.2,18,14.1,18L14.1,18z"/>
	<path fill="#AF882E" d="M17.2,21C17.2,21,17.2,21,17.2,21C17.2,21,17.2,21,17.2,21z"/>
	<path fill="#AF882E" d="M11.7,21C11.6,20.9,11.7,21.1,11.7,21L11.7,21z"/>
	<path fill="#AF882E" d="M28.6,23C28.6,23.1,28.6,23.1,28.6,23C28.6,23,28.6,23,28.6,23z"/>
	<path fill="#AF882E" d="M28.4,23.5C28.4,23.4,28.4,23.5,28.4,23.5L28.4,23.5z"/>
	<path fill="#AF882E" d="M28.2,23.8c0,0,0.1-0.2,0.1-0.2C28.3,23.5,28.2,23.5,28.2,23.8z"/>
	<path fill="#AF882E" d="M28,23.9C28,24,28,24,28,23.9L28,23.9z"/>
	<path fill="#AF882E" d="M27.9,24.1C27.9,24,27.9,24.2,27.9,24.1L27.9,24.1z"/>
	<path fill="#AF882E" d="M28,24.1C28,24,28,24,28,24.1C28,24,28,24,28,24.1z"/>
	<path fill="#AF882E" d="M27.8,24.4C27.8,24.6,27.8,24.5,27.8,24.4L27.8,24.4z"/>
	<path fill="#AF882E" d="M27.8,24.7C27.7,24.6,27.8,24.8,27.8,24.7L27.8,24.7z"/>
	<path fill="#AF882E" d="M27.7,24.9c0,0,0,0.1,0,0.1C27.6,24.4,27.7,24.9,27.7,24.9z"/>
	<path fill="#AF882E" d="M27.9,24.4C27.9,24.4,27.9,24.5,27.9,24.4C27.9,24.4,27.9,24.4,27.9,24.4z"/>
	<path fill="#AF882E" d="M27.8,24.5C27.9,24.6,27.9,24.7,27.8,24.5L27.8,24.5z"/>
	<path fill="#AF882E" d="M27.8,25C27.8,25.2,27.8,24.9,27.8,25L27.8,25z"/>
	<path fill="#AF882E" d="M27.8,24.9C27.8,25.1,27.8,24.9,27.8,24.9L27.8,24.9z"/>
	<path fill="#AF882E" d="M27.8,24.8C27.8,24.8,27.8,25,27.8,24.8L27.8,24.8z"/>
	<path fill="#AF882E" d="M27.8,25.4c0,0,0-0.2,0-0.1C27.8,25.2,27.7,25.4,27.8,25.4z"/>
	<path fill="#AF882E" d="M27.8,25.1C27.8,25.1,27.8,25.1,27.8,25.1C27.8,25.1,27.8,25,27.8,25.1z"/>
	<path fill="#AF882E" d="M27.8,25.2C27.8,25.2,27.8,25.2,27.8,25.2C27.8,25,27.8,25.2,27.8,25.2z"/>
	<path fill="#AF882E" d="M27.9,24.6C27.9,24.6,28,24.4,27.9,24.6C27.9,24.6,27.9,24.6,27.9,24.6z"/>
	<path fill="#AF882E" d="M27.9,24.9C27.9,25,27.9,24.9,27.9,24.9L27.9,24.9z"/>
	<path fill="#AF882E" d="M27.9,26.2C27.9,26.1,28,26.3,27.9,26.2L27.9,26.2z"/>
	<path fill="#AF882E" d="M27.9,26.1C27.8,26,27.9,26.1,27.9,26.1L27.9,26.1z"/>
	<path fill="#AF882E" d="M27.9,26.1c0-0.1-0.1-0.2-0.1-0.4C27.8,25.8,27.8,25.9,27.9,26.1z"/>
	<path fill="#AF882E" d="M27.8,25.4C27.8,25.4,27.8,25.4,27.8,25.4C27.8,25.5,27.8,25.5,27.8,25.4z"/>
	<path fill="#AF882E" d="M28,26c0.2,0.7,0.6,1.2,1.1,1.7c0.1,0.1,1.1,0.8,0.9,0.4c0.1,0.1,0.1,0.2,0.1,0.3c0-0.4,0.5-0.3,0.8-0.3
		c-0.1,0.1-0.1,0.2-0.1,0.3c0-0.2,0-0.3,0.2-0.4c0,0.6,0.5,0.2,0.7,0c0.5-0.5,1.4-0.9,1.7-1.6c0.1-0.3,0.7-0.6,0.6-0.8
		c-0.2-0.3-0.8-1,0-1c-0.3,0.1-0.4-0.3-0.5-0.5c0-0.1-0.1-0.2-0.2-0.3c-0.2-0.2,0.1-0.2,0-0.4c-0.2-0.9-1.9-1.1-2.6-1.1
		c-0.9,0-1.9,0.2-2.4,1.1C28,24.2,27.8,25.2,28,26C28.2,26.7,27.8,25,28,26z M33.5,25.3C33.5,25.3,33.5,25.3,33.5,25.3
		C33.5,25.3,33.5,25.3,33.5,25.3z M33.5,25C33.5,25,33.5,25.1,33.5,25C33.5,25.1,33.5,25,33.5,25z M31.9,27.8
		C31.9,27.7,31.9,27.8,31.9,27.8L31.9,27.8z M32,27.6c-0.2,0.1-0.2,0.1-0.2,0.1C31.9,27.7,32,27.6,32,27.6z M31.9,27.7
		C31.9,27.7,31.8,27.8,31.9,27.7L31.9,27.7z M30.9,27.9C30.9,27.9,30.9,28,30.9,27.9C30.8,28.1,30.8,28.1,30.9,27.9z M29.8,22.6
		C29.7,22.5,29.8,22.6,29.8,22.6L29.8,22.6z M29.8,22.6C29.9,22.5,29.7,22.6,29.8,22.6C29.7,22.6,29.9,22.5,29.8,22.6z"/>
	<path fill="#AF882E" d="M28.1,26.5C28.1,26.5,28.1,26.4,28.1,26.5L28.1,26.5z"/>
	<path fill="#AF882E" d="M28,26.2c-0.1,0.1-0.1,0.1,0,0.3C28.1,26.4,28.1,26.3,28,26.2z"/>
	<path fill="#AF882E" d="M27.9,25.8C28,25.8,27.8,25.6,27.9,25.8L27.9,25.8z"/>
	<path fill="#AF882E" d="M28.8,22.9C28.7,23,28.7,22.9,28.8,22.9L28.8,22.9z"/>
	<path fill="#AF882E" d="M22.3,23.6C22.4,23.6,22.3,23.6,22.3,23.6C22.3,23.6,22.3,23.6,22.3,23.6z"/>
	<path fill="#AF882E" d="M22.1,24C22.1,24,22,24.2,22.1,24L22.1,24z"/>
	<path fill="#AF882E" d="M21.9,24.4c0,0,0.1-0.2,0.1-0.2C22,24,21.9,24.1,21.9,24.4z"/>
	<path fill="#AF882E" d="M21.7,24.5C21.7,24.5,21.7,24.6,21.7,24.5L21.7,24.5z"/>
	<path fill="#AF882E" d="M21.6,24.7C21.6,24.6,21.6,24.8,21.6,24.7L21.6,24.7z"/>
	<path fill="#AF882E" d="M21.7,24.6C21.7,24.5,21.7,24.5,21.7,24.6C21.7,24.6,21.7,24.6,21.7,24.6z"/>
	<path fill="#AF882E" d="M21.5,25C21.5,25.1,21.5,25,21.5,25L21.5,25z"/>
	<path fill="#AF882E" d="M21.4,25.5C21.4,25.6,21.4,25.6,21.4,25.5C21.5,25.8,21.4,25.6,21.4,25.5z"/>
	<path fill="#AF882E" d="M21.4,25.5C21.4,25.3,21.4,25.6,21.4,25.5L21.4,25.5z"/>
	<path fill="#AF882E" d="M21.5,25.2C21.5,25.4,21.5,25.3,21.5,25.2L21.5,25.2z"/>
	<path fill="#AF882E" d="M21.6,25.1C21.6,25.2,21.6,25.2,21.6,25.1L21.6,25.1z"/>
	<path fill="#AF882E" d="M21.5,25.6C21.6,25.8,21.5,25.5,21.5,25.6L21.5,25.6z"/>
	<path fill="#AF882E" d="M21.5,25.5C21.5,25.6,21.5,25.5,21.5,25.5L21.5,25.5z"/>
	<path fill="#AF882E" d="M21.5,25.4C21.5,25.4,21.5,25.5,21.5,25.4L21.5,25.4z"/>
	<path fill="#AF882E" d="M21.5,26c0,0,0-0.2,0-0.1C21.5,25.8,21.4,26,21.5,26z"/>
	<path fill="#AF882E" d="M21.5,25.7C21.5,25.6,21.5,25.6,21.5,25.7C21.5,25.7,21.5,25.7,21.5,25.7z"/>
	<path fill="#AF882E" d="M21.5,25.8C21.5,25.8,21.5,25.8,21.5,25.8C21.5,25.6,21.5,25.7,21.5,25.8z"/>
	<path fill="#AF882E" d="M21.6,25.5C21.6,25.5,21.5,25.4,21.6,25.5L21.6,25.5z"/>
	<path fill="#AF882E" d="M23.9,28.7c0,0-0.1,0-0.1,0C23.8,28.6,23.9,28.6,23.9,28.7z"/>
	<path fill="#AF882E" d="M21.6,26.4C21.7,26.3,21.5,26.2,21.6,26.4L21.6,26.4z"/>
	<path fill="#AF882E" d="M21.7,26.6C21.7,26.6,21.8,26.7,21.7,26.6L21.7,26.6z"/>
	<path fill="#AF882E" d="M22.5,23.5C22.3,23.5,22.5,23.5,22.5,23.5L22.5,23.5z"/>
	<path fill="#AF882E" d="M16,24.2C16.1,24.2,16,24.2,16,24.2C16,24.2,16,24.2,16,24.2z"/>
	<path fill="#AF882E" d="M15.8,24.6C15.7,24.7,15.8,24.5,15.8,24.6L15.8,24.6z"/>
	<path fill="#AF882E" d="M15.6,24.9c0,0,0.1-0.2,0.1-0.2C15.7,24.6,15.6,24.7,15.6,24.9z"/>
	<path fill="#AF882E" d="M15.4,25.1C15.4,25.1,15.4,25.2,15.4,25.1L15.4,25.1z"/>
	<path fill="#AF882E" d="M15.3,25.2C15.3,25.1,15.3,25.4,15.3,25.2L15.3,25.2z"/>
	<path fill="#AF882E" d="M15.4,25.2C15.5,25.1,15.4,25.1,15.4,25.2C15.4,25.2,15.4,25.1,15.4,25.2z"/>
	<path fill="#AF882E" d="M15.3,25.6C15.2,25.7,15.2,25.6,15.3,25.6L15.3,25.6z"/>
	<path fill="#AF882E" d="M15.1,26.1C15.1,26.1,15.1,26.2,15.1,26.1C15.2,26.3,15.2,26.2,15.1,26.1z"/>
	<path fill="#AF882E" d="M15.1,26C15.1,25.9,15.1,26.1,15.1,26L15.1,26z"/>
	<path fill="#AF882E" d="M15.2,25.8C15.2,25.9,15.2,25.8,15.2,25.8L15.2,25.8z"/>
	<path fill="#AF882E" d="M15.3,25.5C15.3,25.6,15.3,25.6,15.3,25.5C15.3,25.5,15.3,25.6,15.3,25.5z"/>
	<path fill="#AF882E" d="M15.3,25.7C15.3,25.7,15.3,25.8,15.3,25.7L15.3,25.7z"/>
	<path fill="#AF882E" d="M15.2,26.1C15.3,26.4,15.2,26,15.2,26.1L15.2,26.1z"/>
	<path fill="#AF882E" d="M15.2,26C15.2,26.2,15.2,26,15.2,26L15.2,26z"/>
	<path fill="#AF882E" d="M15.2,26C15.2,26,15.2,26.1,15.2,26L15.2,26z"/>
	<path fill="#AF882E" d="M15.2,26.5c0-0.1-0.1,0.1,0,0.1C15.2,26.6,15.2,26.4,15.2,26.5z"/>
	<path fill="#AF882E" d="M15.2,26.2C15.2,26.3,15.2,26.6,15.2,26.2C15.2,26.3,15.2,26.3,15.2,26.2z"/>
	<path fill="#AF882E" d="M15.2,26.3C15.2,26.3,15.2,26.3,15.2,26.3C15.2,26.1,15.2,26.3,15.2,26.3z"/>
	<path fill="#AF882E" d="M15.4,25.6c0.1-0.1-0.1,0.1-0.1,0.1C15.5,25.7,15.4,25.7,15.4,25.6z"/>
	<path fill="#AF882E" d="M15.4,25.6C15.4,25.7,15.4,25.6,15.4,25.6L15.4,25.6z"/>
	<path fill="#AF882E" d="M15.2,26.6C15.2,26.5,15.2,26.7,15.2,26.6L15.2,26.6z"/>
	<path fill="#AF882E" d="M27.1,26.5C27.2,26.5,27.1,26.3,27.1,26.5L27.1,26.5z"/>
	<path fill="#AF882E" d="M18.2,29.3c-0.1,0,0.2-0.1,0.1,0C18.3,29.3,18.3,29.3,18.2,29.3z"/>
	<path fill="#AF882E" d="M18.3,29.3c-0.1,0.1,0,0.1,0,0.2c0-0.4,0.5-0.4,0.8-0.4c0.5,0,0.9-0.2,1.2-0.6c0.4-0.4,0.8-2,1.5-1.4
		c0.4,0.4,0.6,1,1.1,1.3c0.3,0.2,0.7,0.1,1,0.3c1,0.5,2-0.2,2.6-0.9c1.4-1.5,1.1-3.7-0.8-4.6c-1-0.5-1.9-0.3-2.9,0.2
		c-0.4,0.2-1.3,1.3-1.3,1.6c0,0.3-0.1,0.9,0.1,1.2c0.1,0.1,0.3,0.3,0.3,0.5c-0.1,0.5-0.4-0.3-0.3-0.3c0,0-0.1,0.3-0.1,0.3
		c0,0,0-0.4,0-0.5c-0.1,0.2-0.1,0.4-0.4,0.5c0-0.6,0.1-1.4-0.4-1.9c-0.2-0.3-0.6-0.7-0.8-0.9c-1-1-2.8-0.5-3.7,0.4
		c0.2-0.2-0.2,0.3,0,0c-0.2,0.2-0.4,0.4-0.5,0.7c-0.3,0.5-0.4,1.1-0.3,1.7c0-0.1,0-0.2-0.1-0.2c0,0,0.1,0.3,0.1,0.2
		c-0.1,0.1-0.3,0-0.3,0.2c0.2,0,0.3,0.3,0,0.3c0.5-0.2,0.7,0.6,0.8,0.9c0.3,0.6,1.1,0.7,1.6,1.3C17.5,29,18.1,29.3,18.3,29.3
		C18.2,29.3,18.1,29.3,18.3,29.3z M27.2,25.7c0,0,0,0.1,0,0.2C27.2,25.8,27.2,25.7,27.2,25.7z M27.2,26C27.2,25.9,27.2,25.8,27.2,26
		L27.2,26z M27.2,26C27.2,26,27.2,25.9,27.2,26L27.2,26z M27.2,25.6c0.1,0,0-0.2,0-0.4C27.2,25.3,27.3,25.6,27.2,25.6z M27.1,25.9
		c0,0,0.1,0.6,0,0.6C27.1,26.3,27,26,27.1,25.9z M25.6,23.2C25.7,23.2,25.8,23.3,25.6,23.2L25.6,23.2z M25.1,28.4
		C25,28.4,25.1,28.4,25.1,28.4L25.1,28.4z M24.7,23.1c0,0,0,0.1,0,0.1C24.7,23.2,24.7,23.1,24.7,23.1z M24.8,28.5
		c-0.1,0.1-0.1,0.1-0.2,0.1C24.6,28.5,24.7,28.5,24.8,28.5z M24.1,23.5c-0.2,0.1-0.2,0-0.1-0.2C24.8,24.1,24,23.3,24.1,23.5z
		 M23.9,23c0.1-0.2,0.1,0,0.1,0.1C23.9,23.1,23.9,23.1,23.9,23C23.9,23,23.9,23,23.9,23z M23.8,23.1c0,0,0,0-0.1,0
		C23.8,23.1,23.8,23,23.8,23.1z M23.1,23.4c-0.1,0.1-0.3,0.1-0.3,0.2C22.8,23.5,22.9,23.3,23.1,23.4C23,23.4,23,23.3,23.1,23.4z
		 M22.8,23.4c-0.1,0-0.1,0.1-0.1,0.1C22.7,23.5,22.8,23.5,22.8,23.4z M20.9,26.2C20.9,26.2,20.9,26.2,20.9,26.2
		C20.9,26.2,20.9,26.2,20.9,26.2z M19.4,23.8c0,0-0.1,0-0.1,0C19.4,23.8,19.4,23.8,19.4,23.8z M19,23.6c0.3,0.1,0.2,0.1-0.2,0
		C18.9,23.6,18.9,23.6,19,23.6z M18.8,23.6c-0.1,0-0.3-0.1-0.4-0.1C18.5,23.5,18.7,23.5,18.8,23.6z M18.3,29.1
		C18.3,29.1,18.3,29.1,18.3,29.1C18.3,29.2,18.2,29.2,18.3,29.1z"/>
	<path fill="#AF882E" d="M23,23.4C23,23.4,23.1,23.4,23,23.4C23,23.4,23,23.4,23,23.4z"/>
	<path fill="#AF882E" d="M19,23.6C18.9,23.6,19,23.6,19,23.6L19,23.6z"/>
	<path fill="#AF882E" d="M21.5,26c0,0,0.1,0,0.1,0.1C21.6,26,21.6,25.8,21.5,26z"/>
	<path fill="#AF882E" d="M15.3,26.4C15.3,26.3,15.3,26.5,15.3,26.4L15.3,26.4z"/>
	<path fill="#AF882E" d="M15.4,27.4C15.4,27.4,15.4,27.4,15.4,27.4C15.3,27.4,15.5,27.5,15.4,27.4z"/>
	<path fill="#AF882E" d="M26,29C26,29.1,26,29.1,26,29C26,29,26,29,26,29z"/>
	<path fill="#AF882E" d="M25.5,29.8c0,0,0.1-0.2,0.1-0.2C25.6,29.5,25.6,29.5,25.5,29.8z"/>
	<path fill="#AF882E" d="M25.4,29.9C25.4,30,25.3,30,25.4,29.9L25.4,29.9z"/>
	<path fill="#AF882E" d="M25.3,30.1C25.3,30,25.2,30.2,25.3,30.1L25.3,30.1z"/>
	<path fill="#AF882E" d="M25.4,30.1C25.4,30,25.4,30,25.4,30.1C25.4,30,25.4,30,25.4,30.1z"/>
	<path fill="#AF882E" d="M25.2,30.4C25.1,30.6,25.2,30.5,25.2,30.4L25.2,30.4z"/>
	<path fill="#AF882E" d="M25.1,31C25.1,31,25.1,31,25.1,31C25.1,31.2,25.1,31.1,25.1,31z"/>
	<path fill="#AF882E" d="M25.1,30.9C25.1,30.8,25.1,31,25.1,30.9C25.1,30.9,25.1,30.7,25.1,30.9z"/>
	<path fill="#AF882E" d="M25.2,30.7C25.2,30.7,25.2,30.7,25.2,30.7C25.1,30.7,25.2,30.7,25.2,30.7z"/>
	<path fill="#AF882E" d="M25.3,30.4C25.3,30.4,25.3,30.5,25.3,30.4C25.3,30.4,25.3,30.5,25.3,30.4z"/>
	<path fill="#AF882E" d="M25.2,30.6C25.2,30.6,25.2,30.7,25.2,30.6L25.2,30.6z"/>
	<path fill="#AF882E" d="M25.1,31C25.2,31.3,25.1,30.9,25.1,31L25.1,31z"/>
	<path fill="#AF882E" d="M25.2,30.9C25.2,31.1,25.2,30.9,25.2,30.9L25.2,30.9z"/>
	<path fill="#AF882E" d="M25.1,30.9C25.1,30.8,25.2,31,25.1,30.9L25.1,30.9z"/>
	<path fill="#AF882E" d="M25.2,31.5c0,0,0-0.2,0-0.1C25.2,31.2,25.1,31.4,25.2,31.5z"/>
	<path fill="#AF882E" d="M25.2,31.1C25.2,31.1,25.2,31.1,25.2,31.1C25.2,31.1,25.2,31,25.2,31.1z"/>
	<path fill="#AF882E" d="M25.2,31.1C25.2,31.4,25.2,31.1,25.2,31.1L25.2,31.1z"/>
	<path fill="#AF882E" d="M25.3,30.6C25.3,30.6,25.3,30.4,25.3,30.6C25.2,30.6,25.3,30.6,25.3,30.6z"/>
	<path fill="#AF882E" d="M25.2,30.9C25.3,31,25.3,30.9,25.2,30.9L25.2,30.9z"/>
	<path fill="#AF882E" d="M25.1,31.5C25.1,31.6,25.1,31.4,25.1,31.5L25.1,31.5z"/>
	<path fill="#AF882E" d="M30.7,32.7C30.7,32.9,30.6,32.9,30.7,32.7L30.7,32.7z"/>
	<path fill="#AF882E" d="M30,28.9c-1.9-2-5,0.4-4.7,2.7c0-0.1,0-0.2-0.1-0.1c0,0,0.1,0.3,0.2,0.2c-0.5,0.1,0.1,0.4-0.3,0.5
		c1-0.3,0.9,1.8,1.7,1.9c0.2,0,0.6-0.2,0.7-0.1c0.3,0.3,0.6,0.3,1,0.2c1-0.2,1.9-0.9,2.2-1.5c0-0.1,0.1-0.2,0.1-0.3
		c0,0.1-0.1,0.1-0.1,0.2C31.5,31.2,31,29.9,30,28.9C29.4,28.2,31,29.9,30,28.9z M27.4,33.9c-0.1,0-0.1,0-0.2,0
		C27.3,33.9,27.5,33.8,27.4,33.9C27.3,33.9,27.4,33.8,27.4,33.9z M28.4,33.9C28.4,34,28.3,34,28.2,34C28.3,33.9,28.3,33.9,28.4,33.9
		z M28.8,33.9c-0.1,0-0.4,0.1-0.4,0.1C28.4,33.9,28.8,33.9,28.8,33.9z M28.8,33.9c0.1,0,0.1,0,0.2-0.1
		C28.9,33.8,28.8,33.9,28.8,33.9z M29.2,33.7c0,0-0.1,0,0.1-0.1C29.4,33.6,29.2,33.7,29.2,33.7z M30.9,31C30.9,31,30.9,31.1,30.9,31
		C30.9,31.1,30.9,31,30.9,31z M30.6,30C30.6,30,30.6,30.1,30.6,30L30.6,30z M30.7,30.1C30.6,30,30.7,30.2,30.7,30.1L30.7,30.1z
		 M30.8,31.3C30.8,31.3,30.9,31.3,30.8,31.3L30.8,31.3z"/>
	<path fill="#AF882E" d="M25.3,31.3C25.3,31.2,25.3,31.4,25.3,31.3L25.3,31.3z"/>
	<path fill="#AF882E" d="M25.4,32.3C25.4,32.3,25.3,32.3,25.4,32.3C25.3,32.3,25.4,32.4,25.4,32.3z"/>
	<path fill="#AF882E" d="M24.5,33.3c0.3-0.3,0-1,0.6-1.1c-0.4,0-0.3-0.7,0-0.7c0.2,0,0-0.5-0.1-0.6c-0.2-0.3-0.5-0.5-0.8-0.6
		c0.5-0.5-0.3-1-0.7-1.1c-0.7-0.3-1.4-0.5-2.1-0.2c-1.4,0.4-2.4,1.6-2.2,3.2c0-0.1,0-0.2-0.1-0.1c0,0.1,0.3,0.4,0.1,0.6
		c0.1-0.4-0.2-0.1-0.1,0.2c0.1,0.3,0.3,0.5,0.5,0.7c0.4,0.5,0.8,0.9,1.4,1.1C21.9,35.1,24,34.7,24.5,33.3
		C24.7,33,24.1,34.2,24.5,33.3z M24.6,31.9C24.6,31.9,24.6,31.9,24.6,31.9C24.6,31.8,24.6,31.9,24.6,31.9z M24.6,31.6
		C24.6,31.6,24.6,31.6,24.6,31.6C24.6,31.6,24.6,31.6,24.6,31.6z M24.5,32.4c-0.1,0.2-0.3,0.1-0.4,0C24.1,32.5,24.5,32.4,24.5,32.4z
		 M20.9,29.1c0,0,0.1,0,0.1,0C21,29.1,21,29.1,20.9,29.1z M21.4,29C21.5,29,21.2,29.2,21.4,29C21.2,29.2,21.3,28.9,21.4,29z
		 M21.4,29.5c-0.1,0-0.2,0-0.1-0.2C21.4,29.3,21.6,29.5,21.4,29.5z M22.1,29.1c0,0,0,0.1,0,0.1C22.1,29.2,22.1,29.1,22.1,29.1z
		 M21.9,34.6c0,0,0.1-0.1,0.2-0.1C22.1,34.6,21.9,34.6,21.9,34.6z M22.6,34.4c0.1,0,0.2-0.1,0.2-0.1C22.7,34.4,22.6,34.4,22.6,34.4z
		 M23,29.2C23,29.2,23.1,29.2,23,29.2C23.1,29.2,23,29.2,23,29.2z"/>
	<path fill="#AF882E" d="M24.5,33.3C24.6,33.2,24.6,33.1,24.5,33.3C24.2,34,24.5,33.4,24.5,33.3z"/>
	<path fill="#AF882E" d="M19.7,29.6C19.7,29.6,19.7,29.6,19.7,29.6C19.7,29.6,19.7,29.6,19.7,29.6z"/>
	<path fill="#AF882E" d="M19.4,30.1C19.5,30,19.4,30,19.4,30.1L19.4,30.1z"/>
	<path fill="#AF882E" d="M19.2,30.4c0,0,0.1-0.2,0.1-0.2C19.3,30,19.3,30.1,19.2,30.4z"/>
	<path fill="#AF882E" d="M19.1,30.5C19.1,30.5,19,30.6,19.1,30.5L19.1,30.5z"/>
	<path fill="#AF882E" d="M19,30.7C19,30.6,18.9,30.8,19,30.7L19,30.7z"/>
	<path fill="#AF882E" d="M19.1,30.6C19.1,30.5,19.1,30.5,19.1,30.6C19.1,30.6,19.1,30.6,19.1,30.6z"/>
	<path fill="#AF882E" d="M18.9,31C18.8,31.1,18.9,31,18.9,31L18.9,31z"/>
	<path fill="#AF882E" d="M18.8,31.3C18.9,31.4,18.7,31.2,18.8,31.3L18.8,31.3z"/>
	<path fill="#AF882E" d="M18.8,31.5C18.7,31.4,18.8,31.5,18.8,31.5L18.8,31.5z"/>
	<path fill="#AF882E" d="M18.8,31.6C18.8,31.6,18.8,31.6,18.8,31.6C18.8,31.8,18.8,31.6,18.8,31.6z"/>
	<path fill="#AF882E" d="M18.9,31.3C18.9,31.3,18.9,31.4,18.9,31.3L18.9,31.3z"/>
	<path fill="#AF882E" d="M19,31C19,31,19,31.1,19,31C19,31,19,31,19,31z"/>
	<path fill="#AF882E" d="M18.9,31.1C18.9,31.2,18.9,31.2,18.9,31.1L18.9,31.1z"/>
	<path fill="#AF882E" d="M18.8,31.6C18.9,31.8,18.8,31.5,18.8,31.6L18.8,31.6z"/>
	<path fill="#AF882E" d="M18.9,31.5C18.9,31.6,18.9,31.5,18.9,31.5L18.9,31.5z"/>
	<path fill="#AF882E" d="M18.9,31.4C18.8,31.4,18.9,31.5,18.9,31.4L18.9,31.4z"/>
	<path fill="#AF882E" d="M18.9,31.9c0-0.1-0.1,0.1,0,0.1C18.9,32,18.9,31.8,18.9,31.9z"/>
	<path fill="#AF882E" d="M18.9,31.9c0,0,0-0.1,0-0.1C18.8,31.6,18.8,31.6,18.9,31.9z"/>
	<path fill="#AF882E" d="M18.9,31.8C18.9,31.8,18.9,31.8,18.9,31.8C18.9,31.6,18.9,31.7,18.9,31.8z"/>
	<path fill="#AF882E" d="M18.9,31.7C18.9,31.6,18.9,31.6,18.9,31.7C18.9,31.7,18.9,31.7,18.9,31.7z"/>
	<path fill="#AF882E" d="M19,31.1C19,31.1,19.1,31,19,31.1C18.9,31.2,19,31.2,19,31.1z"/>
	<path fill="#AF882E" d="M18.9,31.4C19,31.6,19,31.5,18.9,31.4L18.9,31.4z"/>
	<path fill="#AF882E" d="M19,31.9C19,31.8,19,31.9,19,31.9L19,31.9z"/>
	<path fill="#AF882E" d="M23.4,35.1C23.4,35.1,23.4,35,23.4,35.1C23.3,35.1,23.4,35.1,23.4,35.1z"/>
	<path fill="#AF882E" d="M23.1,35.5C23.1,35.4,23,35.6,23.1,35.5L23.1,35.5z"/>
	<path fill="#AF882E" d="M22.9,35.8c0,0,0.1-0.2,0.1-0.2C23,35.5,23,35.6,22.9,35.8z"/>
	<path fill="#AF882E" d="M22.7,35.9C22.7,36,22.7,36.1,22.7,35.9L22.7,35.9z"/>
	<path fill="#AF882E" d="M22.6,36.1C22.6,36,22.6,36.2,22.6,36.1L22.6,36.1z"/>
	<path fill="#AF882E" d="M22.7,36.1C22.7,36.1,22.7,36,22.7,36.1C22.8,36,22.7,36,22.7,36.1z"/>
	<path fill="#AF882E" d="M22.6,36.4C22.5,36.6,22.6,36.5,22.6,36.4L22.6,36.4z"/>
	<path fill="#AF882E" d="M22.5,36.9C22.4,36.8,22.5,37,22.5,36.9L22.5,36.9z"/>
	<path fill="#AF882E" d="M22.5,37C22.5,37,22.5,37,22.5,37C22.5,37.2,22.5,37.1,22.5,37z"/>
	<path fill="#AF882E" d="M22.5,36.7C22.5,36.8,22.5,36.7,22.5,36.7L22.5,36.7z"/>
	<path fill="#AF882E" d="M22.6,36.4C22.6,36.4,22.6,36.5,22.6,36.4C22.7,36.4,22.6,36.5,22.6,36.4z"/>
	<path fill="#AF882E" d="M22.6,36.6C22.6,36.6,22.6,36.7,22.6,36.6L22.6,36.6z"/>
	<path fill="#AF882E" d="M22.5,37C22.6,37.3,22.5,36.9,22.5,37L22.5,37z"/>
	<path fill="#AF882E" d="M22.5,36.9C22.5,37.1,22.5,36.9,22.5,36.9L22.5,36.9z"/>
	<path fill="#AF882E" d="M22.5,36.9C22.5,36.8,22.5,37,22.5,36.9L22.5,36.9z"/>
	<path fill="#AF882E" d="M22.5,37.5c0,0,0-0.2,0-0.1C22.5,37.2,22.5,37.4,22.5,37.5z"/>
	<path fill="#AF882E" d="M22.6,37.2C22.6,37.2,22.6,37.2,22.6,37.2C22.6,37,22.6,37.2,22.6,37.2z"/>
	<path fill="#AF882E" d="M22.5,37.1C22.5,37.2,22.5,37.5,22.5,37.1C22.5,37.2,22.5,37.2,22.5,37.1z"/>
	<path fill="#AF882E" d="M22.7,36.5C22.7,36.6,22.7,36.4,22.7,36.5L22.7,36.5z"/>
	<path fill="#AF882E" d="M22.7,36.5c0-0.1-0.1,0.1-0.1,0.1C22.8,36.6,22.7,36.5,22.7,36.5z"/>
	<path fill="#AF882E" d="M22.6,36.9C22.7,37,22.5,36.9,22.6,36.9L22.6,36.9z"/>
	<path fill="#AF882E" d="M24.9,40.1c0,0-0.1,0-0.1,0C24.9,40.1,24.9,40.1,24.9,40.1z"/>
	<path fill="#AF882E" d="M22.7,38.2C22.7,38.2,22.7,38.3,22.7,38.2L22.7,38.2z"/>
	<path fill="#AF882E" d="M28.2,37.4C28.2,37.3,28.2,37.3,28.2,37.4C28.2,37.4,28.2,37.4,28.2,37.4z"/>
	<path fill="#AF882E" d="M24.4,39.9C24.6,39.9,24.5,39.9,24.4,39.9L24.4,39.9z"/>
	<path fill="#AF882E" d="M24.1,39.8C24.2,39.8,24.4,39.9,24.1,39.8L24.1,39.8z"/>
	<path fill="#AF882E" d="M28.1,37.8c0,0,0,0.1,0.1,0.1C28.2,37.9,28.1,37.8,28.1,37.8z"/>
	<path fill="#AF882E" d="M27.8,39c1.2-1.5,0.8-3.4-0.9-4.4c-0.8-0.4-1.6-0.6-2.4-0.3c-0.1,0.1-1.1,0.7-0.9,0.7
		c-0.6,0.5-1,1.3-0.9,2.1c0,0.4,0.4,0.6,0.4,1c-0.4,0,0.1,0.8,0.2,0.9c0.1,0.2,0.3,0.4,0.5,0.6c0.1,0.1,0.5,0.2,0.2,0.2
		c0.1,0,0.2,0,0.3,0.1c0,0,0,0-0.1,0c0.2,0.1,0.4,0.1,0.5-0.1c0,0,0,0.1,0,0.1c0,0.1-0.1,0.1-0.2,0.1c0.6,0.1,0.8,0.4,1.5,0.2
		C26.7,39.9,27.4,39.6,27.8,39C28.8,37.9,27.4,39.5,27.8,39z M28.2,37.4c0,0-0.1-0.1,0-0.2C28.3,37.2,28.3,37.3,28.2,37.4z
		 M28.2,36.6c0,0.1,0.1,0.2,0.1,0.3C28.2,36.7,28.1,36.8,28.2,36.6z M28.1,37.8c0-0.2,0-0.3,0.1-0.5c0,0.2,0,0.4,0,0.6
		C28,37.9,28,37.9,28.1,37.8C28.1,37.7,28,37.8,28.1,37.8z M24.5,34.6C24.5,34.6,24.7,34.6,24.5,34.6L24.5,34.6z M26.5,39.7
		C26.7,39.7,26.5,39.8,26.5,39.7L26.5,39.7z M25.6,40c0-0.1,0.1-0.2,0.2-0.2C25.8,40,25.7,40,25.6,40C25.6,40,25.7,40,25.6,40z
		 M26.2,39.9c-0.1,0-0.4,0.1-0.4,0.1C25.8,39.9,26.1,39.9,26.2,39.9z M26.4,39.8c-0.1,0-0.2,0.1-0.2,0.1
		C26.2,39.9,26.3,39.8,26.4,39.8z"/>
	<path fill="#AF882E" d="M22.5,37.5c0,0,0.1,0,0.1,0.1C22.6,37.5,22.6,37.3,22.5,37.5z"/>
	<path fill="#AF882E" d="M22.9,38.1C23,38.2,22.8,38,22.9,38.1L22.9,38.1z"/>
	<path fill="#AF882E" d="M24.4,39.9C24.2,39.9,24.3,39.9,24.4,39.9L24.4,39.9z"/>
	<path fill="#AF882E" d="M22.7,37.9c0-0.1-0.1-0.2-0.1-0.2c-0.1,0.1,0,0.4,0.1,0.4C22.7,38,22.7,38,22.7,37.9
		C22.6,37.9,22.7,38,22.7,37.9z"/>
	<path fill="#AF882E" d="M22.7,37.3C22.6,37.2,22.6,37.4,22.7,37.3L22.7,37.3z"/>
	<path fill="#AF882E" d="M22.6,37.8C22.7,37.8,22.5,37.6,22.6,37.8L22.6,37.8z"/>
	<path fill="#AF882E" d="M22.7,38.3C22.7,38.3,22.7,38.3,22.7,38.3C22.7,38.3,22.8,38.4,22.7,38.3z"/>
	<path fill="#AF882E" d="M15.5,15.9C15.5,15.9,15.4,15.9,15.5,15.9C15.5,15.9,15.5,15.9,15.5,15.9z"/>
	<path fill="#AF882E" d="M13.8,9.5C13.8,9.6,13.9,9.5,13.8,9.5L13.8,9.5z"/>
	<path fill="#AF882E" d="M10.4,10.1c1.2,0.9,2.1,2.2,3.1,3.4c1.1,1.3,1.9,2.8,3.7,3.1c0.7,0.1,4.1,0.4,3.2-1.1
		c-0.4-0.6-0.8-1.3-1.3-1.8c-0.2-0.2-0.5-0.5-0.8-0.7c0,0-0.5-0.4-0.3-0.2c0,0-0.5-0.2-0.2-0.1c-0.5-0.3-1-0.5-1.5-0.6
		c1.1,0.2,2.3,0.5,3.3,1.2c0.5,0.4,0.9,0.9,1.2,1.4c0,0.1,0.4,0.7,0.4,0.3c0,0.1,0.1,0.1,0.1,0.2c0.1,0,0-0.9,0-1
		c-0.1-0.9-0.3-1.8-0.6-2.6c0,0.4-0.2,0-0.2-0.1c-0.1-0.3-0.4-0.6-0.7-0.9c0,0,0.4,0.3,0.1,0c0.3,0.2-0.2-0.2-0.2-0.2
		c-0.3-0.2-0.7-0.3-1.1-0.5c0.1,0.2-0.2,0.8-0.5,0.7c-0.4-0.1-0.1-0.8-0.4-1c0.3-0.2,0.6,0.1,0.8,0.2c-0.2,0,0.3,0.1,0.4,0.1
		c-0.7-0.8-2.2-0.8-3.2-0.8c-0.8,0-1.7,0.1-2.5,0.3c-0.2,0-0.6,0-0.7,0.2c0,0,0.1,0,0.1,0C12.1,9.5,10.9,10.4,10.4,10.1
		C11.1,10.6,10.7,10.3,10.4,10.1z M19.1,16.2C19.1,16.2,19,16.2,19.1,16.2C19,16.2,19.1,16.2,19.1,16.2z M18.5,16.3
		C18.6,16.3,18.5,16.3,18.5,16.3C18.4,16.3,18.5,16.3,18.5,16.3z M18,12.9c0,0,0,0-0.1-0.1C17.9,12.8,17.9,12.9,18,12.9z M19,12.5
		C19,12.5,19,12.5,19,12.5C19,12.5,19,12.5,19,12.5z M18.8,12.4C18.7,12.3,18.8,12.4,18.8,12.4L18.8,12.4z M18.5,12.3
		c0,0-0.2-0.1-0.1-0.1C18.4,12.2,18.5,12.2,18.5,12.3z M16.5,16.1c-0.1,0-0.1,0-0.2,0C16.4,16.1,16.6,16.1,16.5,16.1z M17.2,16.3
		C17.2,16.3,17.3,16.4,17.2,16.3C17.3,16.4,17.2,16.3,17.2,16.3z M17.2,12.5C17.2,12.5,17.1,12.5,17.2,12.5L17.2,12.5z M17.2,16.3
		c0,0-0.3,0-0.2,0C17.1,16.2,17.2,16.2,17.2,16.3z M16.7,12.3c0,0-0.1-0.1-0.2-0.1C16.6,12.2,16.8,12.3,16.7,12.3z M17.1,11.9
		C17.1,11.9,17,11.8,17.1,11.9L17.1,11.9z M16.4,11.8C16.4,11.8,16.1,11.8,16.4,11.8L16.4,11.8z M16.1,11.8
		C16.3,11.8,16.1,11.8,16.1,11.8L16.1,11.8z M16.3,16c0.1,0,0.2,0.1,0.3,0.1c-0.2-0.1-0.3-0.1-0.5-0.2C16.2,15.9,16.2,15.9,16.3,16
		C16.4,16,16.2,15.9,16.3,16z M15.9,11.8C15.9,11.8,15.9,11.8,15.9,11.8C15.8,11.8,15.8,11.7,15.9,11.8z M15.8,11.8
		C15.8,11.8,15.8,11.8,15.8,11.8C15.8,11.8,15.8,11.8,15.8,11.8z M14.3,9.4c0.2,0,0.3,0,0.5,0C14.9,9.5,14,9.5,14.3,9.4z M13.8,9.5
		c0.1,0,0.2,0,0.3-0.1c-0.1,0.1-0.3,0.1-0.4,0.1C13.8,9.6,13.8,9.6,13.8,9.5C13.8,9.5,13.8,9.6,13.8,9.5z M13.6,9.4
		C13.6,9.4,13.6,9.4,13.6,9.4C13.6,9.5,13.6,9.5,13.6,9.4z M13.6,9.4c0,0.1-0.1,0.1-0.2,0C13.5,9.5,13.5,9.5,13.6,9.4z M12.8,12.1
		C12.7,12,12.6,12,12.6,12C12.6,12,12.7,12,12.8,12.1z M11.7,11C11.6,11,11.7,11,11.7,11L11.7,11z"/>
	<path fill="#AF882E" d="M21.5,15.2C21.5,15.3,21.5,15.3,21.5,15.2C21.5,15.2,21.5,15.2,21.5,15.2z"/>
	<path fill="#AF882E" d="M21.4,14.1c0,0,0,0.2,0,0.1C21.5,14.2,21.5,14.1,21.4,14.1z"/>
	<path fill="#AF882E" d="M21.4,13.8c0.2,0.3-0.1-0.5-0.1-0.5C21.4,13.4,21.4,13.6,21.4,13.8z"/>
	<path fill="#AF882E" d="M21.3,12.9c0,0,0-0.1,0-0.1C21.3,12.8,21.3,12.9,21.3,12.9z"/>
	<path fill="#AF882E" d="M21.3,12.8C21.3,12.7,21.3,12.9,21.3,12.8L21.3,12.8z"/>
	<path fill="#AF882E" d="M21.1,12.4c-0.1-0.1,0.1,0.2,0.1,0.1C21.3,12.4,21.2,12.4,21.1,12.4z"/>
	<path fill="#AF882E" d="M21.2,12.6C21.3,12.9,21.3,12.8,21.2,12.6C21.2,12.6,21.3,12.7,21.2,12.6z"/>
	<path fill="#AF882E" d="M20.9,11.6c0,0,0.1,0.1,0.1,0.1C20.9,11.7,20.9,11.7,20.9,11.6z"/>
	<path fill="#AF882E" d="M20.9,11.7l-0.1-0.1C20.8,11.7,20.8,11.7,20.9,11.7z"/>
	<path fill="#AF882E" d="M21.2,12.5c0,0-0.1-0.1-0.1-0.2C21.1,12.4,21.1,12.4,21.2,12.5z"/>
	<path fill="#AF882E" d="M21.1,12.3C21.1,12.3,21.1,12.3,21.1,12.3C21,12.3,21,12.3,21.1,12.3z"/>
	<path fill="#AF882E" d="M20.6,11.2C20.4,11.1,20.8,11.3,20.6,11.2L20.6,11.2z"/>
	<path fill="#AF882E" d="M20.1,10.6c0.1,0.1,0.1,0.2,0.2,0.2C20.4,10.8,20.3,10.7,20.1,10.6z"/>
	<path fill="#AF882E" d="M20.6,11.3C20.6,11.3,20.6,11.3,20.6,11.3C20.6,11.3,20.7,11.3,20.6,11.3z"/>
	<path fill="#AF882E" d="M20.8,11.9C20.9,11.9,20.9,11.8,20.8,11.9C20.9,11.9,20.8,11.7,20.8,11.9z"/>
	<path fill="#AF882E" d="M20.7,11.5c0,0,0,0.1,0.1,0.1C20.7,11.6,20.7,11.5,20.7,11.5z"/>
	<path fill="#AF882E" d="M20.2,10.8C20,10.6,20.3,10.9,20.2,10.8L20.2,10.8z"/>
	<path fill="#AF882E" d="M20,10.6c0,0,0.1,0.1,0.1,0.1C20.1,10.7,20,10.6,20,10.6z"/>
	<path fill="#AF882E" d="M20.2,10.9c0,0,0.1,0.1,0.1,0.1C20.2,10.9,20.2,10.8,20.2,10.9z"/>
	<path fill="#AF882E" d="M20.2,10.9c0,0,0,0.1,0.1,0.1C20.4,11.1,20.4,11.1,20.2,10.9z"/>
	<path fill="#AF882E" d="M18.8,9.9C18.8,9.8,18.8,9.9,18.8,9.9L18.8,9.9z"/>
	<path fill="#AF882E" d="M18.9,9.9C18.9,9.9,18.9,9.9,18.9,9.9C19,9.9,18.9,9.9,18.9,9.9z"/>
	<path fill="#AF882E" d="M18.1,9.6C18.1,9.6,18.1,9.6,18.1,9.6C18.2,9.6,18.2,9.7,18.1,9.6z"/>
	<path fill="#AF882E" d="M18.1,9.6c-0.1,0-0.1,0-0.1,0C18,9.6,18.1,9.6,18.1,9.6z"/>
	<path fill="#AF882E" d="M18.4,9.7c0.1,0,0.1,0,0.1,0.1C18.5,9.8,18.4,9.7,18.4,9.7z"/>
	<path fill="#AF882E" d="M21.2,15.2C21.4,15.3,21.2,15.2,21.2,15.2L21.2,15.2z"/>
	<path fill="#AF882E" d="M25.7,9.2C25.7,9.3,25.7,9.3,25.7,9.2C25.7,9.2,25.7,9.2,25.7,9.2z"/>
	<path fill="#AF882E" d="M26.1,8.5c0-0.1,0-0.3-0.1-0.4C26,8.2,26.1,8.4,26.1,8.5z"/>
	<path fill="#AF882E" d="M26,7.8C26,7.8,25.9,7.7,26,7.8L26,7.8z"/>
	<path fill="#AF882E" d="M26,7.8C26,7.9,26,7.8,26,7.8L26,7.8z"/>
	<path fill="#AF882E" d="M25.8,7.6C26,7.6,25.8,7.5,25.8,7.6L25.8,7.6z"/>
	<path fill="#AF882E" d="M25.8,7.6C25.9,7.6,25.7,7.6,25.8,7.6L25.8,7.6z"/>
	<path fill="#AF882E" d="M25.9,7.7C25.9,7.7,25.9,7.8,25.9,7.7C26,7.8,26,7.8,25.9,7.7z"/>
	<path fill="#AF882E" d="M26,8.1C26,8.1,26,8.3,26,8.1L26,8.1z"/>
	<path fill="#AF882E" d="M25.3,7.3C25.3,7.4,25.2,7.3,25.3,7.3C25.4,7.4,25.4,7.2,25.3,7.3z"/>
	<path fill="#AF882E" d="M25.3,7.3C25.3,7.3,25.4,7.4,25.3,7.3L25.3,7.3z"/>
	<path fill="#AF882E" d="M25.8,7.7c0,0-0.1-0.1-0.1-0.1C25.6,7.5,25.8,7.7,25.8,7.7z"/>
	<path fill="#AF882E" d="M25,7.3C24.8,7.3,25.1,7.1,25,7.3L25,7.3z"/>
	<path fill="#AF882E" d="M24.7,7.3C25,6.9,24,7.6,24.9,7.2C24.8,7.3,24.8,7.3,24.7,7.3z"/>
	<path fill="#AF882E" d="M25,7.3C25.1,7.3,25.2,7.3,25,7.3L25,7.3z"/>
	<path fill="#AF882E" d="M25.4,7.5C25.5,7.4,25.4,7.4,25.4,7.5C25.4,7.4,25.3,7.4,25.4,7.5z"/>
	<path fill="#AF882E" d="M25.2,7.4C25.2,7.3,25.1,7.3,25.2,7.4L25.2,7.4z"/>
	<path fill="#AF882E" d="M25.1,7.3C25.2,7.3,25.1,7.3,25.1,7.3L25.1,7.3z"/>
	<path fill="#AF882E" d="M24.5,7.4C24.5,7.4,24.5,7.4,24.5,7.4C24.5,7.4,24.5,7.4,24.5,7.4z"/>
	<path fill="#AF882E" d="M24.6,7.4C24.4,7.5,24.7,7.3,24.6,7.4L24.6,7.4z"/>
	<path fill="#AF882E" d="M24.8,7.3C24.5,7.4,24.7,7.3,24.8,7.3L24.8,7.3z"/>
	<path fill="#AF882E" d="M24.8,7.3C24.6,7.4,24.9,7.3,24.8,7.3L24.8,7.3z"/>
	<path fill="#AF882E" d="M24.1,7.7c0,0,0.2-0.2,0.1-0.1C24.4,7.6,24.1,7.7,24.1,7.7z"/>
	<path fill="#AF882E" d="M24.5,7.4c-0.1,0-0.1,0.1-0.2,0.1C24.5,7.5,24.4,7.5,24.5,7.4z"/>
	<path fill="#AF882E" d="M25.3,7.4c0,0-0.1-0.1-0.2-0.1C25.2,7.4,25.4,7.5,25.3,7.4z"/>
	<path fill="#AF882E" d="M22.1,12.9C22.1,12.9,22.1,12.9,22.1,12.9C22.1,12.6,22.1,12.8,22.1,12.9z"/>
	<path fill="#AF882E" d="M22.1,12.9c0,0.6-0.3,1.3,0,1.9c0.1,0.7,0.2,1.3,0.3,1.9c0.1,1.2,1.9,1.3,2.1,0.1c0.1-0.4,0-0.8-0.2-1.2
		c-0.3-0.5-0.1-1.3-0.1-1.9c0-0.7,0-1.3,0.1-1.9c0-0.2,0.3-0.7,0.2-0.9c-0.1,0-0.1,0-0.1,0.1c0.2-0.3,0.5-0.6,0.6-0.9
		c0,0-0.2,0.2-0.2,0.3c0,0,0.5-0.6,0.3-0.5c0.3-0.6,1.3-1.5,0.8-2.2c-0.7-1-1.7,0.1-2.2,0.8c0.1-0.1,0.2-0.3,0.3-0.4
		c-0.3,0.2,0-0.2,0.1-0.2c-0.5,0.1-0.8,1-0.9,1.4c-0.1,0.2-0.1,0.5-0.2,0.7c-0.1,0.2-0.6,0.7-0.3,0.3c-0.3,0.9-0.3,1.8-0.4,2.7
		C22.1,13,22.1,13,22.1,12.9C22,13.6,22.1,13.1,22.1,12.9z M24.3,11c0,0.1-0.1,0.2-0.1,0.3C24.4,10.6,24.2,11.1,24.3,11z M24.3,11.2
		c-0.1,0.3-0.2,0.6-0.2,0.9C24.1,11.7,24.2,11.5,24.3,11.2z M24.1,12c0,0,0,0,0,0.1C24.1,12.1,24.1,12.1,24.1,12z M24.2,16.9
		c0,0.1-0.2,0.3-0.2,0.3C24,17.2,24.1,17.1,24.2,16.9z M24,17.3c0,0.2-0.1,0-0.1,0.1C23.9,17.4,23.9,17.3,24,17.3z M23.6,17.5
		c0.1,0,0.2-0.1,0.2-0.1C23.7,17.5,23.6,17.5,23.6,17.5z M23.7,17.4c0,0.2-0.6,0.1-0.7,0.1C23.2,17.5,23.5,17.6,23.7,17.4z
		 M22.7,17.1c0.1,0.1,0.1,0.2,0.1,0.2C22.8,17.3,22.7,17.2,22.7,17.1z M22.7,17c0,0.1,0,0.1,0,0.2C22.7,17.1,22.6,17,22.7,17z
		 M22.5,16.5c0-0.1,0-0.2-0.1-0.3C22.5,16.3,22.5,16.4,22.5,16.5z M22.3,13.3c-0.1-0.1-0.1-0.2-0.1-0.2
		C22.2,13.1,22.2,13.2,22.3,13.3z M22.2,14.3C22.2,14.2,22.3,14.5,22.2,14.3L22.2,14.3z"/>
	<path fill="#AF882E" d="M23.7,17.4C23.5,17.6,23.7,17.4,23.7,17.4L23.7,17.4z"/>
	<path fill="#AF882E" d="M23.9,8C23.8,8.1,23.8,8.1,23.9,8C23.9,8.1,23.9,8.1,23.9,8z"/>
	<path fill="#AF882E" d="M23.9,8C23.9,8,24,8,23.9,8C24,8,24,8,23.9,8z"/>
	<path fill="#AF882E" d="M25.6,9.3C25.7,9.2,25.6,9.3,25.6,9.3L25.6,9.3z"/>
</g>
</svg>
